<?xml version="1.0" encoding="UTF-8" standalone="no"?>
<!DOCTYPE svg PUBLIC "-//W3C//DTD SVG 1.1//EN" "http://www.w3.org/Graphics/SVG/1.1/DTD/svg11.dtd">
<!-- Generated by Microsoft Visio, SVG Export icon_qgis.svg Page-1 -->
<svg xmlns="http://www.w3.org/2000/svg" xmlns:xlink="http://www.w3.org/1999/xlink" xmlns:ev="http://www.w3.org/2001/xml-events"
		xmlns:v="http://schemas.microsoft.com/visio/2003/SVGExtensions/" width="5.5857in" height="1.68039in"
		viewBox="0 0 402.171 120.988" xml:space="preserve" color-interpolation-filters="sRGB" class="st9">
	<v:documentProperties v:langID="2057" v:metric="true" v:viewMarkup="false"/>

	<style type="text/css">
	<![CDATA[
		.st1 {fill:#ee7913;stroke:none;stroke-linecap:butt;stroke-width:0.8}
		.st2 {fill:url(#grad0-7);stroke:none;stroke-linecap:butt;stroke-width:0.8}
		.st3 {fill:url(#grad0-11);stroke:none;stroke-linecap:butt;stroke-width:0.8}
		.st4 {fill:url(#grad0-15);stroke:none;stroke-linecap:butt;stroke-width:0.8}
		.st5 {fill:url(#grad0-19);stroke:none;stroke-linecap:butt;stroke-width:0.8}
		.st6 {fill:#f0e64a;stroke:none;stroke-linecap:butt;stroke-width:0.8}
		.st7 {fill:url(#grad0-25);stroke:none;stroke-linecap:butt;stroke-width:0.8}
		.st8 {fill:#ffffff;fill-opacity:0.17;stroke:none;stroke-linecap:butt;stroke-width:0.8}
		.st9 {fill:none;fill-rule:evenodd;font-size:12px;overflow:visible;stroke-linecap:square;stroke-miterlimit:3}
	]]>
	</style>

	<defs id="Patterns_And_Gradients">
		<linearGradient id="grad0-7" x1="0" y1="0" x2="1" y2="0" gradientTransform="rotate(-90.935808159022 0.5 0.5)">
			<stop offset="0" stop-color="#589632" stop-opacity="1"/>
			<stop offset="1" stop-color="#93b023" stop-opacity="1"/>
		</linearGradient>
		<linearGradient id="grad0-11" x1="0" y1="0" x2="1" y2="0" gradientTransform="rotate(-93.855175064558 0.5 0.5)">
			<stop offset="0" stop-color="#589632" stop-opacity="1"/>
			<stop offset="1" stop-color="#93b023" stop-opacity="1"/>
		</linearGradient>
		<linearGradient id="grad0-15" x1="0" y1="0" x2="1" y2="0" gradientTransform="rotate(-91.062323452325 0.5 0.5)">
			<stop offset="0" stop-color="#589632" stop-opacity="1"/>
			<stop offset="1" stop-color="#93b023" stop-opacity="1"/>
		</linearGradient>
		<linearGradient id="grad0-19" x1="0" y1="0" x2="1" y2="0" gradientTransform="rotate(-90.856865262511 0.5 0.5)">
			<stop offset="0" stop-color="#589632" stop-opacity="1"/>
			<stop offset="1" stop-color="#93b023" stop-opacity="1"/>
		</linearGradient>
		<linearGradient id="grad0-25" x1="0" y1="0" x2="1" y2="0" gradientTransform="rotate(-90.821901014321 0.5 0.5)">
			<stop offset="0" stop-color="#589632" stop-opacity="1"/>
			<stop offset="1" stop-color="#93b023" stop-opacity="1"/>
		</linearGradient>
	</defs>
	<g v:mID="0" v:index="1" v:groupContext="foregroundPage">
		<title>Page-1</title>
		<v:pageProperties v:drawingScale="0.0393701" v:pageScale="0.0393701" v:drawingUnits="24" v:shadowOffsetX="9"
				v:shadowOffsetY="-9"/>
		<g id="group229-1" transform="translate(0.8,-0.8)" v:mID="229" v:groupContext="group">
			<title>icon_qgis</title>
			<g id="shape230-2" v:mID="230" v:groupContext="shape" transform="translate(52.0576,-36.504)">
				<title>polygon3</title>
				<path d="M32.41 103.09 L17.84 88.69 L0 88.69 L0 105.84 L15.2 120.99 L15.2 103.09 L32.41 103.09 Z" class="st1"/>
			</g>
			<g id="shape231-4" v:mID="231" v:groupContext="shape" transform="translate(136.461,-3.3032)">
				<title>path10</title>
				<path d="M106.19 62.8 L106.19 106.28 C94.23 115.01 75.97 120.99 60.29 120.99 C26.02 120.99 0 96.1 0 63.28 C0 30.63
							 26.51 5.9 61.75 5.9 C78.56 5.9 95.69 12.37 107.16 22.39 L92.78 40.66 C84.37 32.9 72.74 28.05 61.75 28.05
							 C41.7 28.05 26.18 43.4 26.18 63.28 C26.18 83.33 41.86 98.68 61.91 98.68 C68.69 98.68 76.78 96.26 84.05
							 92.54 L84.05 62.8 L106.19 62.8 L106.19 62.8 Z" class="st2"/>
			</g>
			<g id="shape232-8" v:mID="232" v:groupContext="shape" transform="translate(264.961,-4.4352)">
				<title>path17</title>
				<rect x="0" y="7.844" width="25.5376" height="113.144" class="st3"/>
			</g>
			<g id="shape233-12" v:mID="233" v:groupContext="shape" transform="translate(306.338,-3.6272)">
				<title>path24</title>
				<path d="M93.58 18.19 L83.73 39.36 C71.76 32.25 57.54 27.72 48.49 27.72 C39.92 27.72 34.1 30.8 34.1 36.94 C34.1 57.79
							 94.39 46.15 94.23 86.88 C94.23 109.03 75 120.99 49.94 120.99 C31.36 120.99 12.77 113.88 0 103.05 L10.18
							 82.2 C21.82 92.54 38.31 99.17 50.27 99.17 C60.77 99.17 67.08 95.29 67.08 88.34 C67.08 67 6.79 79.45
							 6.79 39.36 C6.79 18.84 24.41 5.9 50.59 5.9 C66.43 5.9 82.27 10.75 93.58 18.19 Z" class="st4"/>
			</g>
			<g id="shape234-16" v:mID="234" v:groupContext="shape" transform="translate(74.4576,-8E-07)">
				<title>polygon31</title>
				<path d="M17.29 73.79 L0 73.79 L0 91.66 L29.43 120.99 L48 120.99 L48 104.14 L17.29 73.79 Z" class="st5"/>
			</g>
			<g id="shape235-20" v:mID="235" v:groupContext="shape" transform="translate(67.2576,-29.328)">
				<title>polygon33</title>
				<path d="M24.49 103.12 L17.21 95.92 L0 95.92 L0 113.81 L7.2 120.99 L7.2 103.12 L24.49 103.12 Z" class="st6"/>
			</g>
			<g id="shape236-22" v:mID="236" v:groupContext="shape" transform="translate(-1.27098E-12,-3.7704)">
				<title>path40</title>
				<path d="M69.7 99.85 C67.09 100.45 64.38 100.78 61.58 100.78 C41.58 100.78 24.57 84.33 24.57 63 C24.57 41.67 41.39
							 25.58 61.58 25.58 C81.78 25.58 97.85 41.67 97.85 63 C97.85 66.47 97.42 69.8 96.62 72.97 L115.14 91.48
							 C119.91 83.11 122.58 73.39 122.58 62.86 C122.58 29.98 96.35 5.37 61.21 5.37 C26.23 5.37 0 29.82 0 62.86
							 C0 96.05 26.23 120.99 61.21 120.99 C70.24 120.99 78.68 119.33 86.24 116.3 L69.7 99.85 Z" class="st7"/>
			</g>
			<g id="shape237-26" v:mID="237" v:groupContext="shape" transform="translate(52.0576,-2.55795E-13)">
				<title>polygon4174</title>
				<path d="M0 52.19 L70.4 120.99 L70.4 104.14 L39.69 73.79 L32.41 66.59 L17.85 52.19 L0 52.19 Z" class="st8"/>
			</g>
		</g>
	</g>
</svg>
