<?xml version="1.0" encoding="UTF-8" standalone="no"?>
<!-- Created with Inkscape (http://www.inkscape.org/) -->

<svg
   xmlns:dc="http://purl.org/dc/elements/1.1/"
   xmlns:cc="http://creativecommons.org/ns#"
   xmlns:rdf="http://www.w3.org/1999/02/22-rdf-syntax-ns#"
   xmlns:svg="http://www.w3.org/2000/svg"
   xmlns="http://www.w3.org/2000/svg"
   xmlns:sodipodi="http://sodipodi.sourceforge.net/DTD/sodipodi-0.dtd"
   xmlns:inkscape="http://www.inkscape.org/namespaces/inkscape"
   width="58.986763mm"
   height="25mm"
   viewBox="0 0 58.986763 25"
   version="1.1"
   id="svg2060"
   inkscape:version="0.92.4 (5da689c313, 2019-01-14)"
   sodipodi:docname="icon_CPMS.svg">
  <defs
     id="defs2054" />
  <sodipodi:namedview
     id="base"
     pagecolor="#ffffff"
     bordercolor="#666666"
     borderopacity="1.0"
     inkscape:pageopacity="0.0"
     inkscape:pageshadow="2"
     inkscape:zoom="0.35"
     inkscape:cx="-564.24325"
     inkscape:cy="-129.89876"
     inkscape:document-units="mm"
     inkscape:current-layer="layer1"
     showgrid="false"
     inkscape:window-width="3440"
     inkscape:window-height="1377"
     inkscape:window-x="-8"
     inkscape:window-y="-8"
     inkscape:window-maximized="1" />
  <metadata
     id="metadata2057">
    <rdf:RDF>
      <cc:Work
         rdf:about="">
        <dc:format>image/svg+xml</dc:format>
        <dc:type
           rdf:resource="http://purl.org/dc/dcmitype/StillImage" />
        <dc:title></dc:title>
      </cc:Work>
    </rdf:RDF>
  </metadata>
  <g
     inkscape:label="Layer 1"
     inkscape:groupmode="layer"
     id="layer1"
     transform="translate(-132.28043,-89.464286)">
    <g
       id="g884"
       transform="matrix(0.67012899,0,0,0.67012899,525.01632,16.65317)">
      <path
         style="fill:#a4b0ca;stroke-width:0.26458332"
         d="m -562.19858,145.69406 c -0.0899,-0.14552 -0.0374,-0.26458 0.11668,-0.26458 0.15411,0 0.2802,0.11906 0.2802,0.26458 0,0.14552 -0.0525,0.26458 -0.11668,0.26458 -0.0642,0 -0.19026,-0.11906 -0.2802,-0.26458 z m -1.91444,-2.3945 c -1.33739,-1.77668 -3.04138,-5.15642 -3.64208,-7.2238 l -0.44994,-1.54851 -1.46485,0.18302 c -3.91371,0.48899 -15.68909,-0.0499 -16.38922,-0.75001 -0.0674,-0.0674 3.19003,-0.17851 7.23877,-0.24688 4.99672,-0.0844 7.81962,-0.24111 8.788,-0.48795 l 1.42666,-0.36366 0.0722,-2.24896 c 0.0864,-2.68985 0.76773,-5.01745 2.10112,-7.17771 0.57359,-0.92929 0.90129,-1.74522 0.81285,-2.02388 -0.0815,-0.25678 -0.86117,-1.35732 -1.7326,-2.44566 -0.87144,-1.08834 -1.58567,-2.15739 -1.58719,-2.37567 -0.004,-0.64426 2.07784,-2.90634 2.5194,-2.73689 0.37803,0.14506 3.26768,3.58855 3.79362,4.52071 0.20188,0.35781 0.33519,0.39314 0.57771,0.15312 0.34814,-0.34455 -0.51333,-1.94316 -2.42784,-4.50527 -0.56621,-0.75774 -1.02948,-1.5998 -1.02948,-1.87125 0,-0.72497 1.56865,-3.49792 1.97877,-3.49792 0.36476,0 2.29782,2.88261 3.85905,5.75469 0.4944,0.90951 0.97293,1.65365 1.0634,1.65365 0.0905,0 1.40243,-0.57839 2.91549,-1.2853 4.9056,-2.29196 5.2319,-2.27571 4.57431,0.22779 -0.21011,0.79991 -0.45704,2.56583 -0.54873,3.92426 -0.0966,1.43127 -0.30808,2.61124 -0.50289,2.80605 -0.18489,0.18489 -1.089,0.48422 -2.00913,0.66519 -2.09572,0.41218 -2.66592,0.70732 -2.48257,1.28501 0.078,0.24587 0.0294,1.13786 -0.10797,1.9822 -0.63648,3.91072 -3.2014,6.45322 -8.07827,8.00766 -1.38837,0.44253 -1.87216,0.72112 -1.93226,1.11271 -0.12987,0.84609 0.93887,3.69611 2.49101,6.64281 0.79569,1.51059 1.40426,2.87384 1.35238,3.02947 -0.0519,0.15562 -0.58276,-0.36594 -1.17974,-1.15902 z m -1.53296,-11.70294 c 1.83926,-1.04173 2.86452,-3.22921 2.35165,-5.01747 l -0.23558,-0.82143 -0.93602,0.82183 c -0.5148,0.452 -1.25196,1.40234 -1.63813,2.11186 -0.7228,1.32801 -1.23679,3.51227 -0.82469,3.50455 0.12774,-0.002 0.70499,-0.2721 1.28277,-0.59934 z m 5.97928,-7.10811 c -0.19042,-0.47539 -0.24634,-0.18471 -0.23655,1.22951 0.0127,1.84184 0.0141,1.84528 0.24937,0.62258 0.14396,-0.74826 0.13894,-1.4732 -0.0128,-1.85209 z m 7.22737,19.73467 c -2.73011,-1.00668 -4.59033,-3.75663 -4.80511,-7.10338 -0.3324,-5.17958 2.89756,-8.88824 7.74099,-8.88824 2.12352,0 3.85232,0.49131 5.02634,1.42844 0.75238,0.60057 0.77049,0.66208 0.3992,1.35585 -0.21392,0.3997 -0.64461,0.89426 -0.9571,1.09901 -0.50175,0.32875 -0.69203,0.3077 -1.62788,-0.1801 -1.56471,-0.81556 -2.78078,-0.93617 -4.15352,-0.41191 -1.52605,0.5828 -2.39837,1.64412 -2.76802,3.36772 -0.54923,2.56099 0.32252,5.11632 2.09948,6.15413 1.29631,0.75708 3.52125,0.73351 4.85157,-0.0514 0.55083,-0.32499 1.15254,-0.5909 1.33714,-0.5909 0.45413,0 1.48621,1.12817 1.48621,1.62458 0,0.50068 -0.9075,1.34297 -2.11667,1.96459 -1.26081,0.64816 -5.02034,0.78187 -6.51263,0.23162 z m 10.79888,0.095 c -0.23249,-0.23249 -0.3175,-2.39189 -0.3175,-8.06476 v -7.74725 l 0.68577,-0.17211 c 1.36104,-0.3416 7.05742,0.0461 8.04548,0.54765 2.09056,1.0611 2.95977,2.40844 2.9806,4.62016 0.0334,3.54589 -2.50269,5.57756 -6.96237,5.57756 h -1.3099 v 2.61752 c 0,2.14277 -0.0759,2.64666 -0.41851,2.77813 -0.71217,0.27328 -2.36957,0.17709 -2.70357,-0.1569 z m 7.26304,-9.04359 c 0.79929,-0.92923 0.84847,-2.58282 0.0991,-3.33218 -0.65559,-0.65558 -1.44776,-0.85825 -2.93837,-0.75175 l -1.16941,0.0836 -0.078,2.09328 c -0.10754,2.88432 -0.10512,2.88793 1.84154,2.74712 1.36175,-0.0985 1.72387,-0.23399 2.24517,-0.84003 z m 6.17779,9.10239 c -0.33377,-0.21075 -0.40925,-1.40138 -0.47474,-7.48852 -0.0481,-4.47483 0.0251,-7.50879 0.19189,-7.94744 0.24126,-0.63456 0.40485,-0.70951 1.54865,-0.70951 0.70339,0 1.46515,0.14883 1.6928,0.33073 0.22764,0.1819 1.51085,2.38456 2.85158,4.89479 1.34073,2.51023 2.52533,4.56406 2.63246,4.56406 0.10712,0 1.25393,-1.99055 2.54846,-4.42344 1.29454,-2.43289 2.56581,-4.63555 2.82505,-4.89479 0.29168,-0.29168 0.86652,-0.47135 1.50804,-0.47135 2.00189,0 1.87373,-0.55028 1.87373,8.04518 0,5.65477 -0.0851,7.80904 -0.3175,8.04149 -0.427,0.427 -2.19144,0.40437 -2.55423,-0.0328 -0.18086,-0.21792 -0.31805,-2.14227 -0.36312,-5.09323 l -0.0724,-4.74297 -2.12966,3.96875 -2.12965,3.96875 h -1.17764 -1.17764 l -2.1124,-3.88424 c -1.3045,-2.39867 -2.1903,-3.76476 -2.31608,-3.57187 -0.11202,0.1718 -0.19323,2.32321 -0.18046,4.78091 0.018,3.45666 -0.0567,4.51923 -0.32975,4.69231 -0.4732,0.29995 -1.84472,0.2842 -2.33735,-0.0268 z m 22.48787,0.0115 c -1.03237,-0.31403 -2.20473,-0.97317 -2.69555,-1.51552 -0.41105,-0.45421 -0.41352,-0.56322 -0.0307,-1.35371 0.56448,-1.16551 1.30592,-1.29371 2.74034,-0.47381 2.19836,1.25656 4.48552,0.72827 4.48552,-1.03606 0,-1.1808 -0.43852,-1.56529 -2.57568,-2.25829 -2.5974,-0.84225 -3.6328,-1.59069 -4.17895,-3.02077 -0.8848,-2.31681 0.11321,-4.86793 2.32279,-5.93757 1.70213,-0.82399 4.16797,-0.77279 5.96739,0.1239 1.57685,0.78578 1.77784,1.46272 0.77906,2.62387 l -0.59581,0.69267 -1.19013,-0.53981 c -2.08791,-0.94703 -4.23832,-0.51345 -4.22879,0.85263 0.007,1.07133 0.47707,1.38388 4.01852,2.67464 0.69233,0.25233 1.60207,0.86087 2.05052,1.37163 0.73453,0.83658 0.80608,1.08283 0.80608,2.77409 0,2.61764 -0.82176,3.96153 -2.97168,4.85982 -1.01788,0.4253 -3.55095,0.51271 -4.70295,0.16229 z"
         id="path898"
         inkscape:connector-curvature="0" />
      <path
         style="fill:#8a9db6;stroke-width:0.26458332"
         d="m -552.41884,143.9501 c -1.52692,-0.54215 -2.80086,-1.68869 -3.6904,-3.32134 -0.63998,-1.17459 -0.7899,-1.80172 -0.87639,-3.66595 -0.1274,-2.74611 0.50619,-4.71412 2.01983,-6.27382 2.39142,-2.46419 6.56123,-3.05735 9.57708,-1.36235 1.24159,0.69781 1.43634,1.11822 0.89837,1.93927 -0.5888,0.89862 -1.07262,0.99521 -2.17926,0.43509 -2.16507,-1.09585 -4.0818,-0.92057 -5.7267,0.52367 -1.11389,0.978 -1.52994,2.16887 -1.51739,4.34323 0.01,1.65719 0.43149,2.89618 1.33755,3.92773 1.27263,1.44887 4.1526,1.77462 6.08542,0.68831 1.17741,-0.66174 1.66931,-0.58341 2.26478,0.36061 0.42027,0.66626 -0.0611,1.2617 -1.69699,2.09899 -1.19883,0.6136 -1.73542,0.72433 -3.42464,0.70671 -1.10169,-0.0115 -2.48376,-0.19156 -3.07126,-0.40015 z m 10.85084,0.10153 c -0.0736,-0.19181 -0.10215,-3.74049 -0.0634,-7.88597 l 0.0704,-7.53723 2.88931,-0.0756 c 3.86846,-0.10116 5.45069,0.24701 6.75147,1.48565 1.34932,1.28487 1.78042,2.80814 1.34515,4.75311 -0.57855,2.58523 -2.86563,4.02325 -6.3987,4.02325 -1.79355,0 -1.76929,-0.0428 -1.87476,3.30729 l -0.0666,2.11667 -1.25947,0.0807 c -0.8592,0.0551 -1.302,-0.0301 -1.39329,-0.26797 z m 6.61101,-8.02761 c 0.96074,-0.45591 1.4657,-1.32776 1.4657,-2.53064 0,-1.14062 -0.43956,-1.8118 -1.468,-2.24151 -1.25509,-0.52441 -3.45508,-0.49796 -3.66306,0.044 -0.29516,0.76917 -0.17407,4.48926 0.1569,4.82023 0.44792,0.44792 2.483,0.39449 3.50846,-0.0921 z m 6.81029,8.02962 c -0.45279,-0.45279 -0.45279,-14.78721 0,-15.24 0.49259,-0.49258 2.44104,-0.39564 2.92486,0.14552 0.22767,0.25466 1.50999,2.51685 2.84959,5.02709 1.3396,2.51023 2.51236,4.56406 2.60614,4.56406 0.0938,0 1.34893,-2.20509 2.78924,-4.90019 2.77526,-5.19306 2.85651,-5.28169 4.68179,-5.10733 l 0.8965,0.0856 v 7.80521 7.80521 h -1.19062 -1.19063 l -0.0719,-5.09323 c -0.0395,-2.80127 -0.171,-5.09323 -0.29218,-5.09323 -0.12118,0 -1.13947,1.72945 -2.26287,3.84322 -3.18265,5.98843 -3.53552,5.99677 -6.6335,0.1569 -1.16417,-2.19451 -2.20597,-3.9923 -2.31511,-3.99507 -0.10914,-0.003 -0.19844,2.1738 -0.19844,4.83683 0,5.26953 -0.0551,5.47687 -1.4552,5.47687 -0.45112,0 -0.96309,-0.14287 -1.13771,-0.3175 z m 21.51062,-0.30444 c -1.84459,-0.85998 -2.17143,-1.30213 -1.60338,-2.16908 0.65613,-1.00137 1.03516,-1.0359 2.65766,-0.24208 2.46,1.20356 4.63426,0.50256 4.63426,-1.49412 0,-1.08725 -0.71411,-1.66668 -2.85579,-2.3172 -2.10101,-0.63816 -3.3921,-1.57784 -3.92706,-2.85816 -0.86,-2.05827 0.0275,-4.5149 2.00978,-5.56315 1.59113,-0.84141 4.18829,-0.84761 5.84149,-0.014 1.34126,0.67636 1.59866,1.37434 0.84849,2.30076 l -0.4894,0.60439 -1.2284,-0.55961 c -1.56037,-0.71082 -2.84101,-0.71467 -3.7353,-0.0112 -0.82588,0.64964 -0.90855,1.62147 -0.19835,2.33167 0.27434,0.27434 1.19707,0.74868 2.05052,1.05409 2.42718,0.86858 3.33796,1.41673 4.01411,2.41587 0.52907,0.78179 0.61114,1.17869 0.52684,2.54793 -0.11812,1.91892 -0.95617,3.23194 -2.59713,4.0691 -1.49451,0.76244 -4.20169,0.71911 -5.94834,-0.0952 z m -59.04749,-3.53273 c -0.40105,-0.68433 -1.11231,-2.26191 -1.58057,-3.50572 l -0.85139,-2.26148 -4.84673,0.053 -4.84673,0.053 3.96875,-0.48782 c 5.86694,-0.72112 5.31738,-0.38098 5.50545,-3.40752 0.18191,-2.92739 0.81372,-5.02068 2.19089,-7.25883 0.55693,-0.90511 0.87705,-1.71251 0.789,-1.98996 -0.0815,-0.25678 -0.86117,-1.35732 -1.73261,-2.44566 -0.87143,-1.08834 -1.58611,-2.15739 -1.58818,-2.37567 -0.002,-0.21828 0.45849,-0.93265 1.02344,-1.5875 l 1.02719,-1.19062 1.09621,1.19062 c 0.60291,0.65485 1.52936,1.81571 2.05878,2.57969 1.0375,1.49718 1.17741,1.58375 1.64637,1.0187 0.24298,-0.29278 0.0554,-0.77778 -0.89544,-2.31511 -0.66156,-1.0696 -1.56909,-2.43503 -2.01675,-3.03428 l -0.81393,-1.08954 0.84098,-1.49014 c 0.46254,-0.81957 0.94464,-1.5542 1.07135,-1.63251 0.3102,-0.19171 1.56903,1.58219 3.33985,4.70642 0.8042,1.41883 1.57165,2.57969 1.70546,2.57969 0.1338,0 1.1035,-0.43323 2.1549,-0.96274 2.45999,-1.23891 5.16136,-2.25485 5.3187,-2.00027 0.0676,0.10933 -0.0453,0.91002 -0.25072,1.77933 -0.20546,0.8693 -0.45037,2.59259 -0.54424,3.82951 -0.0939,1.23693 -0.28174,2.39014 -0.41749,2.56268 -0.13575,0.17255 -0.62554,0.38659 -1.08843,0.47564 -0.46289,0.0891 -1.39056,0.28319 -2.06148,0.43142 l -1.21987,0.2695 -0.15511,1.7684 c -0.21759,2.48058 -0.84114,4.07357 -2.17545,5.55764 -1.33051,1.47986 -3.42042,2.66654 -6.14377,3.48853 -1.70895,0.51582 -1.91823,0.65047 -1.91823,1.23417 0,0.79228 1.12932,4.22653 1.86234,5.66338 0.73495,1.44062 0.43149,1.30247 -0.45254,-0.20603 z m 0.33597,-8.61147 c 1.66563,-1.12212 2.33637,-2.2953 2.33637,-4.08649 0,-1.9291 -0.34386,-2.17888 -1.54623,-1.12318 -1.57453,1.38246 -3.10693,4.62477 -2.69417,5.70042 0.20632,0.53767 0.48353,0.46622 1.90403,-0.49075 z m 4.26009,-1.56579 c 1.18357,-1.23267 1.66706,-2.56021 1.66706,-4.57728 0,-1.35987 -0.0846,-1.72829 -0.39688,-1.72829 -0.31431,0 -0.39687,0.37859 -0.39687,1.81977 0,2.15236 -0.4403,3.34242 -1.79195,4.84338 -1.15318,1.28055 -0.35646,0.97044 0.91864,-0.35758 z"
         id="path896"
         inkscape:connector-curvature="0" />
      <path
         style="fill:#7397a2;stroke-width:0.26458332"
         d="m -552.38997,143.83728 c -1.65871,-0.64764 -3.12612,-2.07871 -3.89993,-3.80335 -0.86956,-1.938 -0.86009,-5.28288 0.0205,-7.24828 0.7763,-1.7326 2.52285,-3.31655 4.31244,-3.91096 1.87182,-0.62172 4.7539,-0.41982 6.31718,0.44253 1.30198,0.71821 1.56907,1.3541 0.88587,2.10903 -0.5771,0.63768 -0.83597,0.6361 -2.26839,-0.0139 -3.37273,-1.53041 -6.62973,0.4603 -7.02229,4.29209 -0.47953,4.68067 3.52642,7.70006 7.44892,5.61445 1.17507,-0.62479 1.30527,-0.64258 1.89149,-0.25848 0.9009,0.5903 0.77872,1.2851 -0.36264,2.06218 -1.95011,1.3277 -4.99265,1.62463 -7.32317,0.71467 z m 46.5421,0.17889 c -1.47748,-0.48213 -2.508,-1.20646 -2.508,-1.76281 0,-0.25819 0.22475,-0.74698 0.49944,-1.08621 l 0.49944,-0.61678 1.42259,0.71976 c 2.50581,1.26782 4.68292,0.83227 5.15042,-1.03039 0.23182,-0.92367 -0.60241,-1.98932 -1.91177,-2.44207 -0.56645,-0.19586 -1.56569,-0.54436 -2.22054,-0.77443 -3.00409,-1.05547 -4.00519,-4.34634 -2.07042,-6.806 1.37413,-1.74692 4.54127,-2.22853 7.03136,-1.06923 1.45274,0.67635 1.69698,1.16929 1.02075,2.06011 -0.42185,0.55573 -1.11657,0.57855 -2.01294,0.0661 -0.3638,-0.20797 -1.227,-0.38235 -1.91823,-0.3875 -1.49186,-0.0111 -2.3151,0.63729 -2.3151,1.8235 0,0.9944 0.8464,1.66919 2.99087,2.38445 2.28007,0.76049 3.19259,1.37962 3.74301,2.53953 0.97998,2.06517 -0.0879,5.09327 -2.14621,6.08559 -1.26512,0.60993 -3.84739,0.75556 -5.25467,0.29633 z m -35.66911,-0.086 c -0.097,-0.097 -0.17639,-3.54756 -0.17639,-7.66787 v -7.49149 l 0.69924,-0.1755 c 0.38459,-0.0965 2.08123,-0.0979 3.77031,-0.003 3.69134,0.2073 5.10437,0.77616 6.04329,2.43295 0.65322,1.15266 0.80059,3.25618 0.31745,4.5313 -0.70839,1.86966 -2.64841,2.97902 -5.22529,2.98798 -2.61008,0.009 -2.69458,0.10497 -2.69458,3.05783 v 2.50423 h -1.27882 c -0.70335,0 -1.3582,-0.0794 -1.45521,-0.17639 z m 6.53942,-7.7493 c 0.9542,-0.36279 1.55105,-1.42345 1.53335,-2.72493 -0.0124,-0.91372 -0.16959,-1.2613 -0.84219,-1.86264 -0.75628,-0.67615 -0.97799,-0.73265 -2.59559,-0.66146 l -1.76867,0.0778 -0.0771,2.36031 c -0.0424,1.29818 -0.0164,2.51857 0.0578,2.71198 0.16048,0.41823 2.67531,0.48558 3.69236,0.0989 z m 6.77794,0.25781 v -7.66787 l 0.6793,-0.17049 c 0.37361,-0.0938 1.04363,-0.066 1.48894,0.0617 0.71194,0.20418 1.12084,0.80686 3.38834,4.99409 1.41828,2.61904 2.72264,4.7619 2.89857,4.7619 0.17593,0 1.42637,-2.07441 2.77875,-4.60979 1.35238,-2.53539 2.67498,-4.76781 2.9391,-4.96094 0.53067,-0.38803 1.91141,-0.46204 2.43381,-0.13045 0.2601,0.1651 0.31921,1.8932 0.26458,7.73501 l -0.0703,7.52242 -1.0314,0.0845 c -0.64627,0.0529 -1.11404,-0.0459 -1.25272,-0.26458 -0.12172,-0.19197 -0.22314,-2.52193 -0.22537,-5.17769 -0.002,-2.65575 -0.0948,-4.82864 -0.20568,-4.82864 -0.1109,0 -1.03363,1.56246 -2.05052,3.47214 -2.69964,5.06982 -2.646,4.99453 -3.55869,4.99453 -0.94144,0 -1.03479,-0.12666 -3.58187,-4.85937 -1.01864,-1.89275 -2.00091,-3.48862 -2.18281,-3.54638 -0.2569,-0.0816 -0.33073,1.05164 -0.33073,5.07641 v 5.18142 h -1.19062 -1.19063 z m -39.14507,-0.36205 c -0.31366,-0.94255 -0.71285,-1.76612 -0.88709,-1.83014 -0.17424,-0.064 -1.24478,-2.4e-4 -2.37898,0.14176 -1.8917,0.23683 -2.62713,0.16422 -2.2416,-0.22131 0.0825,-0.0825 1.0251,-0.27665 2.09462,-0.43139 1.06952,-0.15474 2.09341,-0.39946 2.27531,-0.54382 0.21678,-0.17203 0.33073,-1.01658 0.33073,-2.45116 0,-2.61138 0.6271,-4.86768 1.97477,-7.10513 0.5146,-0.85437 0.93565,-1.75052 0.93565,-1.99143 0,-0.24092 -0.77391,-1.41674 -1.7198,-2.61295 -0.94588,-1.1962 -1.71483,-2.32412 -1.70877,-2.50648 0.0195,-0.58838 1.79651,-2.38965 2.20338,-2.23352 0.36104,0.13854 2.29202,2.36469 3.48911,4.02245 0.37519,0.51957 0.68325,0.70014 0.99219,0.58159 0.73863,-0.28344 0.53461,-0.82456 -1.40403,-3.72373 -1.01865,-1.52336 -1.8493,-2.92871 -1.8459,-3.123 0.009,-0.52268 1.41109,-2.9991 1.69784,-2.9991 0.33221,0 2.23608,2.87126 3.46779,5.22983 0.54973,1.05266 1.11352,1.98931 1.25288,2.08145 0.13936,0.0921 1.57855,-0.46646 3.1982,-1.24133 1.61965,-0.77487 3.28941,-1.49255 3.71058,-1.59485 0.73328,-0.17811 0.75899,-0.15351 0.60624,0.57987 -0.0877,0.42122 -0.29396,1.77789 -0.45829,3.01482 -0.16432,1.23693 -0.3776,2.77623 -0.47395,3.42067 l -0.17518,1.17172 -1.98438,0.42389 c -1.0914,0.23314 -2.11776,0.50702 -2.28078,0.60862 -0.16303,0.10161 -0.35024,1.11456 -0.41603,2.25099 -0.20108,3.4736 -1.87392,5.79863 -5.37298,7.46774 -0.87312,0.41649 -2.18281,0.90063 -2.91042,1.07585 -1.98048,0.47695 -2.1076,0.67385 -1.63388,2.53077 0.53631,2.10222 0.36118,2.10602 -0.33723,0.007 z m 2.6385,-4.84795 c 1.44411,-1.21514 2.14329,-3.31661 1.67939,-5.04764 -0.23776,-0.88721 -0.78097,-0.72942 -2.07593,0.60299 -1.56465,1.60991 -2.80886,5.03903 -2.08938,5.7585 0.2196,0.21961 1.41324,-0.41125 2.48592,-1.31385 z m 2.70747,-0.21074 c 0.6611,-0.50479 1.44889,-1.31728 1.75065,-1.80554 1.10717,-1.79143 1.389,-5.47876 0.41876,-5.47876 -0.29908,0 -0.38489,0.40133 -0.38489,1.80014 0,2.21566 -0.84296,4.0978 -2.45223,5.47528 -1.39915,1.19762 -0.89787,1.20429 0.66771,0.009 z m -12.55259,3.38288 c 0.191,-0.0764 0.4192,-0.067 0.50712,0.0209 0.0879,0.0879 -0.0684,0.15045 -0.34727,0.13896 -0.30822,-0.0127 -0.37092,-0.0754 -0.15985,-0.15985 z"
         id="path894"
         inkscape:connector-curvature="0" />
      <path
         style="fill:#536b9d;stroke-width:0.26458332"
         d="m -551.35066,144.12288 c -2.25931,-0.55247 -3.99118,-2.03046 -4.97964,-4.24965 -0.70606,-1.58521 -0.7483,-4.64515 -0.0903,-6.54479 0.95528,-2.75798 3.97465,-4.8323 7.03389,-4.8323 1.47389,0 3.58152,0.61625 4.51449,1.31999 0.56967,0.42971 0.60548,0.55955 0.3244,1.17644 -0.44654,0.98006 -0.93727,1.07604 -2.25071,0.44022 -1.32625,-0.64203 -3.23823,-0.72454 -4.50681,-0.1945 -2.87709,1.20213 -3.7842,5.98279 -1.70233,8.97165 1.26176,1.81146 4.37518,2.3372 6.53382,1.10331 l 1.17261,-0.67027 0.67947,0.68773 0.67947,0.68773 -0.84896,0.76598 c -1.43269,1.29264 -4.32946,1.88374 -6.55937,1.33846 z m 45.44157,-0.24909 c -1.31103,-0.45291 -2.44678,-1.20704 -2.44678,-1.62464 0,-0.10334 0.24565,-0.50019 0.54589,-0.88188 l 0.54589,-0.69399 1.10022,0.5613 c 1.69698,0.86573 2.56521,1.04172 3.6707,0.74404 2.10162,-0.56591 2.47071,-2.90266 0.61457,-3.89086 -0.29381,-0.15642 -1.30106,-0.54274 -2.23833,-0.85848 -3.06583,-1.0328 -3.86945,-2.04152 -3.65799,-4.59153 0.19597,-2.36315 1.70256,-3.7819 4.3306,-4.07812 1.35508,-0.15273 3.82709,0.53669 4.46946,1.2465 0.45388,0.50153 0.45511,0.56395 0.0241,1.22176 -0.47972,0.73213 -0.46589,0.73225 -2.52595,-0.0225 -2.01828,-0.7394 -3.79236,0.0886 -3.79236,1.76988 0,1.04914 0.66995,1.54875 3.30843,2.46723 3.21003,1.11745 4.3585,2.82642 3.65505,5.43885 -0.18728,0.69548 -0.69958,1.54504 -1.28428,2.12974 -1.56993,1.56993 -3.77664,1.94101 -6.31923,1.06265 z m -35.65905,-0.0871 c -0.0737,-0.192 -0.10223,-3.62162 -0.0634,-7.62138 l 0.0705,-7.27228 3.30729,-0.0812 c 3.66705,-0.0901 4.8527,0.1429 6.10947,1.2004 2.65531,2.23429 1.82854,6.78369 -1.47926,8.13979 -0.29104,0.11932 -1.54119,0.28752 -2.77812,0.37378 l -2.24896,0.15684 -0.13229,2.64583 -0.13229,2.64584 -1.25947,0.0808 c -0.8598,0.0551 -1.30198,-0.03 -1.39343,-0.26834 z m 7.24335,-8.02165 c 0.43703,-0.36773 0.87226,-1.02217 0.96717,-1.45429 0.22762,-1.03637 -0.27502,-2.49799 -1.02892,-2.99197 -0.74448,-0.4878 -2.83567,-0.82302 -3.73156,-0.59816 -0.65718,0.16494 -0.66485,0.19888 -0.66485,2.93995 v 2.77308 h 1.83178 c 1.57311,0 1.94399,-0.0944 2.62638,-0.66861 z m 6.31415,8.17773 c -0.10394,-0.10394 -0.18898,-3.56242 -0.18898,-7.68551 v -7.49652 h 1.41714 1.41713 l 2.71455,5.03891 c 1.49301,2.77141 2.82189,5.00314 2.95307,4.95941 0.13117,-0.0437 1.4062,-2.28147 2.83338,-4.97276 l 2.59488,-4.89327 h 1.43545 1.43544 v 7.54062 7.54063 l -1.11883,0.0811 -1.11884,0.0811 -0.0718,-5.24045 c -0.0451,-3.28955 -0.17029,-5.23172 -0.33637,-5.21698 -0.14552,0.0129 -1.24714,1.85154 -2.44805,4.08583 -1.2009,2.23429 -2.332,4.15957 -2.51354,4.27839 -0.18154,0.11883 -0.62737,0.1852 -0.99073,0.1475 -0.56048,-0.0581 -1.00756,-0.70899 -2.94866,-4.29257 -1.25841,-2.32322 -2.41708,-4.26706 -2.57484,-4.31964 -0.19803,-0.066 -0.30904,1.52816 -0.35863,5.15008 l -0.0718,5.24568 -0.9355,0.0787 c -0.51452,0.0433 -1.02054,-0.006 -1.12448,-0.11024 z m -39.87648,-9.46875 c -0.32003,-0.52837 -0.36436,-1.23454 -0.22893,-3.64728 0.18658,-3.324 0.74042,-5.18292 2.25278,-7.56125 0.48761,-0.76681 0.88657,-1.51982 0.88657,-1.67336 0,-0.30004 -2.79358,-4.10504 -3.19684,-4.35426 -0.4471,-0.27633 -0.228,-1.03693 0.56648,-1.96655 1.04826,-1.22655 1.23217,-1.09738 4.52739,3.17979 l 0.70641,0.91692 0.58981,-0.57596 0.58981,-0.57597 -1.21154,-1.93758 c -0.66634,-1.06566 -1.5657,-2.40995 -1.99858,-2.9873 l -0.78706,-1.04972 0.80102,-1.5868 0.80102,-1.58681 0.62648,0.78444 c 0.34457,0.43145 1.37174,2.12101 2.28261,3.75458 0.91086,1.63358 1.7838,2.97303 1.93986,2.97657 0.15606,0.004 0.92996,-0.3402 1.71979,-0.76386 1.90951,-1.02424 5.51386,-2.51614 5.67926,-2.35074 0.0725,0.0725 -0.0385,0.95315 -0.24655,1.9571 -0.20805,1.00396 -0.46195,2.7449 -0.56423,3.86875 -0.10229,1.12385 -0.32111,2.14939 -0.48628,2.27898 -0.16518,0.12959 -0.77657,0.31036 -1.35865,0.40171 -0.58209,0.0914 -1.50482,0.2918 -2.05052,0.44543 -0.94674,0.26655 -0.99219,0.33076 -0.99219,1.40194 0,3.66961 -1.84776,6.62439 -5.21498,8.33935 -1.71181,0.87185 -1.94708,0.67352 -0.42055,-0.3545 2.44492,-1.64651 3.51886,-3.57842 3.51886,-6.33008 0,-1.76514 -0.17665,-2.12715 -0.90216,-1.84875 -0.32666,0.12535 -0.42075,0.55772 -0.42075,1.93328 0,2.32809 -0.9089,4.24018 -2.57425,5.41558 -1.93693,1.36707 -2.41165,1.39189 -1.18578,0.062 1.27361,-1.38171 1.76414,-2.88395 1.45393,-4.45261 -0.11882,-0.6008 -0.33916,-1.1334 -0.48965,-1.18357 -0.57675,-0.19225 -2.49415,1.83353 -3.31651,3.50397 -0.75096,1.52542 -0.82804,1.89186 -0.70731,3.36234 0.0745,0.90768 0.0618,1.92239 -0.0282,2.25491 l -0.16369,0.60457 z"
         id="path892"
         inkscape:connector-curvature="0" />
      <path
         style="fill:#2b4b88;stroke-width:0.26458332"
         d="m -551.74925,143.85935 c -3.34922,-1.01879 -5.22532,-4.07153 -4.96784,-8.08359 0.20693,-3.22441 2.22386,-5.99235 4.91009,-6.73838 1.77563,-0.49314 4.28477,-0.33682 5.78173,0.3602 1.6725,0.77875 1.81615,0.99607 1.17855,1.78298 -0.4728,0.58353 -0.56046,0.59996 -1.38764,0.26014 -4.63099,-1.90248 -7.96402,0.1203 -8.0091,4.86065 -0.03,3.15658 1.24131,5.01966 3.9129,5.73421 1.35406,0.36216 3.33921,0.0169 4.15669,-0.72289 0.60549,-0.54795 1.23948,-0.46968 1.59633,0.19709 0.27062,0.50565 0.20715,0.66961 -0.50575,1.30659 -0.44836,0.40061 -1.26804,0.85413 -1.8215,1.00782 -1.14262,0.3173 -3.85232,0.33697 -4.84446,0.0352 z m 10.44626,-0.0712 c -0.074,-0.19282 -0.1028,-3.62311 -0.064,-7.62287 l 0.0705,-7.27228 3.44235,0.0119 c 3.00818,0.0104 3.59217,0.0859 4.63021,0.59916 1.73119,0.85593 2.22325,1.67598 2.33228,3.88689 0.079,1.60165 0.006,1.9773 -0.53678,2.77813 -0.97704,1.44045 -2.42162,2.0918 -5.1415,2.31826 l -2.34531,0.19528 -0.13229,2.64583 -0.1323,2.64584 -0.99431,0.0822 c -0.64441,0.0533 -1.04166,-0.0411 -1.12885,-0.26834 z m 6.48587,-7.48531 c 1.77697,-0.9189 2.17562,-3.17466 0.82766,-4.68329 -0.70147,-0.78508 -0.91653,-0.86236 -2.67683,-0.96182 -1.42517,-0.0805 -1.9727,-0.0156 -2.14361,0.25418 -0.35729,0.56401 -0.29108,5.09785 0.0799,5.4688 0.44637,0.44637 2.99729,0.39561 3.91291,-0.0779 z m 7.00851,7.48693 c -0.0743,-0.19371 -0.10343,-3.62473 -0.0646,-7.62449 l 0.0705,-7.27228 0.92604,-0.0691 c 0.50932,-0.038 1.07318,0.0275 1.25301,0.14559 0.17983,0.11805 1.5096,2.40808 2.95504,5.08896 1.44544,2.68088 2.74179,4.91223 2.88078,4.95856 0.13899,0.0463 1.41,-2.09356 2.82446,-4.75532 1.41447,-2.66176 2.69913,-4.99429 2.8548,-5.18339 0.17107,-0.20783 0.71069,-0.31249 1.36424,-0.26459 l 1.08121,0.0793 0.0703,7.48119 c 0.0765,8.14048 0.10233,7.99905 -1.39379,7.62355 l -0.66087,-0.16587 v -5.30867 c 0,-4.12682 -0.0736,-5.28519 -0.33072,-5.20317 -0.18191,0.058 -1.35702,2.00271 -2.61136,4.32153 -2.24816,4.15601 -2.29328,4.21602 -3.16966,4.21602 -0.87678,0 -0.92053,-0.0584 -3.17311,-4.23333 -1.26062,-2.33645 -2.44857,-4.23334 -2.65117,-4.23334 -0.29643,0 -0.39257,1.01871 -0.49939,5.29167 l -0.13229,5.29167 -0.72911,0.0839 c -0.4289,0.0493 -0.78476,-0.0611 -0.86426,-0.26834 z m 22.36316,0.13639 c -0.21828,-0.0762 -0.90289,-0.3751 -1.52136,-0.66417 -1.19542,-0.55873 -1.39192,-1.06981 -0.74924,-1.94873 0.36766,-0.50281 0.4052,-0.49848 1.85795,0.21401 2.99793,1.47032 5.40967,0.5257 5.23632,-2.05094 -0.0537,-0.79802 -1.15522,-1.60049 -3.07298,-2.23868 -2.45358,-0.81649 -3.40061,-1.52661 -3.82903,-2.87113 -1.01556,-3.1871 1.38364,-5.80409 5.09134,-5.55353 2.05101,0.1386 3.66032,0.86909 3.54904,1.61094 -0.13705,0.91371 -0.85468,1.15268 -1.92656,0.64154 -1.43658,-0.68506 -3.19083,-0.59847 -3.98605,0.19675 -1.39554,1.39555 -0.59075,2.91286 2.02175,3.81169 3.46051,1.19059 4.47257,2.20138 4.47257,4.46694 0,2.67254 -2.15891,4.58336 -5.13485,4.5448 -0.88661,-0.0115 -1.79062,-0.0833 -2.0089,-0.15949 z m -62.47003,-9.99035 c -0.23723,-0.23722 -0.007,-4.9845 0.30636,-6.31353 0.32213,-1.36678 1.32483,-3.53792 2.35766,-5.10498 l 0.54008,-0.81944 -1.59968,-2.14881 c -0.87983,-1.18184 -1.71343,-2.2191 -1.85246,-2.30502 -0.45677,-0.2823 -0.24421,-1.03588 0.55646,-1.97274 1.04766,-1.22586 1.24724,-1.08563 4.52575,3.17979 0.59367,0.7724 0.78134,0.87075 1.19062,0.62398 0.26723,-0.16112 0.5204,-0.46798 0.56261,-0.68191 0.0422,-0.21393 -0.80121,-1.70303 -1.87426,-3.30911 l -1.95102,-2.92014 0.78259,-1.54765 0.78258,-1.54765 0.62578,0.78407 c 0.34418,0.43125 1.41393,2.18306 2.37724,3.89293 0.9633,1.70987 1.78064,3.10886 1.8163,3.10886 0.0357,0 1.2431,-0.57577 2.68319,-1.27948 3.16499,-1.54659 4.30982,-2.01204 4.49452,-1.82734 0.0767,0.0767 -0.0462,1.11788 -0.27307,2.3138 -0.22686,1.19591 -0.41429,2.78631 -0.41652,3.53422 -0.002,0.74791 -0.0915,1.49693 -0.19844,1.66448 -0.10691,0.16755 -0.96829,0.45249 -1.91418,0.63321 -2.46411,0.47078 -2.64583,0.60308 -2.64583,1.92628 0,3.67285 -1.84664,6.62695 -5.21498,8.34248 -1.71181,0.87185 -1.94708,0.67352 -0.42055,-0.3545 2.49853,-1.68261 3.51886,-3.56631 3.51886,-6.49639 0,-1.79724 -0.0259,-1.87531 -0.59531,-1.79444 -0.54709,0.0777 -0.60654,0.25656 -0.7339,2.20814 -0.16719,2.56177 -0.99628,4.2017 -2.71189,5.36405 -1.85114,1.25418 -2.22737,1.2368 -1.04293,-0.0482 1.28096,-1.38967 1.76562,-2.88316 1.45135,-4.47232 -0.30198,-1.52703 -0.84999,-1.54111 -2.33117,-0.0599 -1.73613,1.73613 -2.36488,3.24901 -2.33798,5.62559 0.0195,1.71791 -0.0942,2.16524 -0.45778,1.80167 z"
         id="path890"
         inkscape:connector-curvature="0" />
      <path
         style="fill:#168b4b;stroke-width:0.26458332"
         d="m -550.82149,143.83783 c -3.70794,-0.75819 -5.68854,-3.32319 -5.68854,-7.36698 0,-3.34736 1.2461,-5.52626 3.908,-6.83341 1.98743,-0.97594 4.57068,-1.01487 6.48026,-0.0976 1.55198,0.74546 1.63398,0.87114 1.04392,1.59983 l -0.47122,0.58194 -1.1203,-0.58393 c -1.65095,-0.86052 -4.34218,-0.68261 -5.73412,0.37907 -1.50577,1.14851 -2.06147,2.65859 -1.94963,5.29792 0.0778,1.83668 0.20441,2.3417 0.81994,3.27151 0.98858,1.49333 2.3866,2.16859 4.48708,2.16735 1.19613,-8e-4 1.90784,-0.14954 2.53048,-0.52917 1.05084,-0.6407 1.53707,-0.66777 1.7558,-0.0978 0.51402,1.33951 -3.37929,2.75977 -6.06167,2.21128 z m 45.60057,-0.0884 c -1.32352,-0.36731 -2.60578,-1.0953 -2.60578,-1.4794 0,-0.49921 0.33403,-1.07382 0.62362,-1.07276 0.16633,5.3e-4 0.88815,0.29827 1.60403,0.66146 1.48036,0.75103 2.42526,0.82379 3.71267,0.28587 1.05772,-0.44194 1.46801,-1.10229 1.46801,-2.36273 0,-1.22779 -0.96884,-2.02459 -3.42011,-2.81278 -3.01755,-0.97027 -4.07335,-2.42481 -3.59827,-4.9572 0.39861,-2.12479 3.18452,-3.57892 5.75364,-3.00317 1.73522,0.38887 2.58766,0.8267 2.58766,1.32908 0,0.88246 -0.52536,1.04499 -1.68127,0.52012 -2.46923,-1.12121 -4.93332,-0.14703 -4.93332,1.95039 0,0.9665 1.07653,1.85471 3.089,2.54862 3.35212,1.15584 4.05475,1.87486 4.05475,4.14928 0,3.21107 -3.14589,5.217 -6.65463,4.24322 z m -35.94328,-7.31577 v -7.40833 l 2.97656,0.001 c 3.63764,0.002 4.7955,0.3 6.05489,1.55939 1.63287,1.63286 1.65567,4.21104 0.0541,6.11442 -0.81925,0.97362 -2.76322,1.58513 -5.03906,1.58513 -1.55811,0 -1.6968,0.0486 -1.93635,0.67868 -0.14192,0.37327 -0.25804,1.62343 -0.25804,2.77812 v 2.09945 h -0.92604 -0.92604 z m 5.84048,0.26351 c 1.9569,-0.54361 2.94849,-2.83675 1.99348,-4.6101 -0.64601,-1.19957 -1.37174,-1.54613 -3.52796,-1.68471 -1.9066,-0.12254 -1.91249,-0.12083 -2.20422,0.63911 -0.43173,1.12467 -0.22345,5.34483 0.27947,5.66254 0.51893,0.32782 2.26695,0.32437 3.45923,-0.007 z m 7.51496,6.82767 c -0.0744,-0.19392 -0.10351,-3.50588 -0.0646,-7.3599 l 0.0707,-7.00732 1.10169,-0.0802 1.1017,-0.0803 2.73476,5.17067 c 1.85988,3.51651 2.86105,5.14937 3.12953,5.10411 0.21713,-0.0366 1.58885,-2.3273 3.04828,-5.09042 l 2.65351,-5.02387 1.11891,-0.0814 1.11891,-0.0814 v 7.42355 7.42355 h -0.79375 -0.79375 v -5.37986 c 0,-2.95893 -0.0712,-5.45104 -0.15816,-5.53803 -0.4256,-0.42559 -1.05426,0.45945 -3.15997,4.44861 -2.16707,4.10542 -2.82506,4.93976 -3.54484,4.49491 -0.13922,-0.086 -1.29205,-2.08802 -2.56186,-4.44885 -2.29181,-4.26092 -2.69402,-4.84711 -3.06873,-4.47239 -0.10718,0.10717 -0.22724,2.57276 -0.2668,5.47909 l -0.0719,5.28422 -0.72911,0.0839 c -0.42924,0.0494 -0.78476,-0.0611 -0.86441,-0.26873 z m -34.86597,-11.71719 c 2.53851,-1.70953 3.51886,-3.55605 3.51886,-6.62786 v -2.01044 l -0.7276,0.0837 -0.72761,0.0837 0.0905,1.93186 c 0.0784,1.67394 -0.006,2.12823 -0.62909,3.4027 -0.48929,1.00007 -1.09629,1.73669 -1.8965,2.30147 -1.94342,1.37164 -2.42002,1.39836 -1.19267,0.0668 1.54061,-1.67136 1.86959,-3.17354 1.2089,-5.52006 -0.0717,-0.25466 -0.27951,-0.46302 -0.46179,-0.46302 -0.73183,0 -2.55468,1.94249 -3.36229,3.58298 -0.46265,0.93978 -0.89167,1.70869 -0.95337,1.70869 -0.21703,0 0.26754,-2.52993 0.76015,-3.96875 0.27403,-0.80037 0.91153,-2.07846 1.41666,-2.8402 0.50514,-0.76175 0.91843,-1.48791 0.91843,-1.6137 0,-0.27082 -3.08462,-4.45485 -3.4514,-4.68153 -0.13902,-0.0859 -0.25276,-0.33415 -0.25276,-0.55162 0,-0.5085 1.35936,-2.21919 1.76345,-2.2192 0.37856,-1e-5 2.09316,1.92279 3.29665,3.69696 0.98966,1.45894 1.25519,1.5702 1.9404,0.81305 0.45306,-0.50062 0.40108,-0.6173 -1.63435,-3.6691 l -2.1023,-3.15205 0.75356,-1.49026 c 0.41446,-0.81965 0.80547,-1.49027 0.86891,-1.49027 0.22651,0 1.6954,2.30531 3.22559,5.06232 l 1.55538,2.8024 2.90542,-1.39027 c 1.59797,-0.76464 3.18899,-1.47564 3.53559,-1.58 0.608,-0.18307 0.62335,-0.15381 0.43608,0.83134 -0.38343,2.01708 -0.65884,4.21593 -0.66406,5.30181 l -0.005,1.10572 -1.52136,0.30072 c -0.83674,0.16539 -1.8932,0.41621 -2.34768,0.55736 -0.78714,0.24448 -0.8203,0.31021 -0.69904,1.38603 0.07,0.62115 -0.0636,1.8746 -0.29696,2.78544 -0.6864,2.67926 -2.16156,4.44954 -4.84786,5.8177 -1.71181,0.87185 -1.94708,0.67352 -0.42055,-0.3545 z"
         id="path888"
         inkscape:connector-curvature="0" />
      <path
         style="fill:#032e73;stroke-width:0.26458332"
         d="m -550.82149,143.83783 c -3.70794,-0.75819 -5.68854,-3.32319 -5.68854,-7.36698 0,-3.34736 1.2461,-5.52626 3.908,-6.83341 1.98743,-0.97594 4.57068,-1.01487 6.48026,-0.0976 1.55198,0.74546 1.63398,0.87114 1.04392,1.59983 l -0.47122,0.58194 -1.1203,-0.58393 c -1.65095,-0.86052 -4.34218,-0.68261 -5.73412,0.37907 -1.50577,1.14851 -2.06147,2.65859 -1.94963,5.29792 0.0778,1.83668 0.20441,2.3417 0.81994,3.27151 0.98858,1.49333 2.3866,2.16859 4.48708,2.16735 1.19613,-8e-4 1.90784,-0.14954 2.53048,-0.52917 1.05084,-0.6407 1.53707,-0.66777 1.7558,-0.0978 0.51402,1.33951 -3.37929,2.75977 -6.06167,2.21128 z m 45.60057,-0.0884 c -1.32352,-0.36731 -2.60578,-1.0953 -2.60578,-1.4794 0,-0.49921 0.33403,-1.07382 0.62362,-1.07276 0.16633,5.3e-4 0.88815,0.29827 1.60403,0.66146 1.48036,0.75103 2.42526,0.82379 3.71267,0.28587 1.05772,-0.44194 1.46801,-1.10229 1.46801,-2.36273 0,-1.22779 -0.96884,-2.02459 -3.42011,-2.81278 -3.01755,-0.97027 -4.07335,-2.42481 -3.59827,-4.9572 0.39861,-2.12479 3.18452,-3.57892 5.75364,-3.00317 1.73522,0.38887 2.58766,0.8267 2.58766,1.32908 0,0.88246 -0.52536,1.04499 -1.68127,0.52012 -2.46923,-1.12121 -4.93332,-0.14703 -4.93332,1.95039 0,0.9665 1.07653,1.85471 3.089,2.54862 3.35212,1.15584 4.05475,1.87486 4.05475,4.14928 0,3.21107 -3.14589,5.217 -6.65463,4.24322 z m -35.94328,-7.31577 v -7.40833 l 2.97656,0.001 c 3.63764,0.002 4.7955,0.3 6.05489,1.55939 1.63287,1.63286 1.65567,4.21104 0.0541,6.11442 -0.81925,0.97362 -2.76322,1.58513 -5.03906,1.58513 -1.55811,0 -1.6968,0.0486 -1.93635,0.67868 -0.14192,0.37327 -0.25804,1.62343 -0.25804,2.77812 v 2.09945 h -0.92604 -0.92604 z m 5.84048,0.26351 c 1.9569,-0.54361 2.94849,-2.83675 1.99348,-4.6101 -0.64601,-1.19957 -1.37174,-1.54613 -3.52796,-1.68471 -1.9066,-0.12254 -1.91249,-0.12083 -2.20422,0.63911 -0.43173,1.12467 -0.22345,5.34483 0.27947,5.66254 0.51893,0.32782 2.26695,0.32437 3.45923,-0.007 z m 7.51496,6.82767 c -0.0744,-0.19392 -0.10351,-3.50588 -0.0646,-7.3599 l 0.0707,-7.00732 1.10169,-0.0802 1.1017,-0.0803 2.73476,5.17067 c 1.85988,3.51651 2.86105,5.14937 3.12953,5.10411 0.21713,-0.0366 1.58885,-2.3273 3.04828,-5.09042 l 2.65351,-5.02387 1.11891,-0.0814 1.11891,-0.0814 v 7.42355 7.42355 h -0.79375 -0.79375 v -5.37986 c 0,-2.95893 -0.0712,-5.45104 -0.15816,-5.53803 -0.4256,-0.42559 -1.05426,0.45945 -3.15997,4.44861 -2.16707,4.10542 -2.82506,4.93976 -3.54484,4.49491 -0.13922,-0.086 -1.29205,-2.08802 -2.56186,-4.44885 -2.29181,-4.26092 -2.69402,-4.84711 -3.06873,-4.47239 -0.10718,0.10717 -0.22724,2.57276 -0.2668,5.47909 l -0.0719,5.28422 -0.72911,0.0839 c -0.42924,0.0494 -0.78476,-0.0611 -0.86441,-0.26873 z m -39.92373,-14.43336 c 0.28371,-1.90615 1.08139,-4.01319 2.10194,-5.55218 0.50514,-0.76175 0.91843,-1.54126 0.91843,-1.73225 0,-0.45328 1.90095,-2.30672 2.36586,-2.30672 0.19754,0 0.92379,-0.58888 1.61387,-1.30863 0.69009,-0.71975 1.47594,-1.2954 1.74634,-1.27923 0.2704,0.0162 1.7418,-0.57269 3.26977,-1.30857 1.52796,-0.73588 3.0617,-1.42338 3.4083,-1.52779 0.60801,-0.18315 0.62335,-0.15391 0.43608,0.83126 -0.38343,2.01708 -0.65884,4.21593 -0.66406,5.30181 l -0.005,1.10572 -1.52136,0.30072 c -2.13938,0.42288 -3.19126,0.77778 -3.30353,1.11459 -0.0531,0.15933 -0.78488,0.34678 -1.62616,0.41654 -0.97957,0.0812 -1.58113,0.26119 -1.67294,0.50044 -0.17385,0.45305 -1.98271,1.40939 -2.66577,1.40939 -0.8759,0 -2.64464,1.79888 -3.52295,3.58298 -0.46265,0.93978 -0.89167,1.70869 -0.95337,1.70869 -0.0617,0 -0.028,-0.56555 0.0749,-1.25677 z"
         id="path886"
         inkscape:connector-curvature="0" />
    </g>
  </g>
</svg>
