<?xml version="1.0" encoding="UTF-8" standalone="no"?>
<!DOCTYPE svg PUBLIC "-//W3C//DTD SVG 1.1//EN" "http://www.w3.org/Graphics/SVG/1.1/DTD/svg11.dtd">
<!-- Generated by Microsoft Visio, SVG Export icon_skeyes.svg Page-1 -->
<svg xmlns="http://www.w3.org/2000/svg" xmlns:xlink="http://www.w3.org/1999/xlink" xmlns:ev="http://www.w3.org/2001/xml-events"
		xmlns:v="http://schemas.microsoft.com/visio/2003/SVGExtensions/" width="5.32462in" height="1.2491in"
		viewBox="0 0 383.373 89.9353" xml:space="preserve" color-interpolation-filters="sRGB" class="st2">
	<v:documentProperties v:langID="2057" v:metric="true" v:viewMarkup="false"/>

	<style type="text/css">
	<![CDATA[
		.st1 {fill:#0aa2bc;stroke:none;stroke-linecap:butt;stroke-width:1.14617}
		.st2 {fill:none;fill-rule:evenodd;font-size:12px;overflow:visible;stroke-linecap:square;stroke-miterlimit:3}
	]]>
	</style>

	<g v:mID="0" v:index="1" v:groupContext="foregroundPage">
		<title>Page-1</title>
		<v:pageProperties v:drawingScale="0.0393701" v:pageScale="0.0393701" v:drawingUnits="24" v:shadowOffsetX="9"
				v:shadowOffsetY="-9"/>
		<g id="group148-1" transform="translate(1.14617,-1.14617)" v:mID="148" v:groupContext="group">
			<title>icon_skeyes</title>
			<g id="group129-2" transform="translate(297.613,-17.0968)" v:mID="129" v:groupContext="group">
				<title>Sheet.129</title>
				<g id="shape130-3" v:mID="130" v:groupContext="shape" transform="translate(0.0237236,-40.2432)">
					<title>Sheet.130</title>
					<path d="M4.79 80.14 C3 80.17 1.7 80.9 0.98 82.23 L0.98 80.15 L0 80.15 L0 89.94 L0.98 89.94 L0.98 84.65 C1.15
								 82.49 2.5 81.17 4.61 81.11 C6.53 81.11 7.63 82.21 7.63 84.13 L7.63 89.94 L8.61 89.94 L8.61 83.99
								 C8.61 81.58 7.19 80.14 4.79 80.14 Z" class="st1"/>
				</g>
				<g id="shape131-5" v:mID="131" v:groupContext="shape" transform="translate(11.8618,-51.8915)">
					<title>Sheet.131</title>
					<path d="M0.75 88.39 C0.34 88.39 0 88.73 0 89.15 C0 89.59 0.33 89.94 0.75 89.94 C1.17 89.94 1.5 89.59 1.5 89.15
								 C1.49 88.73 1.16 88.39 0.75 88.39 Z" class="st1"/>
				</g>
				<g id="shape132-7" v:mID="132" v:groupContext="shape" transform="translate(12.1228,-40.2353)">
					<title>Sheet.132</title>
					<rect x="0" y="80.1533" width="0.964761" height="9.78204" class="st1"/>
				</g>
				<g id="shape133-9" v:mID="133" v:groupContext="shape" transform="translate(15.8632,-40.2116)">
					<title>Sheet.133</title>
					<path d="M7.86 87.7 C7.14 88.54 6.07 89 4.82 89 C2.55 89 0.96 87.36 0.96 85.01 C0.96 82.68 2.55 81.05 4.82 81.05
								 C5.92 81.05 6.9 81.43 7.7 82.19 L7.78 82.26 L8.35 81.55 L8.29 81.49 C7.4 80.6 6.16 80.11 4.79 80.11
								 C2.02 80.11 0 82.19 0 85.03 C0 87.87 2.02 89.94 4.79 89.94 C6.29 89.94 7.6 89.37 8.48 88.34 L8.54
								 88.27 L7.94 87.62 L7.86 87.7 Z" class="st1"/>
				</g>
				<g id="shape134-11" v:mID="134" v:groupContext="shape" transform="translate(25.8034,-40.2195)">
					<title>Sheet.134</title>
					<path d="M4.78 80.11 C2.01 80.11 0 82.19 0 85.03 C0 87.87 2.01 89.94 4.78 89.94 C6.29 89.94 7.64 89.38 8.56 88.38
								 L8.63 88.31 L8.05 87.65 L7.97 87.74 C7.21 88.57 6.09 89.03 4.82 89.03 C2.66 89.03 1.12 87.55 0.97
								 85.34 L9.33 85.34 L9.33 85.24 C9.36 83.66 8.88 82.28 7.99 81.36 C7.18 80.55 6.07 80.11 4.78 80.11
								 ZM4.78 81.02 C6.81 81.02 8.22 82.37 8.41 84.46 L1 84.46 C1.22 82.4 2.73 81.02 4.78 81.02 Z"
							class="st1"/>
				</g>
				<g id="shape135-13" v:mID="135" v:groupContext="shape" transform="translate(42.3071,-40.2036)">
					<title>Sheet.135</title>
					<path d="M5.32 88.42 C4.83 88.76 4.28 88.95 3.76 88.95 C3.37 88.96 3.04 88.85 2.82 88.63 C2.5 88.32 2.34 87.79
								 2.34 87.06 L2.34 81.23 L5.59 81.23 L5.59 80.36 L2.34 80.36 L2.34 77.99 L1.4 77.99 L1.4 80.36 L0
								 80.36 L0 81.23 L1.4 81.23 L1.4 87.15 C1.4 88.15 1.64 88.89 2.12 89.37 C2.49 89.74 3 89.93 3.63 89.93
								 C4.33 89.94 5.06 89.7 5.73 89.23 L5.8 89.18 L5.42 88.37 L5.32 88.42 Z" class="st1"/>
				</g>
				<g id="shape136-15" v:mID="136" v:groupContext="shape" transform="translate(49.1949,-40.2195)">
					<title>Sheet.136</title>
					<path d="M4.83 80.11 C2.03 80.11 0 82.18 0 85.02 C0 87.86 2.03 89.94 4.83 89.94 C7.63 89.94 9.66 87.86 9.66 85.02
								 C9.66 82.18 7.63 80.11 4.83 80.11 ZM4.83 89.01 C2.55 89.01 0.96 87.37 0.96 85.03 C0.96 82.69 2.55
								 81.05 4.83 81.05 C7.11 81.05 8.7 82.69 8.7 85.03 C8.7 87.38 7.11 89.01 4.83 89.01 Z" class="st1"/>
				</g>
				<g id="shape137-17" v:mID="137" v:groupContext="shape" transform="translate(0.0316315,-18.3305)">
					<title>Sheet.137</title>
					<path d="M8.34 78.71 C7.57 77.34 6.2 76.56 4.52 76.56 C1.9 76.56 0 78.55 0 81.28 C0 84 1.91 85.98 4.53 85.98
								 C6.19 85.98 7.59 85.2 8.34 83.86 L8.34 85.21 C8.34 86.36 7.99 87.32 7.31 87.99 C6.63 88.65 5.69
								 89 4.58 89 C4.56 89 4.55 89 4.54 89 C3.18 88.96 2.13 88.54 1.15 87.62 L1.07 87.54 L0.54 88.28 L0.61
								 88.35 C1.77 89.39 3.03 89.9 4.55 89.94 C4.57 89.94 4.59 89.94 4.59 89.94 C5.99 89.94 7.16 89.5 7.99
								 88.67 C8.84 87.83 9.29 86.64 9.29 85.22 L9.29 76.58 L8.35 76.58 L8.35 78.71 L8.34 78.71 ZM8.34 81.3
								 C8.34 83.51 6.78 85.11 4.63 85.11 C2.48 85.11 0.93 83.51 0.93 81.3 C0.93 79.08 2.48 77.47 4.63 77.47
								 C6.78 77.47 8.34 79.08 8.34 81.3 Z" class="st1"/>
				</g>
				<g id="shape138-19" v:mID="138" v:groupContext="shape" transform="translate(12.534,-21.889)">
					<title>Sheet.138</title>
					<path d="M7.5 84.93 C7.5 87.4 6.17 88.91 3.93 88.96 C2.05 88.96 0.96 87.86 0.96 85.94 L0.96 80.14 L0 80.14 L0
								 86.08 C0 88.5 1.41 89.94 3.76 89.94 C5.5 89.92 6.81 89.15 7.5 87.77 L7.5 89.92 L8.46 89.92 L8.46
								 80.14 L7.5 80.14 L7.5 84.93 L7.5 84.93 Z" class="st1"/>
				</g>
				<g id="shape139-21" v:mID="139" v:groupContext="shape" transform="translate(24.8149,-21.9048)">
					<title>Sheet.139</title>
					<rect x="0" y="80.1533" width="0.964761" height="9.78204" class="st1"/>
				</g>
				<g id="shape140-23" v:mID="140" v:groupContext="shape" transform="translate(24.554,-33.5531)">
					<title>Sheet.140</title>
					<path d="M0.75 88.39 C0.34 88.39 0 88.73 0 89.15 C0 89.59 0.33 89.94 0.75 89.94 C1.17 89.94 1.5 89.59 1.5 89.15
								 C1.5 88.73 1.16 88.39 0.75 88.39 Z" class="st1"/>
				</g>
				<g id="shape141-25" v:mID="141" v:groupContext="shape" transform="translate(28.5712,-21.8416)">
					<title>Sheet.141</title>
					<path d="M8.75 82.26 C7.94 80.87 6.48 80.04 4.75 80.04 C2 80.04 0 82.13 0 85 C0 87.86 2.01 89.94 4.78 89.94 C6.49
								 89.94 7.95 89.11 8.75 87.71 L8.75 89.88 L9.73 89.88 L9.73 76.03 L8.75 76.03 L8.75 82.26 L8.75 82.26
								 ZM8.75 84.99 C8.75 87.32 7.11 89 4.86 89 C2.59 89 0.98 87.35 0.96 84.99 C0.98 82.67 2.63 80.98 4.86
								 80.98 C7.11 80.98 8.75 82.67 8.75 84.99 Z" class="st1"/>
				</g>
				<g id="shape142-27" v:mID="142" v:groupContext="shape" transform="translate(41.1447,-21.8811)">
					<title>Sheet.142</title>
					<path d="M9.33 85.24 C9.36 83.66 8.88 82.28 7.99 81.36 C7.18 80.55 6.07 80.11 4.78 80.11 C2.01 80.11 0 82.19
								 0 85.03 C0 87.87 2.01 89.94 4.78 89.94 C6.29 89.94 7.64 89.38 8.56 88.38 L8.63 88.31 L8.05 87.65
								 L7.97 87.74 C7.21 88.57 6.09 89.03 4.82 89.03 C2.66 89.03 1.12 87.55 0.97 85.34 L9.33 85.34 L9.33
								 85.24 ZM4.78 81.02 C6.82 81.02 8.23 82.37 8.42 84.46 L1 84.46 C1.23 82.39 2.73 81.02 4.78 81.02
								 Z" class="st1"/>
				</g>
				<g id="shape143-29" v:mID="143" v:groupContext="shape">
					<title>Sheet.143</title>
					<path d="M4.8 85.06 L1.37 76.63 L1.34 76.57 L0.31 76.57 L4.3 86.25 L3.87 87.29 C3.43 88.37 2.74 88.95 1.91 88.95
								 C1.39 88.95 0.93 88.81 0.52 88.54 L0.43 88.46 L0 89.31 L0.07 89.37 C0.58 89.74 1.23 89.94 1.95 89.94
								 C3.12 89.94 4.1 89.13 4.7 87.67 L9.15 76.71 L9.2 76.57 L8.17 76.57 L4.8 85.06 Z" class="st1"/>
				</g>
				<g id="shape144-31" v:mID="144" v:groupContext="shape" transform="translate(9.72669,-3.56645)">
					<title>Sheet.144</title>
					<path d="M4.83 80.11 C2.03 80.11 0 82.18 0 85.02 C0 87.86 2.03 89.94 4.83 89.94 C7.63 89.94 9.66 87.86 9.66 85.02
								 C9.66 82.17 7.63 80.11 4.83 80.11 ZM4.83 89.01 C2.55 89.01 0.96 87.37 0.96 85.03 C0.96 82.69 2.55
								 81.05 4.83 81.05 C7.11 81.05 8.7 82.69 8.7 85.03 C8.7 87.37 7.11 89.01 4.83 89.01 Z" class="st1"/>
				</g>
				<g id="shape145-33" v:mID="145" v:groupContext="shape" transform="translate(21.8336,-3.57436)">
					<title>Sheet.145</title>
					<path d="M7.5 80.14 L7.5 84.93 C7.5 87.4 6.17 88.91 3.93 88.96 C2.05 88.96 0.96 87.86 0.96 85.94 L0.96 80.14
								 L0 80.14 L0 86.08 C0 88.5 1.41 89.94 3.76 89.94 C5.5 89.92 6.81 89.15 7.5 87.77 L7.5 89.92 L8.46
								 89.92 L8.46 80.14 L7.5 80.14 Z" class="st1"/>
				</g>
			</g>
			<g id="shape146-35" v:mID="146" v:groupContext="shape">
				<title>Sheet.146</title>
				<path d="M40.29 55.31 C40.29 64.75 32.23 71.08 20.09 71.08 C7.96 71.08 0.33 65.15 0.01 55.42 L15.48 55.42 C16.12
							 58.83 17.3 60.14 20.09 60.14 C22.24 60.14 23.85 58.73 23.85 56.83 C23.85 54.71 22.24 53.61 15.58 51.61
							 C4.73 48.4 0 43.67 0 36.35 C0 27.12 8.06 20.99 20.09 20.99 C31.9 20.99 39.21 26.81 39.31 36.55 L24.17
							 36.55 L24.17 35.65 C24.17 33.54 22.13 31.93 19.45 31.93 C17.19 31.93 15.58 33.24 15.58 35.04 C15.58
							 36.94 17.08 38.05 21.27 39.15 C35.25 42.88 40.29 47.19 40.29 55.31 ZM153.78 22.8 L140.22 22.8 L153.82
							 61.14 L153.78 22.8 ZM169.09 76.76 L175.99 58.77 L156.96 69.78 L169.09 76.76 ZM173.74 22.8 L164.41 47.19
							 L156.39 22.8 L155.88 22.8 L155.93 67.06 L155.93 67.97 L156.2 67.81 L177.19 55.66 L189.8 22.8 L173.74
							 22.8 ZM155.94 89.94 L164.03 89.94 L168.33 78.73 L155.92 71.58 L155.94 89.94 ZM148.08 89.94 L153.85 89.94
							 L153.83 74.95 L148.08 89.94 ZM228.71 65.63 C232.22 62.81 234.95 59.07 236.52 54.75 L222.42 54.75 L228.71
							 65.63 ZM208.78 35.36 L202.29 24.13 C194.12 28.17 188.5 36.59 188.5 46.32 C188.5 47.23 188.56 48.13 188.65
							 49.02 L202.75 40.86 C204.04 38.39 206.18 36.42 208.78 35.36 ZM213.24 34.48 C213.42 34.48 213.58 34.49
							 213.76 34.49 L227.84 26.34 C223.75 23.34 218.71 21.57 213.24 21.57 C210.06 21.57 207.01 22.18 204.21
							 23.28 L210.83 34.72 C211.61 34.57 212.42 34.48 213.24 34.48 ZM213.24 58.18 C208.09 58.18 203.71 54.88
							 202.09 50.29 L217.42 50.29 L212.24 41.33 L206.14 41.33 L188.99 51.24 C191.27 62.55 201.26 71.07 213.24
							 71.07 C218.34 71.07 223.07 69.51 227.01 66.86 L220.52 55.65 C218.52 57.23 216 58.18 213.24 58.18 ZM105.05
							 24.07 C100.65 26.21 96.99 29.61 94.52 33.81 L98.21 35.93 L105.05 24.07 ZM115.87 21.58 C113.19 21.58
							 110.61 22.01 108.19 22.8 L100.03 36.97 L105.72 40.25 C107.79 36.79 111.56 34.48 115.87 34.48 C120.63
							 34.48 124.72 37.28 126.6 41.32 L107.57 41.32 L123.12 50.28 L127.02 50.28 L140.29 50.28 C140.5 48.99
							 140.61 47.67 140.61 46.32 C140.61 32.66 129.53 21.58 115.87 21.58 ZM93.54 35.65 C91.99 38.88 91.12 42.5
							 91.12 46.32 C91.12 46.92 91.15 47.53 91.19 48.12 L97.17 37.74 L93.54 35.65 ZM137.4 58.5 C138.08 57.31
							 138.66 56.06 139.14 54.75 L130.89 54.75 L137.4 58.5 ZM124.18 54.75 C122.04 56.86 119.11 58.17 115.87
							 58.17 C110.71 58.17 106.34 54.87 104.71 50.28 L118.93 50.28 L98.98 38.79 L91.67 51.49 C94.04 62.68 103.97
							 71.07 115.87 71.07 C124.35 71.07 131.83 66.78 136.28 60.27 L126.7 54.75 L124.18 54.75 ZM73.23 22.8 L62.89
							 39.36 L62.89 2.32 L47.64 2.32 L47.64 69.26 L62.89 69.26 L62.89 50.7 L73.23 69.26 L90.49 69.26 L76.94
							 44.88 L90.49 22.8 L73.23 22.8 ZM264.68 39.16 C260.49 38.05 258.98 36.95 258.98 35.05 C258.98 33.24 260.6
							 31.94 262.85 31.94 C265.54 31.94 267.58 33.54 267.58 35.66 L267.58 36.56 L282.72 36.56 C282.61 26.82
							 275.31 21 263.5 21 C251.47 21 243.41 27.12 243.41 36.36 C243.41 43.68 248.14 48.4 258.99 51.61 C265.65
							 53.62 267.26 54.72 267.26 56.83 C267.26 58.74 265.65 60.15 263.51 60.15 C260.71 60.15 259.53 58.84 258.89
							 55.43 L243.42 55.43 C243.74 65.16 251.37 71.08 263.51 71.08 C275.64 71.08 283.7 64.76 283.7 55.32 C283.69
							 47.19 278.64 42.88 264.68 39.16 ZM229.59 27.76 L216.94 35.08 C220.05 36.11 222.6 38.38 223.97 41.33
							 L214.65 41.33 L219.83 50.29 L224.4 50.29 L237.67 50.29 C237.88 49 237.99 47.68 237.99 46.33 C237.99
							 38.93 234.74 32.29 229.59 27.76 Z" class="st1"/>
			</g>
			<g id="shape147-37" v:mID="147" v:groupContext="shape" transform="translate(346.381,-0.00790788)">
				<title>Sheet.147</title>
				<path d="M1.06 89.94 L34.7 2.3 L33.64 2.3 L0 89.94 L1.06 89.94 Z" class="st1"/>
			</g>
		</g>
	</g>
</svg>
