<?xml version="1.0" encoding="UTF-8" standalone="no"?>
<!-- Created with Inkscape (http://www.inkscape.org/) -->

<svg
   xmlns:dc="http://purl.org/dc/elements/1.1/"
   xmlns:cc="http://creativecommons.org/ns#"
   xmlns:rdf="http://www.w3.org/1999/02/22-rdf-syntax-ns#"
   xmlns:svg="http://www.w3.org/2000/svg"
   xmlns="http://www.w3.org/2000/svg"
   xmlns:sodipodi="http://sodipodi.sourceforge.net/DTD/sodipodi-0.dtd"
   xmlns:inkscape="http://www.inkscape.org/namespaces/inkscape"
   width="19.774759mm"
   height="23mm"
   viewBox="0 0 19.774759 23"
   version="1.1"
   id="svg103"
   inkscape:version="0.92.3 (2405546, 2018-03-11)"
   sodipodi:docname="icon_da.svg">
  <defs
     id="defs97" />
  <sodipodi:namedview
     id="base"
     pagecolor="#ffffff"
     bordercolor="#666666"
     borderopacity="1.0"
     inkscape:pageopacity="0.0"
     inkscape:pageshadow="2"
     inkscape:zoom="0.35"
     inkscape:cx="611.65534"
     inkscape:cy="637.7503"
     inkscape:document-units="mm"
     inkscape:current-layer="layer1"
     showgrid="false"
     inkscape:window-width="3840"
     inkscape:window-height="2004"
     inkscape:window-x="-16"
     inkscape:window-y="-16"
     inkscape:window-maximized="1" />
  <metadata
     id="metadata100">
    <rdf:RDF>
      <cc:Work
         rdf:about="">
        <dc:format>image/svg+xml</dc:format>
        <dc:type
           rdf:resource="http://purl.org/dc/dcmitype/StillImage" />
        <dc:title></dc:title>
      </cc:Work>
    </rdf:RDF>
  </metadata>
  <g
     inkscape:label="Layer 1"
     inkscape:groupmode="layer"
     id="layer1"
     transform="translate(56.000475,-294.57143)">
    <g
       id="g123"
       transform="matrix(0.46660583,0,0,0.46660583,23.0952,230.73326)"
       style="fill:#1a181d;fill-opacity:1"
       inkscape:export-filename="C:\Users\dmarin\Dropbox\Pro\OpenDC\02 IT\00 - Website\01 Images\clients\48px\icon_d&amp;a.png"
       inkscape:export-xdpi="47.486954"
       inkscape:export-ydpi="47.486954">
      <path
         style="fill:#1a181d;fill-opacity:1;stroke-width:0.26458335"
         d="m -166.06383,186.03983 c 2.9e-4,-0.0364 0.57457,-1.25677 1.27618,-2.71198 0.7016,-1.45521 3.10175,-6.4856 5.33367,-11.17864 l 4.05803,-8.53282 h 1.92727 1.92728 l -0.62203,1.38907 c -0.34212,0.76398 -1.69389,3.65125 -3.00394,6.41614 l -2.3819,5.02709 4.1095,0.13229 4.10951,0.13229 1.45679,1.65365 1.45679,1.65364 h -6.39429 -6.39429 l -1.48578,3.04271 -1.48578,3.04271 h -1.94377 c -1.06908,0 -1.94354,-0.0298 -1.94324,-0.0661 z m 24.71925,-16.06901 c -4.25246,-0.63285 -6.60933,-4.43865 -5.26455,-8.50106 0.36101,-1.09055 0.88928,-1.8434 2.24958,-3.20589 1.37834,-1.38057 1.70142,-1.84402 1.43794,-2.06269 -0.49141,-0.40783 -1.24453,-2.08199 -1.45886,-3.24298 -0.41965,-2.27318 0.82165,-4.66336 3.01409,-5.80374 1.6227,-0.84404 4.39433,-0.81336 5.98132,0.0662 1.02411,0.56759 2.93174,2.60791 2.91802,3.121 -0.003,0.0978 -0.59063,0.56091 -1.30671,1.02907 l -1.30195,0.85121 -0.57092,-0.92377 c -1.89751,-3.07023 -6.29979,-1.47699 -4.93623,1.78648 0.20686,0.49508 1.40424,2.11293 2.66084,3.59522 1.2566,1.48228 2.28473,2.74628 2.28473,2.80889 0,0.0626 -0.61341,0.56411 -1.36313,1.11445 l -1.36313,1.00063 -1.09654,-1.26399 -1.09655,-1.264 -1.0971,1.06471 c -2.5787,2.50255 -1.95535,6.07096 1.14164,6.53538 2.4963,0.37434 3.58554,-0.34314 7.05486,-4.64704 1.46628,-1.81901 2.77007,-3.34825 2.89731,-3.39832 0.12724,-0.0501 0.76588,0.34697 1.41919,0.88231 1.35107,1.1071 1.45797,0.66932 -0.89713,3.67404 l -1.14746,1.46396 2.00736,2.32406 c 1.10404,1.27823 2.00734,2.41469 2.00734,2.52546 0,0.11078 -0.94238,0.20141 -2.09418,0.20141 h -2.09418 l -1.02481,-1.16425 -1.02481,-1.16425 -1.0482,0.79849 c -2.12546,1.61914 -4.29275,2.18522 -6.88778,1.79902 z m -28.15937,-17.73151 v -7.14375 h 1.85208 1.85209 v 5.32919 5.32919 l 3.53822,-0.13502 c 3.05497,-0.11657 3.73908,-0.22696 5.00874,-0.80823 2.62882,-1.20351 3.85887,-3.85247 3.54261,-7.62915 -0.18392,-2.19623 -0.73261,-3.52839 -1.98094,-4.80944 -1.21647,-1.24836 -2.82269,-1.74529 -5.94082,-1.83796 l -2.31447,-0.0688 -6.3e-4,-1.78594 -6.3e-4,-1.78593 h 2.32566 c 6.67782,0 10.78073,3.21568 11.70229,9.17173 0.60809,3.93012 -0.55468,7.76161 -3.08039,10.15033 -2.58235,2.44227 -5.29184,3.14345 -12.20433,3.15829 l -4.29948,0.009 z"
         id="path137"
         inkscape:connector-curvature="0" />
      <path
         style="fill:#1a181d;fill-opacity:1;stroke-width:0.26458335"
         d="m -164.64167,183.12942 c 0.7715,-1.63711 3.16858,-6.69727 5.32684,-11.2448 l 3.92411,-8.26823 h 1.92213 1.92212 l -1.01198,2.18282 c -0.55659,1.20054 -1.91812,4.07536 -3.02562,6.38849 -1.10749,2.31312 -2.01363,4.24788 -2.01363,4.29947 0,0.0516 1.83093,0.0938 4.06873,0.0938 h 4.06873 l 1.50989,1.71979 1.5099,1.71979 h -6.44677 -6.44676 l -1.41591,3.04271 -1.41591,3.04271 h -1.9393 -1.9393 z m 21.83023,-13.52805 c -3.27492,-1.17033 -4.83992,-4.45212 -3.81097,-7.99159 0.37942,-1.30515 0.73734,-1.83152 2.26743,-3.33454 1.05169,-1.03308 1.69856,-1.85787 1.53593,-1.95838 -0.15452,-0.0955 -0.56521,-0.78413 -0.91263,-1.53028 -1.07969,-2.31882 -0.78559,-4.75035 0.78316,-6.47501 1.79548,-1.97393 5.78313,-2.34099 8.14445,-0.74969 0.73303,0.49399 2.30572,2.39896 2.33252,2.82535 0.0113,0.18028 -2.23616,1.58791 -2.53202,1.58582 -0.13026,-9.2e-4 -0.43483,-0.34968 -0.67681,-0.77503 -1.24171,-2.18261 -4.62292,-1.99871 -5.12311,0.27864 -0.24681,1.12373 0.58411,2.61051 3.0489,5.45551 1.16452,1.34414 2.11731,2.49486 2.11731,2.55715 0,0.0623 -0.60984,0.56091 -1.35518,1.10805 l -1.35519,0.9948 -1.09221,-1.24138 -1.09221,-1.24138 -0.86723,0.69091 c -1.6945,1.34997 -2.3729,3.74269 -1.52568,5.38103 0.89038,1.72181 3.88557,2.09136 5.93861,0.73273 0.57483,-0.38041 2.21487,-2.17676 3.64452,-3.99187 1.42965,-1.81512 2.69839,-3.30757 2.81941,-3.31656 0.12103,-0.009 0.74218,0.4115 1.38032,0.93441 l 1.16027,0.95075 -1.61118,2.07857 -1.61119,2.07858 1.99887,2.32849 1.99888,2.32849 -2.16489,0.0819 -2.16488,0.0819 -0.97207,-1.1192 -0.97208,-1.1192 -0.995,0.87363 c -1.60788,1.41174 -2.86238,1.8515 -5.26293,1.84492 -1.16417,-0.003 -2.54707,-0.15961 -3.07312,-0.3476 z m -26.69251,-17.32583 v -7.17998 h 1.85208 1.85209 v 5.32618 5.32618 l 3.50573,-0.14392 c 4.1763,-0.17145 5.26282,-0.48593 6.72935,-1.94774 3.0899,-3.07996 2.39891,-10.18831 -1.18626,-12.20329 -1.10442,-0.62072 -3.6714,-1.11484 -5.80768,-1.11791 l -1.38906,-0.002 v -1.71979 -1.71979 h 2.08055 c 1.14431,0 2.71318,0.11997 3.48638,0.2666 4.80165,0.91062 8.03345,4.43376 8.42221,9.18146 0.35303,4.31142 -0.5724,7.47531 -2.83005,9.67541 -2.59344,2.52733 -4.56152,3.09071 -11.48982,3.28901 l -5.22552,0.14957 z"
         id="path135"
         inkscape:connector-curvature="0" />
      <path
         style="fill:#1a181d;fill-opacity:1;stroke-width:0.26458335"
         d="m -165.75304,185.71712 c 0.047,-0.21387 2.40471,-5.27403 5.23923,-11.24479 l 5.15369,-10.85594 h 1.79163 c 0.98539,0 1.79162,0.11503 1.79162,0.25561 0,0.14058 -1.30968,3.01822 -2.91041,6.39475 -1.60073,3.37652 -2.91042,6.17853 -2.91042,6.22668 0,0.0482 1.82433,0.0876 4.05406,0.0876 h 4.05405 l 1.51928,1.71979 1.51928,1.71979 h -6.45165 -6.45164 l -1.407,3.04271 -1.40699,3.04271 h -1.83514 c -1.47683,0 -1.81843,-0.0759 -1.74959,-0.38886 z m 22.74151,-16.20123 c -2.52616,-0.89274 -4.25851,-3.87239 -3.87454,-6.66419 0.23339,-1.69693 1.42913,-3.71463 3.00669,-5.07351 l 1.29484,-1.11535 -0.819,-1.31748 c -0.65926,-1.06053 -0.83527,-1.65961 -0.90245,-3.07166 -0.1016,-2.13559 0.52776,-3.42376 2.27148,-4.64929 0.96496,-0.67821 1.43607,-0.81546 3.08454,-0.89871 2.90558,-0.14672 4.85767,0.73021 5.83573,2.62157 0.54756,1.05886 0.51469,1.14997 -0.70644,1.95807 l -1.09381,0.72385 -0.95671,-1.11067 c -0.80878,-0.93894 -1.14908,-1.13235 -2.20084,-1.25085 -1.12477,-0.12672 -1.32152,-0.0628 -2.05053,0.66622 -1.4689,1.4689 -0.99159,2.73388 2.60449,6.90256 1.05282,1.22046 1.81741,2.3006 1.69907,2.40032 -0.11833,0.0997 -0.72972,0.57645 -1.35864,1.05942 l -1.14349,0.87812 -1.10547,-1.2427 -1.10546,-1.2427 -0.95769,0.79936 c -1.15314,0.96249 -1.82044,2.27581 -1.82044,3.58281 0,2.07654 1.33703,3.32031 3.56928,3.32031 2.29398,0 3.38654,-0.88233 7.15683,-5.77976 1.01288,-1.31568 1.91136,-2.39894 1.99662,-2.40724 0.0853,-0.008 0.70747,0.41534 1.3827,0.9414 l 1.22769,0.95648 -1.25042,1.56841 c -2.23708,2.80602 -2.2431,2.29466 0.0587,4.98599 l 2.03598,2.38056 h -2.19447 -2.19448 l -0.95903,-1.11351 -0.95902,-1.11351 -1.12956,0.96685 c -0.62126,0.53178 -1.67267,1.15192 -2.33647,1.3781 -1.52132,0.51837 -4.58347,0.49867 -6.10564,-0.0393 z m -26.29398,-10.27711 c -0.10914,-0.11467 -0.19844,-3.34381 -0.19844,-7.17586 v -6.96736 h 1.85208 1.85209 v 5.32558 5.32559 l 3.63802,-0.11997 c 4.16052,-0.13719 5.4545,-0.53928 6.84988,-2.12855 1.26802,-1.44421 1.76568,-3.26581 1.63494,-5.98447 -0.24044,-4.99999 -2.90411,-7.18068 -8.77108,-7.18068 h -1.49968 v -1.71979 -1.71979 l 2.18281,0.004 c 5.42577,0.01 9.13226,2.04257 11.00392,6.03516 0.65323,1.39347 0.7039,1.75866 0.7039,5.07343 0,3.31477 -0.0507,3.67995 -0.7039,5.07342 -1.34365,2.86625 -3.68556,4.75978 -6.98883,5.65076 -1.70942,0.46108 -11.20325,0.87895 -11.55571,0.50862 z"
         id="path133"
         inkscape:connector-curvature="0" />
      <path
         style="fill:#1a181d;fill-opacity:1;stroke-width:0.26458335"
         d="m -165.75304,185.73087 c 0.047,-0.20631 2.40727,-5.26417 5.24492,-11.2397 l 5.15938,-10.8646 1.78594,-0.005 c 0.98226,-0.003 1.78593,0.0991 1.78593,0.22638 0,0.12731 -1.30968,2.989 -2.91041,6.3593 -1.60073,3.37031 -2.91042,6.18318 -2.91042,6.25083 0,0.0676 1.82761,0.12298 4.06136,0.12298 h 4.06137 l 1.36259,1.56661 c 0.74943,0.86163 1.3626,1.63554 1.3626,1.71979 0,0.0842 -2.84171,0.15318 -6.31491,0.15318 h -6.31491 l -1.41591,3.04271 -1.41591,3.04271 h -1.81358 c -1.42914,0 -1.79545,-0.0795 -1.72804,-0.37511 z m 22.25367,-16.56231 c -4.42996,-2.21368 -4.56179,-7.95161 -0.26359,-11.47366 l 1.20578,-0.98804 -0.8286,-1.33293 c -1.7018,-2.73762 -1.12627,-6.03686 1.35373,-7.7603 0.99119,-0.68881 1.42757,-0.80909 3.23282,-0.89107 1.74547,-0.0793 2.28702,0.002 3.30968,0.49714 1.16089,0.56198 2.76268,2.32443 2.76268,3.03977 0,0.17711 -0.4848,0.64285 -1.07733,1.03497 l -1.07734,0.71294 -1.12397,-1.20695 c -0.99442,-1.06785 -1.25377,-1.20695 -2.2503,-1.20695 -0.89213,0 -1.28717,0.16082 -1.89974,0.77339 -1.42192,1.42192 -0.95169,2.72954 2.38074,6.62032 1.17717,1.37441 2.05039,2.57361 1.94048,2.6649 -0.1099,0.0913 -0.70664,0.55499 -1.32608,1.03045 l -1.12625,0.86446 -1.13491,-1.25354 -1.13491,-1.25354 -0.9935,0.8723 c -1.26665,1.11214 -1.76022,2.0766 -1.76022,3.43959 0,2.37727 1.4076,3.57361 3.98531,3.38716 1.94652,-0.1408 2.78954,-0.77285 5.4771,-4.10644 1.12583,-1.39646 2.34493,-2.88519 2.70911,-3.30829 l 0.66214,-0.76927 1.2488,0.97293 1.2488,0.97293 -1.60491,1.96408 c -0.88269,1.08024 -1.54758,2.10866 -1.47752,2.28538 0.0701,0.17672 0.98039,1.30358 2.02296,2.50412 l 1.89558,2.18282 h -2.18949 -2.18949 l -0.94407,-1.09615 -0.94408,-1.09615 -1.40254,1.06155 c -1.71845,1.30064 -2.85368,1.65991 -5.24499,1.65991 -1.52303,0 -2.12409,-0.13932 -3.44188,-0.79783 z m -26.00458,-17.07363 v -7.02355 l 1.78594,0.0782 c 1.18777,0.052 1.79701,0.189 1.81901,0.40896 0.0182,0.1819 0.048,2.5469 0.0661,5.25555 l 0.0331,4.92481 3.63802,-0.11427 c 3.95352,-0.12418 5.13081,-0.44005 6.50652,-1.74575 1.53668,-1.45847 1.894,-2.54148 1.894,-5.74065 0,-2.63592 -0.0659,-3.03519 -0.69901,-4.23333 -0.85367,-1.61564 -1.33445,-2.06635 -2.98119,-2.79479 -0.90387,-0.39982 -2.04701,-0.60832 -3.89294,-0.71004 l -2.61332,-0.144 v -1.71878 -1.71879 l 2.84427,0.14731 c 5.84843,0.3029 9.26339,2.58925 10.67939,7.14996 0.74103,2.38675 0.61745,6.43264 -0.26592,8.70602 -0.72038,1.85392 -2.4565,3.83328 -4.18955,4.77652 -2.31955,1.26246 -3.93334,1.52013 -9.52065,1.52013 h -5.10379 z"
         id="path131"
         inkscape:connector-curvature="0" />
      <path
         style="fill:#1a181d;fill-opacity:1;stroke-width:0.26458335"
         d="m -165.79978,185.91535 c 0,-0.11814 2.35453,-5.15397 5.23229,-11.19073 l 5.2323,-10.97593 1.80098,-0.0787 c 1.70447,-0.0745 1.79188,-0.05 1.63088,0.45726 -0.0936,0.2948 -1.41308,3.14771 -2.93224,6.33981 -1.51917,3.1921 -2.7623,5.90337 -2.76251,6.02503 -2.1e-4,0.12167 1.81549,0.18759 4.0349,0.14648 l 4.03527,-0.0747 1.42684,1.66223 1.42683,1.66224 -6.34239,0.0708 -6.3424,0.0707 -1.43444,2.97196 -1.43444,2.97197 -1.78594,0.0782 c -0.98226,0.043 -1.78593,-0.0184 -1.78593,-0.13657 z m 23.5462,-16.18085 c -2.92186,-0.95626 -4.56235,-3.11004 -4.56235,-5.98985 0,-2.21726 0.74645,-3.79087 2.68346,-5.65703 l 1.56609,-1.50881 -0.49835,-0.6484 c -0.82839,-1.0778 -1.3782,-3.08834 -1.23944,-4.53241 0.26094,-2.71571 2.35669,-4.49164 5.5118,-4.6707 2.29377,-0.13017 4.21099,0.65008 5.30363,2.15842 0.41903,0.57845 0.76187,1.19664 0.76187,1.37375 0,0.17711 -0.4848,0.64285 -1.07733,1.03497 l -1.07734,0.71294 -1.12397,-1.20695 c -0.99442,-1.06785 -1.25377,-1.20695 -2.2503,-1.20695 -0.89213,0 -1.28717,0.16082 -1.89974,0.77339 -1.43704,1.43705 -1.05386,2.53747 2.26931,6.51697 1.16417,1.39409 2.06599,2.61602 2.00406,2.7154 -0.0619,0.0994 -0.63537,0.55237 -1.27431,1.00663 l -1.1617,0.82594 -1.12505,-1.19076 -1.12507,-1.19075 -0.98758,0.86712 c -1.30304,1.14407 -1.75431,2.07706 -1.75431,3.62696 0,2.09485 1.25666,3.24701 3.54151,3.24701 2.29639,0 3.27148,-0.74363 6.82468,-5.20473 l 2.38629,-2.99601 0.70137,0.52439 c 1.37088,1.02498 1.6274,1.25488 1.6274,1.45855 0,0.11339 -0.66513,1.02938 -1.47807,2.03554 -0.81294,1.00616 -1.42157,1.97183 -1.35252,2.14593 0.0691,0.1741 0.97856,1.29881 2.02113,2.49935 l 1.89558,2.18282 h -2.16076 -2.16075 l -0.98917,-1.11465 -0.98916,-1.11465 -0.86805,0.73042 c -1.63945,1.3795 -2.89306,1.84909 -5.16302,1.93401 -1.16417,0.0436 -2.41509,-0.0185 -2.77984,-0.13786 z m -27.18866,-17.53854 0.0706,-6.96811 1.65365,-0.0788 1.65364,-0.0788 v 5.30429 5.30429 h 3.25927 c 3.81487,0 5.55006,-0.41385 6.97285,-1.66307 1.53941,-1.35163 2.19765,-3.07573 2.20072,-5.76427 0.006,-5.36579 -2.13372,-7.57687 -7.60283,-7.856 l -2.71334,-0.13849 v -1.68179 -1.68179 l 1.91823,0.005 c 3.89008,0.009 7.73992,1.38537 9.50716,3.39814 0.45288,0.51581 1.18348,1.70724 1.62354,2.64764 0.68265,1.45878 0.81781,2.10753 0.9206,4.41871 0.0996,2.24003 0.0241,3.02246 -0.43628,4.52043 -0.66732,2.17128 -2.08683,4.1343 -3.84325,5.31479 -2.2549,1.51551 -3.39443,1.73526 -9.62829,1.85668 l -5.62683,0.10961 z"
         id="path129"
         inkscape:connector-curvature="0" />
      <path
         style="fill:#1a181d;fill-opacity:1;stroke-width:0.26458335"
         d="m -165.80038,185.86671 c 3.2e-4,-0.0588 1.56634,-3.39259 3.48003,-7.40834 1.91368,-4.01574 4.291,-9.00441 5.28292,-11.08592 l 1.80349,-3.78458 1.72854,0.056 c 0.95069,0.0308 1.72853,0.1047 1.72853,0.16428 0,0.0596 -1.30968,2.87446 -2.91041,6.25529 -1.60073,3.38083 -2.91042,6.28988 -2.91042,6.46456 0,0.23348 1.10378,0.31859 4.16719,0.32132 l 4.16719,0.004 1.26187,1.51763 1.26187,1.51764 -6.32196,0.0708 -6.32196,0.0708 -1.39355,2.88555 -1.39354,2.88554 -1.81519,0.0864 c -0.99836,0.0475 -1.81493,0.0382 -1.8146,-0.0206 z m 23.07122,-16.38482 c -2.66591,-0.95399 -4.00476,-2.90421 -4.01481,-5.84811 -0.008,-2.48585 1.33628,-4.85908 3.63359,-6.41253 l 0.5967,-0.40349 -0.95346,-1.8262 c -0.81669,-1.56426 -0.93761,-2.01939 -0.84302,-3.17298 0.25116,-3.06283 2.25581,-4.90739 5.53463,-5.09266 1.55419,-0.0878 2.0269,-0.001 3.23977,0.59196 1.26488,0.61885 2.81375,2.27285 2.80699,2.99753 -0.001,0.11226 -0.49258,0.51767 -1.0923,0.90091 l -1.09039,0.6968 -1.11131,-1.15982 c -0.99283,-1.03618 -1.23922,-1.15982 -2.3112,-1.15982 -2.16141,0 -3.26076,1.94132 -2.21745,3.91574 0.20765,0.39296 1.383,1.90006 2.61189,3.34913 l 2.23434,2.63466 -1.1408,0.87107 c -0.62744,0.47908 -1.25315,0.87106 -1.39047,0.87106 -0.13731,0 -0.67993,-0.47625 -1.20581,-1.05833 -0.52587,-0.58208 -1.05134,-1.05833 -1.16771,-1.05833 -0.3061,0 -2.05226,1.8749 -2.42869,2.60775 -0.84313,1.64148 -0.19039,3.94328 1.34148,4.73053 0.85974,0.44185 3.27423,0.42054 4.15842,-0.0367 0.91752,-0.47446 2.88669,-2.57366 5.16918,-5.5105 l 1.79528,-2.30996 1.16236,0.85475 c 0.6393,0.47011 1.16701,0.9504 1.17268,1.0673 0.006,0.11691 -0.64452,1.02304 -1.44489,2.01364 -0.80036,0.9906 -1.45521,1.91913 -1.45521,2.06341 0,0.14429 0.83344,1.22522 1.85209,2.40209 1.01864,1.17687 1.85208,2.20651 1.85208,2.2881 0,0.0816 -0.88867,0.14834 -1.97482,0.14834 h -1.97482 l -1.03341,-1.10788 -1.03341,-1.10787 -1.02667,0.80704 c -1.71039,1.3445 -2.70105,1.72176 -4.8376,1.84223 -1.52618,0.0861 -2.34763,-0.008 -3.41323,-0.38886 z m -26.71309,-17.28234 0.0706,-6.9717 1.65365,-0.0788 1.65364,-0.0788 v 5.33313 5.33313 l 3.90261,-0.10706 c 4.33738,-0.11898 5.21975,-0.39029 6.86294,-2.11024 1.48059,-1.54977 2.10615,-4.23751 1.65033,-7.0908 -0.68191,-4.26861 -3.17777,-6.09541 -8.32786,-6.09541 h -1.97135 v -1.71979 -1.71979 l 1.65365,0.002 c 8.34668,0.0101 12.79333,4.45052 12.30442,12.28722 -0.28363,4.54612 -2.57602,7.6695 -6.75265,9.20047 -1.31426,0.48175 -2.2685,0.57152 -7.14372,0.67205 l -5.62684,0.11604 z"
         id="path127"
         inkscape:connector-curvature="0" />
      <path
         style="fill:#1a181d;fill-opacity:1;stroke-width:0.26458335"
         d="m -164.37257,182.86483 c 0.77398,-1.63711 3.11594,-6.5782 5.20434,-10.98021 l 3.79709,-8.00364 h 1.77908 1.77907 l -1.20548,2.57968 c -0.66301,1.41883 -2.0241,4.29433 -3.02465,6.38999 -1.00054,2.09567 -1.81916,3.85184 -1.81916,3.90261 0,0.0508 1.93476,0.0992 4.29948,0.10765 l 4.29948,0.0154 1.2487,1.506 1.2487,1.50601 -6.3487,0.0709 -6.3487,0.0709 -1.35865,2.9057 -1.35865,2.90569 h -1.7996 -1.7996 z m 22.0449,-13.27472 c -2.71103,-0.72905 -4.42413,-2.98939 -4.41953,-5.83134 0.004,-2.45237 0.98478,-4.25608 3.43585,-6.31852 0.74501,-0.62688 0.84188,-0.82488 0.58245,-1.1905 -0.86471,-1.2187 -1.43372,-2.62589 -1.55508,-3.84576 -0.19674,-1.97765 0.89427,-3.98915 2.65514,-4.89533 2.40347,-1.23687 5.42878,-1.0067 7.19917,0.54773 0.83725,0.73511 1.87837,2.27334 1.65617,2.44693 -0.0471,0.0368 -0.54425,0.37237 -1.10476,0.74571 l -1.0191,0.67881 -1.11836,-1.16718 c -1.01261,-1.05682 -1.23635,-1.16718 -2.36636,-1.16718 -1.63023,0 -2.54733,0.82964 -2.54588,2.30307 0.001,1.24574 0.58274,2.21323 3.09776,5.15391 1.08593,1.26971 1.90973,2.41323 1.83067,2.54116 -0.0791,0.12792 -0.6411,0.57725 -1.24897,0.9985 l -1.10522,0.76592 -0.99284,-1.11878 c -0.54605,-0.61533 -1.10069,-1.11878 -1.23252,-1.11878 -0.13183,0 -0.73102,0.50601 -1.33153,1.12448 -2.49425,2.56882 -1.86874,5.878 1.24324,6.57722 2.45068,0.55063 3.91429,-0.40051 7.45867,-4.84709 l 2.68075,-3.36311 1.01354,0.80274 c 0.55744,0.44151 1.07709,0.90557 1.15476,1.03124 0.11744,0.19003 -1.07767,1.84627 -2.68557,3.72179 -0.31071,0.36242 -0.0924,0.72639 1.66665,2.77812 l 2.02421,2.36107 -1.93593,0.0786 -1.93593,0.0786 -1.11453,-1.09383 -1.11453,-1.09383 -1.35816,0.97574 c -2.29231,1.64687 -4.74582,2.08435 -7.51423,1.33987 z m -26.9117,-17.3273 v -6.85567 l 1.58799,-0.0896 1.58798,-0.0897 -4.8e-4,5.22552 -4.9e-4,5.22552 h 3.39754 c 5.18082,0 7.03382,-0.804 8.43002,-3.65774 0.63476,-1.29739 0.7267,-1.79445 0.71699,-3.87618 -0.0249,-5.34032 -2.62779,-7.81191 -8.22694,-7.81191 h -2.20094 v -1.75956 -1.75957 l 2.61592,0.17143 c 7.12682,0.46705 10.85054,3.73391 11.31531,9.92704 0.37159,4.95167 -1.54333,8.8979 -5.22241,10.76224 -2.16628,1.09773 -4.37197,1.43415 -9.43642,1.43924 l -4.56407,0.005 z"
         id="path125"
         inkscape:connector-curvature="0" />
    </g>
  </g>
</svg>
