<?xml version="1.0" encoding="UTF-8" standalone="no"?>
<!-- Created with Inkscape (http://www.inkscape.org/) -->

<svg
   xmlns:dc="http://purl.org/dc/elements/1.1/"
   xmlns:cc="http://creativecommons.org/ns#"
   xmlns:rdf="http://www.w3.org/1999/02/22-rdf-syntax-ns#"
   xmlns:svg="http://www.w3.org/2000/svg"
   xmlns="http://www.w3.org/2000/svg"
   xmlns:sodipodi="http://sodipodi.sourceforge.net/DTD/sodipodi-0.dtd"
   xmlns:inkscape="http://www.inkscape.org/namespaces/inkscape"
   version="1.1"
   id="svg2"
   width="413.04135"
   height="99.042755"
   viewBox="0 0 413.04135 99.042755"
   sodipodi:docname="movement-strategies_full.svg"
   inkscape:version="0.92.3 (2405546, 2018-03-11)">
  <metadata
     id="metadata8">
    <rdf:RDF>
      <cc:Work
         rdf:about="">
        <dc:format>image/svg+xml</dc:format>
        <dc:type
           rdf:resource="http://purl.org/dc/dcmitype/StillImage" />
        <dc:title />
      </cc:Work>
    </rdf:RDF>
  </metadata>
  <defs
     id="defs6" />
  <sodipodi:namedview
     pagecolor="#ffffff"
     bordercolor="#666666"
     borderopacity="1"
     objecttolerance="10"
     gridtolerance="10"
     guidetolerance="10"
     inkscape:pageopacity="0"
     inkscape:pageshadow="2"
     inkscape:window-width="3840"
     inkscape:window-height="2004"
     id="namedview4"
     showgrid="false"
     inkscape:zoom="2.247619"
     inkscape:cx="105.85559"
     inkscape:cy="-24.362093"
     inkscape:window-x="-16"
     inkscape:window-y="-16"
     inkscape:window-maximized="1"
     inkscape:current-layer="svg2" />
  <path
     style="fill:#000000"
     d="m 347.90214,97.03326 c -1.9134,-1.59403 -2.04033,-1.97304 -0.6698,-2 0.93004,-0.0183 1.9691,0.41673 2.30902,0.96673 0.33992,0.55 2.36596,1 4.50231,1 4.11536,0 6.99769,-2.57753 6.99769,-6.25769 0,-1.48226 -0.35258,-1.62398 -1.93426,-0.77749 -5.67589,3.03764 -13.06574,-0.87588 -13.06574,-6.91937 0,-5.87563 6.98213,-9.7401 12.1938,-6.74901 1.54341,0.8858 2.8062,1.18147 2.8062,0.65705 0,-0.52442 0.45,-0.95349 1,-0.95349 0.59296,0 1,3.68182 1,9.04545 0,8.27049 -0.21029,9.25575 -2.45455,11.5 -3.11979,3.1198 -9.24269,3.35527 -12.68467,0.48782 z m 11.58252,-10.25578 c 2.09517,-2.99128 1.95931,-5.37488 -0.4433,-7.77749 -5.59423,-5.59423 -14.64253,2.31757 -9.34501,8.17126 2.37765,2.62727 7.8258,2.4081 9.78831,-0.39377 z m -100.6933,4.05023 c -1.5125,-0.54691 -2.75,-1.33189 -2.75,-1.74439 0,-1.71039 1.36858,-1.88793 3.54756,-0.46021 1.82082,1.19305 2.77495,1.27465 4.44615,0.38025 3.00216,-1.60671 2.03891,-3.28576 -2.77396,-4.83531 -5.16236,-1.66207 -6.50331,-4.71028 -3.236,-7.35599 2.69171,-2.17961 4.96937,-2.29805 7.57355,-0.39383 2.54655,1.86208 1.25441,3.10563 -1.46338,1.40834 -1.45333,-0.90762 -2.58589,-1.00603 -3.6746,-0.31929 -1.92202,1.21239 -2.03064,2.79014 -0.24654,3.58118 5.66429,2.51145 7.3661,3.74616 7.62548,5.53245 0.52707,3.62992 -4.35999,5.90205 -9.04826,4.2068 z m 17,0.0922 c -1.3502,-0.78642 -1.75,-2.35204 -1.75,-6.85296 0,-5.18524 -0.2501,-5.90789 -2.25,-6.50137 l -2.25,-0.66769 2.25,-0.91672 c 1.2945,-0.52741 2.25,-1.77973 2.25,-2.94894 0,-1.11772 0.45,-2.03222 1,-2.03222 0.55,0 1,1.125 1,2.5 0,2.01537 0.49607,2.5 2.55902,2.5 1.45136,0 2.2915,0.43284 1.94098,1 -0.33992,0.55 -1.51393,1 -2.60892,1 -1.79179,0 -1.9609,0.57501 -1.69098,5.75 0.22089,4.23524 0.69505,5.78547 1.7999,5.88465 3.24607,0.29139 3.44825,0.42942 2,1.36535 -1.84626,1.19314 -2.07126,1.1889 -4.25,-0.0801 z m 23.25,0.12648 c -1.83066,-0.45801 -2.5899,-1.40489 -2.83579,-3.53661 -0.42608,-3.69393 1.91393,-5.50977 7.10024,-5.50977 3.06538,0 3.81417,-0.34565 3.55887,-1.64282 -0.55737,-2.83202 -3.4056,-3.95333 -6.79356,-2.67452 -3.69606,1.39511 -4.95661,0.0607 -1.45135,-1.53643 3.40136,-1.54976 5.55434,-1.44198 8.19908,0.41047 1.91204,1.33925 2.22251,2.47173 2.22251,8.10699 0,5.42839 -0.2584,6.45113 -1.50868,5.97135 -0.82978,-0.31841 -2.51728,-0.21539 -3.75,0.22894 -1.23273,0.44433 -3.36632,0.52641 -4.74132,0.1824 z m 5.77749,-2.60308 c 1.22238,-0.85621 2.22251,-2.48129 2.22251,-3.61131 0,-1.83185 -0.40572,-1.97848 -3.74238,-1.35252 -4.75046,0.89119 -5.25762,1.22844 -5.25762,3.49619 0,3.08992 3.40779,3.82785 6.77749,1.46762 z m 13.47251,2.45752 c -1.98551,-0.73805 -2.25,-1.53176 -2.25,-6.75196 0,-5.24771 -0.25403,-5.99955 -2.25,-6.65918 l -2.25,-0.74358 2.25,-0.4426 c 1.59476,-0.31371 2.25,-1.15039 2.25,-2.87305 0,-3.05929 1.75101,-3.2042 2.18045,-0.18045 0.20609,1.45111 1.12371,2.36415 2.58438,2.57149 2.69933,0.38318 1.97926,2.17851 -0.87375,2.17851 -1.79179,0 -1.9609,0.57501 -1.69098,5.75 0.27306,5.23544 0.50125,5.74289 2.5499,5.6706 1.2375,-0.0437 2.25,0.24568 2.25,0.64301 0,1.27146 -2.42971,1.69971 -4.75,0.83721 z m 12.14966,-0.35301 c -6.77511,-2.89638 -5.70255,-13.44383 1.52859,-15.03205 2.83212,-0.62204 9.05431,1.61054 9.0854,3.25992 0.008,0.39838 0.285,1.73682 0.61664,2.97432 0.58396,2.17904 0.37854,2.25 -6.51366,2.25 -7.53005,0 -8.4205,0.69613 -5.11663,4 2.38754,2.38754 4.78457,2.53962 7.71185,0.48928 2.27177,-1.59121 4.15885,-0.41871 2.02714,1.25953 -2.2856,1.79938 -6.21326,2.1354 -9.33933,0.799 z m 8.60034,-10.06927 c 0,-0.83679 -1.1669,-2.05311 -2.5931,-2.70293 -2.07659,-0.94616 -3.10634,-0.8921 -5.16982,0.27144 -4.65669,2.62575 -3.9249,3.95293 2.17959,3.95293 4.33126,0 5.58333,-0.34118 5.58333,-1.52144 z m 42.09072,10.40671 c -3.19701,-1.24557 -5.01999,-3.78728 -5.05892,-7.05348 -0.0481,-4.03197 0.91607,-5.75347 4.16237,-7.4322 5.21481,-2.69668 11.80583,0.55416 11.80583,5.82292 0,1.53404 -0.95875,1.77749 -7,1.77749 -3.85,0 -7,0.25458 -7,0.56574 0,0.31116 0.43813,1.3844 0.97362,2.38497 1.44406,2.69825 5.76683,3.44937 8.71903,1.51502 2.79557,-1.83173 4.45835,-1.14088 2.24783,0.93393 -2.04111,1.9158 -6.02783,2.58505 -8.84976,1.48561 z m 7.94553,-10.81755 c -0.56877,-1.06275 -1.9346,-2.21807 -3.03519,-2.56738 -2.73933,-0.86943 -5.79449,0.24516 -7.03731,2.56738 -0.96925,1.81107 -0.65332,1.93228 5.03625,1.93228 5.68957,0 6.0055,-0.12121 5.03625,-1.93228 z m 10.46375,11.13503 c -2.63728,-0.55115 -4.61347,-2.21014 -3.93684,-3.30494 0.29762,-0.48157 1.62063,-0.16826 2.94002,0.69623 2.89216,1.89502 6.49682,1.02585 6.49682,-1.56653 0,-1.2844 -1.27965,-2.24266 -4.25,-3.18262 -3.45166,-1.09226 -4.30822,-1.84883 -4.55993,-4.02763 -0.22065,-1.90994 0.30035,-3.00936 1.80865,-3.81657 2.25865,-1.2088 7.5736,-0.50171 8.58995,1.14278 1.08452,1.75479 -0.52367,2.22928 -3.02272,0.89183 -1.33706,-0.71558 -3.16964,-1.01762 -4.0724,-0.6712 -2.8634,1.09879 -1.20432,3.89804 3.00645,5.07257 3.45214,0.96292 4.04173,1.54128 4.30464,4.22266 0.25868,2.63816 -0.11852,3.24682 -2.5,4.03416 -1.54255,0.50998 -3.70464,0.73915 -4.80464,0.50926 z m -115.5,-7.59696 c 0,-7.00357 0.11887,-7.39383 2.25,-7.38693 1.2375,0.004 3.2625,-0.32107 4.5,-0.72241 3.38518,-1.09787 2.70566,0.89308 -0.75,2.19745 -2.88073,1.08735 -3,1.37436 -3,7.21924 0,4.74388 -0.33095,6.08686 -1.5,6.08686 -1.19809,0 -1.5,-1.48825 -1.5,-7.39421 z m 85,-0.10579 c 0,-4.33333 0.42222,-7.5 1,-7.5 0.57778,0 1,3.16667 1,7.5 0,4.33333 -0.42222,7.5 -1,7.5 -0.57778,0 -1,-3.16667 -1,-7.5 z m -0.77083,-13.6875 c 0.61807,-1.85422 2.77083,-2.16176 2.77083,-0.39583 0,0.87083 -0.7125,1.58333 -1.58333,1.58333 -0.87084,0 -1.40521,-0.53438 -1.1875,-1.1875 z M 84.66613,60.53088 C 75.78551,57.3654 70.31976,48.28056 71.34127,38.3831 72.68297,25.3833 84.35655,17.40473 98.195202,20.02918 c 7.573688,1.43632 12.509268,5.05027 15.412218,11.28519 4.19685,9.01394 2.77266,17.73143 -3.95572,24.21297 -6.42465,6.18896 -16.179528,8.14244 -24.98557,5.00354 z m 15.45215,-12.45397 c 2.38761,-2.3876 2.92308,-3.76984 2.92308,-7.54545 0,-6.20264 -3.150298,-9.53146 -9.020278,-9.53146 -5.384362,0 -7.838522,1.41782 -9.551812,5.5183 -4.3886,10.50339 7.74337,19.46426 15.64901,11.55861 z m 80.30605,11.57596 c -5.92405,-2.82211 -9.71375,-7.33102 -11.35966,-13.5155 -2.67148,-10.03804 1.96184,-19.61721 11.92306,-24.65044 4.55134,-2.29971 14.49159,-2.38414 18.75194,-0.15927 6.12016,3.19611 10.28322,11.25136 10.29611,19.92233 l 0.006,3.75 h -14.5 c -9.42029,0 -14.5,0.36625 -14.5,1.04545 0,1.86749 4.84755,5.95146 7.20455,6.0697 4.41057,0.22127 6.3121,-0.30944 8.55467,-2.38756 l 2.25922,-2.09354 4.16868,2.93297 c 2.29277,1.61314 4.16144,3.38298 4.1526,3.93298 -0.009,0.55 -2.16152,2.33171 -4.78372,3.95935 -6.68791,4.15128 -15.0225,4.59991 -22.17303,1.19353 z M 197.04136,34.7225 c 0,-5.87098 -9.99505,-8.08684 -13.92742,-3.08764 -1.13992,1.44917 -2.07258,3.02416 -2.07258,3.49999 0,0.47583 3.6,0.86514 8,0.86514 5.82516,0 8,-0.34729 8,-1.27749 z m 105.88507,25.89787 c -9.17793,-3.27983 -13.88507,-10.05183 -13.88507,-19.97594 0,-12.52704 8.80169,-20.90871 22,-20.95016 11.39556,-0.0358 19,8.06769 19,20.24687 v 5.00538 l -14.71126,0.27674 -14.71126,0.27673 2.9952,3.35 c 3.67759,4.11321 8.99589,4.58442 13.57037,1.20236 l 2.90484,-2.14764 3.9547,2.79764 c 2.17509,1.5387 3.96432,3.11224 3.97606,3.49675 0.0364,1.19063 -6.30076,5.46513 -9.87787,6.66279 -4.41819,1.47926 -10.67852,1.37989 -15.21571,-0.24152 z m 15.11493,-25.48552 c 0,-0.47583 -0.93266,-2.05082 -2.07258,-3.49999 -2.84028,-3.61083 -8.95398,-3.69921 -12.47287,-0.18031 -3.95673,3.95671 -3.17373,4.54544 6.04545,4.54544 4.675,0 8.5,-0.38931 8.5,-0.86514 z m 78.3783,25.42822 c -5.5679,-2.42328 -6.3783,-4.68305 -6.3783,-17.78559 V 31 h -4 -4 V 25.5 20 h 4 4 V 14 8 h 6 6 v 6 6 h 5.5 5.5 v 5.5 5.5 h -5.5 -5.5 v 8.30886 c 0,10.20016 1.00823,11.95439 6.82455,11.87411 l 4.17545,-0.0576 v 4.83033 c 0,3.48214 -0.44149,4.99975 -1.58179,5.43732 -2.78978,1.07054 -11.81793,0.57235 -15.03991,-0.82993 z M 0.27066,40.74999 0.54136,20.5 h 5.4549199 c 4.8987001,0 5.5113701,0.23916 6.0086101,2.34548 l 0.55369,2.34547 1.90019,-2.09969 c 4.4527,-4.92017 14.7785,-4.70499 19.58197,0.40808 l 2.36912,2.5218 2.64103,-2.53026 c 5.37281,-5.14749 14.71534,-5.4186 19.89783,-0.57742 3.78876,3.53923 5.09264,10.10283 5.09264,25.63575 v 12.45078 h -6.5 -6.5 V 47.69112 c 0,-15.59438 -0.55584,-17.00289 -6.51689,-16.51401 -5.62611,0.46141 -6.45047,2.70099 -6.46836,17.57288 l -0.0147,12.25 h -6.5 -6.5 v -13.8 C 25.04141,32.08531 24.66993,31 19.4964,31 13.70857,31 12.66339,33.44737 12.20789,48.06661 L 11.80493,60.99999 H 5.9024699 0 Z m 127.2707,0.56839 c -4.4,-10.84182 -7.8875,-19.96125 -7.75,-20.26539 0.1375,-0.30415 3.0625,-0.55299 6.5,-0.55299 h 6.25 l 4.93144,13.23522 c 2.7123,7.27936 5.1873,12.98628 5.5,12.68203 0.31271,-0.30426 2.59706,-6.26011 5.07635,-13.23521 L 152.55693,20.5 l 4.86516,-0.30981 c 2.67583,-0.1704 5.44949,-0.0856 6.16369,0.18848 0.94777,0.3637 -0.80555,5.84997 -6.49066,20.30981 l -7.78921,19.81151 -6.88228,0.26541 -6.88227,0.2654 z m 89.72929,-0.56839 0.27071,-20.24999 5.75,-0.2999 c 5.57508,-0.29078 5.75,-0.22234 5.75,2.25 0,3.06187 0.40518,3.14472 2.94725,0.60265 4.73642,-4.73642 15.54,-4.49055 19.80275,0.45066 l 2.25,2.60812 2.25,-2.60895 c 4.5151,-5.2354 15.74489,-5.33027 20.58901,-0.17394 3.39149,3.61007 4.16099,7.94023 4.16099,23.41475 v 14.2566 h -6 -6 l -0.0147,-12.25 c -0.0175,-14.57337 -0.89393,-17.11146 -6.05937,-17.5485 -6.2232,-0.52653 -7.28976,1.79165 -7.75941,16.86512 l -0.40301,12.93338 h -5.88175 -5.88176 V 47.69112 c 0,-15.59438 -0.55584,-17.00289 -6.51689,-16.51401 -5.62611,0.46141 -6.45047,2.70099 -6.46837,17.57288 l -0.0147,12.25 h -6.52071 -6.5207 z m 120.77071,-0.2999 v -20.5499 l 5.70899,0.29991 c 5.04963,0.26526 5.77247,0.57079 6.25861,2.64538 l 0.54961,2.34547 1.9002,-2.09969 c 3.72205,-4.11282 12.87722,-4.84276 18.31178,-1.46 4.68213,2.91442 5.67195,6.75322 6.08998,23.61873 l 0.39039,15.75 h -6.60478 -6.60478 V 47.65498 c 0,-14.82373 -0.73008,-16.67032 -6.57874,-16.63967 -6.15226,0.0323 -7.42126,3.20416 -7.42126,18.54978 v 11.4349 h -6 -6 z M 16.04136,11 C 13.25052,8.20916 13.50979,4.56329 16.67622,2.07258 18.12539,0.93266 19.86471,0 20.54136,0 c 2.4094,0 6.5,4.13628 6.5,6.57258 0,3.14552 -3.31896,6.42742 -6.5,6.42742 -1.375,0 -3.4,-0.9 -4.5,-2 z m 21.65499,0.17126 C 34.2845,7.4012 37.08976,0 41.93058,0 c 2.39675,0 5.75556,2.87177 6.5414,5.59287 1.53936,5.33025 -6.99966,9.75078 -10.77563,5.57839 z"
     id="path12"
     inkscape:connector-curvature="0"
     inkscape:export-xdpi="96"
     inkscape:export-ydpi="96" />
</svg>
