<?xml version="1.0" encoding="UTF-8" standalone="no"?>
<!DOCTYPE svg PUBLIC "-//W3C//DTD SVG 1.1//EN" "http://www.w3.org/Graphics/SVG/1.1/DTD/svg11.dtd">
<!-- Generated by Microsoft Visio, SVG Export icon_python.svg Page-1 -->
<svg xmlns="http://www.w3.org/2000/svg" xmlns:xlink="http://www.w3.org/1999/xlink" xmlns:ev="http://www.w3.org/2001/xml-events"
		xmlns:v="http://schemas.microsoft.com/visio/2003/SVGExtensions/" width="1.17876in" height="1.57381in"
		viewBox="0 0 84.871 113.314" xml:space="preserve" color-interpolation-filters="sRGB" class="st4">
	<v:documentProperties v:langID="2057" v:metric="true" v:viewMarkup="false"/>

	<style type="text/css">
	<![CDATA[
		.st1 {fill:url(#grad0-5);stroke:none;stroke-linecap:butt;stroke-width:0.75}
		.st2 {fill:url(#grad0-9);stroke:none;stroke-linecap:butt;stroke-width:0.75}
		.st3 {fill:url(#grad2-13);stroke:none;stroke-linecap:butt;stroke-width:11.5631}
		.st4 {fill:none;fill-rule:evenodd;font-size:12px;overflow:visible;stroke-linecap:square;stroke-miterlimit:3}
	]]>
	</style>

	<defs id="Patterns_And_Gradients">
		<linearGradient id="grad0-5" x1="0" y1="0" x2="1" y2="0" gradientTransform="rotate(40.932873964862 0.5 0.5)">
			<stop offset="0" stop-color="#5a9fd4" stop-opacity="1"/>
			<stop offset="1" stop-color="#306998" stop-opacity="1"/>
		</linearGradient>
		<linearGradient id="grad0-9" x1="0" y1="0" x2="1" y2="0" gradientTransform="rotate(-125.45316391506 0.5 0.5)">
			<stop offset="0" stop-color="#ffd43b" stop-opacity="1"/>
			<stop offset="1" stop-color="#ffe873" stop-opacity="1"/>
		</linearGradient>
		<radialGradient id="grad2-13" cx="0" cy="1" r="1.4">
			<stop offset="0" stop-color="#b8b8b8" stop-opacity="1"/>
			<stop offset="1" stop-color="#7f7f7f" stop-opacity="1"/>
		</radialGradient>
	</defs>
	<g v:mID="0" v:index="1" v:groupContext="foregroundPage">
		<title>Page-1</title>
		<v:pageProperties v:drawingScale="0.0393701" v:pageScale="0.0393701" v:drawingUnits="24" v:shadowOffsetX="9"
				v:shadowOffsetY="-9"/>
		<g id="group238-1" transform="translate(0.23739,-11.563)" v:mID="238" v:groupContext="group">
			<title>icon_python</title>
			<g id="shape239-2" v:mID="239" v:groupContext="shape" transform="translate(-5.59552E-14,-38.6801)">
				<title>path1948</title>
				<path d="M41.7 50.99 C38.26 51.01 34.98 51.3 32.09 51.81 C23.58 53.32 22.04 56.46 22.04 62.27 L22.04 69.93 L42.15
							 69.93 L42.15 72.49 L22.04 72.49 L14.49 72.49 C8.65 72.49 3.53 76 1.93 82.68 C0.08 90.34 0 95.12 1.93
							 103.12 C3.36 109.07 6.77 113.31 12.62 113.31 L19.53 113.31 L19.53 104.13 C19.53 97.49 25.27 91.63 32.09
							 91.63 L52.18 91.63 C57.77 91.63 62.23 87.03 62.23 81.42 L62.23 62.27 C62.23 56.82 57.64 52.72 52.18
							 51.81 C48.72 51.24 45.14 50.98 41.7 50.99 ZM30.83 57.16 C32.9 57.16 34.6 58.88 34.6 61 C34.6 63.11 32.9
							 64.82 30.83 64.82 C28.74 64.82 27.05 63.11 27.05 61 C27.05 58.88 28.74 57.16 30.83 57.16 Z"
						class="st1"/>
			</g>
			<g id="shape240-6" v:mID="240" v:groupContext="shape" transform="translate(22.0376,-16.0326)">
				<title>path1950</title>
				<path d="M42.7 49.84 L42.7 58.77 C42.7 65.69 36.83 71.52 30.14 71.52 L10.05 71.52 C4.55 71.52 0 76.23 0 81.74 L0
							 100.89 C0 106.34 4.74 109.54 10.05 111.1 C16.42 112.98 22.52 113.31 30.14 111.1 C35.2 109.64 40.2 106.69
							 40.2 100.89 L40.2 93.22 L20.11 93.22 L20.11 90.67 L40.2 90.67 L50.25 90.67 C56.09 90.67 58.27 86.59
							 60.3 80.47 C62.4 74.17 62.31 68.11 60.3 60.03 C58.86 54.22 56.1 49.84 50.25 49.84 L42.7 49.84 ZM31.41
							 98.33 C33.49 98.33 35.18 100.04 35.18 102.15 C35.18 104.27 33.49 105.99 31.41 105.99 C29.33 105.99 27.63
							 104.27 27.63 102.15 C27.63 100.04 29.33 98.33 31.41 98.33 Z" class="st2"/>
			</g>
			<g id="shape241-10" v:mID="241" v:groupContext="shape" transform="translate(15.4269,0)">
				<title>path1894</title>
				<ellipse cx="26.9482" cy="108.089" rx="26.9482" ry="5.22548" class="st3"/>
			</g>
		</g>
	</g>
</svg>
