<?xml version="1.0" encoding="UTF-8" standalone="no"?>
<svg
   xmlns:dc="http://purl.org/dc/elements/1.1/"
   xmlns:cc="http://creativecommons.org/ns#"
   xmlns:rdf="http://www.w3.org/1999/02/22-rdf-syntax-ns#"
   xmlns:svg="http://www.w3.org/2000/svg"
   xmlns="http://www.w3.org/2000/svg"
   xmlns:sodipodi="http://sodipodi.sourceforge.net/DTD/sodipodi-0.dtd"
   xmlns:inkscape="http://www.inkscape.org/namespaces/inkscape"
   id="Calque_1"
   data-name="Calque 1"
   viewBox="0 0 52.73 42.59"
   version="1.1"
   sodipodi:docname="ODC_service_Mobile_data.svg"
   inkscape:version="0.92.3 (2405546, 2018-03-11)">
  <metadata
     id="metadata3373">
    <rdf:RDF>
      <cc:Work
         rdf:about="">
        <dc:format>image/svg+xml</dc:format>
        <dc:type
           rdf:resource="http://purl.org/dc/dcmitype/StillImage" />
        <dc:title>icons-ODC</dc:title>
      </cc:Work>
    </rdf:RDF>
  </metadata>
  <defs
     id="defs3371" />
  <sodipodi:namedview
     pagecolor="#ffffff"
     bordercolor="#666666"
     borderopacity="1"
     objecttolerance="10"
     gridtolerance="10"
     guidetolerance="10"
     inkscape:pageopacity="0"
     inkscape:pageshadow="2"
     inkscape:window-width="3840"
     inkscape:window-height="2104"
     id="namedview3369"
     showgrid="false"
     inkscape:zoom="5.5412068"
     inkscape:cx="-66.214111"
     inkscape:cy="21.295"
     inkscape:window-x="-16"
     inkscape:window-y="-16"
     inkscape:window-maximized="1"
     inkscape:current-layer="Calque_1" />
  <title
     id="title3352">icons-ODC</title>
  <path
     d="M19.46,13.64a.5.5,0,0,0,.35-.15.51.51,0,0,0,0-.71,8.78,8.78,0,0,0-12.41,0,.5.5,0,0,0,.71.71,7.76,7.76,0,0,1,11,0A.51.51,0,0,0,19.46,13.64Z"
     id="path3354" />
  <path
     d="M26.29,35.65A18,18,0,0,1,.85,35.59a.5.5,0,1,0-.7.7A19,19,0,0,0,27,36.36a.49.49,0,0,0,0-.7A.5.5,0,0,0,26.29,35.65Z"
     id="path3356" />
  <path
     d="M3.58,32.15a.5.5,0,0,0,0,.7,14.12,14.12,0,0,0,20,.08.51.51,0,0,0,0-.71.5.5,0,0,0-.71,0,13.12,13.12,0,0,1-18.56-.07A.5.5,0,0,0,3.58,32.15Z"
     id="path3358" />
  <path
     d="M7.33,29.11a8.78,8.78,0,0,0,12.41,0A.5.5,0,0,0,19,28.4a7.76,7.76,0,0,1-11,0,.5.5,0,0,0-.71.71Z"
     id="path3360" />
  <path
     d="M37.39,0A15.35,15.35,0,0,0,26.2,4.87a18.93,18.93,0,0,0-26,.66.48.48,0,0,0,0,.7.47.47,0,0,0,.35.15.52.52,0,0,0,.35-.14,18,18,0,0,1,25-.32h0L26,6l.06,0,.11,0h.08l.1,0,.09,0,.07,0,.08-.06h0a14.34,14.34,0,0,1,25.12,9.46c0,11.49-12.14,23.9-14.34,26.06C35.18,39.24,23,26.84,23,15.34a14.39,14.39,0,0,1,1.9-7.14.49.49,0,1,0-.86-.49q-.34.6-.63,1.23A14.11,14.11,0,0,0,3.58,9a.51.51,0,0,0,0,.71.5.5,0,0,0,.71,0,13.12,13.12,0,0,1,18.56.07.5.5,0,0,0,.21.12,15.48,15.48,0,0,0-1,5.48c0,13,14.39,26.55,15,27.12a.47.47,0,0,0,.34.13.5.5,0,0,0,.34-.13c.61-.57,15-14.11,15-27.12A15.36,15.36,0,0,0,37.39,0Z"
     id="path3362" />
  <path
     d="M37.39,25a9.32,9.32,0,0,1-9.11-7.2.48.48,0,0,0-.6-.37.5.5,0,0,0-.37.6,10.36,10.36,0,1,0,.41-6.09.5.5,0,1,0,.93.36A9.35,9.35,0,1,1,37.39,25Z"
     id="path3364" />
  <path
     d="M13.61,25.53a.5.5,0,0,0,.5-.5V23.89a3.59,3.59,0,0,0,3.06-3.06h1.14a.5.5,0,0,0,.5-.5.5.5,0,0,0-.5-.5H17.17a3.61,3.61,0,0,0-3.06-3.07V15.62a.5.5,0,0,0-.5-.5.5.5,0,0,0-.5.5v1.14A3.62,3.62,0,0,0,10,19.83H8.9a.5.5,0,0,0-.5.5.5.5,0,0,0,.5.5H10a3.6,3.6,0,0,0,3.07,3.06V25A.5.5,0,0,0,13.61,25.53ZM11,20.33a2.62,2.62,0,1,1,2.62,2.61A2.62,2.62,0,0,1,11,20.33Z"
     id="path3366" />
</svg>
