<?xml version="1.0" encoding="UTF-8" standalone="no"?>
<svg
   xmlns:dc="http://purl.org/dc/elements/1.1/"
   xmlns:cc="http://creativecommons.org/ns#"
   xmlns:rdf="http://www.w3.org/1999/02/22-rdf-syntax-ns#"
   xmlns:svg="http://www.w3.org/2000/svg"
   xmlns="http://www.w3.org/2000/svg"
   xmlns:sodipodi="http://sodipodi.sourceforge.net/DTD/sodipodi-0.dtd"
   xmlns:inkscape="http://www.inkscape.org/namespaces/inkscape"
   id="Calque_1"
   data-name="Calque 1"
   viewBox="0 0 56.28 41.9"
   version="1.1"
   sodipodi:docname="ODC_service_Automation.svg"
   inkscape:version="0.92.3 (2405546, 2018-03-11)">
  <metadata
     id="metadata2088">
    <rdf:RDF>
      <cc:Work
         rdf:about="">
        <dc:format>image/svg+xml</dc:format>
        <dc:type
           rdf:resource="http://purl.org/dc/dcmitype/StillImage" />
        <dc:title>icons-ODC</dc:title>
      </cc:Work>
    </rdf:RDF>
  </metadata>
  <defs
     id="defs2086" />
  <sodipodi:namedview
     pagecolor="#ffffff"
     bordercolor="#666666"
     borderopacity="1"
     objecttolerance="10"
     gridtolerance="10"
     guidetolerance="10"
     inkscape:pageopacity="0"
     inkscape:pageshadow="2"
     inkscape:window-width="3840"
     inkscape:window-height="2104"
     id="namedview2084"
     showgrid="false"
     inkscape:zoom="5.632458"
     inkscape:cx="-62.939241"
     inkscape:cy="20.950001"
     inkscape:window-x="-16"
     inkscape:window-y="-16"
     inkscape:window-maximized="1"
     inkscape:current-layer="Calque_1" />
  <title
     id="title2069">icons-ODC</title>
  <path
     d="M29.92,29.27l2.32-2.16a12.4,12.4,0,0,0,2.8.38l1.17,2.38a.9.9,0,0,0,.81.52l2.6-.53a.92.92,0,0,0,.72-.86l.09-2.66A12.22,12.22,0,0,0,43.82,24l2.65.92a.93.93,0,0,0,1.06-.37l1.34-2.06a.93.93,0,0,0-.1-1.12l-1.94-2.08a12.2,12.2,0,0,0,.71-3.89l2.39-1.17a.91.91,0,0,0,.49-1l-.51-2.41h0a.91.91,0,0,0-.86-.72L46.39,10a12.14,12.14,0,0,0-2.33-3.38L45,4a.91.91,0,0,0-.37-1.06L42.55,1.58a.91.91,0,0,0-1.13.09L39.34,3.61a12.15,12.15,0,0,0-3.89-.71L34.28.51a.9.9,0,0,0-1-.49L30.87.53a.92.92,0,0,0-.72.86l-.09,2.66a12,12,0,0,0-4,3l-2.34-.8a.9.9,0,0,0-1.07.36L21.35,8.69a.92.92,0,0,0,.09,1.12l2,2.14A11.86,11.86,0,0,0,23,15l-2.39,1.16a.92.92,0,0,0-.49,1l.51,2.41a.93.93,0,0,0,.86.72l2.66.09a12,12,0,0,0,3.14,4.07L26.38,27A.91.91,0,0,0,26.74,28l2.06,1.34A.94.94,0,0,0,29.92,29.27ZM28.14,23.9a11.1,11.1,0,0,1-3.25-4.21l-.13-.29-3.21-.11L21.06,17,24,15.61v-.32A11,11,0,0,1,24.48,12l.08-.27L22.22,9.18l1.26-1.94,2.93,1L26.63,8a11,11,0,0,1,4.11-3.14L31,4.71l.12-3.22L33.41,1l1.42,2.9h.31a10.68,10.68,0,0,1,4.13.75l.3.12,2.48-2.32,2,1.26L42.91,6.89l.23.22a11.06,11.06,0,0,1,2.46,3.58l.13.29,3.21.12.49,2.26-2.89,1.41v.32a11.15,11.15,0,0,1-.76,4.13l-.11.29L48,22,46.73,24l-3.18-1.1-.22.23a11.25,11.25,0,0,1-3.58,2.47l-.29.12-.12,3.22-2.26.48-1.42-2.89h-.44a10.84,10.84,0,0,1-3-.43L31.89,26l-2.6,2.52-1.94-1.26,1.06-3.11Z"
     id="path2071" />
  <path
     d="M35.24,22.39a7.2,7.2,0,1,0-7.19-7.2A7.21,7.21,0,0,0,35.24,22.39ZM35.24,9a6.2,6.2,0,1,1-6.19,6.19A6.2,6.2,0,0,1,35.24,9Z"
     id="path2073" />
  <path
     d="M23.55,31.68,21.72,30.5a9.72,9.72,0,0,0-.21-3L23,26.19a.83.83,0,0,0,.21-1l-.86-1.73a.83.83,0,0,0-.91-.43l-2,.43a9.53,9.53,0,0,0-2.37-2.06l.17-2.12a.82.82,0,0,0-.55-.85l-1.82-.61a.83.83,0,0,0-1,.33L12.79,20a10,10,0,0,0-3,.21L8.47,18.65a.82.82,0,0,0-1-.2l-1.73.86a.82.82,0,0,0-.44.91l.44,2a9.49,9.49,0,0,0-2.38,3l-1.86-.15a.82.82,0,0,0-.85.55L0,27.44a.83.83,0,0,0,.34,1l1.89,1.21a9.28,9.28,0,0,0,.21,2.3L.94,33.23a.81.81,0,0,0-.2,1L1.59,36a.85.85,0,0,0,.92.44l2-.44A9.51,9.51,0,0,0,7.6,38.38l-.16,2a.83.83,0,0,0,.56.85l1.83.62a1.09,1.09,0,0,0,.26,0,.64.64,0,0,0,.2,0,.79.79,0,0,0,.49-.35l1.32-2.05a9.65,9.65,0,0,0,2.1-.25l1.32,1.54a.81.81,0,0,0,.83.26l1.89-.92a.82.82,0,0,0,.43-.91l-.43-2a9.7,9.7,0,0,0,2.06-2.36l2.12.17a.77.77,0,0,0,.27,0,.8.8,0,0,0,.58-.53l.62-1.83A.83.83,0,0,0,23.55,31.68ZM22.37,34l-2.62-.21-.16.28a8.54,8.54,0,0,1-2.21,2.54l-.25.2.54,2.45L16.19,40l-1.64-1.92-.31.08-.08,0a8,8,0,0,1-2.35.26h-.33L10,40.86l-1.57-.53.2-2.56-.31-.15a8.44,8.44,0,0,1-3.26-2.53l-.2-.25-2.45.54L1.69,33.9l1.92-1.63L3.52,32a8.8,8.8,0,0,1-.25-2.6l0-.29L1,27.63l.52-1.56L4,26.26,4.12,26a8.64,8.64,0,0,1,2.49-3.16l.25-.19-.54-2.46,1.48-.73,1.63,1.91.31-.08A8.64,8.64,0,0,1,13,21l.31,0,1.43-2.23,1.57.52L16.09,22l.27.16a8.58,8.58,0,0,1,2.55,2.21l.19.25L21.56,24l.73,1.48-1.91,1.63.08.31a8.44,8.44,0,0,1,.23,3.25l0,.31,2.23,1.43Z"
     id="path2075" />
  <path
     d="M10.74,24.85A5,5,0,0,0,12,34.72a5.34,5.34,0,0,0,1.25-.15,5,5,0,0,0-2.5-9.72ZM13,33.6a4,4,0,1,1-2-7.78,3.87,3.87,0,0,1,1-.13,4,4,0,0,1,1,7.91Z"
     id="path2077" />
  <path
     d="M28.47,34.06A20,20,0,0,0,55.29,15.19a.51.51,0,0,0-.5-.5.5.5,0,0,0-.5.5A19.05,19.05,0,0,1,28.8,33.12a.5.5,0,1,0-.33.94Z"
     id="path2079" />
  <path
     d="M56.05,28a.5.5,0,0,0-.69.15A24,24,0,0,1,28.79,38.22a.5.5,0,0,0-.27,1A25,25,0,0,0,56.2,28.67.5.5,0,0,0,56.05,28Z"
     id="path2081" />
</svg>
