<?xml version="1.0" encoding="UTF-8" standalone="no"?>
<svg
   xmlns:dc="http://purl.org/dc/elements/1.1/"
   xmlns:cc="http://creativecommons.org/ns#"
   xmlns:rdf="http://www.w3.org/1999/02/22-rdf-syntax-ns#"
   xmlns:svg="http://www.w3.org/2000/svg"
   xmlns="http://www.w3.org/2000/svg"
   xmlns:sodipodi="http://sodipodi.sourceforge.net/DTD/sodipodi-0.dtd"
   xmlns:inkscape="http://www.inkscape.org/namespaces/inkscape"
   id="Calque_1"
   data-name="Calque 1"
   viewBox="0 0 52.82 52.82"
   version="1.1"
   sodipodi:docname="ODC_All_services.svg"
   inkscape:version="0.92.3 (2405546, 2018-03-11)">
  <metadata
     id="metadata53">
    <rdf:RDF>
      <cc:Work
         rdf:about="">
        <dc:format>image/svg+xml</dc:format>
        <dc:type
           rdf:resource="http://purl.org/dc/dcmitype/StillImage" />
        <dc:title>icons-ODC</dc:title>
      </cc:Work>
    </rdf:RDF>
  </metadata>
  <defs
     id="defs51" />
  <sodipodi:namedview
     pagecolor="#ffffff"
     bordercolor="#666666"
     borderopacity="1"
     objecttolerance="10"
     gridtolerance="10"
     guidetolerance="10"
     inkscape:pageopacity="0"
     inkscape:pageshadow="2"
     inkscape:window-width="3840"
     inkscape:window-height="2104"
     id="namedview49"
     showgrid="false"
     inkscape:zoom="4.4680046"
     inkscape:cx="-88.406355"
     inkscape:cy="26.41"
     inkscape:window-x="-16"
     inkscape:window-y="-16"
     inkscape:window-maximized="1"
     inkscape:current-layer="Calque_1" />
  <title
     id="title2">icons-ODC</title>
  <path
     d="M23.11,12.05a6.63,6.63,0,0,0,2.63.86v4a.5.5,0,0,0,.5.5.5.5,0,0,0,.5-.5v-4A6.92,6.92,0,0,0,28,12.75,6.47,6.47,0,1,0,24.8.21a6.47,6.47,0,0,0-4.66,7.88A6.46,6.46,0,0,0,23.11,12.05ZM21.7,3.69a5.44,5.44,0,0,1,3.35-2.52A5.76,5.76,0,0,1,26.41,1a5.48,5.48,0,1,1-5.3,6.84A5.39,5.39,0,0,1,21.7,3.69Z"
     id="path4" />
  <path
     d="M29.7,40.77a6.38,6.38,0,0,0-3-.89V36.23a.5.5,0,0,0-.5-.5.5.5,0,0,0-.5.5v3.68a6.16,6.16,0,0,0-.94.16,6.48,6.48,0,0,0-1.69,11.85,6.54,6.54,0,0,0,3.29.9,6.47,6.47,0,0,0,3.3-12ZM27.77,51.64A5.47,5.47,0,0,1,25.05,41a5.3,5.3,0,0,1,1.37-.17,5.47,5.47,0,0,1,1.35,10.77Z"
     id="path6" />
  <path
     d="M52.61,24.8a6.47,6.47,0,0,0-7.88-4.66,6.49,6.49,0,0,0-4.84,5.77H36.06a.5.5,0,0,0,0,1h3.83A7.13,7.13,0,0,0,40.07,28a6.48,6.48,0,0,0,6.27,4.86,6.29,6.29,0,0,0,1.61-.2A6.48,6.48,0,0,0,52.61,24.8ZM47.7,31.71A5.47,5.47,0,1,1,45,21.11a5.31,5.31,0,0,1,1.37-.18A5.48,5.48,0,0,1,47.7,31.71Z"
     id="path8" />
  <path
     d="M8.09,32.68a6.49,6.49,0,0,0,4.83-5.77h3.83a.5.5,0,0,0,0-1H12.92a6.09,6.09,0,0,0-.17-1.11,6.48,6.48,0,1,0-6.27,8.08A6.4,6.4,0,0,0,8.09,32.68ZM1.17,27.77a5.48,5.48,0,0,1,3.94-6.66,5.34,5.34,0,0,1,1.36-.17,5.47,5.47,0,1,1-5.3,6.83Z"
     id="path10" />
  <path
     d="M43.8,34.93a6.48,6.48,0,0,0-7.59.74l-2.9-2.9a.5.5,0,0,0-.71,0,.5.5,0,0,0,0,.7l2.92,2.92a6.36,6.36,0,0,0-.59.82,6.49,6.49,0,0,0,2.28,8.87,6.41,6.41,0,0,0,3.28.9,6.51,6.51,0,0,0,1.63-.21,6.39,6.39,0,0,0,4-3A6.49,6.49,0,0,0,43.8,34.93Zm1.42,8.36a5.47,5.47,0,1,1-1.93-7.5A5.49,5.49,0,0,1,45.22,43.29Z"
     id="path12" />
  <path
     d="M35.51,16.43,32.6,19.35a.5.5,0,0,0,0,.7.51.51,0,0,0,.36.15.5.5,0,0,0,.35-.15l2.9-2.89a6.76,6.76,0,0,0,1,.73,6.41,6.41,0,0,0,3.28.9,6.47,6.47,0,0,0,6.28-8.09,6.43,6.43,0,0,0-3-4,6.47,6.47,0,0,0-8.29,9.69Zm.28-6.9a5.48,5.48,0,1,1,9.43,5.57h0a5.48,5.48,0,1,1-9.43-5.57Z"
     id="path14" />
  <path
     d="M25.9,10.5l.34.32.35-.32c.11-.11,2.77-2.61,2.77-5.08a3.12,3.12,0,0,0-5.82-1.54,3.06,3.06,0,0,0-.41,1.54C23.13,7.89,25.79,10.39,25.9,10.5ZM24.41,4.37a2.12,2.12,0,0,1,3.95,1c0,1.57-1.44,3.28-2.12,4-.67-.72-2.11-2.43-2.11-4A2.17,2.17,0,0,1,24.41,4.37Z"
     id="path16" />
  <path
     d="M27.11,5.34a.92.92,0,1,0-.92.92A.92.92,0,0,0,27.11,5.34Zm-1,0a.09.09,0,0,1,.08-.08.09.09,0,0,1,.09.08C26.28,5.44,26.11,5.44,26.11,5.34Z"
     id="path18" />
  <path
     d="M9.8,24.73l.06-.37-.35-.15c-.13-.06-3.17-1.38-5.07.08S3.28,28.88,3.32,29l.08.33.34.05a7.31,7.31,0,0,0,.91.06C9.07,29.45,9.8,24.78,9.8,24.73Zm-5.58,3.7c-.12-.74-.27-2.5.83-3.35a3.3,3.3,0,0,1,2.55-.39,8.07,8.07,0,0,0-2.42,1.75.49.49,0,0,0,0,.7.5.5,0,0,0,.34.13.49.49,0,0,0,.37-.16,7.18,7.18,0,0,1,2.7-1.76A4.11,4.11,0,0,1,4.22,28.43Z"
     id="path20" />
  <path
     d="M14.87,39a2.36,2.36,0,0,0-4.59-.05,1.9,1.9,0,0,0,.16,3.79H14a1.94,1.94,0,0,0,2.1-1.93A1.92,1.92,0,0,0,14.87,39ZM14,41.69H10.44a.9.9,0,1,1,0-1.79.5.5,0,0,1,.17,0l.57.11,0-.59a1.37,1.37,0,0,1,1.37-1.32,1.38,1.38,0,0,1,1.36,1.24l0,.32.3.1c.82.29.82.81.82,1C15.08,41.65,14.16,41.69,14,41.69Z"
     id="path22" />
  <rect
     x="23.52"
     y="45.24"
     width="1"
     height="3.18"
     id="rect24" />
  <rect
     x="25.19"
     y="43.36"
     width="1"
     height="5.06"
     id="rect26" />
  <rect
     x="26.86"
     y="43.79"
     width="1"
     height="4.63"
     id="rect28" />
  <rect
     x="28.53"
     y="44.64"
     width="1"
     height="3.77"
     id="rect30" />
  <path
     d="M41,40V38a1.73,1.73,0,0,1,.37.22.49.49,0,0,0,.7,0,.51.51,0,0,0,0-.71,2.64,2.64,0,0,0-1-.53v-.24a.5.5,0,0,0-.5-.5.5.5,0,0,0-.5.5v.14a2.65,2.65,0,0,0-.83.23,1.93,1.93,0,0,0-1.11,1.68,1.85,1.85,0,0,0,1.16,1.69,4.85,4.85,0,0,0,.78.3V43a5,5,0,0,1-1.31-.52.51.51,0,0,0-.69.18.49.49,0,0,0,.18.68,5.63,5.63,0,0,0,1.82.69v.29a.5.5,0,0,0,.5.5.5.5,0,0,0,.5-.5v-.27a2.73,2.73,0,0,0,1-.3,2,2,0,0,0,1-1.72C43.07,40.74,42,40.29,41,40Zm-1.34-.46a.89.89,0,0,1-.6-.78,1,1,0,0,1,.51-.79,1.56,1.56,0,0,1,.43-.12v1.83Zm1.88,3.38a1.56,1.56,0,0,1-.54.18V41c.72.25,1.07.5,1.07,1A1,1,0,0,1,41.54,42.9Z"
     id="path32" />
  <path
     d="M15.4,11l-.59-.14a.73.73,0,0,1-.42-.27L14,10a1.75,1.75,0,0,0-1.38-.69H10.13a1.72,1.72,0,0,0-1.67,1.26c-.4,1.22-.79,2.8-.38,3.37a.72.72,0,0,0,.57.29h.76a1,1,0,0,0,.79.45A1,1,0,0,0,11,14.2h2.47a.92.92,0,0,0,1.58,0h.72c1,0,1-1,1-1.56A1.73,1.73,0,0,0,15.4,11Zm.3,2.24H15a.94.94,0,0,0-.79-.45.92.92,0,0,0-.79.45H11a.92.92,0,0,0-.79-.45.94.94,0,0,0-.79.45H8.9a10,10,0,0,1,.52-2.37.75.75,0,0,1,.71-.55h2.44a.72.72,0,0,1,.58.29l.45.59a1.77,1.77,0,0,0,1,.64l.59.13a.73.73,0,0,1,.56.71A3.21,3.21,0,0,1,15.7,13.2Z"
     id="path34" />
  <path
     d="M38.06,15.62h5.27v-6H43V8.43l-5,.74V15.6h.06ZM39,10l3-.44V14l-3,.45Z"
     id="path36" />
  <path
     d="M48.42,22.93a.51.51,0,0,0-.5-.51.5.5,0,0,0-.5.5c0,.17-.57.58-.92.85a.94.94,0,0,0-.12.09c-.43-.33-.84-.66-.84-.93a.51.51,0,0,0-.5-.5.5.5,0,0,0-.5.5,2.12,2.12,0,0,0,1.05,1.58,2.75,2.75,0,0,0-1.05,1.94,2.93,2.93,0,0,0,1.25,2.1c-.7.6-1.25,1.08-1.25,1.67a.5.5,0,0,0,1,0c0-.19.58-.65.94-1l.08-.08c.45.37.86.75.86,1a.51.51,0,0,0,.5.5.5.5,0,0,0,.5-.5,2.41,2.41,0,0,0-1.11-1.71,3,3,0,0,0,1.11-2.06,2.57,2.57,0,0,0-1.2-2C47.87,24,48.42,23.52,48.42,22.93Zm-1.88,4.94c-.54-.45-1-.93-1-1.42a2.06,2.06,0,0,1,.87-1.33c.54.41,1,.84,1,1.33A2.3,2.3,0,0,1,46.54,27.87Z"
     id="path38" />
  <path
     d="M27.49,26.71a2.43,2.43,0,0,0,1.29-2.18,2.14,2.14,0,0,0-2.31-2.1,2.23,2.23,0,0,0-2,1.16.5.5,0,0,0,.9.44,1.23,1.23,0,0,1,1.09-.6,1.16,1.16,0,0,1,1.31,1.1c0,.76-.36,1-.86,1.36a2.94,2.94,0,0,0-.81.73,1.74,1.74,0,0,0-.24,1.43.5.5,0,0,0,.48.34.36.36,0,0,0,.14,0,.5.5,0,0,0,.34-.61.73.73,0,0,1,.11-.57A2.06,2.06,0,0,1,27.49,26.71Z"
     id="path40" />
  <circle
     cx="26.42"
     cy="29.76"
     r="0.5"
     id="circle42" />
  <path
     d="M19,33l-2.52,2.52a8.13,8.13,0,0,0-.82-.59A6.48,6.48,0,1,0,9,46.08a6.5,6.5,0,0,0,8.87-2.28h0a6.48,6.48,0,0,0-.74-7.59l2.5-2.5a.5.5,0,0,0,0-.71A.48.48,0,0,0,19,33ZM17,43.29h0a5.47,5.47,0,1,1-1.93-7.5A5.49,5.49,0,0,1,17,43.29Z"
     id="path44" />
  <path
     d="M17.15,16.6a6.72,6.72,0,0,0,.74-1,6.48,6.48,0,1,0-5.59,3.18,6.52,6.52,0,0,0,4.13-1.49L19,19.82a.49.49,0,0,0,.35.15.47.47,0,0,0,.35-.15.5.5,0,0,0,0-.71ZM9.53,17A5.48,5.48,0,1,1,17,15.1,5.49,5.49,0,0,1,9.53,17Z"
     id="path46" />
</svg>
