<?xml version="1.0" encoding="UTF-8" standalone="no"?>
<!-- Created with Inkscape (http://www.inkscape.org/) -->

<svg
   xmlns:dc="http://purl.org/dc/elements/1.1/"
   xmlns:cc="http://creativecommons.org/ns#"
   xmlns:rdf="http://www.w3.org/1999/02/22-rdf-syntax-ns#"
   xmlns:svg="http://www.w3.org/2000/svg"
   xmlns="http://www.w3.org/2000/svg"
   xmlns:sodipodi="http://sodipodi.sourceforge.net/DTD/sodipodi-0.dtd"
   xmlns:inkscape="http://www.inkscape.org/namespaces/inkscape"
   width="28.977558mm"
   height="30mm"
   viewBox="0 0 28.977558 30"
   version="1.1"
   id="svg669"
   inkscape:version="0.92.2 (5c3e80d, 2017-08-06)"
   sodipodi:docname="image_s04.svg">
  <defs
     id="defs663" />
  <sodipodi:namedview
     id="base"
     pagecolor="#ffffff"
     bordercolor="#666666"
     borderopacity="1.0"
     inkscape:pageopacity="0.0"
     inkscape:pageshadow="2"
     inkscape:zoom="0.35"
     inkscape:cx="-2026.6678"
     inkscape:cy="508.12149"
     inkscape:document-units="mm"
     inkscape:current-layer="layer1"
     showgrid="false"
     inkscape:window-width="3200"
     inkscape:window-height="1675"
     inkscape:window-x="-13"
     inkscape:window-y="-13"
     inkscape:window-maximized="1" />
  <metadata
     id="metadata666">
    <rdf:RDF>
      <cc:Work
         rdf:about="">
        <dc:format>image/svg+xml</dc:format>
        <dc:type
           rdf:resource="http://purl.org/dc/dcmitype/StillImage" />
        <dc:title></dc:title>
      </cc:Work>
    </rdf:RDF>
  </metadata>
  <g
     inkscape:label="Layer 1"
     inkscape:groupmode="layer"
     id="layer1"
     transform="translate(-456.46955,-253.27381)">
    <g
       id="g947"
       transform="matrix(0.60093503,0,0,0.60093503,455.96732,253.1536)"
       style="fill:#4d4d4d;fill-opacity:1"
       inkscape:export-filename="C:\Users\dmarin\Dropbox\Pro\OpenDC\02 IT\00 - Website\01 Images\services\256px\s04_icon_process.png"
       inkscape:export-xdpi="255.69325"
       inkscape:export-ydpi="255.69325">
      <path
         style="fill:#4d4d4d;fill-opacity:1;stroke-width:0.02938534"
         d="m 20.098364,50.088424 c -0.137092,-0.01431 -0.266131,-0.04289 -0.286754,-0.06351 -0.04869,-0.04869 -0.137746,-0.45115 -0.375105,-1.695176 -0.341459,-1.789617 -0.517276,-2.657622 -0.55284,-2.729357 -0.02666,-0.05377 -0.08236,-0.08213 -0.240393,-0.122393 -0.505137,-0.128699 -1.961621,-0.712448 -2.982612,-1.195414 -1.058049,-0.500497 -2.509201,-1.380576 -3.526241,-2.138559 -0.557785,-0.415706 -0.92162,-0.715378 -1.440326,-1.186325 -0.233639,-0.212124 -0.434321,-0.385683 -0.445959,-0.385683 -0.01164,0 -0.4415882,0.146745 -0.9554455,0.326095 C 6.8415103,41.753644 6.142654,41.988268 5.9998239,42.003596 5.8509718,42.019573 5.84162,42.016249 5.7515124,41.915352 5.7000138,41.857686 5.3729164,41.315276 5.0246295,40.709994 4.6763427,40.104715 4.1269126,39.151393 3.8036738,38.591502 0.71437778,33.240442 0.91264393,33.601961 0.86090486,33.225673 c -0.0113948,-0.08287 0.001912,-0.120906 0.0685099,-0.195818 0.0454583,-0.05113 0.53224724,-0.473677 1.08175314,-0.938988 1.5782475,-1.336428 2.0212602,-1.738558 2.1149807,-1.919792 0.046699,-0.09031 0.041767,-0.12551 -0.1579389,-1.127259 -0.2268303,-1.137809 -0.3321025,-1.811541 -0.3980352,-2.547387 -0.1598061,-1.783523 -0.042372,-3.263397 0.4250562,-5.356435 0.096668,-0.432857 0.1757599,-0.828561 0.1757599,-0.879341 0,-0.07708 -0.040804,-0.132134 -0.247129,-0.333413 C 3.6016322,19.612891 3.1065337,19.172748 1.9419764,18.165345 1.419063,17.712997 0.97607891,17.329671 0.95756742,17.313509 0.76971325,17.149498 0.83965098,16.908618 1.3287022,16.035246 1.661169,15.44151 4.0911703,11.213665 4.8222633,9.9569633 5.6480937,8.537414 5.8047981,8.2952077 5.9047259,8.2838817 c 0.08355,-0.00947 1.0242611,0.3032085 2.9774331,0.9896546 0.7406006,0.2602854 1.360257,0.4732463 1.377014,0.4732463 0.01676,0 0.170473,-0.1336725 0.341593,-0.2970497 1.879268,-1.7942454 4.872412,-3.5438235 7.716361,-4.5104342 0.256994,-0.087348 0.485861,-0.1742513 0.508596,-0.193119 0.103922,-0.086248 0.155456,-0.307029 0.477482,-2.0455958 0.260245,-1.4050215 0.434712,-2.26049947 0.480343,-2.35529317 0.02146,-0.0445806 0.07517,-0.0841752 0.137987,-0.1017144 0.146501,-0.0409076 8.552238,-0.0585024 9.401856,-0.0196798 0.56719,0.0259172 0.666887,0.037447 0.710838,0.0822068 0.06247,0.0636174 0.132206,0.39524914 0.537882,2.55785287 0.168948,0.9006482 0.31792,1.6883141 0.331044,1.7503686 l 0.02386,0.1128262 0.69022,0.2424156 c 0.379621,0.1333287 0.88196,0.3192697 1.116308,0.4132026 2.4241,0.9716411 4.614584,2.3312899 6.461667,4.0108031 l 0.334825,0.3044475 0.179418,-0.035777 c 0.191655,-0.038217 1.517562,-0.4809955 2.912258,-0.9725303 0.996334,-0.351139 1.313616,-0.4413605 1.387729,-0.3946111 0.08028,0.05064 0.419123,0.6260028 2.637402,4.4783716 0.739858,1.284874 1.562337,2.709462 1.827733,3.16575 0.518649,0.8917 0.596646,1.069736 0.532771,1.21607 -0.03963,0.09079 -0.453125,0.460825 -1.933755,1.73052 -0.460615,0.394994 -0.959799,0.837843 -1.109297,0.984108 -0.255852,0.250322 -0.271814,0.27305 -0.271814,0.387061 0,0.06662 0.0848,0.535743 0.188436,1.042501 0.30931,1.512385 0.410325,2.229016 0.456422,3.237979 0.06417,1.404447 -0.08217,2.699066 -0.556494,4.923078 -0.127297,0.596876 -0.146139,0.722231 -0.113195,0.753094 0.253164,0.237166 2.803679,2.444079 3.202753,2.771282 0.04547,0.03728 0.104585,0.113948 0.131355,0.170365 0.04534,0.09555 0.04532,0.112974 -3.82e-4,0.254459 -0.02698,0.08353 -0.133033,0.291735 -0.235673,0.462663 -0.10264,0.170932 -1.029348,1.771411 -2.059349,3.55662 -2.640158,4.575942 -2.662118,4.612254 -2.789571,4.612254 -0.107965,0 -0.308064,-0.06717 -2.328671,-0.781665 -1.069497,-0.378181 -1.9596,-0.687603 -1.978004,-0.687603 -0.0184,0 -0.250698,0.190582 -0.516203,0.423517 -1.583976,1.38965 -2.892208,2.27791 -4.656983,3.16198 -1.036733,0.519357 -3.113613,1.351241 -3.3735,1.351241 -0.03103,0 -0.07013,0.01653 -0.08689,0.03673 -0.0386,0.04653 -0.214113,0.905389 -0.595914,2.915984 -0.165675,0.872463 -0.317988,1.603056 -0.338473,1.62354 -0.0298,0.0298 -1.002588,0.03646 -4.865885,0.03334 -2.655753,-0.0021 -4.940808,-0.01561 -5.0779,-0.02992 z m 6.947646,-3.646692 c 0.0079,-0.03636 0.08196,-0.456207 0.16461,-0.932985 0.171951,-0.991952 0.41315,-2.190756 0.507312,-2.521424 0.05058,-0.177623 0.07975,-0.232835 0.137645,-0.260504 0.0404,-0.01931 0.344944,-0.0952 0.676753,-0.168645 1.954396,-0.432585 3.871138,-1.187956 5.508862,-2.170993 1.425727,-0.855783 2.63318,-1.847724 4.086978,-3.357504 0.317239,-0.329454 0.600945,-0.606673 0.630463,-0.616041 0.0313,-0.0099 0.639416,0.190479 1.45882,0.480765 1.995527,0.706947 2.101058,0.738439 2.177067,0.649666 0.04685,-0.05472 0.485504,-0.799549 1.504882,-2.555273 0.295584,-0.509101 0.542206,-0.934213 0.548051,-0.944695 0.0097,-0.01734 -1.07173,-0.962417 -2.362023,-2.064282 -0.381416,-0.325716 -0.506897,-0.449452 -0.506897,-0.499854 0,-0.03684 0.02712,-0.145084 0.06027,-0.240545 0.268012,-0.771862 0.61267,-2.056055 0.744548,-2.774171 0.236349,-1.286984 0.324012,-2.745585 0.256085,-4.260875 -0.07694,-1.716246 -0.277704,-2.80172 -0.887188,-4.796684 -0.107859,-0.353047 -0.167867,-0.595644 -0.153397,-0.620168 0.02704,-0.04583 0.36657,-0.342858 1.581187,-1.383238 1.218675,-1.043857 1.219521,-1.044619 1.219204,-1.099119 -5.29e-4,-0.09174 -0.142913,-0.357038 -0.788468,-1.469174 -0.353576,-0.609121 -0.769105,-1.325678 -0.923402,-1.59235 l -0.280542,-0.484859 -0.112945,0.002 c -0.144291,0.0026 -0.86492,0.234775 -2.327631,0.750004 -0.638714,0.224981 -1.181882,0.402427 -1.207041,0.394323 -0.02516,-0.0081 -0.330051,-0.308086 -0.677532,-0.666629 -0.998988,-1.03077 -1.824026,-1.76934 -2.688763,-2.406952 C 33.340243,9.3179934 31.224807,8.3759988 28.400491,7.7178294 28.110282,7.6502002 27.843152,7.581341 27.806868,7.5648091 27.756241,7.5417416 27.730332,7.4882967 27.695468,7.3350127 27.628914,7.0423984 27.281251,5.1851368 27.162588,4.4882974 27.106308,4.1577987 27.05414,3.88127 27.046659,3.8737888 c -0.0075,-0.00748 -0.129367,-0.023742 -0.270858,-0.036136 -0.347147,-0.030407 -3.974503,-0.03298 -3.974503,-0.00282 0,0.024478 -0.492929,2.7407003 -0.574265,3.1644176 -0.08271,0.4308665 -0.10734,0.5152491 -0.158372,0.5425607 -0.02784,0.0149 -0.525639,0.1524644 -1.106219,0.3056996 -1.511986,0.3990659 -2.118095,0.5939939 -2.936262,0.9443178 -1.029097,0.4406403 -2.287217,1.1242918 -3.100154,1.6845965 -0.982296,0.677034 -1.660366,1.260976 -3.002403,2.585618 l -0.87305,0.861734 -1.125695,-0.395792 C 8.5654788,13.050027 7.7305818,12.776499 7.5680938,12.755862 L 7.4474564,12.74054 7.3486106,12.911279 C 7.2231557,13.127982 5.9728955,15.294928 5.6492999,15.856518 5.5150313,16.089537 5.405175,16.28869 5.405175,16.29908 c 0,0.01039 0.2479389,0.229562 0.5509752,0.487048 0.8670889,0.736755 1.9160558,1.65066 2.1010521,1.830527 0.09736,0.09466 0.1689657,0.189819 0.1689657,0.224541 0,0.03314 -0.1252956,0.501581 -0.278435,1.040974 -0.6123006,2.156668 -0.6851275,2.651736 -0.7114676,4.836446 -0.03224,2.674116 0.051768,3.368842 0.667928,5.523581 0.177086,0.619275 0.3219746,1.154585 0.3219746,1.189571 0,0.145481 -0.3130524,0.439446 -1.8461903,1.73363 -0.5224656,0.441036 -0.9559529,0.817556 -0.9633051,0.836718 -0.00735,0.01916 0.3518631,0.668843 0.7982564,1.44374 1.2625087,2.191604 1.242055,2.158234 1.3229055,2.158234 0.038466,0 0.4636285,-0.14006 0.9448041,-0.311244 0.4811758,-0.171182 1.2432997,-0.442261 1.6936084,-0.6024 0.450309,-0.160135 0.839696,-0.291156 0.865304,-0.291156 0.02561,0 0.529918,0.480039 1.120689,1.06675 1.073199,1.065827 1.377116,1.340762 1.985075,1.795768 1.85158,1.385757 3.559666,2.259551 5.641986,2.886234 0.242429,0.07296 0.850545,0.237778 1.351369,0.366262 0.500823,0.128485 0.926492,0.249823 0.94593,0.269646 0.04624,0.04715 0.592203,2.873705 0.672589,3.482128 0.01126,0.08521 0.03526,0.164555 0.05333,0.176312 0.07007,0.04559 0.480633,0.05637 2.317009,0.06084 l 1.902141,0.0046 z M 24.182409,35.881817 c -0.760741,-0.06951 -1.493746,-0.200334 -2.115744,-0.377598 -2.914306,-0.830545 -5.342471,-2.82199 -6.683639,-5.481548 -0.64335,-1.275773 -0.93138,-2.184798 -1.109374,-3.501192 -0.05433,-0.401782 -0.06518,-0.622572 -0.06627,-1.34739 -0.0014,-0.915202 0.0213,-1.204256 0.149809,-1.910048 0.544548,-2.990792 2.312918,-5.581299 4.9375,-7.233006 0.46843,-0.294794 1.365201,-0.736866 1.890413,-0.9319 0.762939,-0.283311 1.710785,-0.515117 2.438984,-0.59648 0.535943,-0.05988 2.121458,-0.05113 2.629988,0.01452 1.805649,0.233097 3.33304,0.817811 4.756644,1.820933 2.655183,1.870935 4.302902,4.692891 4.601636,7.880958 0.06524,0.696244 0.03374,1.76022 -0.07483,2.52714 -0.432167,3.052928 -2.329338,5.902452 -5.045704,7.578571 -1.673544,1.032648 -3.406683,1.52083 -5.530704,1.557855 -0.355563,0.0062 -0.705983,0.0058 -0.778712,-8.22e-4 z m 1.86597,-3.740657 c 1.599821,-0.284039 2.849599,-0.940931 3.953958,-2.078223 0.924176,-0.951739 1.440433,-1.886069 1.772757,-3.208374 0.156939,-0.62446 0.20531,-1.018625 0.206224,-1.680474 8.22e-4,-0.593387 -0.03014,-0.922827 -0.133903,-1.424911 -0.225697,-1.092107 -0.728272,-2.16387 -1.419412,-3.026969 -0.355954,-0.444519 -1.127419,-1.173918 -1.510647,-1.428278 -0.321823,-0.213603 -1.282923,-0.679815 -1.678871,-0.814389 -0.722099,-0.245426 -1.330636,-0.353243 -2.130437,-0.377459 -1.756494,-0.05318 -3.435389,0.523139 -4.701655,1.613963 -1.332407,1.147801 -2.116374,2.493441 -2.443689,4.194473 -0.06308,0.327822 -0.07883,0.509702 -0.09069,1.047502 -0.01569,0.711165 0.0098,1.035082 0.127814,1.625198 0.215306,1.076478 0.834182,2.37285 1.487651,3.116213 1.238056,1.408369 2.857864,2.275001 4.665547,2.49617 0.393832,0.04819 1.49556,0.01654 1.895355,-0.05444 z"
         id="path961"
         inkscape:connector-curvature="0" />
      <path
         style="fill:#4d4d4d;fill-opacity:1;stroke-width:0.02938534"
         d="m 20.163066,50.091527 c -0.149992,-0.01229 -0.291917,-0.03828 -0.31539,-0.05777 -0.06072,-0.0504 -0.07918,-0.128325 -0.309621,-1.307318 -0.113721,-0.58183 -0.298686,-1.526757 -0.411032,-2.099842 -0.112346,-0.573082 -0.222007,-1.059709 -0.243692,-1.081392 -0.02168,-0.02169 -0.120245,-0.05828 -0.219023,-0.08132 C 18.184621,45.351979 16.318633,44.590214 15.41895,44.139005 13.739401,43.29668 12.027298,42.140164 10.768,40.997318 10.557895,40.806643 10.35739,40.625109 10.322434,40.59391 10.259054,40.53735 10.254934,40.53857 8.8531666,41.027976 6.3159943,41.913794 5.9743765,42.023528 5.8780513,41.983628 5.7616231,41.935401 5.6861906,41.821069 5.1406073,40.865863 4.877518,40.405248 4.4807738,39.71763 4.2589539,39.337825 4.0371336,38.958019 3.6402546,38.270402 3.3770003,37.809787 3.1137461,37.349172 2.5366683,36.346658 2.0946052,35.581981 0.92795312,33.563913 0.79157757,33.287729 0.88008009,33.12236 0.90101242,33.083248 1.3356603,32.697098 1.8459642,32.264246 3.6201555,30.759341 4.0809936,30.339735 4.1554381,30.161416 4.1914137,30.075244 4.1793102,29.988971 4.0205391,29.199881 3.8202101,28.204248 3.692454,27.446539 3.6291251,26.878439 3.424384,25.041782 3.5166996,23.442861 3.9396022,21.500921 4.2182951,20.221182 4.2142658,20.244784 4.1686662,20.159156 4.0946401,20.020148 3.2691706,19.277909 1.4614483,17.724904 1.1604445,17.466313 0.89748316,17.224773 0.87708988,17.18815 0.80738507,17.062969 0.89902892,16.845928 1.3887082,15.976476 2.0340422,14.830651 4.8619194,9.9211723 5.3409443,9.1149977 5.7700414,8.392849 5.8328408,8.3069007 5.9313939,8.3069007 c 0.097516,0 0.9191557,0.2755613 2.8530956,0.95687 0.7676921,0.2704506 1.4188245,0.4978897 1.4469605,0.50542 0.03497,0.00936 0.150691,-0.081339 0.365799,-0.2867152 1.87461,-1.7897973 4.881538,-3.5531466 7.693399,-4.5116304 0.470565,-0.160402 0.535991,-0.1906942 0.592862,-0.2744921 0.08474,-0.1248704 0.140279,-0.3729068 0.418639,-1.8698192 0.309439,-1.6640418 0.466551,-2.42500461 0.516475,-2.50152053 0.02244,-0.0343953 0.08453,-0.0727141 0.137974,-0.0851529 0.154321,-0.0359174 8.302882,-0.0506603 9.204679,-0.0166538 0.707781,0.0266903 0.797218,0.0356077 0.845958,0.0843476 0.03638,0.0363756 0.08396,0.19556354 0.143064,0.47864382 0.08129,0.38932321 0.731387,3.82578121 0.732418,3.87163471 0.0015,0.064687 0.113592,0.115559 0.750073,0.3402817 0.387228,0.1367194 0.883285,0.321014 1.10235,0.4095435 2.453344,0.9914618 4.605524,2.3289911 6.45827,4.013662 0.332377,0.3022259 0.333253,0.3027725 0.45405,0.2834563 0.150142,-0.024009 1.474327,-0.4635062 2.665706,-0.8847498 1.027803,-0.3634062 1.499828,-0.5131257 1.617752,-0.5131257 0.05679,0 0.100289,0.02525 0.139218,0.08081 0.09512,0.1357441 0.888043,1.4991668 2.687343,4.6208453 0.945529,1.640437 1.82823,3.167707 1.961554,3.393933 0.271673,0.460977 0.337029,0.628515 0.287547,0.737117 -0.03343,0.07338 -0.538968,0.522173 -1.932988,1.716022 -0.460615,0.394474 -0.966411,0.844967 -1.12399,1.001096 -0.250474,0.24817 -0.286507,0.296422 -0.286495,0.383673 3e-6,0.05489 0.09174,0.551048 0.203861,1.102572 0.32276,1.587702 0.424668,2.346533 0.459986,3.425197 0.04017,1.226761 -0.12311,2.601542 -0.543799,4.578642 -0.09457,0.444453 -0.163288,0.824203 -0.152707,0.843888 0.03156,0.05871 0.635799,0.590977 1.920368,1.691614 1.291015,1.106159 1.491594,1.288042 1.491594,1.352575 0,0.09765 -0.08812,0.274833 -0.397308,0.798885 -0.181172,0.307077 -1.125993,1.940168 -2.099603,3.62909 -2.485107,4.310921 -2.508398,4.349031 -2.657904,4.349031 -0.08484,0 -0.787801,-0.238638 -2.719047,-0.923043 -0.847726,-0.300424 -1.553365,-0.546224 -1.568084,-0.546224 -0.01472,0 -0.226931,0.176356 -0.471576,0.391904 -1.630258,1.436346 -2.89701,2.296917 -4.740508,3.22046 -1.009234,0.505598 -3.047131,1.324374 -3.296316,1.324374 -0.113991,0 -0.156785,0.07459 -0.228718,0.398636 -0.03923,0.176717 -0.236128,1.183013 -0.437562,2.23621 -0.201432,1.053197 -0.374282,1.935859 -0.38411,1.961472 -0.01622,0.04226 -0.461344,0.04618 -4.811883,0.04238 -2.636707,-0.0023 -4.916733,-0.01424 -5.066725,-0.02653 z m 6.883948,-3.582923 c 0.0097,-0.01575 0.07685,-0.376085 0.14916,-0.80075 0.1537,-0.902712 0.455606,-2.415987 0.540969,-2.711554 0.03267,-0.113133 0.07882,-0.220025 0.102539,-0.237536 0.02372,-0.01751 0.179156,-0.06178 0.345406,-0.09837 1.41705,-0.311908 2.272238,-0.573585 3.490584,-1.068075 0.597651,-0.242571 1.797974,-0.83572 2.306749,-1.139896 1.467225,-0.877206 2.715673,-1.901076 4.202104,-3.446213 0.290915,-0.302402 0.555586,-0.556715 0.588157,-0.565134 0.03435,-0.0089 0.491023,0.138185 1.087258,0.350124 2.003301,0.712101 2.342884,0.822998 2.472541,0.807456 0.08472,-0.01015 0.03197,0.07576 1.445495,-2.354192 0.374175,-0.643236 0.68032,-1.187288 0.68032,-1.209004 0,-0.03773 -0.751583,-0.699286 -2.115744,-1.862311 C 41.99507,31.876901 41.68206,31.602915 41.646974,31.56429 l -0.06379,-0.07022 0.101368,-0.316959 c 0.59324,-1.854927 0.84417,-3.050134 0.951847,-4.533753 0.04214,-0.580629 0.0417,-2.327341 -7.35e-4,-2.96417 -0.09366,-1.405136 -0.347264,-2.640572 -0.913364,-4.449418 -0.06469,-0.206688 -0.109669,-0.398428 -0.09997,-0.426087 0.01514,-0.04315 1.877036,-1.660647 2.548659,-2.214112 0.124811,-0.102854 0.235388,-0.216961 0.245726,-0.253573 0.0255,-0.09029 -0.08948,-0.31065 -0.801106,-1.535296 -0.3239,-0.557388 -0.726891,-1.251454 -0.895545,-1.542369 l -0.306642,-0.528936 -0.116248,0.005 c -0.143768,0.0062 -0.892457,0.248717 -2.352512,0.762063 -0.615793,0.21651 -1.136869,0.393653 -1.157944,0.393653 -0.02107,0 -0.32387,-0.293104 -0.67288,-0.651342 -1.32028,-1.355186 -2.309834,-2.197802 -3.499632,-2.979965 C 32.798533,9.0651957 30.867816,8.2674417 28.428592,7.7029675 28.077319,7.6216776 27.820867,7.5473421 27.791127,7.5181907 27.756523,7.4842709 27.691855,7.2143809 27.578776,6.631936 27.44475,5.9416011 27.192917,4.5553442 27.098549,3.9884463 27.078764,3.8695902 27.067177,3.85504 26.973952,3.8319893 c -0.05653,-0.013978 -1.008956,-0.032631 -2.116501,-0.04145 -1.683664,-0.013407 -2.019177,-0.00944 -2.04703,0.024223 -0.01832,0.022143 -0.06163,0.1989397 -0.09624,0.392883 -0.191594,1.0736887 -0.566552,3.1003781 -0.590584,3.1921717 -0.01967,0.075125 -0.0518,0.1162396 -0.108553,0.1389042 -0.04434,0.017707 -0.464094,0.132262 -0.93279,0.2545673 -2.012174,0.5250732 -2.726258,0.7799438 -4.06987,1.4526178 -1.065788,0.5335821 -1.916282,1.0531547 -2.718145,1.6605327 -0.755585,0.572325 -1.22759,0.996325 -2.400492,2.156355 L 11.050679,13.89661 10.835875,13.82298 C 10.717735,13.78248 10.145031,13.582001 9.5632011,13.377469 8.4609087,12.989978 7.7395135,12.756242 7.5546039,12.726674 L 7.4462005,12.70934 7.266172,13.013221 c -0.099016,0.167135 -0.4811312,0.826205 -0.8491459,1.464602 -0.3680147,0.638397 -0.7528442,1.305503 -0.8551769,1.482457 -0.1023327,0.176955 -0.1860595,0.330175 -0.1860595,0.340489 0,0.01032 0.3537261,0.321469 0.7860579,0.691454 0.9508339,0.813714 1.907519,1.652368 1.9993135,1.752648 l 0.067228,0.07344 -0.267644,0.937255 c -0.5654869,1.980264 -0.6742238,2.586478 -0.7373682,4.110873 -0.035433,0.855401 -0.016782,2.715455 0.033443,3.335236 0.078244,0.965536 0.2096033,1.59975 0.6476318,3.12681 0.3094943,1.078965 0.3187543,1.11954 0.2719478,1.191649 -0.1107883,0.170676 -0.5580021,0.571492 -1.9190489,1.719957 -0.494568,0.417318 -0.8661368,0.751768 -0.8651659,0.778735 0.00155,0.04317 1.497217,2.664122 1.8950308,3.320793 0.1688626,0.278741 0.1692872,0.279152 0.2822206,0.273581 0.062207,-0.0031 0.4040185,-0.110774 0.7595812,-0.239341 1.4543462,-0.525877 2.6548697,-0.945185 2.7061647,-0.945185 0.0325,0 0.422748,0.371084 0.966234,0.918785 0.501443,0.505331 1.08168,1.067273 1.289416,1.248757 1.053068,0.919988 2.494062,1.876166 3.795018,2.518198 1.207627,0.595973 2.21563,0.951477 3.967021,1.399101 0.50102,0.128049 0.939151,0.245097 0.973625,0.260101 0.04812,0.02095 0.07362,0.07727 0.109818,0.242523 0.123732,0.56496 0.606215,3.19253 0.606215,3.301409 0,0.03384 0.01876,0.08719 0.0417,0.118566 0.0368,0.05033 0.09124,0.05903 0.462819,0.07393 0.756699,0.03034 3.781032,0.0292 3.799966,-0.0014 z M 24.064868,35.850737 c -1.887775,-0.187458 -3.510936,-0.761833 -5.054279,-1.788513 -0.656808,-0.436928 -1.03059,-0.746303 -1.647265,-1.363415 -0.912007,-0.912653 -1.511701,-1.746774 -2.040215,-2.837758 -0.598716,-1.235895 -0.846663,-2.039168 -1.03,-3.336875 -0.07327,-0.518626 -0.09046,-1.866349 -0.03096,-2.427542 0.306162,-2.887694 1.710491,-5.460333 3.978639,-7.288606 1.63204,-1.315528 3.661804,-2.141353 5.659369,-2.302555 0.575017,-0.0464 1.970169,-0.02137 2.442073,0.04382 1.982393,0.273852 3.685419,1.00122 5.212393,2.226229 0.87481,0.701814 1.644839,1.533149 2.254291,2.433769 2.143058,3.166907 2.418249,7.278234 0.714522,10.674959 -1.443064,2.877043 -4.142331,5.029895 -7.155683,5.707151 -0.435929,0.09798 -1.195249,0.207916 -1.714606,0.248256 -0.36382,0.02826 -1.346271,0.03511 -1.588281,0.01108 z m 1.92474,-3.680412 c 1.374958,-0.23443 2.460177,-0.718457 3.428223,-1.529052 0.361802,-0.302957 0.901446,-0.859768 1.164827,-1.201883 0.990248,-1.286273 1.525128,-3.069104 1.414666,-4.715284 -0.118467,-1.765535 -0.850817,-3.375483 -2.099465,-4.615319 -0.637165,-0.632669 -0.981879,-0.883206 -1.719124,-1.249455 -0.815226,-0.404988 -1.53601,-0.627208 -2.409517,-0.74286 -0.361616,-0.04788 -1.375857,-0.04686 -1.733735,0.0017 -1.313542,0.17837 -2.570186,0.701383 -3.496483,1.455231 -1.519562,1.236663 -2.442306,2.898486 -2.663251,4.796399 -0.05677,0.487636 -0.0413,1.387584 0.03175,1.847433 0.142387,0.896327 0.442221,1.739465 0.910572,2.560543 0.28643,0.502147 0.4825,0.763195 0.897768,1.195286 1.2527,1.303446 2.79585,2.069974 4.537298,2.253812 0.398525,0.04207 1.337252,0.01148 1.736473,-0.05658 z"
         id="path959"
         inkscape:connector-curvature="0" />
      <path
         style="fill:#4d4d4d;fill-opacity:1;stroke-width:0.02938534"
         d="m 20.233116,50.090828 c -0.249935,-0.01789 -0.33199,-0.0347 -0.373911,-0.07662 -0.07091,-0.07091 -0.136776,-0.371281 -0.507939,-2.316308 -0.327978,-1.718723 -0.412875,-2.119821 -0.460947,-2.177745 -0.01652,-0.01991 -0.08548,-0.04553 -0.153236,-0.05693 -0.455569,-0.07668 -2.479063,-0.906832 -3.502511,-1.436938 -1.766746,-0.915101 -3.299563,-1.97171 -4.598806,-3.170067 -0.185862,-0.171429 -0.359702,-0.31212 -0.38631,-0.31264 -0.02661,-5.29e-4 -0.4299221,0.132408 -0.8962531,0.295402 -2.1849349,0.763696 -3.3127488,1.143528 -3.3954147,1.143528 -0.1377048,0 -0.2316847,-0.123133 -0.6522383,-0.854561 C 5.0972175,40.765615 4.7353229,40.138576 4.5013395,39.734527 4.267356,39.330479 3.7152999,38.371782 3.2745481,37.60409 2.8337963,36.836397 2.2054966,35.745466 1.8783266,35.179799 1.1971536,34.002069 0.89357058,33.431635 0.86396106,33.273803 0.84667143,33.181642 0.85469164,33.151375 0.91298526,33.08879 0.95131784,33.047636 1.4058298,32.655154 1.9230119,32.216607 3.6455538,30.755973 4.1461911,30.29333 4.1890567,30.12254 4.2009795,30.075035 4.1347532,29.681924 4.0145436,29.086649 3.7083195,27.57024 3.6015755,26.77651 3.5559384,25.676538 c -0.023851,-0.57486 -0.00355,-1.484643 0.043652,-1.956397 0.07698,-0.769352 0.2018163,-1.542982 0.3699578,-2.292684 C 4.1822678,20.478991 4.2284968,20.231112 4.2018896,20.181652 4.1244545,20.037707 3.3026753,19.289837 1.8201631,18.014135 1.4241956,17.673404 1.0407169,17.341296 0.96798819,17.276116 L 0.83575415,17.157607 0.90485176,16.957042 C 0.99929629,16.682905 1.1347438,16.438926 2.9011365,13.36118 5.3149576,9.1553608 5.7881242,8.3566333 5.8886953,8.3180407 c 0.053872,-0.020673 0.8809705,0.253177 2.8189321,0.9333402 0.8223897,0.2886329 1.5184686,0.524787 1.5468416,0.524787 0.02837,0 0.221642,-0.1601419 0.429486,-0.3558706 0.736551,-0.693617 1.813911,-1.5079207 2.86096,-2.162407 1.401768,-0.8762122 3.177985,-1.7331477 4.613499,-2.2257809 0.218186,-0.074876 0.462118,-0.1587778 0.542071,-0.186448 0.250587,-0.086724 0.268333,-0.1433705 0.59111,-1.8868935 0.265224,-1.4326469 0.439317,-2.31180803 0.498723,-2.51853799 0.03915,-0.13623021 0.05601,-0.157035 0.153712,-0.1896351 0.140629,-0.0469248 7.652389,-0.0708624 9.01371,-0.0287239 0.924174,0.028607 1.054271,0.0463526 1.085756,0.14809976 0.04124,0.13327865 0.185977,0.86225203 0.412052,2.07531913 0.35152,1.8861901 0.426679,2.2567602 0.465926,2.2972499 0.01884,0.019439 0.252443,0.1101651 0.519115,0.2016129 3.095482,1.0615115 5.528227,2.4813823 7.843192,4.5776737 0.208178,0.1885132 0.25907,0.2211112 0.323239,0.2070383 0.260289,-0.057085 1.129937,-0.3414804 2.320684,-0.7589174 1.570911,-0.5507087 1.828814,-0.6348049 1.970934,-0.6426725 0.09404,-0.00521 0.111629,0.00785 0.210167,0.155938 0.142292,0.2138545 0.807397,1.3576706 2.699746,4.6428843 0.861137,1.49498 1.704502,2.953423 1.874147,3.240986 0.225535,0.382306 0.312284,0.556923 0.322733,0.649634 l 0.01429,0.126793 -0.392705,0.349603 c -0.215989,0.192282 -0.855525,0.747577 -1.421193,1.23399 -1.23045,1.058052 -1.461351,1.271015 -1.526166,1.407602 -0.0485,0.102213 -0.04579,0.121172 0.171169,1.197855 0.348437,1.729121 0.426972,2.333342 0.450281,3.464231 0.0317,1.538287 -0.07208,2.343013 -0.673744,5.224049 l -0.03337,0.159789 0.232899,0.219981 c 0.128097,0.120988 0.823986,0.726488 1.546421,1.345555 0.722433,0.61907 1.396701,1.203765 1.498371,1.299329 l 0.184854,0.17375 -0.04043,0.113409 c -0.02224,0.06238 -0.142446,0.285315 -0.267128,0.49542 -0.124684,0.210105 -0.997438,1.717573 -1.939456,3.349929 -2.378602,4.121712 -2.422075,4.196245 -2.636359,4.520057 -0.105026,0.15871 -0.208756,0.295393 -0.230507,0.303738 -0.06133,0.02353 -0.2719,-0.04515 -1.879269,-0.612975 -0.824259,-0.291179 -1.720098,-0.606981 -1.990751,-0.701781 l -0.492099,-0.172359 -0.389462,0.347258 c -0.214204,0.190993 -0.567977,0.49613 -0.786163,0.678084 -1.82652,1.523199 -3.897305,2.692988 -6.450083,3.64366 -0.502498,0.187131 -0.5984,0.218944 -0.886815,0.294173 -0.100712,0.02627 -0.128237,0.0491 -0.153044,0.126963 -0.04538,0.142431 -0.171346,0.76974 -0.529457,2.636764 -0.17825,0.929312 -0.332794,1.732634 -0.343431,1.78516 l -0.01934,0.0955 -4.734713,-0.0043 c -2.604092,-0.0023 -4.878805,-0.01457 -5.054917,-0.02717 z m 6.840713,-3.605018 c 0.0086,-0.02828 0.05648,-0.296057 0.106425,-0.595053 0.220368,-1.319238 0.537334,-2.870464 0.623202,-3.049935 0.04174,-0.08723 0.15677,-0.123621 0.893941,-0.282789 0.981247,-0.211866 2.158694,-0.59858 3.268778,-1.073579 0.399218,-0.170823 1.330372,-0.62403 1.619544,-0.788256 0.659322,-0.374443 1.27153,-0.769867 1.821892,-1.176754 0.812475,-0.600669 1.256634,-0.99512 2.41526,-2.144954 0.759367,-0.753605 0.971815,-0.949117 1.013795,-0.932976 0.02921,0.01123 0.681219,0.243046 1.448912,0.515146 1.692686,0.599955 2.031811,0.705583 2.102015,0.654723 0.04181,-0.03029 0.148026,-0.20441 0.622884,-1.021088 0.225536,-0.387886 0.651914,-1.120854 0.947504,-1.628815 0.366395,-0.629634 0.529192,-0.935623 0.511532,-0.961447 -0.02539,-0.03713 -0.741825,-0.659384 -2.136565,-1.855717 -0.385086,-0.330309 -0.706547,-0.617213 -0.714357,-0.637565 -0.0078,-0.02035 0.06714,-0.293172 0.166565,-0.60627 0.475025,-1.495968 0.705962,-2.565243 0.836924,-3.875116 0.06353,-0.635459 0.08798,-2.190689 0.04711,-2.997305 -0.0857,-1.691502 -0.280862,-2.666297 -1.014388,-5.066758 l -0.04422,-0.144712 0.09619,-0.09072 c 0.107042,-0.100954 2.023402,-1.752648 2.449947,-2.111588 0.228592,-0.192362 0.272197,-0.242765 0.272197,-0.314633 0,-0.109197 -0.129786,-0.352901 -0.813742,-1.527977 -0.305731,-0.525263 -0.687388,-1.183977 -0.848129,-1.463808 -0.343914,-0.598721 -0.368595,-0.629956 -0.477265,-0.604054 -0.316283,0.07539 -1.185119,0.367146 -3.04731,1.023283 l -0.4701,0.165643 -0.793474,-0.804929 C 37.072546,12.168371 36.652291,11.780898 35.965932,11.231861 34.852454,10.341159 33.9504,9.7700655 32.674774,9.1482166 31.366947,8.5106695 30.045964,8.0612013 28.257835,7.6453396 27.835242,7.547058 27.790694,7.5306304 27.765244,7.4636923 27.730082,7.3712078 27.469476,6.0085239 27.268989,4.8688153 27.185119,4.3920381 27.11073,3.9725767 27.103681,3.9366787 27.07603,3.7958647 27.090009,3.7968074 24.890602,3.7874285 c -1.188147,-0.00507 -2.079892,0.00235 -2.094965,0.017422 -0.01443,0.014434 -0.163865,0.7787499 -0.332067,1.6984794 -0.371684,2.0323525 -0.359404,1.9743702 -0.425643,2.0098201 -0.02922,0.015636 -0.461158,0.1351062 -0.95987,0.2654881 -2.007058,0.5247203 -2.724978,0.7812549 -4.07387,1.4557185 -1.456904,0.728471 -2.517457,1.4325014 -3.664969,2.4329304 -0.185863,0.162039 -0.768308,0.721853 -1.294324,1.24403 -0.526016,0.522178 -0.979453,0.949414 -1.007639,0.949414 -0.02819,0 -0.430884,-0.133842 -0.894884,-0.297428 -1.7055025,-0.601281 -2.6265881,-0.896441 -2.6849342,-0.860381 -0.042554,0.0263 -0.1320471,0.176163 -0.8914852,1.492868 -0.3924248,0.680381 -0.8207488,1.421876 -0.9518309,1.647766 -0.1310822,0.22589 -0.238331,0.431521 -0.238331,0.456958 0,0.02544 0.095812,0.124922 0.2129156,0.221076 0.3275017,0.268914 1.90898,1.634808 2.2554532,1.947994 0.1697004,0.153396 0.320064,0.302204 0.3341413,0.330685 0.017809,0.03603 -0.055376,0.33624 -0.240576,0.986861 -0.6695107,2.352041 -0.7396444,2.864096 -0.7399062,5.402153 -2.645e-4,2.465702 0.066276,2.955417 0.7029741,5.174404 0.1627951,0.567364 0.2959909,1.051893 0.2959909,1.076732 0,0.114074 -0.367749,0.452279 -1.9038746,1.750926 l -0.9488507,0.802164 0.08354,0.152363 c 0.3332583,0.607816 1.9375826,3.365677 1.9989207,3.436179 0.024607,0.02828 0.082116,0.05142 0.1277992,0.05142 0.045682,0 0.8437328,-0.27108 1.7734451,-0.6024 0.9297127,-0.331319 1.6996277,-0.602399 1.7109247,-0.602399 0.0113,0 0.470725,0.447121 1.020954,0.993606 1.240899,1.232451 1.51881,1.477193 2.39622,2.110218 1.713289,1.236089 3.338847,2.049757 5.252197,2.628963 0.270951,0.08202 0.902402,0.254139 1.403226,0.382482 0.500824,0.128344 0.926586,0.249567 0.946138,0.26939 0.04427,0.04488 0.577786,2.819433 0.672344,3.496524 0.01075,0.07697 0.03455,0.149354 0.05288,0.160859 0.07955,0.0499 0.407636,0.05888 2.286686,0.06259 1.870593,0.0037 1.989805,8.52e-4 2.004493,-0.0475 z M 24.314643,35.849811 c -0.634153,-0.02784 -1.566877,-0.188472 -2.273088,-0.391454 -2.936541,-0.844038 -5.391943,-2.89411 -6.703975,-5.597306 -0.675842,-1.392446 -0.970361,-2.463851 -1.086052,-3.950856 -0.235559,-3.027682 0.897229,-6.061857 3.084096,-8.260756 1.41985,-1.427661 3.027874,-2.353274 4.971196,-2.861528 0.748561,-0.195778 1.30604,-0.269286 2.268417,-0.299108 2.692818,-0.08345 5.081822,0.732203 7.14972,2.441039 0.444412,0.367248 1.175719,1.108342 1.523992,1.544388 1.163506,1.456749 1.919347,3.126903 2.214215,4.89266 0.11544,0.691292 0.135451,0.958269 0.135451,1.807199 0,0.877167 -0.02089,1.138973 -0.1498,1.877621 -0.568845,3.259342 -2.771038,6.184507 -5.796809,7.699877 -1.343293,0.672748 -2.622052,0.995801 -4.308876,1.088556 -0.51288,0.0282 -0.589925,0.02892 -1.028487,0.0097 z m 0.990783,-3.594139 c 1.823255,-0.116313 3.359773,-0.807089 4.637635,-2.084949 0.96434,-0.964341 1.511912,-1.925423 1.850646,-3.248206 0.184919,-0.722126 0.220302,-1.016639 0.217105,-1.807199 -0.0024,-0.606334 -0.01209,-0.742522 -0.07902,-1.116643 -0.214502,-1.199051 -0.674229,-2.246726 -1.410065,-3.213393 -0.377602,-0.496052 -1.129368,-1.214256 -1.593588,-1.522439 -0.317951,-0.21108 -1.15134,-0.626028 -1.555811,-0.774646 -0.732378,-0.269102 -1.418122,-0.396019 -2.256017,-0.417541 -1.294142,-0.03324 -2.312457,0.191691 -3.442327,0.760365 -0.680709,0.342607 -1.177237,0.70945 -1.782006,1.316575 -1.11242,1.116753 -1.79002,2.485064 -2.01623,4.071469 -0.06137,0.430411 -0.069,1.37338 -0.01438,1.777813 0.194347,1.43907 0.80886,2.838967 1.670456,3.805402 0.647475,0.726259 1.419854,1.312885 2.285065,1.73552 0.853297,0.41681 1.746936,0.659036 2.642487,0.716256 0.19515,0.01247 0.36143,0.02456 0.369511,0.02687 0.0081,0.0023 0.222524,-0.0091 0.476539,-0.02526 z"
         id="path957"
         inkscape:connector-curvature="0" />
      <path
         style="fill:#4d4d4d;fill-opacity:1;stroke-width:0.02938534"
         d="m 20.361908,50.093017 c -0.218409,-0.01103 -0.426229,-0.03563 -0.461821,-0.05468 -0.09573,-0.05123 -0.122012,-0.165751 -0.533748,-2.325692 -0.442995,-2.323922 -0.414627,-2.214976 -0.585541,-2.248769 -0.315993,-0.06248 -1.493609,-0.508446 -2.447662,-0.926931 -1.4418,-0.632432 -2.997347,-1.546592 -4.281895,-2.516376 -0.553131,-0.41759 -0.836524,-0.653516 -1.390138,-1.157292 -0.211569,-0.192524 -0.395523,-0.350041 -0.408788,-0.350041 -0.01326,0 -0.06134,0.01445 -0.10684,0.03211 C 10.014451,40.596206 6.9375437,41.66531 6.4364202,41.83409 6.1652308,41.92543 5.9574014,41.979968 5.9181044,41.970103 5.806136,41.942007 5.6921141,41.779183 5.2866378,41.068372 5.0709808,40.690321 4.6662294,39.988699 4.38719,39.509212 4.1081509,39.029725 3.6656225,38.262768 3.4037938,37.804862 3.1419651,37.346956 2.5641379,36.344193 2.1197335,35.576501 1.267671,34.104595 0.85044682,33.327244 0.85044682,33.211627 c 0,-0.05468 0.14400845,-0.191831 0.66851658,-0.636666 2.4612264,-2.087367 2.6814126,-2.294619 2.6814126,-2.523875 0,-0.06228 -0.071759,-0.4611 -0.1594631,-0.886268 C 3.6530417,27.284523 3.5331754,26.183054 3.5634551,24.777386 3.591795,23.46177 3.7083571,22.622147 4.1101045,20.83975 4.1756758,20.548835 4.2295468,20.277756 4.2298174,20.237351 4.2306523,20.112785 3.7301437,19.647734 1.8201631,17.998403 1.3595479,17.600646 0.95187114,17.245962 0.91421481,17.210216 0.77499042,17.078054 0.74053426,17.143899 3.0821724,13.067327 5.1855081,9.4056164 5.7896511,8.3832479 5.8786966,8.3348729 5.9341694,8.304737 6.7607973,8.577205 8.8710264,9.3211867 c 0.8815068,0.3107838 1.4070786,0.4821112 1.4292496,0.4659111 0.01928,-0.014092 0.218365,-0.1956817 0.442399,-0.4035316 1.521544,-1.4116291 3.636286,-2.752847 5.902394,-3.7434323 0.567991,-0.2482868 1.347621,-0.5488571 1.807198,-0.6967286 0.185863,-0.059802 0.362427,-0.1307709 0.392365,-0.1577085 0.137681,-0.123881 0.16441,-0.2333957 0.503285,-2.0620117 0.268614,-1.449479 0.442788,-2.30047643 0.488211,-2.38534931 0.06853,-0.12805294 0.03512,-0.12720042 4.904603,-0.12512626 4.665874,0.001987 5.154269,0.0119615 5.249514,0.10720651 0.0572,0.0571981 0.148759,0.49536223 0.523692,2.50611776 0.186844,1.0020403 0.351349,1.8491566 0.365568,1.8824808 0.01982,0.046461 0.168763,0.1105629 0.638747,0.2749049 3.023314,1.057186 5.393115,2.4291762 7.586487,4.3921761 l 0.423076,0.3786392 0.165836,-0.03666 c 0.25468,-0.0563 1.039665,-0.3162407 2.443203,-0.8090456 0.703044,-0.2468501 1.374879,-0.4774836 1.492964,-0.5125189 0.380781,-0.1129746 0.33362,-0.152219 0.828079,0.6891022 0.237466,0.4040485 1.232394,2.1230905 2.210953,3.8200945 0.978555,1.697004 1.906315,3.30286 2.061684,3.568569 0.190764,0.326238 0.282446,0.512301 0.282352,0.573014 -2.93e-4,0.105356 -0.0066,0.111289 -1.792367,1.652323 -1.220879,1.05356 -1.540398,1.356825 -1.575061,1.494931 -0.01414,0.05632 0.02483,0.307335 0.118188,0.761317 0.286472,1.393087 0.411833,2.144968 0.492625,2.954658 0.04755,0.476534 0.04754,1.905397 -1.5e-5,2.394905 -0.08586,0.883836 -0.323327,2.26968 -0.616804,3.599705 -0.03031,0.137377 -0.04986,0.265285 -0.04343,0.284239 0.0175,0.05161 0.59687,0.563352 1.888964,1.668461 1.205198,1.030788 1.557423,1.347189 1.557423,1.399016 0,0.04673 -0.06842,0.171481 -0.426111,0.776925 -0.28527,0.482863 -2.473317,4.268489 -3.702592,6.406005 -0.455337,0.791756 -0.745891,1.267549 -0.87682,1.435833 -0.08354,0.107365 -0.09503,0.112572 -0.212853,0.09642 -0.0685,-0.0094 -1.042201,-0.341458 -2.163781,-0.737931 -1.12158,-0.396473 -2.051696,-0.720678 -2.066927,-0.720452 -0.01523,2.94e-4 -0.133477,0.09452 -0.262772,0.20955 -1.794116,1.596156 -3.187875,2.548952 -5.083665,3.475272 -0.989054,0.483275 -2.922175,1.251508 -3.149189,1.251508 -0.03915,0 -0.101291,0.03011 -0.138096,0.06692 -0.06978,0.06978 -0.187138,0.628799 -0.747818,3.562171 l -0.196583,1.028487 -4.628093,0.0028 c -2.545451,0.0015 -4.806792,-0.0063 -5.025202,-0.01729 z m 6.678209,-3.563129 c 0.03522,-0.02698 0.08781,-0.266801 0.198133,-0.903599 0.291218,-1.680915 0.523623,-2.750886 0.615589,-2.834114 0.0306,-0.0277 0.275104,-0.09606 0.578353,-0.161719 0.925608,-0.200405 1.56674,-0.38399 2.425947,-0.694664 1.619568,-0.585603 3.172736,-1.394781 4.413638,-2.299438 0.884719,-0.644991 1.420493,-1.115192 2.591667,-2.274467 0.502207,-0.497103 0.928086,-0.903826 0.946399,-0.903826 0.01832,0 0.625619,0.21002 1.349569,0.466707 1.497159,0.530846 1.928345,0.673715 2.107337,0.698249 0.114159,0.01565 0.131229,0.0095 0.185257,-0.06696 0.03273,-0.04631 0.486019,-0.818096 1.007303,-1.715084 0.521287,-0.896988 0.965923,-1.656969 0.988082,-1.688849 0.09477,-0.136337 0.178654,-0.05415 -1.678752,-1.644619 -0.58183,-0.498208 -1.080232,-0.931022 -1.107557,-0.961809 -0.04393,-0.04949 -0.0452,-0.07031 -0.01096,-0.17975 0.462032,-1.476772 0.570758,-1.868013 0.719474,-2.589 0.238823,-1.15784 0.298482,-1.773832 0.317185,-3.27519 0.03024,-2.426739 -0.141478,-3.639995 -0.844502,-5.966827 -0.114286,-0.378253 -0.201572,-0.703937 -0.193973,-0.723742 0.01305,-0.03401 1.410532,-1.251431 2.339826,-2.038349 0.234348,-0.198444 0.437339,-0.380676 0.451091,-0.40496 0.05116,-0.09034 -0.03797,-0.267414 -0.744354,-1.478656 -0.221498,-0.379806 -0.584865,-1.007917 -0.807483,-1.395804 -0.222617,-0.387887 -0.426178,-0.729579 -0.452358,-0.759317 -0.03644,-0.04139 -0.07276,-0.05005 -0.154902,-0.03691 -0.159668,0.02553 -1.22682,0.378311 -2.404773,0.79497 -0.573108,0.202716 -1.055298,0.368575 -1.071536,0.368575 -0.01624,0 -0.439914,-0.407522 -0.941498,-0.905604 -1.3832,-1.373535 -2.025579,-1.913821 -3.204034,-2.694825 C 32.875743,9.078951 31.014702,8.297589 28.604904,7.7187797 28.184693,7.6178496 27.823449,7.5190749 27.802139,7.4992806 27.762115,7.4621035 27.457647,5.9103803 27.239883,4.6337326 27.172341,4.237765 27.106769,3.8942404 27.094168,3.8703448 c -0.0126,-0.023896 -0.06793,-0.054284 -0.122956,-0.067529 -0.05502,-0.013245 -1.006409,-0.031857 -2.114189,-0.04136 -1.763957,-0.015132 -2.019604,-0.011821 -2.058086,0.026661 -0.02877,0.028771 -0.128258,0.5094766 -0.288185,1.3924551 -0.401291,2.215588 -0.413077,2.2719506 -0.484479,2.3170095 -0.03435,0.021678 -0.353372,0.1146921 -0.708935,0.2066994 -2.241816,0.5801035 -2.90912,0.8153499 -4.334338,1.5279951 -1.516818,0.7584478 -2.665248,1.5352211 -3.864172,2.6136421 -0.16162,0.145375 -0.693468,0.660245 -1.181886,1.144154 L 11.04891,13.869907 9.9828168,13.495131 C 8.7546413,13.063377 7.9793226,12.805328 7.6753612,12.727143 7.4882283,12.679008 7.4574603,12.67761 7.4209299,12.715584 7.398074,12.739342 7.0056413,13.406727 6.5488567,14.198662 6.0920721,14.990597 5.634654,15.783326 5.5323718,15.96028 c -0.1022821,0.176955 -0.1859675,0.331636 -0.1859675,0.343735 0,0.0121 0.3206676,0.296442 0.7125946,0.631873 0.918771,0.78633 2.0200828,1.748927 2.087811,1.824841 0.051317,0.05752 0.045369,0.08558 -0.201678,0.951603 -0.4450663,1.560174 -0.6050243,2.280205 -0.6878431,3.096236 -0.059576,0.587017 -0.095796,2.000757 -0.076761,2.996123 0.037902,1.981913 0.1177979,2.495551 0.7101946,4.565693 0.2184169,0.763261 0.2978243,1.082036 0.2785217,1.118104 -0.080131,0.149727 -0.7531334,0.744407 -2.5962251,2.294087 -0.1575433,0.132464 -0.2248892,0.20806 -0.2161215,0.2426 0.018203,0.07171 1.8757893,3.296859 2.0247956,3.51546 0.082376,0.12085 0.09256,0.126527 0.1938945,0.1081 0.086067,-0.01565 2.8550464,-0.986607 3.2738174,-1.14798 0.06093,-0.02348 0.137813,-0.04269 0.170842,-0.04269 0.03975,0 0.384733,0.326051 1.020546,0.964551 0.528271,0.530505 1.130485,1.109029 1.338253,1.285608 1.044269,0.887523 2.440911,1.809136 3.648032,2.407257 1.259004,0.62383 2.336457,1.000268 4.256802,1.487233 0.57729,0.146392 0.738824,0.197872 0.76995,0.245377 0.04995,0.07623 0.488125,2.367715 0.675392,3.532036 0.0082,0.05097 0.03768,0.10353 0.06553,0.116806 0.06174,0.02944 1.26923,0.05551 2.946812,0.06364 0.963003,0.0047 1.261633,-0.0024 1.298554,-0.03068 z M 23.888556,35.807743 C 23.751179,35.793764 23.440429,35.748755 23.198,35.707721 19.816009,35.135274 16.86131,32.9403 15.367231,29.890437 c -0.459596,-0.938174 -0.688055,-1.560749 -0.864346,-2.355435 -0.528204,-2.381039 -0.259816,-4.797486 0.773104,-6.960692 0.498003,-1.042948 1.163729,-1.987865 2.013985,-2.858605 1.418772,-1.452953 3.057636,-2.404337 5.021499,-2.915048 0.934713,-0.243076 1.556405,-0.306324 2.811876,-0.286063 1.145818,0.01849 1.799064,0.107842 2.755377,0.376876 1.154604,0.324819 2.339576,0.911089 3.329684,1.647379 0.931074,0.692388 1.835496,1.617902 2.478304,2.536094 2.29243,3.274544 2.551761,7.618656 0.662339,11.094916 -0.501052,0.921862 -1.078077,1.701229 -1.81468,2.45102 -0.895262,0.911289 -1.811794,1.580708 -2.915675,2.129556 -1.257752,0.625349 -2.409431,0.934442 -3.952329,1.06074 -0.419067,0.0343 -1.42608,0.03236 -1.777813,-0.0034 z m 1.662515,-3.553573 c 0.956874,-0.09293 2.043123,-0.426117 2.838809,-0.870767 0.990412,-0.553467 1.971632,-1.489111 2.58486,-2.464795 0.496201,-0.789484 0.875898,-1.87519 1.011212,-2.891476 0.0555,-0.416829 0.05397,-1.319638 -0.003,-1.753977 -0.171402,-1.307531 -0.719894,-2.592557 -1.542948,-3.614875 -0.228714,-0.284086 -0.873269,-0.921984 -1.188661,-1.176383 -0.299128,-0.241281 -0.559046,-0.39659 -1.146028,-0.684786 -2.016237,-0.989931 -4.284089,-1.010463 -6.268605,-0.05675 -0.773053,0.371509 -1.201655,0.672638 -1.837924,1.291295 -0.464921,0.452053 -0.689861,0.720078 -1.018168,1.21319 -1.029162,1.545787 -1.398201,3.428428 -1.038067,5.295664 0.178518,0.925586 0.656426,2.038513 1.210745,2.819516 0.21686,0.305545 0.910776,1.018774 1.282444,1.318141 1.452566,1.169995 3.332354,1.74915 5.115293,1.576006 z"
         id="path955"
         inkscape:connector-curvature="0" />
      <path
         style="fill:#4d4d4d;fill-opacity:1;stroke-width:0.02938534"
         d="m 20.494549,50.092579 c -0.483314,-0.02008 -0.607765,-0.04624 -0.656037,-0.137891 -0.03706,-0.07037 -0.18654,-0.801558 -0.491383,-2.403659 -0.318878,-1.675861 -0.384787,-1.98558 -0.432738,-2.033531 -0.02133,-0.02133 -0.150558,-0.06957 -0.287181,-0.107203 -0.63625,-0.175266 -2.263541,-0.841767 -3.190787,-1.306875 -1.785686,-0.895701 -3.424641,-2.014992 -4.800657,-3.278509 -0.185862,-0.170667 -0.358308,-0.310611 -0.383212,-0.310988 -0.0249,-3.82e-4 -0.6530162,0.211678 -1.3958039,0.471233 -1.9848677,0.693573 -2.8022753,0.967965 -2.8835637,0.967965 -0.1673898,0 -0.1930059,-0.03628 -0.8921955,-1.26357 C 4.8185778,40.228935 4.4487388,39.5876 4.259127,39.264362 4.0695148,38.941123 3.6726318,38.253506 3.3771644,37.736324 3.081697,37.219142 2.552879,36.300115 2.2020133,35.694042 1.1538419,33.88347 0.83843288,33.296983 0.85667131,33.192456 0.86132881,33.165762 1.3676289,32.717075 1.9817825,32.195373 3.7128999,30.724851 4.1743358,30.298273 4.2167639,30.129228 4.226866,30.088979 4.1575027,29.677255 4.0569523,29.180625 3.5775064,26.81259 3.4718167,25.45728 3.6299383,23.704821 c 0.074044,-0.820623 0.20378,-1.578713 0.480259,-2.8063 C 4.2561443,20.250506 4.2576665,20.2039 4.1374246,20.064918 3.9570891,19.856476 3.3465379,19.305933 2.1066689,18.233758 0.6858461,17.005103 0.80800656,17.162263 0.98734948,16.793753 1.1277861,16.505187 1.3397458,16.129913 2.7684379,13.640341 4.9990478,9.7533846 5.7185635,8.5226964 5.8405697,8.3856452 c 0.036632,-0.04115 0.071302,-0.049047 0.1502811,-0.03423 0.1168723,0.021925 1.460406,0.4814733 3.1004913,1.060505 0.6132222,0.216498 1.1401419,0.3936329 1.1709329,0.3936329 0.03079,0 0.183622,-0.1225313 0.339625,-0.272292 1.922904,-1.8459618 5.020471,-3.6497882 7.878949,-4.588201 0.319828,-0.1049965 0.374737,-0.1325949 0.431072,-0.2166652 0.08701,-0.1298512 0.175151,-0.5183457 0.42148,-1.8577832 0.289904,-1.5763756 0.467573,-2.44238027 0.516722,-2.51863957 0.09277,-0.14393579 -0.01422,-0.14088943 4.861223,-0.13841607 4.7891,0.00243 5.151588,0.011076 5.267971,0.12565748 0.06003,0.0590966 0.161814,0.54138064 0.518758,2.45793476 0.332842,1.7871382 0.35685,1.9098829 0.381298,1.9494444 0.01202,0.019444 0.318417,0.139193 0.680888,0.2661101 1.153742,0.403975 1.876137,0.7065783 2.847692,1.1928669 1.852846,0.9273998 3.437192,2.015001 4.869663,3.3428616 0.163709,0.1517533 0.234354,0.1983511 0.300715,0.1983511 0.159659,0 0.882897,-0.2349115 2.808299,-0.9121511 0.915435,-0.321994 1.461095,-0.4983455 1.541966,-0.4983455 0.02773,0 0.07049,0.023141 0.09501,0.051424 0.06098,0.070349 0.767654,1.2844989 2.793653,4.7998522 0.946284,1.641919 1.805841,3.129552 1.910129,3.305851 0.354649,0.599541 0.352577,0.582996 0.10011,0.800118 -1.459123,1.254846 -2.723395,2.353588 -2.897036,2.517731 -0.121535,0.114889 -0.24116,0.258565 -0.270971,0.325452 l -0.05337,0.119755 0.205915,1.011581 c 0.335948,1.650369 0.4315,2.337312 0.463222,3.330178 0.05041,1.577644 -0.07298,2.582109 -0.65631,5.342733 -0.02685,0.127094 -0.03738,0.244553 -0.02393,0.267127 0.03939,0.06612 0.581172,0.543603 1.877016,1.654236 1.551596,1.32984 1.577408,1.353675 1.552139,1.433329 -0.01086,0.03424 -0.117853,0.226029 -0.237756,0.426197 -0.226535,0.378177 -1.266753,2.174168 -3.167608,5.469047 -1.483872,2.572094 -1.618812,2.791608 -1.716072,2.791608 -0.07034,0 -0.857026,-0.268488 -2.659271,-0.907584 -0.871172,-0.308925 -1.608891,-0.561683 -1.639376,-0.561683 -0.03048,0 -0.289627,0.206778 -0.575873,0.45951 -1.55038,1.368843 -2.960803,2.318037 -4.751939,3.197987 -1.015043,0.498669 -2.73562,1.182072 -3.253578,1.292302 -0.04398,0.0094 -0.09295,0.04129 -0.108828,0.07095 -0.01588,0.02967 -0.07631,0.28406 -0.134291,0.565321 -0.09524,0.461962 -0.736737,3.790052 -0.760273,3.944281 l -0.0098,0.06396 -4.522414,0.0023 c -2.487329,0.0012 -4.73399,-0.0065 -4.992581,-0.01727 z m 6.596181,-3.592076 c 0.01501,-0.03637 0.04896,-0.204963 0.07545,-0.374663 0.08838,-0.566312 0.367299,-2.064535 0.470324,-2.526376 0.141946,-0.636304 0.181538,-0.774304 0.232928,-0.811882 0.02462,-0.018 0.305965,-0.08919 0.625204,-0.158181 2.551585,-0.55146 5.033145,-1.668997 7.015824,-3.159486 0.861523,-0.647653 1.373615,-1.107096 2.48595,-2.230365 l 0.782932,-0.790631 1.495097,0.529269 c 1.647559,0.583237 2.037224,0.704881 2.116276,0.660641 0.04665,-0.02611 2.087391,-3.488684 2.117132,-3.592188 0.01217,-0.04237 -0.490039,-0.487059 -2.466494,-2.184025 -0.222227,-0.190802 -0.403875,-0.362177 -0.403667,-0.380834 2.94e-4,-0.01866 0.09838,-0.347 0.218142,-0.729647 0.596476,-1.905704 0.813122,-3.19191 0.857885,-5.093188 0.05607,-2.381525 -0.191216,-4.021244 -0.986008,-6.53803 -0.07134,-0.225908 -0.08133,-0.288259 -0.05251,-0.327897 0.03612,-0.04969 0.500373,-0.453126 1.967663,-1.70988 0.658775,-0.564251 0.815443,-0.712374 0.815443,-0.77097 0,-0.10884 -0.178322,-0.444026 -0.849342,-1.596481 -0.334961,-0.575279 -0.720564,-1.242425 -0.8569,-1.482546 -0.136336,-0.240121 -0.27619,-0.467347 -0.310788,-0.504947 -0.06178,-0.06713 -0.066,-0.06758 -0.235083,-0.02496 -0.255279,0.06435 -1.458492,0.465852 -2.492065,0.831578 -0.640407,0.226605 -0.923673,0.314141 -0.957674,0.295944 -0.02656,-0.01421 -0.298338,-0.286487 -0.603954,-0.605054 C 36.404511,11.403668 34.83102,10.203406 32.939242,9.2490251 31.63882,8.5929767 30.38721,8.1402323 28.82937,7.7623597 27.70156,7.4887962 27.801562,7.5229567 27.768927,7.4001124 27.716896,7.2042582 27.2469,4.6625481 27.133728,3.9649935 c -0.0098,-0.060121 -0.04459,-0.1147686 -0.09365,-0.1469267 -0.07243,-0.047474 -0.231177,-0.051202 -2.180335,-0.051202 h -2.10222 l -0.09419,0.5142435 c -0.05181,0.282834 -0.200588,1.0960734 -0.330625,1.8071987 -0.130037,0.7111254 -0.248018,1.3196268 -0.26218,1.3522255 -0.02118,0.048748 -0.163352,0.095156 -0.800864,0.2614182 -2.174186,0.5670225 -2.781986,0.7801841 -4.15443,1.4570003 -1.150679,0.5674539 -1.892682,1.011016 -2.718144,1.624882 -0.815709,0.606613 -1.364296,1.098895 -2.54162,2.28076 -0.50962,0.511585 -0.784123,0.766753 -0.824854,0.766753 -0.03358,0 -0.602278,-0.190693 -1.2637821,-0.423761 -1.3359235,-0.470687 -2.122801,-0.722268 -2.2590576,-0.722268 -0.1076206,0 -0.00698,-0.157846 -1.0304441,1.616194 -0.4242415,0.735368 -0.8522537,1.475814 -0.951138,1.645434 -0.098884,0.169621 -0.1797899,0.328696 -0.1797899,0.353499 0,0.0248 0.2479389,0.256194 0.5509752,0.5142 1.6794964,1.429932 2.2700178,1.959333 2.2700178,2.035065 0,0.02159 -0.1117692,0.431893 -0.2483761,0.911795 -0.6914615,2.429114 -0.7733831,3.07431 -0.7413461,5.838672 0.025384,2.190315 0.091566,2.655787 0.656897,4.620129 0.3837139,1.33328 0.3532862,1.20124 0.298268,1.294321 -0.071124,0.120327 -0.6184507,0.614227 -1.5680128,1.414957 -1.1713785,0.987777 -1.218423,1.029548 -1.218423,1.081825 0,0.02537 0.392682,0.728401 0.8726266,1.562284 0.9773192,1.698052 1.1766288,2.034688 1.2246268,2.068393 0.071739,0.05038 0.3215054,-0.02606 1.7375339,-0.531769 0.808097,-0.288597 1.5585184,-0.555859 1.6676034,-0.593916 l 0.198337,-0.0692 1.065233,1.056586 c 1.14463,1.135338 1.542954,1.483386 2.393071,2.091025 1.711251,1.223148 3.254572,1.994678 5.151631,2.575379 0.518454,0.158702 0.663458,0.198498 1.615008,0.443243 0.411477,0.105834 0.759068,0.203355 0.772425,0.216711 0.03667,0.03668 0.595891,2.987384 0.656523,3.464147 0.01075,0.08457 0.03856,0.16953 0.06178,0.188801 0.07681,0.06375 0.416776,0.07514 2.367915,0.07935 l 1.932716,0.0042 z M 24.197102,35.820954 c -0.322461,-0.02067 -0.933517,-0.106292 -1.339591,-0.187701 -3.129092,-0.627298 -5.879144,-2.682568 -7.354894,-5.496726 -0.678062,-1.293018 -1.032095,-2.432339 -1.199613,-3.860488 -0.05852,-0.498909 -0.04913,-1.871919 0.01629,-2.380213 0.311722,-2.422263 1.350809,-4.548053 3.059976,-6.260174 1.357885,-1.360233 2.934278,-2.276254 4.799659,-2.789019 0.810492,-0.222791 1.406444,-0.304207 2.414877,-0.329905 2.350078,-0.05989 4.337492,0.501274 6.215,1.75485 0.976699,0.652122 1.99153,1.615339 2.670202,2.534391 0.437378,0.592292 0.739641,1.095249 1.072142,1.784006 0.483339,1.001206 0.795779,2.052772 0.960401,3.232388 0.07492,0.53687 0.09055,1.786888 0.02976,2.380213 -0.206212,2.012642 -0.897528,3.764239 -2.128181,5.392211 -1.550047,2.050479 -3.892481,3.541069 -6.297218,4.007185 -0.969493,0.187919 -2.090985,0.272058 -2.918813,0.218982 z m 1.851277,-3.620712 c 0.765498,-0.137464 1.345929,-0.318555 1.954125,-0.609669 0.698041,-0.334121 1.264021,-0.728631 1.840776,-1.283091 1.122959,-1.079548 1.779401,-2.289039 2.078797,-3.83016 0.398101,-2.049224 -0.143465,-4.173978 -1.489364,-5.843269 -0.254158,-0.315227 -0.973853,-1.012428 -1.289171,-1.248877 -0.140093,-0.105053 -0.417773,-0.279881 -0.617066,-0.388506 -0.893112,-0.486793 -1.647486,-0.74838 -2.580946,-0.894969 -0.475366,-0.07465 -1.610568,-0.07447 -2.080396,3.37e-4 -0.753667,0.119997 -1.39204,0.317537 -2.048245,0.633814 -0.780651,0.376257 -1.287115,0.740789 -1.940124,1.396421 -1.129043,1.133577 -1.812682,2.521334 -2.027718,4.116176 -0.06288,0.466376 -0.06307,1.353156 -3.9e-4,1.821892 0.182042,1.361304 0.815352,2.794533 1.64736,3.728098 1.146486,1.286429 2.67168,2.139188 4.289689,2.398426 0.524648,0.08406 0.506613,0.08297 1.234185,0.07454 0.537467,-0.0062 0.748069,-0.0208 1.028487,-0.07116 z"
         id="path953"
         inkscape:connector-curvature="0" />
      <path
         style="fill:#4d4d4d;fill-opacity:1;stroke-width:0.02938534"
         d="m 20.670861,50.093472 c -0.307077,-0.0094 -0.578157,-0.02551 -0.6024,-0.03579 -0.02424,-0.01028 -0.07941,-0.02639 -0.122604,-0.03582 -0.05585,-0.01219 -0.08732,-0.04472 -0.108967,-0.112652 -0.04448,-0.139556 -0.17017,-0.763654 -0.48678,-2.416956 -0.154752,-0.808097 -0.306044,-1.580652 -0.336205,-1.716786 -0.05695,-0.257054 -0.09787,-0.315689 -0.238399,-0.341584 -0.499601,-0.09206 -2.4767,-0.902183 -3.540934,-1.450904 -1.765211,-0.910144 -3.240208,-1.930635 -4.620161,-3.196503 -0.181445,-0.166444 -0.336275,-0.302628 -0.344066,-0.302628 -0.0078,0 -0.4345534,0.146572 -0.9483614,0.325716 C 6.8464994,41.672667 6.086503,41.92814 5.9797293,41.933071 5.8732057,41.93799 5.8551986,41.927038 5.7593392,41.79903 5.7019253,41.72236 5.3831877,41.186813 5.0510332,40.608923 4.7188789,40.031034 4.1947528,39.121843 3.8863086,38.588499 1.4446552,34.36653 0.90559343,33.409858 0.86556142,33.227595 c -0.0146526,-0.06671 -0.003373,-0.09101 0.0621906,-0.133971 0.0440493,-0.02886 0.51741248,-0.423942 1.05191828,-0.877952 2.0260445,-1.720932 2.250091,-1.934836 2.250091,-2.148248 0,-0.05134 -0.0853,-0.522096 -0.1895549,-1.046115 C 3.7082808,27.352942 3.6148212,26.594348 3.591567,25.379786 3.5641917,23.949986 3.6873607,22.852405 4.063524,21.174094 4.1518305,20.7801 4.2337277,20.393229 4.2455174,20.314381 L 4.2669532,20.171022 3.9177721,19.828278 C 3.5610537,19.478137 2.9291887,18.919743 1.620776,17.798367 1.0841631,17.338463 0.8830996,17.148998 0.8817231,17.101948 0.87887751,17.004682 1.2076882,16.387453 1.9743927,15.050837 5.2871224,9.27567 5.8075097,8.3867122 5.8952088,8.3530589 c 0.044624,-0.017124 1.1678415,0.3590228 3.0125749,1.0088609 0.7385321,0.2601605 1.3513453,0.4730188 1.3618083,0.4730188 0.01046,0 0.199613,-0.1671991 0.420335,-0.3715536 1.979865,-1.8330504 4.750207,-3.4511877 7.585596,-4.4306938 0.599102,-0.2069639 0.602272,-0.2085134 0.665962,-0.3254953 0.08216,-0.1509046 0.16252,-0.5182452 0.436463,-1.9951172 0.242155,-1.3054976 0.410978,-2.15317104 0.458225,-2.30078193 0.0252,-0.0787286 0.05453,-0.10151334 0.182579,-0.14184661 0.13403,-0.042216 0.430921,-0.0497668 2.444615,-0.0621736 2.500178,-0.0154041 6.961845,0.0290086 7.282542,0.0724924 0.11037,0.0149654 0.214756,0.0412922 0.231968,0.0585041 0.04099,0.0409913 0.177841,0.70202384 0.466464,2.25317794 0.341757,1.8367239 0.403205,2.1377562 0.444715,2.1786527 0.02051,0.020206 0.281923,0.1215795 0.580919,0.2252733 3.031362,1.0512954 5.409988,2.425936 7.634094,4.4118487 0.412811,0.3686004 0.421856,0.3746652 0.528936,0.3546761 0.213582,-0.03987 0.979329,-0.2911438 2.32672,-0.7634935 1.595139,-0.5592026 1.821871,-0.632737 1.950934,-0.632737 0.09467,0 0.102261,0.011028 0.64187,0.9329847 0.300336,0.5131416 1.269914,2.189208 2.154622,3.724593 0.884704,1.535384 1.765451,3.060086 1.957213,3.388227 0.191763,0.328141 0.34755,0.619056 0.346195,0.646478 -0.003,0.05994 -0.243954,0.276591 -1.773993,1.594839 -0.645734,0.556349 -1.261052,1.097496 -1.367377,1.202548 -0.316051,0.312272 -0.312798,0.212036 -0.04952,1.526183 0.376726,1.8804 0.44163,2.422343 0.443645,3.704409 0.0021,1.352047 -0.127882,2.373282 -0.555512,4.363723 -0.07292,0.339401 -0.132642,0.652813 -0.132722,0.696474 -2.94e-4,0.09803 0.12559,0.213179 1.928499,1.765736 0.725139,0.62445 1.36938,1.181391 1.431645,1.237649 l 0.113207,0.102288 -0.39548,0.670144 c -0.335989,0.569335 -2.372805,4.091765 -3.768882,6.517828 -0.492624,0.856072 -0.795302,1.346842 -0.899332,1.458207 l -0.0779,0.08339 -0.157702,-0.04644 c -0.08674,-0.02554 -1.052398,-0.362486 -2.145912,-0.748762 -1.093517,-0.386276 -1.999831,-0.702322 -2.014036,-0.702322 -0.01421,0 -0.183996,0.1408 -0.377314,0.31289 -1.509393,1.343662 -2.710445,2.187127 -4.37863,3.074991 -1.129338,0.601068 -2.865374,1.321667 -3.796178,1.575727 -0.116381,0.03177 -0.127221,0.04378 -0.168878,0.187197 -0.04994,0.171924 -0.305731,1.461386 -0.649753,3.275443 l -0.229874,1.212145 -4.379688,-0.0058 c -2.408829,-0.0032 -4.630933,-0.01353 -4.93801,-0.02294 z m 6.572261,-4.343233 c 0.167112,-0.978808 0.409303,-2.205564 0.517533,-2.621434 0.06771,-0.260149 0.0917,-0.313668 0.153693,-0.342836 0.0404,-0.01901 0.304873,-0.08347 0.587707,-0.143245 2.073433,-0.438188 4.355337,-1.379918 6.100529,-2.517651 1.155929,-0.753578 2.033898,-1.494371 3.420105,-2.885732 0.412012,-0.413543 0.765788,-0.751895 0.786166,-0.751895 0.02038,0 0.669254,0.223937 1.441936,0.497638 1.423347,0.504179 1.955936,0.677776 2.079395,0.677776 0.04256,0 0.09511,-0.03586 0.139963,-0.0955 0.0395,-0.05253 0.451626,-0.750061 0.915835,-1.550077 0.464212,-0.800016 0.909523,-1.563712 0.989584,-1.697101 0.08006,-0.133389 0.14134,-0.266827 0.136183,-0.296533 -0.01024,-0.05898 -0.193491,-0.221956 -1.772497,-1.576377 -0.58183,-0.499075 -1.066991,-0.9222 -1.078134,-0.940275 -0.01114,-0.01808 0.04553,-0.237128 0.125931,-0.486783 0.548639,-1.703496 0.809754,-2.978653 0.907261,-4.430618 0.03905,-0.58146 0.03895,-2.237111 -2.94e-4,-2.841196 -0.09255,-1.429405 -0.303016,-2.491766 -0.853142,-4.306457 -0.09587,-0.316261 -0.17432,-0.589505 -0.17432,-0.607211 0,-0.02883 1.502109,-1.339496 2.430477,-2.120708 0.197346,-0.166065 0.366614,-0.326519 0.37615,-0.356565 0.03325,-0.104766 -0.05863,-0.283331 -0.808394,-1.571088 -0.254066,-0.436372 -0.623751,-1.074731 -0.821523,-1.418576 -0.197772,-0.343844 -0.380179,-0.645766 -0.40535,-0.670938 -0.0333,-0.0333 -0.07457,-0.04039 -0.151443,-0.02604 -0.208128,0.03885 -0.978121,0.290985 -2.205485,0.722198 -0.686071,0.241085 -1.260672,0.438337 -1.276764,0.438337 -0.01609,0 -0.459631,-0.42717 -0.985646,-0.949265 C 36.454008,11.527683 35.795365,10.976375 34.614206,10.19991 32.832206,9.0284666 30.907413,8.2310953 28.487362,7.6617807 28.1318,7.5781347 27.830671,7.499677 27.818187,7.4874298 c -0.0374,-0.036693 -0.598242,-2.9951251 -0.65411,-3.450429 -0.03355,-0.2734368 -0.0081,-0.2667322 -1.099688,-0.2892969 -1.741326,-0.035995 -3.21628,-0.029445 -3.276446,0.01455 -0.04371,0.031962 -0.100553,0.296003 -0.298907,1.3884576 -0.37749,2.0790672 -0.419058,2.2861778 -0.46587,2.3211983 -0.02344,0.017532 -0.41002,0.1275498 -0.859077,0.2444841 -2.10095,0.5470866 -2.762877,0.7823207 -4.151703,1.4754228 -1.111184,0.5545426 -1.8848,1.0235543 -2.702721,1.6385503 -0.759268,0.570893 -1.192196,0.959301 -2.352604,2.11067 -0.493514,0.489669 -0.907389,0.890309 -0.919722,0.890309 -0.01233,0 -0.507739,-0.170496 -1.1009044,-0.37888 -1.2543827,-0.440675 -2.2179128,-0.758351 -2.3775469,-0.783878 -0.087351,-0.01397 -0.1228519,-0.006 -0.1601549,0.03612 -0.02636,0.02974 -0.3484663,0.576394 -0.7157934,1.214791 -0.3673268,0.638396 -0.806412,1.396976 -0.975745,1.685733 -0.1693331,0.288757 -0.3268182,0.570342 -0.3499671,0.625745 -0.049293,0.117974 -0.1501018,0.01437 0.8119667,0.834512 0.8907182,0.759321 1.9982033,1.731384 1.9982033,1.753864 0,0.01042 -0.118482,0.436219 -0.2632936,0.94621 -0.4342469,1.529314 -0.5932172,2.253597 -0.6775728,3.08708 -0.051765,0.511467 -0.091441,2.166222 -0.072571,3.026691 0.043225,1.971041 0.1224231,2.464676 0.7367517,4.592086 0.2011782,0.696677 0.2704762,0.977045 0.2505779,1.013794 -0.076871,0.14197 -0.6322545,0.635705 -2.1873568,1.944555 -0.4847259,0.407969 -0.6379705,0.552706 -0.6275164,0.592682 0.012961,0.04956 0.594871,1.068542 1.6139553,2.826188 0.2416865,0.416846 0.4700879,0.777986 0.5075584,0.802538 0.091729,0.0601 0.04167,0.07559 1.9103785,-0.590872 0.8778265,-0.313072 1.6170165,-0.573343 1.6426455,-0.578386 0.0287,-0.0056 0.427333,0.369339 1.038157,0.97659 1.32771,1.319939 1.798836,1.71586 3.000486,2.521527 1.926694,1.291782 3.4012,1.92124 6.145507,2.623476 0.444454,0.11373 0.823207,0.222189 0.841675,0.241013 0.04139,0.0422 0.536509,2.626386 0.672286,3.508895 0.02087,0.135649 0.03695,0.152886 0.173132,0.185592 0.0499,0.01198 1.022971,0.01979 2.162387,0.01735 l 2.071667,-0.0044 z m -3.354566,-9.970603 c -2.009385,-0.221763 -3.832694,-0.950428 -5.434213,-2.171724 -1.566952,-1.194938 -2.72734,-2.754679 -3.508951,-4.716577 -0.599845,-1.505654 -0.821629,-3.437462 -0.590331,-5.141969 0.26138,-1.926188 1.021665,-3.692082 2.258497,-5.245751 0.348625,-0.43793 1.178113,-1.274612 1.590302,-1.604093 1.547658,-1.237112 3.219861,-1.983022 5.111682,-2.280139 0.546845,-0.08588 2.124657,-0.10913 2.771181,-0.04083 0.885215,0.09352 1.759112,0.293337 2.532873,0.579147 0.501525,0.185252 1.41254,0.631963 1.847016,0.905673 2.889155,1.820107 4.713197,4.721468 5.062886,8.053132 0.04898,0.466697 0.04855,1.674616 -7.64e-4,2.115454 -0.117603,1.051481 -0.343597,1.973267 -0.698822,2.850379 -0.53208,1.313792 -1.276041,2.452386 -2.272692,3.478231 -0.875069,0.900702 -1.796581,1.585695 -2.847929,2.116959 -1.298853,0.656333 -2.44837,0.972487 -4.013548,1.103851 -0.411091,0.0345 -1.488179,0.03346 -1.807199,-0.0017 z m 1.601501,-3.495155 c 0.940061,-0.08782 1.772878,-0.31886 2.588404,-0.718087 1.385203,-0.678096 2.575853,-1.864121 3.245986,-3.233381 0.477317,-0.975286 0.733234,-2.08131 0.733234,-3.168892 0,-1.159566 -0.230983,-2.141457 -0.749958,-3.188013 -0.384301,-0.774971 -0.891028,-1.453229 -1.548716,-2.072966 -0.579134,-0.545717 -0.875956,-0.752796 -1.594884,-1.112678 -2.049968,-1.026178 -4.429155,-1.032228 -6.461016,-0.01643 -0.473188,0.236564 -0.797477,0.442065 -1.16448,0.737931 -1.600432,1.290214 -2.542294,3.017671 -2.734682,5.015645 -0.04224,0.438637 -0.0202,1.235949 0.04588,1.660272 0.159598,1.024802 0.550441,2.051362 1.124384,2.953227 0.419033,0.658446 1.255457,1.474801 2.034586,1.985768 1.333572,0.874581 2.974208,1.298391 4.481265,1.157603 z"
         id="path951"
         inkscape:connector-curvature="0" />
      <path
         style="fill:#4d4d4d;fill-opacity:1;stroke-width:0.02938534"
         d="m 21.05287,50.093563 c -0.452534,-0.0085 -0.796342,-0.02378 -0.764019,-0.03402 0.03483,-0.01104 -0.0023,-0.02002 -0.09112,-0.02204 -0.08244,-0.0019 -0.1907,-0.01764 -0.240581,-0.03502 -0.108299,-0.03775 -0.09254,0.02237 -0.37304,-1.422959 -0.497885,-2.56542 -0.579926,-2.97278 -0.612524,-3.041383 -0.02381,-0.0501 -0.07689,-0.08555 -0.166919,-0.111453 -0.583508,-0.167917 -1.221467,-0.407654 -2.203679,-0.828111 -1.604872,-0.687003 -3.146668,-1.578928 -4.518821,-2.614127 -0.565971,-0.426986 -0.812023,-0.631314 -1.349478,-1.120642 -0.275435,-0.250769 -0.439796,-0.379947 -0.483432,-0.379947 -0.03636,0 -0.6725431,0.211933 -1.413734,0.470965 -1.8809517,0.657353 -2.8097916,0.968917 -2.8885566,0.968917 -0.1015473,0 -0.1907656,-0.128358 -0.6576887,-0.946214 C 5.0558385,40.568627 4.6642624,39.890269 4.4191113,39.470059 4.1739603,39.049849 3.7314402,38.282891 3.4357334,37.765709 3.1400267,37.248527 2.5607933,36.243548 2.148548,35.532423 1.7363027,34.821297 1.2888076,34.02519 1.1541143,33.763293 1.0194211,33.501399 0.90837932,33.296436 0.90735488,33.30782 c -0.001024,0.01139 -0.0138272,-0.0091 -0.0284505,-0.04545 -0.0280133,-0.0697 -0.008454,-0.163509 0.0292339,-0.140216 0.0121813,0.0075 0.48353242,-0.37806 1.04744692,-0.856867 1.8683611,-1.586374 2.2546317,-1.946938 2.2904812,-2.138031 0.011431,-0.06093 -0.055263,-0.46085 -0.1893112,-1.135165 -0.3779492,-1.901232 -0.4587998,-2.676471 -0.43496,-4.170626 0.020226,-1.26766 0.1086079,-2.017188 0.3898155,-3.305852 0.2659905,-1.21893 0.276534,-1.275458 0.2505077,-1.343095 -0.03378,-0.08779 -0.5713968,-0.608455 -1.1636928,-1.127005 -1.0971901,-0.960579 -2.17380575,-1.878408 -2.19537358,-1.871584 -0.0127709,0.004 -0.0232199,-0.03453 -0.0232199,-0.08571 0,-0.05118 0.008101,-0.08495 0.0180028,-0.07505 0.009902,0.0099 0.0750821,-0.09927 0.14484568,-0.242609 C 1.1966115,16.454293 1.3687187,16.149692 2.9607671,13.375873 5.173811,9.5200955 5.7830488,8.483846 5.8882433,8.3965421 5.9396374,8.353889 6.5588515,8.5565756 8.8942394,9.3804919 10.134248,9.8179624 10.270401,9.8600502 10.325309,9.8228636 10.358684,9.8002607 10.53806,9.6394126 10.723922,9.4654235 12.034195,8.2388536 13.726332,7.1050107 15.675353,6.14764 16.719492,5.6347526 17.558154,5.2864848 18.466085,4.9887451 18.829368,4.8696128 18.88404,4.843037 18.941234,4.7577804 19.028937,4.627043 19.116406,4.2413586 19.376165,2.8400027 19.666343,1.274534 19.8511,0.37276704 19.889534,0.33433339 c 0.01712,-0.0171192 0.113969,-0.0375479 0.215221,-0.0453972 0.131007,-0.0101559 0.162911,-0.0197283 0.110633,-0.0331941 -0.16491,-0.0424774 2.148774,-0.0580894 5.518952,-0.0372401 1.966696,0.0121668 3.496471,0.0288788 3.3995,0.0371377 -0.127643,0.0108711 -0.05058,0.0200286 0.279161,0.0331743 0.25051,0.009987 0.478355,0.0276862 0.506323,0.0393318 0.02797,0.0116455 0.06443,0.0694458 0.08103,0.1284451 0.0401,0.14255414 0.330417,1.63126791 0.588236,3.01642051 0.114312,0.6141537 0.220593,1.1645166 0.236176,1.2230287 0.02811,0.1055618 0.03146,0.1074713 0.432276,0.2466914 1.889668,0.6563611 3.185233,1.2459842 4.599414,2.0932327 1.157753,0.6936211 2.100138,1.3877191 3.176133,2.3393268 0.240163,0.2124014 0.455155,0.3968217 0.477761,0.4098233 0.07895,0.045411 0.842834,-0.1968992 2.876285,-0.9123829 1.109044,-0.3902254 1.513218,-0.5166546 1.574892,-0.4926418 0.02271,0.00884 0.08861,0.098476 0.146445,0.1991821 0.05783,0.1007059 0.267789,0.4607933 0.466578,0.8001941 0.198792,0.3394007 1.036001,1.7873632 1.860468,3.2176952 0.824468,1.430332 1.691794,2.931188 1.927391,3.335237 0.2356,0.404048 0.470485,0.816347 0.521974,0.916218 0.05149,0.09987 0.101494,0.173703 0.11113,0.164068 0.0096,-0.0096 0.01752,0.01334 0.01752,0.05105 0,0.03771 -0.0082,0.06039 -0.01816,0.05041 -0.01,-0.01 -0.152139,0.103713 -0.315892,0.252666 -0.163756,0.148952 -0.82006,0.720009 -1.458456,1.269015 -1.252166,1.076831 -1.552017,1.356876 -1.613946,1.507337 -0.03666,0.08907 -0.02194,0.185444 0.184017,1.204799 0.393939,1.949749 0.445164,2.384663 0.443712,3.76736 -9.4e-4,0.896383 -0.0104,1.119679 -0.06719,1.586809 -0.0892,0.733705 -0.234416,1.57486 -0.432288,2.504036 -0.217795,1.022722 -0.212559,0.978624 -0.127183,1.071273 0.09696,0.10522 1.046004,0.934277 2.111834,1.844835 0.490932,0.419411 0.978117,0.84256 1.082632,0.940331 0.104518,0.09777 0.194731,0.174458 0.200473,0.170417 0.0057,-0.004 0.01044,-7.34e-4 0.01044,0.0073 0,0.0081 0,0.03531 0,0.0605 0,0.0252 -0.01104,0.03899 -0.02454,0.03064 -0.0135,-0.0083 -0.04784,0.03385 -0.07631,0.09377 -0.02847,0.05992 -0.127988,0.23456 -0.221148,0.388098 -0.09316,0.153538 -1.039142,1.786629 -2.102184,3.62909 -1.063044,1.842461 -2.038549,3.528445 -2.167795,3.746632 -0.258949,0.437148 -0.481155,0.764019 -0.51938,0.764019 -0.05036,0 -0.767809,-0.247087 -2.509514,-0.864267 -1.418871,-0.502781 -1.799408,-0.627372 -1.843733,-0.603649 -0.03072,0.01644 -0.198096,0.156927 -0.371945,0.312193 -1.578469,1.409744 -3.022336,2.397967 -4.812044,3.293498 -0.928612,0.464655 -2.875994,1.247675 -3.26641,1.313383 -0.192748,0.03244 -0.217129,0.06573 -0.293586,0.400861 -0.07764,0.3403 -0.807243,4.119807 -0.814086,4.217126 -0.0042,0.06002 -0.02166,0.06214 -0.662907,0.08081 -0.738604,0.0215 -7.001811,0.0143 -8.274572,-0.0095 z m 6.066636,-3.563675 c 0.01468,-0.03636 0.08164,-0.39009 0.148815,-0.786058 0.191192,-1.127078 0.424615,-2.293852 0.559853,-2.798454 0.01617,-0.06033 0.05209,-0.121723 0.07983,-0.136425 0.02773,-0.0147 0.308282,-0.08215 0.62344,-0.149895 2.483217,-0.533746 5.001544,-1.664897 6.953513,-3.123288 0.85075,-0.635626 1.42364,-1.148071 2.567112,-2.296257 0.395844,-0.397472 0.741245,-0.722679 0.767557,-0.722679 0.02631,0 0.515681,0.166738 1.087484,0.370528 1.909824,0.680659 2.356796,0.823819 2.476844,0.793284 0.07254,-0.01845 0.0134,0.07758 1.068336,-1.734746 0.46031,-0.790789 0.894804,-1.535699 0.965547,-1.655353 0.07074,-0.119654 0.128464,-0.239602 0.128273,-0.266548 -3.53e-4,-0.05173 -0.122864,-0.160621 -1.806852,-1.60618 -0.58183,-0.499451 -1.061399,-0.916059 -1.065707,-0.925797 -0.0043,-0.0097 0.05708,-0.222009 0.136433,-0.471714 0.757311,-2.383226 0.977107,-3.855226 0.934375,-6.257612 -0.02244,-1.261604 -0.07654,-1.887749 -0.24374,-2.820993 -0.09899,-0.552534 -0.366505,-1.610703 -0.610868,-2.416326 -0.106519,-0.351181 -0.193673,-0.656684 -0.193673,-0.678894 0,-0.03523 1.300481,-1.174313 2.416944,-2.116979 0.346777,-0.292794 0.374664,-0.323906 0.374664,-0.41798 0,-0.136966 -0.07843,-0.286554 -0.830498,-1.583923 -0.356015,-0.614154 -0.767698,-1.325776 -0.914851,-1.581382 -0.14715,-0.255606 -0.291041,-0.477753 -0.319756,-0.493659 -0.03741,-0.02072 -0.129061,-0.008 -0.323345,0.04494 -0.32035,0.08727 -1.541902,0.49831 -2.533595,0.852523 -0.387887,0.138546 -0.725774,0.251909 -0.750861,0.251918 -0.02508,9e-6 -0.322609,-0.27954 -0.66117,-0.62122 -1.133802,-1.14425 -1.55683,-1.53269 -2.334834,-2.14392 C 33.70721,9.3778696 31.475002,8.3454783 28.457925,7.632423 28.123867,7.5534716 27.843364,7.4816923 27.834585,7.4729137 c -0.03453,-0.034532 -0.597433,-3.0162619 -0.64364,-3.409414 -0.02643,-0.2248441 -0.08042,-0.2857443 -0.27827,-0.3138379 -0.08748,-0.012422 -1.06196,-0.02355 -2.16552,-0.02473 -1.579865,-0.00169 -2.009383,0.00566 -2.020165,0.034587 -0.0075,0.020202 -0.159126,0.8367476 -0.336876,1.814545 -0.177751,0.9777974 -0.33478,1.804485 -0.348952,1.8370836 -0.02119,0.048745 -0.163416,0.095168 -0.800884,0.2614182 -2.03215,0.52998 -2.771894,0.7834594 -3.954817,1.3551513 -1.552376,0.750244 -2.681695,1.4791681 -3.87278,2.4997041 -0.242429,0.207717 -0.874298,0.807121 -1.404154,1.33201 l -0.963374,0.954344 -0.226732,-0.07601 c -0.124703,-0.04181 -0.702775,-0.24354 -1.2846052,-0.448297 -0.9976836,-0.351104 -1.9651458,-0.66292 -2.0568216,-0.66292 -0.068424,0 -0.1542251,0.137117 -0.9561711,1.528038 -0.423982,0.735369 -0.863533,1.495714 -0.97678,1.689658 -0.1217435,0.208495 -0.2072169,0.388972 -0.2091173,0.441553 -0.00295,0.08156 0.076143,0.157054 0.9543255,0.910945 1.264372,1.085422 1.8487607,1.604073 1.8487607,1.640794 0,0.01652 -0.111838,0.420882 -0.2485286,0.898584 -0.6987579,2.441996 -0.769948,3.002394 -0.7415877,5.837662 0.023117,2.311091 0.074073,2.659407 0.7119887,4.866909 0.1540612,0.533126 0.272388,0.993654 0.2629491,1.023394 -0.030158,0.09502 -0.5838932,0.596103 -1.7245696,1.560591 -0.6108467,0.516498 -1.1106302,0.95322 -1.1106302,0.970493 0,0.02831 0.6410835,1.15266 1.638869,2.874289 0.4649925,0.802323 0.4802453,0.82279 0.6131608,0.82279 0.1139499,0 0.1500177,-0.01217 2.1247404,-0.716618 l 1.3647721,-0.486862 1.000748,0.991793 c 0.550411,0.545486 1.152636,1.121616 1.338278,1.280288 0.856913,0.73242 2.182226,1.633043 3.188711,2.166907 1.394526,0.739685 2.456865,1.133278 4.480544,1.660025 0.524866,0.136619 0.964054,0.258151 0.975974,0.270069 0.03516,0.03516 0.595155,2.986057 0.657713,3.465831 0.01103,0.08457 0.03745,0.168202 0.05872,0.185851 0.0829,0.0688 0.38972,0.07968 2.342085,0.08302 l 2.020872,0.0035 z M 24.211795,35.78201 c -3.020223,-0.193394 -5.970197,-1.809837 -7.804517,-4.276499 -0.811322,-1.09101 -1.509968,-2.544226 -1.806022,-3.756615 -0.725067,-2.969259 -0.198734,-5.969428 1.491441,-8.501418 0.678982,-1.017159 1.673807,-2.033365 2.726354,-2.784951 1.120873,-0.800375 2.473301,-1.397791 3.85729,-1.703903 1.173052,-0.259457 2.748567,-0.28747 4.062593,-0.07223 1.49295,0.244544 2.923833,0.825793 4.168681,1.69339 0.789235,0.550055 1.743891,1.439188 2.318292,2.159171 1.09149,1.368123 1.825365,2.962345 2.148069,4.666321 0.136304,0.719726 0.163297,1.038532 0.164205,1.939432 0.0011,1.094433 -0.06865,1.694153 -0.307585,2.644681 -0.897784,3.571498 -3.815734,6.585156 -7.354512,7.595736 -1.067397,0.30482 -2.56647,0.467189 -3.664289,0.39689 z m 1.588029,-3.512606 c 0.784905,-0.09685 1.645023,-0.353424 2.334914,-0.696501 1.401323,-0.696864 2.670857,-2.0083 3.294115,-3.402839 0.390311,-0.87332 0.617018,-1.838037 0.649448,-2.763608 0.06667,-1.902817 -0.631206,-3.756072 -1.94536,-5.166041 -0.271927,-0.291754 -0.841755,-0.801154 -1.081885,-0.967155 -0.7052,-0.487505 -1.82037,-0.956208 -2.694131,-1.132336 -0.578351,-0.116582 -0.959561,-0.146342 -1.653495,-0.129086 -1.119171,0.02783 -1.960194,0.233061 -2.974697,0.7259 -0.698454,0.339305 -1.246977,0.737614 -1.869496,1.357528 -1.80858,1.801015 -2.51539,4.410074 -1.864738,6.88334 0.171317,0.651214 0.474306,1.358937 0.864885,2.0202 0.595463,1.00814 1.837258,2.094957 3.022195,2.645016 1.259599,0.584721 2.562963,0.792814 3.918245,0.625582 z"
         id="path949"
         inkscape:connector-curvature="0" />
    </g>
  </g>
</svg>
