<?xml version="1.0" encoding="UTF-8" standalone="no"?>
<svg
   xmlns:dc="http://purl.org/dc/elements/1.1/"
   xmlns:cc="http://creativecommons.org/ns#"
   xmlns:rdf="http://www.w3.org/1999/02/22-rdf-syntax-ns#"
   xmlns:svg="http://www.w3.org/2000/svg"
   xmlns="http://www.w3.org/2000/svg"
   xmlns:sodipodi="http://sodipodi.sourceforge.net/DTD/sodipodi-0.dtd"
   xmlns:inkscape="http://www.inkscape.org/namespaces/inkscape"
   id="Calque_1"
   data-name="Calque 1"
   viewBox="0 0 52.11 37.73"
   version="1.1"
   sodipodi:docname="ODC_service_Mobility.svg"
   inkscape:version="0.92.3 (2405546, 2018-03-11)">
  <metadata
     id="metadata2751">
    <rdf:RDF>
      <cc:Work
         rdf:about="">
        <dc:format>image/svg+xml</dc:format>
        <dc:type
           rdf:resource="http://purl.org/dc/dcmitype/StillImage" />
        <dc:title>icons-ODC</dc:title>
      </cc:Work>
    </rdf:RDF>
  </metadata>
  <defs
     id="defs2749" />
  <sodipodi:namedview
     pagecolor="#ffffff"
     bordercolor="#666666"
     borderopacity="1"
     objecttolerance="10"
     gridtolerance="10"
     guidetolerance="10"
     inkscape:pageopacity="0"
     inkscape:pageshadow="2"
     inkscape:window-width="3840"
     inkscape:window-height="2104"
     id="namedview2747"
     showgrid="false"
     inkscape:zoom="6.2549696"
     inkscape:cx="-55.959787"
     inkscape:cy="18.865"
     inkscape:window-x="-16"
     inkscape:window-y="-16"
     inkscape:window-maximized="1"
     inkscape:current-layer="Calque_1" />
  <title
     id="title2720">icons-ODC</title>
  <path
     d="M18.12,7.91l-1,5.24a1.74,1.74,0,0,0,1.7,2.07H35a.51.51,0,0,0,.5-.5.5.5,0,0,0-.5-.5H18.79a.73.73,0,0,1-.72-.88l1-5.24a.73.73,0,0,1,.72-.59H36.25a.73.73,0,0,1,.72.58.5.5,0,0,0,.6.38A.49.49,0,0,0,38,7.88a1.73,1.73,0,0,0-1.7-1.37H19.82A1.73,1.73,0,0,0,18.12,7.91Z"
     id="path2722" />
  <path
     d="M15.73,24.86a2.84,2.84,0,0,0,2.66,2.66A3.08,3.08,0,0,0,20,27a.51.51,0,0,0,.15-.7.5.5,0,0,0-.69-.15,2,2,0,0,1-1.11.37,1.89,1.89,0,0,1-1.66-1.66,1.66,1.66,0,0,1,3.31,0,.5.5,0,0,0,1,0,2.66,2.66,0,0,0-5.31,0Z"
     id="path2724" />
  <path
     d="M51.94,24.7l-2.79-5.53a2.49,2.49,0,0,0-2.25-1.38H43.8V15.32l-3-12.2A4.12,4.12,0,0,0,36.8,0H19.4a4.11,4.11,0,0,0-4,3.12l-3,12.08,0,6.72a.5.5,0,0,0,.5.5.5.5,0,0,0,.5-.5V15.38l3-12A3.1,3.1,0,0,1,19.4,1H36.8a3.11,3.11,0,0,1,3,2.37l3,12v2.41H32.73a2.49,2.49,0,0,0-2.25,1.38L27.69,24.7a2.06,2.06,0,0,0-.17.81v4.33a.51.51,0,0,0-.46-.3H14.75a.5.5,0,0,0,0,1h2v2a1.79,1.79,0,0,0,1.79,1.79H22a1.79,1.79,0,0,0,1.79-1.79v-2h3.24a.49.49,0,0,0,.46-.3v2.4a2.06,2.06,0,0,0,.84,1.66v1.9a1.54,1.54,0,0,0,1.54,1.53h2.76a1.53,1.53,0,0,0,1.53-1.53V34.71H45.43V36.2A1.54,1.54,0,0,0,47,37.73h2.76a1.54,1.54,0,0,0,1.54-1.53V34.3a2.09,2.09,0,0,0,.84-1.66V25.51A2.06,2.06,0,0,0,51.94,24.7ZM22.82,32.53a.79.79,0,0,1-.79.79H18.57a.79.79,0,0,1-.79-.79v-2h5Zm5.7-7a1.13,1.13,0,0,1,.07-.39l2.78-5.5a1.5,1.5,0,0,1,1.36-.83H46.9a1.49,1.49,0,0,1,1.35.83L51,25.1a1.15,1.15,0,0,1,.08.41v7.13A1.08,1.08,0,0,1,50,33.71H29.6a1.07,1.07,0,0,1-1.08-1.07ZM33.19,36.2a.53.53,0,0,1-.53.53H29.9a.54.54,0,0,1-.54-.53V34.69l.24,0h3.59Zm17.08,0a.54.54,0,0,1-.54.53H47a.54.54,0,0,1-.54-.53V34.71H50l.24,0Z"
     id="path2726" />
  <path
     d="M30.07,26.75H49.55a.5.5,0,0,0,0-1H30.07a.5.5,0,0,0,0,1Z"
     id="path2728" />
  <path
     d="M43.21,29.29H36.42a.5.5,0,0,0-.5.5.5.5,0,0,0,.5.5h6.79a.51.51,0,0,0,.5-.5A.5.5,0,0,0,43.21,29.29Z"
     id="path2730" />
  <path
     d="M31.65,28.73a1.83,1.83,0,1,0,0,3.66.5.5,0,0,0,0-1,.83.83,0,1,1,.83-.83.51.51,0,0,0,.5.5.5.5,0,0,0,.5-.5A1.83,1.83,0,0,0,31.65,28.73Z"
     id="path2732" />
  <path
     d="M47.91,28.63a1.83,1.83,0,0,0,0,3.66.5.5,0,0,0,0-1,.83.83,0,1,1,.83-.83.5.5,0,0,0,1,0A1.83,1.83,0,0,0,47.91,28.63Z"
     id="path2734" />
  <path
     d="M33,4.33a.51.51,0,0,0,.5-.5.5.5,0,0,0-.5-.5H23.22a.5.5,0,0,0-.5.5.5.5,0,0,0,.5.5Z"
     id="path2736" />
  <path
     d="M5.72,27.83.09,36a.5.5,0,0,0,.13.7.46.46,0,0,0,.28.08.49.49,0,0,0,.41-.21L6.54,28.4a.5.5,0,1,0-.82-.57Z"
     id="path2738" />
  <path
     d="M11.57,29.88a.54.54,0,0,0-.16-.25L7,25.91V18.29a.52.52,0,0,0-.27-.45.51.51,0,0,0-.52,0L1.55,21.16a.52.52,0,0,0-.21.41v3.48a.5.5,0,0,0,.5.5.5.5,0,0,0,.5-.5V21.83L6,19.25v6.89a.5.5,0,0,0,.18.39l4.47,3.76L12.54,37a.52.52,0,0,0,.48.37l.14,0a.51.51,0,0,0,.35-.62Z"
     id="path2740" />
  <path
     d="M8.26,22.14a.5.5,0,0,0,.09.7l3.22,2.55a.5.5,0,0,0,.31.1.49.49,0,0,0,.39-.19.5.5,0,0,0-.08-.7L9,22.06A.52.52,0,0,0,8.26,22.14Z"
     id="path2742" />
  <path
     d="M7.54,16.38A2.54,2.54,0,1,0,5,13.84,2.54,2.54,0,0,0,7.54,16.38Zm0-4.08A1.54,1.54,0,1,1,6,13.84,1.54,1.54,0,0,1,7.54,12.3Z"
     id="path2744" />
</svg>
