<?xml version="1.0" encoding="UTF-8" standalone="no"?>
<svg
   xmlns:dc="http://purl.org/dc/elements/1.1/"
   xmlns:cc="http://creativecommons.org/ns#"
   xmlns:rdf="http://www.w3.org/1999/02/22-rdf-syntax-ns#"
   xmlns:svg="http://www.w3.org/2000/svg"
   xmlns="http://www.w3.org/2000/svg"
   xmlns:sodipodi="http://sodipodi.sourceforge.net/DTD/sodipodi-0.dtd"
   xmlns:inkscape="http://www.inkscape.org/namespaces/inkscape"
   id="Calque_1"
   data-name="Calque 1"
   viewBox="0 0 49.39 45.15"
   version="1.1"
   sodipodi:docname="ODC_service_GIS.svg"
   inkscape:version="0.92.3 (2405546, 2018-03-11)">
  <metadata
     id="metadata892">
    <rdf:RDF>
      <cc:Work
         rdf:about="">
        <dc:format>image/svg+xml</dc:format>
        <dc:type
           rdf:resource="http://purl.org/dc/dcmitype/StillImage" />
        <dc:title>icons-ODC</dc:title>
      </cc:Work>
    </rdf:RDF>
  </metadata>
  <defs
     id="defs890" />
  <sodipodi:namedview
     pagecolor="#ffffff"
     bordercolor="#666666"
     borderopacity="1"
     objecttolerance="10"
     gridtolerance="10"
     guidetolerance="10"
     inkscape:pageopacity="0"
     inkscape:pageshadow="2"
     inkscape:window-width="3840"
     inkscape:window-height="2104"
     id="namedview888"
     showgrid="false"
     inkscape:zoom="5.2270209"
     inkscape:cx="-73.44886"
     inkscape:cy="22.575001"
     inkscape:window-x="-16"
     inkscape:window-y="-16"
     inkscape:window-maximized="1"
     inkscape:current-layer="Calque_1" />
  <title
     id="title877">icons-ODC</title>
  <path
     d="M34.77,13.59a15.32,15.32,0,0,0-7-1.68,15.48,15.48,0,1,0,7,1.68Zm4.35,4.82c-1.1-.09-2.57-.08-3.08.43a.72.72,0,0,0-.22.64c0,.29-1,1.12-2,1.72a3,3,0,0,1-2.07-.31,2,2,0,0,1-.8-1.54c-.18-1.54.36-1.75,1.33-2.14A4.22,4.22,0,0,0,34.23,16a4,4,0,0,0,.59-1.2A14.48,14.48,0,0,1,39.12,18.41ZM24,13.42c2.82,2,1.67,4.24,1.58,4.41A6.58,6.58,0,0,1,24,20.4a1.79,1.79,0,0,0-.77,1.48,4.25,4.25,0,0,1-.09.68c-.05.24-.09.38-.11.46l-.27-.11a2,2,0,0,1-.71-.74,3.94,3.94,0,0,0-.56-.69,6.42,6.42,0,0,0-2.89-.87c-1.15-.16-1.7,1.33-1.85,2.24s1.66,2.52,2.17,2.82a4.92,4.92,0,0,1,.69.53,9.48,9.48,0,0,0,1.63,1.14,1.53,1.53,0,0,0,1.55.2.7.7,0,0,1,.52,0,1.34,1.34,0,0,1,.71.39,4,4,0,0,0,1.79.89c.8.21.83.29.93.51a2.85,2.85,0,0,0,.66,1,5.25,5.25,0,0,0,1.06.87,3.07,3.07,0,0,1,1,1,2.62,2.62,0,0,1,.19.31,1.31,1.31,0,0,0-.69.55,6.77,6.77,0,0,1-1.46,1.77,6,6,0,0,1-.58.47,2.3,2.3,0,0,0-1,1.52A3.59,3.59,0,0,1,25.43,38a5.61,5.61,0,0,0-.67,1.25,8.89,8.89,0,0,1-1.22,1.84,14,14,0,0,1-2.84-1.22,2.26,2.26,0,0,0,0-.61c0-.17,0-.62,0-1a11.53,11.53,0,0,0,0-1.32c-.07-.75-.62-1-1.37-1.31l-.76-.33a1.52,1.52,0,0,1-.89-1,3.81,3.81,0,0,0-.58-1.07c-.32-.4-.27-1.3.16-2.7l0-.12c0-.12.14-.19.41-.35a3.15,3.15,0,0,0,.7-.51c.65-.65.48-1.2.21-2.13L18.57,27c-.34-1.19-1.55-1.33-2.42-1.44a5.13,5.13,0,0,1-.7-.1l-2-.36A14.48,14.48,0,0,1,24,13.42Zm-10.74,14c0-.42,0-.84.06-1.25l1.89.34c.25.05.52.08.79.12,1,.11,1.43.22,1.57.71l.09.31c.27.9.25.93,0,1.13a2.54,2.54,0,0,1-.5.36,1.62,1.62,0,0,0-.86.93l0,.11c-.24.78-.81,2.61,0,3.62a2.37,2.37,0,0,1,.42.8,2.48,2.48,0,0,0,1.41,1.59l.78.35c.69.3.76.35.77.48a11.87,11.87,0,0,1,0,1.2,8.69,8.69,0,0,0,0,1.18v.06A14.47,14.47,0,0,1,13.29,27.39ZM27.76,41.86a14.7,14.7,0,0,1-3.27-.38,8.52,8.52,0,0,0,1.2-1.89,4.6,4.6,0,0,1,.57-1.05,4.52,4.52,0,0,0,.68-1.4c.21-.69.31-.76.63-1a6.56,6.56,0,0,0,.68-.55,8.06,8.06,0,0,0,1.65-2c0-.07.11-.1.26-.16a.89.89,0,0,0,.6-.53c.12-.36-.07-.74-.4-1.24A3.86,3.86,0,0,0,29,30.34a4.14,4.14,0,0,1-.88-.72,2,2,0,0,1-.46-.71c-.24-.58-.51-.81-1.6-1.09a3.05,3.05,0,0,1-1.4-.7,2.38,2.38,0,0,0-1.14-.6,1.67,1.67,0,0,0-1.12.1c-.14.06-.22.1-.68-.16a7.72,7.72,0,0,1-1.46-1,6.05,6.05,0,0,0-.84-.62c-.68-.4-1.69-1.48-1.69-1.8.13-.78.52-1.45.73-1.41a6,6,0,0,1,2.37.63,3.24,3.24,0,0,1,.4.51,2.8,2.8,0,0,0,1.11,1.07c.4.19.78.37,1.16.17s.51-.67.62-1.22a6.35,6.35,0,0,0,.11-.79.87.87,0,0,1,.42-.81,7.34,7.34,0,0,0,1.83-2.93,4.22,4.22,0,0,0-1.23-5.09,14.06,14.06,0,0,1,8.63,1.16,3.14,3.14,0,0,1-.48,1,3.27,3.27,0,0,1-1.48.94A2.58,2.58,0,0,0,30,19.46a3,3,0,0,0,1.21,2.25,3.48,3.48,0,0,0,2,.55,4.58,4.58,0,0,0,1-.1l.13-.06c.77-.45,2.47-1.56,2.52-2.59a8.39,8.39,0,0,1,3.08,0,14.28,14.28,0,0,1,1.78,3.89,22.91,22.91,0,0,0-6,.46c-1.41.36-2.11,1.66-2.91,3.16-.19.35-.39.71-.61,1.09-1.23,2.15.06,4.84,1.49,7.2.67,1.1,2.26,1.43,3.93,1.43.43,0,.86,0,1.28-.06A14.43,14.43,0,0,1,27.76,41.86Zm11.93-6.28c-2.73.36-4.67.06-5.2-.8C33.22,32.67,32.05,30.3,33,28.6l.62-1.12c.75-1.4,1.29-2.41,2.27-2.66a22.23,22.23,0,0,1,6-.41,14.7,14.7,0,0,1,.31,3A14.43,14.43,0,0,1,39.69,35.58Z"
     id="path879" />
  <path
     d="M42.37,11.6a.51.51,0,0,0-.71,0,.5.5,0,0,0,0,.71,20.66,20.66,0,0,1,6.7,15.21.5.5,0,0,0,.5.5.5.5,0,0,0,.5-.5A21.69,21.69,0,0,0,42.37,11.6Z"
     id="path881" />
  <path
     d="M7.14,27.55A20.64,20.64,0,0,1,27.76,6.93,20.4,20.4,0,0,1,37.1,9.16a.5.5,0,0,0,.67-.22.49.49,0,0,0-.22-.67,21.28,21.28,0,0,0-9.79-2.34,21.62,21.62,0,0,0-12.7,39.12.46.46,0,0,0,.29.1.5.5,0,0,0,.3-.9A20.72,20.72,0,0,1,7.14,27.55Z"
     id="path883" />
  <path
     d="M27.76,1a.5.5,0,0,0,.5-.5.5.5,0,0,0-.5-.5A28.1,28.1,0,0,0,0,23.3a.5.5,0,0,0,.4.58H.5A.49.49,0,0,0,1,23.47,27.11,27.11,0,0,1,27.76,1Z"
     id="path885" />
</svg>
