<?xml version="1.0" encoding="UTF-8" standalone="no"?>
<!-- Created with Inkscape (http://www.inkscape.org/) -->

<svg
   xmlns:dc="http://purl.org/dc/elements/1.1/"
   xmlns:cc="http://creativecommons.org/ns#"
   xmlns:rdf="http://www.w3.org/1999/02/22-rdf-syntax-ns#"
   xmlns:svg="http://www.w3.org/2000/svg"
   xmlns="http://www.w3.org/2000/svg"
   xmlns:sodipodi="http://sodipodi.sourceforge.net/DTD/sodipodi-0.dtd"
   xmlns:inkscape="http://www.inkscape.org/namespaces/inkscape"
   width="31.255753mm"
   height="30mm"
   viewBox="0 0 31.255753 30"
   version="1.1"
   id="svg625"
   inkscape:version="0.92.2 (5c3e80d, 2017-08-06)"
   sodipodi:docname="image_s03.svg">
  <defs
     id="defs619" />
  <sodipodi:namedview
     id="base"
     pagecolor="#ffffff"
     bordercolor="#666666"
     borderopacity="1.0"
     inkscape:pageopacity="0.0"
     inkscape:pageshadow="2"
     inkscape:zoom="0.35"
     inkscape:cx="-453.79115"
     inkscape:cy="459.55007"
     inkscape:document-units="mm"
     inkscape:current-layer="layer1"
     showgrid="false"
     inkscape:window-width="3200"
     inkscape:window-height="1675"
     inkscape:window-x="-13"
     inkscape:window-y="-13"
     inkscape:window-maximized="1" />
  <metadata
     id="metadata622">
    <rdf:RDF>
      <cc:Work
         rdf:about="">
        <dc:format>image/svg+xml</dc:format>
        <dc:type
           rdf:resource="http://purl.org/dc/dcmitype/StillImage" />
        <dc:title></dc:title>
      </cc:Work>
    </rdf:RDF>
  </metadata>
  <g
     inkscape:label="Layer 1"
     inkscape:groupmode="layer"
     id="layer1"
     transform="translate(-40.3126,-240.42262)">
    <g
       id="g1001"
       transform="matrix(0.71650265,0,0,0.71650265,82.973469,223.50744)"
       style="fill:#4d4d4d;fill-opacity:1"
       inkscape:export-filename="C:\Users\dmarin\Dropbox\Pro\OpenDC\02 IT\00 - Website\01 Images\services\256px\s03_icon_qgis.png"
       inkscape:export-xdpi="255.69325"
       inkscape:export-ydpi="255.69325">
      <path
         style="fill:#4d4d4d;fill-opacity:1;stroke-width:0.13229166"
         d="m -28.465638,60.2542 -5.228981,-5.223831 -0.0411,-2.879033 c -0.02261,-1.583468 -0.005,-3.07251 0.03907,-3.308981 l 0.08017,-0.429948 h 3.198741 3.198741 l 5.427296,5.422311 5.427295,5.422311 0.04027,2.752239 c 0.02444,1.670463 -0.01327,2.893054 -0.09594,3.1105 l -0.136212,0.358263 h -3.340178 -3.340179 z m -12.504261,4.278106 c -4.838099,-0.619645 -9.363751,-2.790796 -12.62747,-6.057944 -1.615418,-1.617116 -2.644902,-3.010095 -3.642595,-4.928748 -2.319056,-4.459745 -2.912183,-9.746473 -1.654487,-14.746986 1.777148,-7.065826 7.451028,-12.594487 14.881082,-14.500212 2.381643,-0.610864 3.133497,-0.691053 6.416146,-0.684307 2.851188,0.0059 3.24655,0.03565 4.77022,0.359433 4.341019,0.922482 7.858456,2.737928 10.816642,5.582771 2.798383,2.691161 4.589538,5.776535 5.49379,9.463386 1.128134,4.599674 0.650012,9.551811 -1.330775,13.78348 -0.330027,0.705056 -0.694041,1.317987 -0.80892,1.362071 -0.148532,0.057 -1.160861,-0.871839 -3.504315,-3.215293 l -3.295444,-3.295444 0.228684,-1.572355 c 0.759395,-5.221357 -1.405368,-10.264884 -5.583014,-13.007468 -3.275998,-2.15066 -7.792457,-2.586729 -11.532299,-1.113458 -2.978065,1.173179 -5.438398,3.486354 -6.822725,6.414643 -0.973907,2.060121 -1.195351,3.113773 -1.191847,5.670907 0.0035,2.558334 0.228233,3.627216 1.191848,5.668899 0.739022,1.565818 1.491738,2.616017 2.723248,3.799501 2.911995,2.798438 6.654916,4.037641 10.576663,3.501709 l 1.214435,-0.165962 2.892529,2.890289 c 1.590892,1.589657 2.89253,2.987716 2.89253,3.106795 0,0.396121 -2.936956,1.28056 -5.427933,1.634574 -1.521535,0.216238 -5.164026,0.243366 -6.675993,0.04972 z m 2.012982,-14.767586 -2.613984,-2.616437 0.03554,-3.171323 0.03554,-3.171324 3.231006,-0.03548 3.231005,-0.03548 2.560272,2.548055 c 1.456722,1.449773 2.543779,2.634004 2.522011,2.747456 -0.03224,0.168034 -0.495815,0.209805 -2.947006,0.265546 l -2.908746,0.06615 -0.03556,3.009635 c -0.03259,2.758316 -0.05479,3.009636 -0.265824,3.009636 -0.126647,0 -1.406559,-1.177397 -2.844251,-2.616437 z"
         id="path1015"
         inkscape:connector-curvature="0" />
      <path
         style="fill:#4d4d4d;fill-opacity:1;stroke-width:0.13229166"
         d="m -28.434153,60.15142 -5.19432,-5.19432 v -3.135401 c 0,-2.964483 0.01395,-3.142865 0.255886,-3.272346 0.153075,-0.08192 1.371515,-0.136946 3.032558,-0.136946 h 2.776672 l 0.440098,0.352369 c 0.242054,0.193802 2.746934,2.64918 5.5664,5.456395 l 5.126302,5.104025 v 2.801014 c 0,1.540559 -0.03613,2.895181 -0.0803,3.010272 -0.07027,0.183134 -0.495314,0.209258 -3.404639,0.209258 h -3.324339 z m -11.279737,4.40481 c -3.008999,-0.247289 -5.654826,-0.976199 -8.400521,-2.314296 -3.667819,-1.787488 -6.523574,-4.414725 -8.608395,-7.919551 -1.243577,-2.090598 -2.233959,-5.043741 -2.58094,-7.695914 -0.216922,-1.658055 -0.08257,-5.203213 0.257108,-6.784155 1.132303,-5.270056 4.002247,-9.53065 8.411636,-12.487551 4.947123,-3.3175 11.386387,-4.50294 17.769075,-3.271208 2.84275,0.548594 5.682439,1.70902 8.100995,3.310435 1.64197,1.087208 4.30205,3.727341 5.33982,5.29978 1.460932,2.213619 2.458246,4.57638 3.022592,7.1609 0.253733,1.16201 0.294075,1.739989 0.292605,4.192112 -0.0016,2.648843 -0.02721,2.95314 -0.372991,4.428761 -0.204207,0.87147 -0.546001,2.062095 -0.75954,2.645833 -0.432947,1.183512 -1.299199,2.876459 -1.503974,2.939268 -0.07318,0.02245 -1.584696,-1.411741 -3.358928,-3.187083 l -3.225878,-3.227894 0.169362,-1.237202 c 0.261655,-1.911422 0.119325,-4.642232 -0.3196,-6.131995 -0.898717,-3.050347 -2.598922,-5.457129 -5.022435,-7.109674 -4.891127,-3.335163 -11.572696,-2.796752 -15.935268,1.284089 -5.343934,4.998827 -5.495932,13.711252 -0.329814,18.904731 2.904892,2.920275 6.760446,4.277891 10.75819,3.788171 l 1.354361,-0.165908 2.831672,2.827941 c 1.558352,1.5563 2.815142,2.915492 2.794916,3.022642 -0.04296,0.227599 -0.88327,0.55936 -2.54811,1.006017 -2.352683,0.631197 -5.663726,0.924924 -8.135938,0.721751 z m 0.759804,-14.924165 -2.611887,-2.623799 v -2.909492 c 0,-2.086549 0.0449,-2.954394 0.15875,-3.068242 0.114488,-0.114488 1.027755,-0.15875 3.275524,-0.15875 h 3.116775 l 2.496128,2.498724 c 1.457391,1.458907 2.458294,2.559943 2.405209,2.645833 -0.06214,0.100544 -0.987979,0.14711 -2.924897,0.14711 h -2.83398 l -0.03556,3.007897 c -0.03021,2.555352 -0.06554,3.013662 -0.234867,3.046207 -0.11348,0.02181 -1.324072,-1.091581 -2.811198,-2.585488 z"
         id="path1013"
         inkscape:connector-curvature="0" />
      <path
         style="fill:#4d4d4d;fill-opacity:1;stroke-width:0.13229166"
         d="m -28.299695,60.155705 -5.201027,-5.194861 0.03534,-3.175 0.03534,-3.175 3.016255,-0.03557 3.016254,-0.03557 5.415099,5.327241 5.4151,5.327239 -0.03083,3.042708 -0.03083,3.042709 -3.234837,0.03549 -3.234838,0.03549 z m -12.340237,4.249668 c -6.719169,-0.760443 -12.717789,-4.514717 -15.950854,-9.982944 -2.961103,-5.008246 -3.615186,-11.28829 -1.762689,-16.924084 2.733971,-8.317472 10.860881,-13.806641 20.463809,-13.821897 11.260729,-0.01789 20.036147,6.99262 21.607091,17.26148 0.252588,1.651103 0.215199,4.960902 -0.07472,6.614583 -0.432829,2.468819 -1.938572,6.416146 -2.447497,6.416146 -0.11971,0 -1.636588,-1.42689 -3.370842,-3.170866 -3.078869,-3.096132 -3.151111,-3.181097 -3.065046,-3.604948 0.772273,-3.803307 0.122533,-7.560414 -1.837974,-10.628043 -0.637339,-0.997251 -2.148275,-2.566411 -3.176379,-3.298782 -1.089579,-0.77616 -2.4812,-1.452644 -3.864462,-1.87856 -1.076592,-0.331491 -1.33393,-0.357886 -3.477725,-0.356716 -1.962424,0.0011 -2.471972,0.04474 -3.344834,0.286674 -3.759321,1.041974 -6.800049,3.597834 -8.436518,7.09125 -0.908487,1.939372 -1.117086,2.992205 -1.117086,5.638116 0,2.010417 0.0404,2.463095 0.306976,3.439583 1.237975,4.534808 4.615309,8.003779 9.085732,9.33226 1.43997,0.427917 3.989085,0.584612 5.42959,0.333759 l 0.903371,-0.157315 2.903777,2.903777 2.903777,2.903777 -0.31557,0.20532 c -0.669315,0.435477 -3.658436,1.167083 -5.744888,1.406097 -1.375834,0.157609 -4.186154,0.153273 -5.617036,-0.0087 z m 1.815084,-14.773167 -2.608834,-2.611283 v -2.99427 c 0,-2.608346 0.02697,-3.004622 0.209258,-3.074571 0.115091,-0.04417 1.51629,-0.0803 3.113774,-0.0803 h 2.904518 l 2.475547,2.386274 c 1.361553,1.312451 2.475549,2.488194 2.475549,2.612761 0,0.204713 -0.273431,0.232845 -2.844271,0.292632 l -2.844271,0.06614 -0.03573,2.906464 c -0.01965,1.598554 -0.08095,2.95168 -0.136217,3.006946 -0.05527,0.05527 -1.274459,-1.074593 -2.709319,-2.510798 z"
         id="path1011"
         inkscape:connector-curvature="0" />
      <path
         style="fill:#4d4d4d;fill-opacity:1;stroke-width:0.13229166"
         d="m -28.303734,60.035763 -5.192448,-5.176205 v -3.077131 c 0,-2.683901 0.02674,-3.087391 0.209258,-3.157429 0.115091,-0.04416 1.459284,-0.0803 2.987096,-0.0803 h 2.777837 l 2.999103,2.900162 c 1.649506,1.59509 4.11651,4.022759 5.482233,5.394822 l 2.483129,2.494659 -0.03573,2.90648 -0.03573,2.90648 -3.241146,0.03233 -3.241146,0.03233 z m -11.740885,4.378568 c -9.63767,-0.971049 -16.958169,-7.223716 -18.8588,-16.10789 -0.354285,-1.656047 -0.489424,-5.181645 -0.266501,-6.952693 1.088639,-8.648874 7.509259,-15.309223 16.530416,-17.147618 4.893304,-0.997192 10.108349,-0.453441 14.604685,1.522772 5.152526,2.264619 9.214413,6.687904 10.867629,11.834555 0.826347,2.572511 0.935667,3.335048 0.929483,6.483325 -0.0062,3.15843 -0.193837,4.4132 -1.002733,6.705654 -0.445792,1.263401 -1.381335,3.216221 -1.540803,3.216221 -0.05433,0 -1.52442,-1.426571 -3.266872,-3.17016 l -3.168095,-3.170159 0.159493,-1.103113 c 0.218542,-1.511511 0.200146,-3.822419 -0.04053,-5.091156 -0.804589,-4.241445 -3.242871,-7.474906 -7.009872,-9.295951 -4.740732,-2.291766 -10.413247,-1.452971 -14.244495,2.106332 -1.984495,1.843637 -3.222322,3.886279 -3.901583,6.438338 -0.306404,1.151195 -0.349596,1.566813 -0.349596,3.363994 0,1.798537 0.04315,2.213091 0.351139,3.373437 0.723568,2.72605 2.420485,5.374836 4.510058,7.039934 1.362672,1.085858 3.588127,2.188878 5.16781,2.561361 1.315567,0.310204 3.335801,0.394793 4.939127,0.206804 l 0.970375,-0.113776 2.766864,2.755453 c 1.521775,1.515497 2.766863,2.828754 2.766863,2.918347 0,0.244617 -2.625775,1.041813 -4.439871,1.347965 -1.894061,0.319645 -4.815807,0.445115 -6.474191,0.278024 z m 1.186599,-14.82286 -2.580866,-2.580866 0.03567,-2.970193 0.03567,-2.970192 3.164414,-0.03552 3.164414,-0.03552 2.424909,2.412079 c 1.3337,1.326643 2.424909,2.457678 2.424909,2.513408 0,0.05573 -1.294805,0.117375 -2.877344,0.136984 l -2.877344,0.03565 -0.03573,2.906463 c -0.0208,1.692064 -0.09049,2.961221 -0.166788,3.037518 -0.08654,0.08654 -1.007592,-0.745485 -2.71192,-2.449813 z"
         id="path1009"
         inkscape:connector-curvature="0" />
      <path
         style="fill:#4d4d4d;fill-opacity:1;stroke-width:0.13229166"
         d="m -28.304419,60.016571 -5.196877,-5.196877 0.03563,-3.038279 0.03563,-3.038279 3.030237,-0.03561 3.030238,-0.03561 5.237992,5.194985 c 2.880895,2.85724 5.310296,5.314046 5.398668,5.459567 0.168989,0.27827 0.247831,5.265778 0.08975,5.677721 -0.07015,0.182815 -0.483654,0.209258 -3.272347,0.209258 h -3.192047 z m -12.467804,4.267004 c -7.933915,-1.094461 -14.125361,-5.613109 -16.948321,-12.369243 -1.117253,-2.673901 -1.685101,-5.999168 -1.52694,-8.941625 0.519051,-9.656468 7.232357,-17.006562 17.21849,-18.851741 1.650545,-0.304979 6.572006,-0.34952 8.135937,-0.07363 9.745056,1.719077 16.321642,8.225955 17.53658,17.350702 0.405971,3.049033 0.0985,6.225646 -0.887427,9.168449 -0.437791,1.306718 -1.244721,3.085761 -1.459963,3.218788 -0.07585,0.04688 -1.563096,-1.336318 -3.304998,-3.073765 -2.957805,-2.950239 -3.162647,-3.185221 -3.09977,-3.555869 0.311619,-1.836946 0.383558,-3.227086 0.235556,-4.551872 -0.540643,-4.839406 -3.181718,-8.649492 -7.349491,-10.602576 -1.949672,-0.913648 -2.858459,-1.097145 -5.440799,-1.098576 -2.070378,-0.0012 -2.343502,0.02736 -3.439583,0.35901 -4.329159,1.309907 -7.503915,4.290841 -8.881019,8.338824 -1.151145,3.383781 -0.891613,7.421204 0.677002,10.531752 0.904243,1.793107 2.729106,3.899799 4.335406,5.004963 0.972673,0.669216 2.972071,1.581276 4.133194,1.885426 1.32507,0.347096 3.747705,0.472877 5.086768,0.264099 l 0.985726,-0.153687 2.810291,2.80801 c 1.545658,1.544406 2.781613,2.854409 2.746564,2.911119 -0.11074,0.179182 -2.443476,0.872278 -3.956432,1.175524 -1.140344,0.228561 -2.027692,0.300636 -4.101042,0.333106 -1.455208,0.02279 -3.032787,-0.01195 -3.505729,-0.07718 z m 1.947387,-14.783646 -2.481772,-2.484353 0.03568,-2.972678 0.03568,-2.972678 3.038841,-0.03563 3.03884,-0.03563 2.410893,2.40825 c 1.32599,1.324538 2.380897,2.456782 2.344236,2.5161 -0.03666,0.05932 -1.306928,0.10785 -2.822818,0.10785 -2.391224,0 -2.766796,0.02771 -2.836463,0.209258 -0.04417,0.115091 -0.0803,1.454544 -0.0803,2.976562 0,1.522017 -0.04524,2.767305 -0.100524,2.767305 -0.05529,0 -1.217322,-1.117959 -2.582297,-2.484353 z"
         id="path1007"
         inkscape:connector-curvature="0" />
      <path
         style="fill:#4d4d4d;fill-opacity:1;stroke-width:0.13229166"
         d="m -28.240784,59.951666 -5.128227,-5.129491 0.03563,-3.039519 0.03563,-3.03952 2.886334,-0.03568 2.886334,-0.03568 5.414968,5.310515 5.414968,5.310517 v 2.894171 2.894172 h -3.208709 -3.208709 z m -11.900638,4.320859 c -3.775832,-0.364187 -7.425575,-1.663855 -10.486531,-3.734235 -1.617498,-1.09405 -4.148054,-3.636598 -5.20774,-5.232419 -1.401359,-2.11036 -2.31849,-4.28344 -2.937243,-6.95961 -0.432254,-1.869539 -0.504092,-5.713162 -0.145881,-7.805208 0.717173,-4.188476 2.458671,-7.557923 5.436455,-10.518451 1.748799,-1.738665 3.453724,-2.948072 5.566389,-3.948576 5.414518,-2.56418 12.038364,-2.935503 17.846389,-1.000444 5.678068,1.891761 10.184258,5.986599 12.296768,11.174247 1.045593,2.567638 1.474551,4.854617 1.474551,7.861526 0,2.136637 -0.2979,4.211694 -0.865037,6.025526 -0.358768,1.147419 -1.489728,3.701484 -1.639048,3.701484 -0.0456,0 -1.489976,-1.413867 -3.209716,-3.141927 l -3.126801,-3.141927 0.196331,-0.992187 c 0.278806,-1.408987 0.174527,-4.598259 -0.195408,-5.976333 -1.449262,-5.398771 -5.626976,-9.104582 -11.004071,-9.761081 -4.33111,-0.528793 -8.963638,1.368751 -11.707277,4.795452 -3.833874,4.788366 -3.917753,11.674078 -0.202274,16.604891 2.788826,3.701051 7.343127,5.69642 11.836256,5.185799 l 1.392173,-0.158213 2.781859,2.686313 c 1.530024,1.477473 2.762801,2.748163 2.739507,2.823753 -0.06002,0.194774 -2.047329,0.827631 -3.532952,1.125069 -2.476123,0.495747 -4.86454,0.622103 -7.306699,0.386551 z m 1.319195,-14.902276 -2.479163,-2.481742 v -2.876071 -2.876071 h 3.107489 3.107488 l 2.31647,2.266317 c 1.274058,1.246474 2.31647,2.318037 2.31647,2.38125 0,0.06321 -1.185757,0.114933 -2.635014,0.114933 -1.449257,0 -2.729179,0.03613 -2.84427,0.0803 -0.181999,0.06984 -0.209258,0.457588 -0.209258,2.976562 0,1.592944 -0.04524,2.896263 -0.100524,2.896263 -0.05529,0 -1.216149,-1.116784 -2.579688,-2.481741 z"
         id="path1005"
         inkscape:connector-curvature="0" />
      <path
         style="fill:#4d4d4d;fill-opacity:1;stroke-width:0.13229166"
         d="m -28.101354,59.957136 -5.130244,-5.124019 v -3.011918 -3.011917 h 2.855532 2.855535 l 5.346549,5.252058 5.34655,5.252059 v 2.883878 2.883879 h -3.071839 -3.071839 z m -12.406286,4.192696 c -3.659186,-0.447479 -6.999811,-1.656864 -9.927726,-3.594072 -1.727071,-1.142688 -4.174781,-3.595855 -5.325851,-5.337725 -4.511176,-6.82659 -4.477647,-15.731521 0.08465,-22.48219 1.070854,-1.584505 3.381622,-3.880448 4.976885,-4.944957 5.314521,-3.546342 11.811108,-4.689817 18.394124,-3.237577 10.83062,2.389277 17.477497,12.122907 15.660467,22.933054 -0.347923,2.06992 -1.519542,5.494938 -2.066944,6.04234 -0.144303,0.144304 -0.707076,-0.360094 -3.263521,-2.925016 -2.150842,-2.157974 -3.065334,-3.16145 -3.010747,-3.303703 0.220546,-0.574736 0.381437,-2.672511 0.310383,-4.046954 -0.317475,-6.141173 -4.477298,-11.134461 -10.274144,-12.332681 -1.822004,-0.376612 -4.605381,-0.280771 -6.285181,0.21642 -5.374387,1.590724 -9.110291,6.121688 -9.574551,11.612169 -0.564572,6.676789 3.427191,12.558119 9.772988,14.399197 1.178153,0.341813 4.263569,0.502253 5.423959,0.282045 l 0.727604,-0.138078 2.765102,2.757413 2.765102,2.757413 -1.268914,0.406469 c -2.074564,0.664542 -3.969598,0.955482 -6.576394,1.009655 -1.273308,0.02646 -2.761589,-0.0065 -3.307292,-0.07322 z m 1.750149,-14.846985 -2.417038,-2.419844 0.03579,-2.840245 0.03579,-2.840247 2.881251,-0.03566 2.881251,-0.03566 1.815103,1.709222 c 0.998307,0.940072 2.080506,1.983035 2.404888,2.317695 l 0.589784,0.608473 h -2.532474 c -1.392861,0 -2.684011,0.05761 -2.869224,0.128031 l -0.336749,0.128032 -0.03567,2.850028 -0.03566,2.850027 z"
         id="path1003"
         inkscape:connector-curvature="0" />
    </g>
  </g>
</svg>
