<?xml version="1.0" encoding="UTF-8" standalone="no"?>
<!-- Created with Inkscape (http://www.inkscape.org/) -->

<svg
   xmlns:dc="http://purl.org/dc/elements/1.1/"
   xmlns:cc="http://creativecommons.org/ns#"
   xmlns:rdf="http://www.w3.org/1999/02/22-rdf-syntax-ns#"
   xmlns:svg="http://www.w3.org/2000/svg"
   xmlns="http://www.w3.org/2000/svg"
   xmlns:sodipodi="http://sodipodi.sourceforge.net/DTD/sodipodi-0.dtd"
   xmlns:inkscape="http://www.inkscape.org/namespaces/inkscape"
   width="30.007847mm"
   height="30.000008mm"
   viewBox="0 0 30.007847 30.000008"
   version="1.1"
   id="svg595"
   inkscape:version="0.92.2 (5c3e80d, 2017-08-06)"
   sodipodi:docname="image_s02.svg">
  <defs
     id="defs589" />
  <sodipodi:namedview
     id="base"
     pagecolor="#ffffff"
     bordercolor="#666666"
     borderopacity="1.0"
     inkscape:pageopacity="0.0"
     inkscape:pageshadow="2"
     inkscape:zoom="0.35"
     inkscape:cx="-1913.2923"
     inkscape:cy="-271.8785"
     inkscape:document-units="mm"
     inkscape:current-layer="layer1"
     showgrid="false"
     inkscape:window-width="3200"
     inkscape:window-height="1675"
     inkscape:window-x="-13"
     inkscape:window-y="-13"
     inkscape:window-maximized="1" />
  <metadata
     id="metadata592">
    <rdf:RDF>
      <cc:Work
         rdf:about="">
        <dc:format>image/svg+xml</dc:format>
        <dc:type
           rdf:resource="http://purl.org/dc/dcmitype/StillImage" />
        <dc:title></dc:title>
      </cc:Work>
    </rdf:RDF>
  </metadata>
  <g
     inkscape:label="Layer 1"
     inkscape:groupmode="layer"
     id="layer1"
     transform="translate(-426.47227,-46.898806)">
    <path
       style="fill:#4d4d4d;fill-opacity:1;stroke-width:0.14283398"
       d="m 439.31958,76.743795 c -3.46226,-0.56761 -6.03395,-1.887389 -8.48468,-4.354269 -1.53092,-1.541021 -2.48349,-2.963701 -3.23917,-4.83777 -2.21248,-5.486831 -1.10931,-11.548031 2.88749,-15.864941 2.87903,-3.10962 6.66837,-4.77076 10.92191,-4.78788 4.82074,-0.0194 9.18265,2.14589 12.08122,5.99718 5.40737,7.18472 3.25834,17.50409 -4.58244,22.00423 -2.82701,1.622531 -6.55643,2.339862 -9.58433,1.84345 z m 2.14887,-2.404729 c 0.12229,-0.17459 0.22235,-0.524459 0.22235,-0.77747 0,-0.642211 0.42726,-0.919021 1.24541,-0.80689 0.55799,0.0764 0.6363,0.0521 0.70748,-0.22005 0.044,-0.16832 0.34021,-0.497381 0.65819,-0.73123 0.31799,-0.233851 0.68251,-0.58424 0.81003,-0.77865 0.23488,-0.35804 1.19564,-1.081781 1.43608,-1.081781 0.072,0 0.19615,-0.241019 0.27578,-0.535619 0.0796,-0.29459 0.25795,-0.69631 0.39623,-0.89271 0.1383,-0.196391 0.35613,-0.66582 0.4841,-1.04316 0.22494,-0.66333 0.22253,-0.701111 -0.0726,-1.139011 -0.31827,-0.472279 -0.47987,-0.5745 -1.8349,-1.16071 -0.51528,-0.22292 -0.87317,-0.478319 -0.95925,-0.68458 -0.26843,-0.64316 -0.51656,-0.8289 -1.1073,-0.8289 -0.42349,0 -0.71522,-0.11408 -1.1255,-0.44012 -0.55939,-0.44455 -0.86513,-0.48059 -1.72545,-0.20338 -0.43092,0.13885 -1.64264,-0.95459 -1.36656,-1.23316 0.25555,-0.25784 0.2269,-0.83718 -0.0414,-0.83718 -0.34598,0 -1.24547,0.50675 -1.62921,0.91786 -0.2351,0.25185 -0.35386,0.55188 -0.36303,0.91713 -0.007,0.29855 -0.19938,0.909981 -0.42643,1.35874 l -0.41282,0.81591 0.29173,0.6019 c 0.16045,0.33104 0.39591,0.96126 0.52326,1.400461 0.22104,0.762359 0.27821,0.82712 1.261,1.428349 1.22509,0.749451 1.26511,0.84508 1.27787,3.054021 0.008,1.30405 0.0549,1.631579 0.28181,1.95031 0.15003,0.21068 0.27277,0.417161 0.27277,0.45883 0,0.0417 0.0627,0.24066 0.1393,0.442158 0.17131,0.450612 0.48587,0.47031 0.78102,0.0489 z m 14.36291,-12.900711 c 0,-1.304139 -0.30477,-3.28098 -0.58718,-3.80868 -0.28484,-0.53223 -0.63883,-0.56834 -1.36856,-0.13959 -0.74347,0.43681 -0.88649,0.73368 -0.60597,1.25784 0.15191,0.28384 0.14288,0.37829 -0.0573,0.59952 -0.1307,0.14443 -0.23764,0.48571 -0.23764,0.7584 0,0.272701 -0.0651,0.5609 -0.14462,0.64043 -0.0802,0.0802 -0.10302,0.352651 -0.0512,0.61157 0.0744,0.37176 0.22139,0.52914 0.72127,0.772 0.50658,0.246121 0.67967,0.2727 0.89601,0.13759 0.22627,-0.1413 0.30401,-0.112699 0.4979,0.183211 0.1416,0.216109 0.36552,0.350659 0.58356,0.350659 0.35178,0 0.35379,-0.008 0.35379,-1.36295 z m -19.85391,1.04538 c 0,-0.0961 -0.37597,-0.5325 -0.8355,-0.96977 -0.9703,-0.9233 -1.54819,-2.14911 -1.30932,-2.77737 0.14947,-0.39313 0.94511,-0.79165 1.58055,-0.79165 0.43003,0 0.99277,0.56147 0.99277,0.99054 0,0.3117 0.27786,0.58064 0.5999,0.58064 0.15619,0 0.2571,-0.10516 0.2571,-0.2679 0,-0.36551 0.67859,-1.87461 0.84295,-1.87461 0.0728,0 0.33302,-0.32607 0.57824,-0.72462 0.24523,-0.39853 0.71673,-0.97621 1.0478,-1.28372 0.52087,-0.48381 0.69193,-0.55935 1.27019,-0.56089 0.77579,-0.002 1.11717,-0.26226 1.11717,-0.85149 0,-0.45175 0.32038,-0.79352 0.63182,-0.67401 0.34193,0.13121 0.93936,-0.4447 0.93936,-0.90553 0,-0.22485 0.061,-0.56923 0.13551,-0.76526 0.10657,-0.28032 0.0738,-0.43481 -0.1532,-0.72347 -0.37141,-0.47216 -0.87131,-0.47319 -1.77924,-0.004 -0.52319,0.27057 -0.8363,0.34361 -1.22585,0.28597 -0.4557,-0.0674 -0.57086,-0.0208 -0.89271,0.36174 -0.20324,0.24154 -0.36953,0.52632 -0.36953,0.63283 0,0.3982 -0.85086,0.42114 -1.83666,0.0496 -0.50531,-0.19049 -0.13333,-0.55077 0.56864,-0.55077 0.45862,0 0.55385,-0.0491 0.55385,-0.28567 0,-0.22928 0.0952,-0.28567 0.48242,-0.28567 0.26534,0 0.56553,-0.10013 0.66709,-0.2225 0.10157,-0.12238 0.40149,-0.3131 0.6665,-0.42383 0.26501,-0.11073 0.71453,-0.46053 0.99893,-0.77733 0.28441,-0.31681 0.61904,-0.57892 0.74363,-0.58246 0.33302,-0.009 -1.00405,-0.69368 -1.37045,-0.70127 -0.17131,-0.004 -0.54827,0.13817 -0.83768,0.31493 -0.52726,0.32201 -0.78038,0.55279 -1.54802,1.41136 -0.38346,0.42887 -0.42464,0.44308 -0.59776,0.20633 -0.17207,-0.23532 -0.21027,-0.23722 -0.51266,-0.0254 -0.40992,0.28711 -0.69168,0.29306 -0.69168,0.0146 0,-0.27688 -0.33038,-0.27232 -0.88051,0.0122 -0.31476,0.16277 -0.48138,0.18284 -0.59281,0.0714 -0.29505,-0.29505 -1.06661,-0.15703 -1.97668,0.3536 -1.17231,0.65777 -1.39919,0.95526 -1.40318,1.8398 -0.003,0.55325 -0.15753,1.02106 -0.71734,2.16447 -0.84613,1.7282 -0.91262,2.31573 -0.32385,2.8614 0.57659,0.53436 0.89318,1.0735 0.89424,1.52286 0.002,0.66117 0.52095,1.49779 1.11938,1.80308 0.2988,0.15243 0.63108,0.38295 0.7384,0.51228 0.20566,0.2478 1.06462,0.74036 1.78543,1.02384 0.56349,0.2216 0.64276,0.22351 0.64276,0.0154 z m 16.30905,-8.03821 c 0.12219,-0.26818 0.12143,-0.44768 -0.003,-0.72089 -0.2406,-0.52805 -0.20811,-0.63604 0.19132,-0.63604 0.19639,0 0.35708,-0.0591 0.35708,-0.13132 0,-0.0722 -0.32923,-0.49156 -0.73163,-0.93185 -0.65022,-0.71145 -0.75105,-0.77395 -0.90619,-0.56178 -0.12307,0.16831 -0.28388,0.2113 -0.54513,0.14573 -0.2038,-0.0511 -0.4096,-0.0298 -0.45733,0.0474 -0.10401,0.1683 0.1744,0.72685 0.47151,0.94594 0.11701,0.0863 0.16972,0.22648 0.11714,0.31157 -0.10698,0.17308 0.32521,1.17414 0.50692,1.17414 0.064,0 0.11638,0.0932 0.11638,0.20716 0,0.19385 0.363,0.49293 0.6101,0.50267 0.0606,0.002 0.1834,-0.15635 0.27289,-0.35274 z"
       id="path927"
       inkscape:connector-curvature="0"
       inkscape:export-filename="C:\Users\dmarin\Dropbox\Pro\OpenDC\02 IT\00 - Website\01 Images\services\256px\s02_icon_mapping.png"
       inkscape:export-xdpi="255.69339"
       inkscape:export-ydpi="255.69339" />
  </g>
</svg>
