<?xml version="1.0" encoding="UTF-8" standalone="no"?>
<!-- Created with Inkscape (http://www.inkscape.org/) -->

<svg
   xmlns:dc="http://purl.org/dc/elements/1.1/"
   xmlns:cc="http://creativecommons.org/ns#"
   xmlns:rdf="http://www.w3.org/1999/02/22-rdf-syntax-ns#"
   xmlns:svg="http://www.w3.org/2000/svg"
   xmlns="http://www.w3.org/2000/svg"
   xmlns:sodipodi="http://sodipodi.sourceforge.net/DTD/sodipodi-0.dtd"
   xmlns:inkscape="http://www.inkscape.org/namespaces/inkscape"
   width="51.208279mm"
   height="30mm"
   viewBox="0 0 51.208279 30"
   version="1.1"
   id="svg759"
   inkscape:version="0.92.2 (5c3e80d, 2017-08-06)"
   sodipodi:docname="image_s06.svg">
  <defs
     id="defs753" />
  <sodipodi:namedview
     id="base"
     pagecolor="#ffffff"
     bordercolor="#666666"
     borderopacity="1.0"
     inkscape:pageopacity="0.0"
     inkscape:pageshadow="2"
     inkscape:zoom="0.35"
     inkscape:cx="-2301.7999"
     inkscape:cy="1559.5501"
     inkscape:document-units="mm"
     inkscape:current-layer="layer1"
     showgrid="false"
     inkscape:window-width="3200"
     inkscape:window-height="1675"
     inkscape:window-x="-13"
     inkscape:window-y="-13"
     inkscape:window-maximized="1" />
  <metadata
     id="metadata756">
    <rdf:RDF>
      <cc:Work
         rdf:about="">
        <dc:format>image/svg+xml</dc:format>
        <dc:type
           rdf:resource="http://purl.org/dc/dcmitype/StillImage" />
        <dc:title></dc:title>
      </cc:Work>
    </rdf:RDF>
  </metadata>
  <g
     inkscape:label="Layer 1"
     inkscape:groupmode="layer"
     id="layer1"
     transform="translate(-529.2649,-531.46429)">
    <g
       id="g1239"
       transform="matrix(1.2,0,0,1.2,338.33453,409.43647)"
       inkscape:export-filename="C:\Users\dmarin\Dropbox\Pro\OpenDC\02 IT\00 - Website\01 Images\services\256px\s06_icon_gps_gsm.png"
       inkscape:export-xdpi="255.69331"
       inkscape:export-ydpi="255.69331">
      <path
         inkscape:export-filename="C:\Users\dmarin\Dropbox\Pro\OpenDC\02 IT\00 - Website\01 Images\services\s01_icon_gps.png"
         inkscape:export-ydpi="23.840845"
         inkscape:export-xdpi="23.840845"
         inkscape:connector-curvature="0"
         id="path859"
         d="m 167.86763,126.61398 c -0.0577,-0.0405 -0.13102,-0.15585 -0.16291,-0.25665 -0.16936,-0.53494 -0.59858,-1.54136 -0.97393,-2.28368 -0.76716,-1.51719 -1.53862,-2.70112 -3.56882,-5.47686 -1.34861,-1.84387 -1.69188,-2.32924 -2.16088,-3.0554 -1.06494,-1.64883 -1.62882,-2.91524 -1.82749,-4.10429 -0.13725,-0.82145 -0.0531,-2.01529 0.21562,-3.05973 0.88218,-3.42863 3.71962,-6.00726 7.26607,-6.60334 0.66781,-0.11224 2.1187,-0.11224 2.78652,0 1.92092,0.32286 3.57323,1.17429 4.93874,2.5449 1.62676,1.63282 2.4999,3.63888 2.59726,5.96719 0.0479,1.1474 -0.15682,2.00227 -0.78716,3.28643 -0.61659,1.25603 -1.1874,2.12574 -3.01775,4.59797 -1.32558,1.79043 -1.71874,2.33704 -2.23642,3.10919 -1.10617,1.64993 -1.99888,3.37898 -2.44898,4.74329 -0.2105,0.63811 -0.35539,0.77624 -0.61988,0.59098 z m 1.3359,-9.31373 c 4.16503,-0.71204 6.74664,-4.84772 5.56652,-8.91746 -0.50968,-1.75776 -1.79527,-3.3244 -3.44813,-4.20205 -3.25344,-1.72751 -7.31448,-0.61389 -9.25071,2.53669 -0.68225,1.11014 -1.02579,2.33803 -1.02579,3.66647 0,1.04532 0.19912,1.98277 0.61196,2.88106 0.39909,0.86837 0.78739,1.42161 1.47772,2.10533 1.60589,1.59055 3.86015,2.3075 6.06843,1.92996 z"
         style="fill:#4d4d4d;fill-opacity:1;stroke-width:0.04888627" />
      <g
         transform="translate(51.048479,31.814175)"
         style="fill:#4d4d4d;fill-opacity:1"
         id="g1214">
        <path
           inkscape:connector-curvature="0"
           id="path1228"
           d="m 134.73467,93.222412 v -0.683594 h 1.46485 1.46484 v -5.555819 -5.55582 l -0.22786,-0.05719 c -0.34,-0.08533 -1.11787,-0.810854 -1.36145,-1.269822 -0.30295,-0.570848 -0.3045,-1.795123 -0.003,-2.362932 0.25748,-0.484899 0.87427,-1.056864 1.37039,-1.270807 0.48068,-0.207286 1.52562,-0.207286 2.0063,0 0.49612,0.213943 1.11291,0.785908 1.3704,1.270807 0.30151,0.567809 0.29996,1.792084 -0.003,2.362932 -0.24358,0.458968 -1.02145,1.184488 -1.36144,1.269822 l -0.22787,0.05719 v 5.55582 5.555819 h 1.46484 1.46485 v 0.683594 0.683594 h -3.71094 -3.71094 z m -6.16528,-8.325196 c -1.04037,-1.249147 -1.71901,-2.5854 -2.14505,-4.223632 -0.19493,-0.74956 -0.2279,-1.108855 -0.22401,-2.441407 0.004,-1.360502 0.0369,-1.683074 0.25498,-2.495173 0.45879,-1.708718 1.28991,-3.285094 2.33064,-4.420503 l 0.43114,-0.470364 0.4753,0.485322 0.4753,0.485322 -0.495,0.594798 c -2.85917,3.435639 -2.82601,8.451334 0.0777,11.7501 l 0.38379,0.436005 -0.46189,0.454942 c -0.25404,0.250218 -0.49173,0.454942 -0.52821,0.454942 -0.0365,0 -0.29508,-0.274658 -0.57467,-0.610352 z m 18.63226,0.138123 c -0.42755,-0.43408 -0.45167,-0.483389 -0.29858,-0.610352 0.37416,-0.310299 1.15618,-1.461473 1.55332,-2.28656 1.53636,-3.191948 1.0554,-6.971209 -1.23786,-9.726848 l -0.495,-0.594798 0.4753,-0.485322 0.4753,-0.485322 0.42615,0.467672 c 1.78779,1.961982 2.76871,4.771122 2.61837,7.498431 -0.12586,2.282942 -0.92949,4.323181 -2.39682,6.084976 -0.27959,0.335694 -0.54135,0.610352 -0.58169,0.610352 -0.0403,0 -0.28266,-0.212503 -0.53849,-0.472229 z m -16.43117,-1.999018 c -1.23913,-1.417315 -1.87753,-3.329999 -1.76647,-5.292425 0.0909,-1.606094 0.74744,-3.27612 1.70522,-4.33751 l 0.46099,-0.510858 0.47657,0.487307 0.47656,0.487306 -0.3882,0.472034 c -0.5496,0.668281 -0.75684,1.046128 -1.06236,1.936877 -0.22678,0.661222 -0.26862,0.946289 -0.27228,1.855469 -0.003,0.763805 0.0465,1.243535 0.17173,1.660156 0.22761,0.757565 0.76394,1.777801 1.20615,2.294425 l 0.34921,0.407978 -0.4878,0.487805 -0.48781,0.487806 z m 14.47294,-0.05419 -0.47759,-0.487643 0.34811,-0.406685 c 0.44121,-0.515452 0.97763,-1.53623 1.20504,-2.293131 0.12518,-0.416621 0.1748,-0.896351 0.17173,-1.660156 -0.006,-1.543706 -0.39585,-2.650825 -1.33464,-3.792346 l -0.3882,-0.472034 0.47656,-0.487306 0.47657,-0.487307 0.46099,0.510858 c 1.3446,1.490057 2.00818,4.011755 1.60857,6.112821 -0.2536,1.333427 -0.86696,2.618602 -1.67893,3.517927 L 145.721,83.46978 Z m -12.49663,-1.947593 c -0.19636,-0.267489 -0.4776,-0.743777 -0.62499,-1.058416 -0.24741,-0.528142 -0.26799,-0.665819 -0.26799,-1.792778 0,-1.204708 0.005,-1.2303 0.3554,-1.953125 0.19546,-0.402832 0.48111,-0.877794 0.63476,-1.055471 l 0.27937,-0.323049 0.47516,0.484353 0.47516,0.484353 -0.29622,0.430554 c -0.84501,1.228166 -0.80199,2.771588 0.11168,4.007394 l 0.20284,0.27436 -0.49408,0.494084 -0.49409,0.494084 z m 10.53286,-0.0191 -0.47223,-0.479448 0.26515,-0.382615 c 0.84421,-1.218193 0.85841,-2.714481 0.0371,-3.908334 l -0.29212,-0.424634 0.47516,-0.484353 0.47516,-0.484353 0.27937,0.323049 c 0.15365,0.177677 0.43817,0.652128 0.63225,1.054336 0.31541,0.653646 0.35692,0.831927 0.39095,1.679202 0.0306,0.762386 -0.002,1.080276 -0.16734,1.624185 -0.17622,0.580173 -0.8476,1.774768 -1.07719,1.916661 -0.0407,0.02516 -0.28653,-0.17 -0.54627,-0.433696 z"
           style="fill:#4d4d4d;fill-opacity:1;stroke-width:0.09765625" />
        <path
           inkscape:connector-curvature="0"
           id="path1226"
           d="m 134.73467,93.222412 v -0.683594 h 1.46485 1.46484 v -5.556853 -5.556853 l -0.28335,-0.09878 c -0.39762,-0.138609 -1.05878,-0.760924 -1.30895,-1.232027 -0.27778,-0.52313 -0.3003,-1.7962 -0.0402,-2.275851 0.71942,-1.326926 2.23745,-1.866367 3.54228,-1.258769 1.29369,0.602414 1.87742,2.278874 1.23318,3.541691 -0.23487,0.460381 -0.89665,1.085375 -1.29706,1.224956 l -0.28335,0.09878 v 5.556853 5.556853 h 1.46484 1.46485 v 0.683594 0.683594 h -3.71094 -3.71094 z m -6.17461,-8.339948 c -2.58021,-3.132802 -3.12723,-7.411584 -1.41078,-11.035048 0.47843,-1.009987 1.0035,-1.818141 1.64462,-2.531312 l 0.42319,-0.470761 0.47972,0.490208 0.47972,0.490208 -0.34376,0.380506 c -1.97195,2.18271 -2.73634,5.275498 -2.02981,8.212778 0.32986,1.371295 1.28948,3.1678 2.08922,3.911199 l 0.25678,0.238689 -0.46226,0.469319 c -0.25425,0.258125 -0.49591,0.469318 -0.53703,0.469318 -0.0411,0 -0.30644,-0.281297 -0.58961,-0.625104 z m 18.65911,0.172714 -0.45239,-0.45239 0.58495,-0.695071 c 0.7245,-0.860877 1.46179,-2.341883 1.7559,-3.527102 0.27546,-1.110041 0.29922,-3.059067 0.0497,-4.075909 -0.37329,-1.521213 -1.15401,-3.052599 -2.07721,-4.074474 l -0.36542,-0.404473 0.47415,-0.481391 c 0.561,-0.569557 0.50859,-0.592773 1.43977,0.637809 0.74373,0.982864 1.46731,2.482647 1.79804,3.726835 0.2222,0.835936 0.25569,1.157195 0.25793,2.474337 0.004,2.200104 -0.42179,3.781073 -1.46496,5.44264 -0.52439,0.835267 -1.348,1.881579 -1.48109,1.881579 -0.0368,0 -0.27055,-0.203575 -0.51936,-0.45239 z m -16.31106,-1.864402 c -1.15595,-1.230393 -1.93516,-3.246679 -1.93516,-5.007427 0,-1.729498 0.71138,-3.640695 1.80664,-4.853785 l 0.39063,-0.432645 0.47972,0.489811 0.47972,0.48981 -0.33855,0.374726 c -0.90596,1.002791 -1.40079,2.393908 -1.39867,3.932083 0.002,1.499867 0.41409,2.708597 1.28975,3.783666 l 0.43788,0.537599 -0.47863,0.47863 -0.47863,0.478631 z m 14.33345,-0.21329 -0.4683,-0.475456 0.43683,-0.536307 c 0.87456,-1.073734 1.28662,-2.283143 1.28869,-3.782374 0.002,-1.538175 -0.49271,-2.929292 -1.39867,-3.932083 l -0.33854,-0.374726 0.47971,-0.48981 0.47972,-0.489811 0.39063,0.432645 c 1.86229,2.062628 2.31781,5.310603 1.1164,7.960257 -0.28827,0.635763 -0.99117,1.689579 -1.33011,1.994144 -0.18079,0.162456 -0.20612,0.150627 -0.65636,-0.306479 z M 132.7081,80.96481 c -0.67838,-0.915657 -0.84932,-1.475465 -0.84932,-2.781461 0,-1.298525 0.1615,-1.833084 0.84018,-2.780847 l 0.40122,-0.5603 0.4887,0.488698 0.4887,0.488697 -0.31073,0.432682 c -0.80016,1.114197 -0.79377,2.694198 0.0156,3.870776 l 0.29309,0.426034 -0.48122,0.48122 -0.48122,0.481221 z m 10.58279,0.06203 -0.47333,-0.480555 0.29212,-0.424634 c 0.80843,-1.175143 0.81808,-2.687612 0.0245,-3.841026 l -0.31856,-0.46302 0.4877,-0.487703 0.4877,-0.487704 0.40123,0.5603 c 0.58651,0.819057 0.81777,1.497182 0.87132,2.554972 0.0657,1.297789 -0.26026,2.266475 -1.11996,3.32833 l -0.1794,0.221596 z"
           style="fill:#4d4d4d;fill-opacity:1;stroke-width:0.09765625" />
        <path
           inkscape:connector-curvature="0"
           id="path1224"
           d="m 134.73467,93.222412 v -0.683594 h 1.46485 1.46484 v -5.551575 -5.551574 l -0.39851,-0.179704 c -0.21918,-0.09884 -0.56744,-0.371621 -0.77392,-0.606186 -1.50709,-1.712151 -0.32772,-4.31999 1.95368,-4.31999 1.81691,0 3.0658,1.731353 2.4829,3.442075 -0.19618,0.57576 -0.79097,1.253145 -1.30314,1.484101 l -0.39851,0.179704 v 5.551574 5.551575 h 1.46484 1.46485 v 0.683594 0.683594 h -3.71094 -3.71094 z m -6.16936,-8.341484 c -2.61158,-3.146599 -3.1346,-7.471739 -1.34892,-11.154807 0.44163,-0.910884 1.37379,-2.287281 1.82461,-2.694169 0.17991,-0.162373 0.20569,-0.150231 0.6597,0.310711 l 0.47247,0.479687 -0.40329,0.458166 c -0.93282,1.059737 -1.63638,2.411051 -1.99023,3.822623 -0.30127,1.201757 -0.29767,3.244699 0.008,4.375132 0.36758,1.360778 1.34073,3.141691 2.10484,3.851971 l 0.25678,0.238689 -0.46226,0.469319 c -0.25425,0.258125 -0.49355,0.469318 -0.53178,0.469318 -0.0382,0 -0.30356,-0.281988 -0.58961,-0.62664 z m 18.63921,0.157322 -0.46226,-0.469319 0.25678,-0.238689 c 0.76411,-0.71028 1.73726,-2.491193 2.10484,-3.851971 0.30536,-1.130433 0.30896,-3.173375 0.008,-4.375132 -0.35386,-1.411572 -1.05742,-2.762886 -1.99024,-3.822623 l -0.40329,-0.458166 0.47247,-0.479687 c 0.45401,-0.460942 0.47979,-0.473084 0.6597,-0.310711 0.45082,0.406888 1.38298,1.783285 1.82461,2.694169 1.43191,2.953382 1.39603,6.330187 -0.0981,9.235215 -0.44401,0.86329 -1.65571,2.546232 -1.83326,2.546232 -0.0422,0 -0.28468,-0.211193 -0.53893,-0.469318 z m -16.41836,-1.988075 c -1.87526,-2.176347 -2.3203,-5.332648 -1.12394,-7.97117 0.28909,-0.637559 0.99172,-1.691328 1.33108,-1.996272 0.18078,-0.16244 0.20596,-0.150795 0.65104,0.30108 l 0.46298,0.470055 -0.40059,0.480171 c -1.78631,2.141131 -1.79913,5.454268 -0.0295,7.626884 l 0.44285,0.543691 -0.48452,0.484515 -0.48451,0.484513 z m 14.46097,-0.06432 -0.47387,-0.483824 0.44179,-0.542399 c 1.11971,-1.374701 1.56975,-3.291972 1.19163,-5.076532 -0.17635,-0.832304 -0.69853,-1.921391 -1.22219,-2.54906 l -0.40059,-0.480171 0.46298,-0.470055 c 0.44508,-0.451875 0.47026,-0.46352 0.65104,-0.30108 0.33936,0.304944 1.04199,1.358713 1.33108,1.996272 1.19497,2.635459 0.7336,5.882841 -1.13241,7.970473 l -0.37559,0.420199 z m -12.46831,-1.939673 c -0.68357,-0.778543 -1.02492,-1.928827 -0.94981,-3.20068 0.0555,-0.939544 0.3148,-1.667731 0.86995,-2.442999 l 0.40122,-0.5603 0.48833,0.488328 0.48833,0.488327 -0.26421,0.346398 c -0.85756,1.124313 -0.85934,2.892182 -0.004,4.013532 l 0.27332,0.358337 -0.42638,0.43444 c -0.2345,0.238943 -0.45661,0.434442 -0.49357,0.434442 -0.037,0 -0.20938,-0.161921 -0.38314,-0.359825 z m 10.46114,-0.07026 -0.42209,-0.430084 0.30806,-0.44775 c 0.43255,-0.628688 0.59312,-1.150096 0.59312,-1.925969 0,-0.756074 -0.22559,-1.462938 -0.64046,-2.006864 l -0.26421,-0.346398 0.48833,-0.488327 0.48832,-0.488328 0.40123,0.5603 c 0.5699,0.795856 0.81622,1.501016 0.87033,2.491573 0.0526,0.963342 -0.12983,1.835312 -0.53002,2.532961 -0.25247,0.440113 -0.69912,0.97897 -0.81146,0.97897 -0.0325,0 -0.249,-0.193539 -0.48115,-0.430084 z"
           style="fill:#4d4d4d;fill-opacity:1;stroke-width:0.09765625" />
        <path
           inkscape:connector-curvature="0"
           id="path1222"
           d="m 134.73467,93.222412 v -0.683594 h 1.46485 1.46484 v -5.551575 -5.551574 l -0.39851,-0.179704 c -0.7897,-0.356106 -1.45696,-1.427865 -1.45696,-2.340194 0,-0.941083 0.60879,-1.898868 1.48425,-2.33513 1.69709,-0.845696 3.78919,0.443583 3.78919,2.33513 0,0.912329 -0.66726,1.984088 -1.45696,2.340194 l -0.39851,0.179704 v 5.551574 5.551575 h 1.46484 1.46485 v 0.683594 0.683594 h -3.71094 -3.71094 z m -6.30546,-8.520508 c -0.74356,-0.933274 -1.60284,-2.608244 -1.89123,-3.686523 -0.93076,-3.48012 -0.0748,-7.047692 2.35049,-9.79626 l 0.32862,-0.372431 0.48032,0.490146 0.48032,0.490145 -0.38603,0.419395 c -0.56808,0.617182 -0.98604,1.260296 -1.41768,2.181398 -1.48696,3.173092 -0.96873,7.083035 1.27694,9.63425 0.21792,0.247568 0.39621,0.485662 0.39621,0.529099 0,0.102678 -0.79827,0.916445 -0.89899,0.916445 -0.0424,0 -0.36593,-0.362549 -0.71897,-0.805664 z m 18.8258,0.386929 c -0.22603,-0.230305 -0.41096,-0.454275 -0.41096,-0.49771 0,-0.04344 0.17829,-0.281531 0.39621,-0.529099 0.99806,-1.133849 1.72044,-2.696783 2.0087,-4.345962 0.45465,-2.601115 -0.39911,-5.568068 -2.14944,-7.469686 l -0.38603,-0.419395 0.48032,-0.489725 0.48032,-0.489725 0.41438,0.469667 c 2.31393,2.622599 3.18189,6.34521 2.26423,9.711141 -0.29343,1.076315 -1.15477,2.749832 -1.89073,3.673565 -0.35304,0.443115 -0.67657,0.805664 -0.71897,0.805664 -0.0424,0 -0.26201,-0.188431 -0.48803,-0.418735 z m -16.49582,-2.088207 c -1.85332,-2.222208 -2.27659,-5.294336 -1.09218,-7.92727 0.28384,-0.630996 0.98598,-1.684822 1.32629,-1.990623 0.18076,-0.162425 0.20558,-0.151067 0.64019,0.292969 l 0.45214,0.461944 -0.44149,0.580946 c -1.14412,1.505526 -1.54385,3.251529 -1.1596,5.065008 0.18245,0.861092 0.71069,1.952216 1.2316,2.544003 l 0.41241,0.468526 -0.48803,0.488035 -0.48804,0.488035 z m 14.48377,-0.01913 -0.47804,-0.487932 0.41129,-0.467245 c 0.2262,-0.256984 0.56387,-0.784493 0.75037,-1.172241 1.02072,-2.122168 0.76696,-4.546324 -0.67314,-6.430497 l -0.44785,-0.585938 0.45771,-0.470312 0.4577,-0.470313 0.37559,0.420199 c 0.89795,1.004598 1.53898,2.47865 1.74243,4.006745 0.26046,1.956254 -0.43319,4.227987 -1.74778,5.724105 l -0.37024,0.421361 z m -12.45763,-1.941704 c -0.70252,-0.847934 -1.03459,-1.959583 -0.9542,-3.19432 0.0621,-0.954086 0.33335,-1.709831 0.87697,-2.443587 l 0.40505,-0.546719 0.48185,0.481844 0.48184,0.481844 -0.26421,0.346398 c -0.85644,1.122854 -0.85697,2.912641 -0.001,4.034626 l 0.26301,0.344834 -0.42264,0.430646 c -0.23246,0.236854 -0.45424,0.430645 -0.49286,0.430645 -0.0386,0 -0.20675,-0.164795 -0.37362,-0.366211 z m 10.45509,-0.06341 -0.42365,-0.43167 0.26301,-0.344834 c 0.85578,-1.121985 0.85525,-2.911772 -0.001,-4.034626 l -0.26421,-0.346398 0.48185,-0.481844 0.48184,-0.481844 0.40505,0.546719 c 0.66009,0.890957 0.84225,1.477476 0.84874,2.732633 0.005,0.892445 -0.0324,1.174038 -0.21844,1.664115 -0.21606,0.569042 -0.84132,1.509134 -1.04862,1.576624 -0.0554,0.01804 -0.29137,-0.161456 -0.52438,-0.398875 z"
           style="fill:#4d4d4d;fill-opacity:1;stroke-width:0.09765625" />
        <path
           inkscape:connector-curvature="0"
           id="path1220"
           d="m 134.73467,93.222412 v -0.683594 h 1.51367 1.51368 v -5.515594 -5.515593 l -0.37759,-0.192629 c -1.01868,-0.519695 -1.52232,-1.31599 -1.52036,-2.403832 0.001,-0.585504 0.0459,-0.767656 0.3004,-1.220704 1.03349,-1.839609 3.52879,-1.839609 4.56228,0 0.25452,0.453048 0.29935,0.6352 0.3004,1.220704 0.002,1.087842 -0.50168,1.884137 -1.52036,2.403832 l -0.37759,0.192629 v 5.515593 5.515594 h 1.51368 1.51367 v 0.683594 0.683594 h -3.71094 -3.71094 z m -6.27321,-8.493378 c -1.06295,-1.328523 -1.83545,-3.026265 -2.13412,-4.690216 -0.17724,-0.987419 -0.15077,-2.887332 0.0536,-3.846558 0.36623,-1.719038 1.11391,-3.260611 2.26216,-4.664115 l 0.5583,-0.682404 0.48935,0.489349 0.48935,0.489349 -0.3872,0.420666 c -0.86144,0.935888 -1.63519,2.377267 -2.0082,3.740979 -0.29155,1.06593 -0.3125,3.37012 -0.0399,4.394531 0.3818,1.435042 1.25136,3.086863 2.00169,3.80245 0.16541,0.157754 0.30075,0.331872 0.30075,0.386929 0,0.113538 -0.7843,0.937574 -0.89236,0.937574 -0.0387,0 -0.35076,-0.350341 -0.69335,-0.778534 z m 18.79355,0.359799 c -0.22603,-0.230305 -0.41096,-0.463783 -0.41096,-0.518839 0,-0.05506 0.13534,-0.229175 0.30075,-0.386929 0.75033,-0.715587 1.61989,-2.367408 2.00169,-3.80245 0.27255,-1.024411 0.2516,-3.328601 -0.04,-4.394531 -0.37301,-1.363712 -1.14676,-2.805091 -2.0082,-3.740979 l -0.3872,-0.420666 0.48935,-0.489349 0.48935,-0.489349 0.5583,0.682404 c 1.64007,2.004658 2.42525,4.153108 2.43225,6.655204 0.005,1.877058 -0.33262,3.281642 -1.18107,4.909943 -0.41078,0.788357 -1.59803,2.414276 -1.76291,2.414276 -0.0387,0 -0.25538,-0.188431 -0.4814,-0.418735 z m -16.56535,-2.19357 c -0.60183,-0.755093 -1.17166,-1.870531 -1.43712,-2.813143 -0.3064,-1.087997 -0.30631,-2.707966 2.2e-4,-3.803068 0.29029,-1.03708 0.78227,-2.015569 1.39285,-2.770175 l 0.4994,-0.617192 0.47094,0.463859 0.47093,0.463858 -0.42394,0.546231 c -1.77485,2.286812 -1.75256,5.488596 0.0534,7.674092 l 0.39095,0.473105 -0.46488,0.471978 c -0.25568,0.259588 -0.47396,0.471979 -0.48505,0.471979 -0.0111,0 -0.22157,-0.252686 -0.46773,-0.561524 z m 14.5548,0.08516 -0.46056,-0.467592 0.39095,-0.473105 c 1.80599,-2.185496 1.82828,-5.38728 0.0534,-7.674092 l -0.42395,-0.546231 0.47094,-0.463858 0.47094,-0.463859 0.4994,0.617192 c 1.07056,1.323094 1.61153,2.892238 1.61153,4.674472 0,1.290821 -0.21262,2.215587 -0.75872,3.299997 -0.29641,0.588593 -1.13118,1.802606 -1.31954,1.919017 -0.0406,0.02511 -0.28111,-0.164766 -0.53442,-0.421941 z m -12.41134,-1.881937 c -1.34782,-1.601792 -1.35123,-4.273252 -0.007,-5.806334 l 0.33334,-0.380286 0.45137,0.446094 0.45137,0.446095 -0.34528,0.513089 c -0.41003,0.609304 -0.57116,1.135768 -0.57116,1.866206 0,0.729993 0.16109,1.256853 0.57015,1.864716 l 0.34428,0.511599 -0.41531,0.423171 c -0.22842,0.232744 -0.4462,0.423171 -0.48395,0.423171 -0.0377,0 -0.18508,-0.138385 -0.3274,-0.307521 z m 10.41363,-0.11565 -0.41531,-0.423171 0.34428,-0.511599 c 0.40418,-0.600609 0.56314,-1.123618 0.56675,-1.864716 0.004,-0.72844 -0.15681,-1.255542 -0.56776,-1.866206 l -0.34528,-0.513089 0.45137,-0.446095 0.45137,-0.446094 0.33334,0.380286 c 1.13323,1.292833 1.33466,3.360179 0.48984,5.027355 -0.24575,0.484965 -0.70231,1.0865 -0.82465,1.0865 -0.0378,0 -0.25553,-0.190427 -0.48395,-0.423171 z"
           style="fill:#4d4d4d;fill-opacity:1;stroke-width:0.09765625" />
        <path
           inkscape:connector-curvature="0"
           id="path1218"
           d="m 134.73467,93.222412 v -0.683594 h 1.51367 1.51368 v -5.508256 -5.508256 l -0.5295,-0.298832 c -0.9045,-0.510465 -1.36264,-1.284755 -1.36547,-2.307703 -0.002,-0.573787 0.044,-0.767604 0.28408,-1.206597 0.33937,-0.620683 0.80264,-1.027491 1.40309,-1.232084 1.28203,-0.436833 2.62056,0.104053 3.20555,1.29533 0.63113,1.285213 0.16876,2.734412 -1.10107,3.451054 l -0.5295,0.298832 v 5.508256 5.508256 h 1.51368 1.51367 v 0.683594 0.683594 h -3.71094 -3.71094 z m -5.97022,-8.136763 c -2.2857,-2.67543 -3.09564,-6.116906 -2.23322,-9.488966 0.37339,-1.459913 1.28489,-3.156599 2.32247,-4.32306 l 0.36966,-0.415585 0.46187,0.468921 0.46187,0.46892 -0.4333,0.50762 c -2.2321,2.614974 -2.82523,6.298923 -1.51925,9.43604 0.3525,0.84674 1.0829,1.997037 1.55156,2.443526 0.16558,0.157754 0.30106,0.331872 0.30106,0.386929 0,0.104384 -0.78233,0.93997 -0.87482,0.934372 -0.0291,-0.0018 -0.21266,-0.190185 -0.4079,-0.418717 z m 18.49156,0.0042 c -0.22658,-0.230869 -0.41196,-0.455586 -0.41196,-0.499372 0,-0.04379 0.20029,-0.302385 0.44509,-0.574663 1.60742,-1.787833 2.40113,-4.659906 1.98965,-7.199661 -0.25536,-1.576195 -1.10493,-3.386278 -2.14275,-4.5653 l -0.39645,-0.450388 0.46414,-0.471218 0.46413,-0.471218 0.36967,0.415585 c 3.47012,3.901177 3.53963,9.78769 0.16193,13.713193 -0.22334,0.259559 -0.43429,0.483371 -0.46878,0.497363 -0.0345,0.01399 -0.24809,-0.163453 -0.47467,-0.394321 z m -16.56058,-2.187325 c -1.11597,-1.400251 -1.64752,-2.922819 -1.64752,-4.719184 0,-1.791687 0.52565,-3.302622 1.64307,-4.722819 l 0.45039,-0.57243 0.47035,0.46328 0.47035,0.463279 -0.39814,0.499775 c -0.4809,0.603666 -1.08799,1.870936 -1.23584,2.579777 -0.15365,0.736605 -0.13348,2.028095 0.0423,2.70905 0.20358,0.788641 0.66128,1.746906 1.09163,2.285484 0.19556,0.244747 0.39034,0.491875 0.43286,0.549172 0.0461,0.06209 -0.11327,0.291865 -0.39442,0.568793 l -0.47171,0.464616 z m 14.55798,0.086 -0.45161,-0.459481 0.46466,-0.596937 c 1.71879,-2.208106 1.71995,-5.249288 0.003,-7.523271 l -0.45357,-0.600676 0.46705,-0.460034 0.46706,-0.460034 0.45039,0.57243 c 1.11683,1.419455 1.63934,2.92476 1.63934,4.722819 0,1.311096 -0.20748,2.240255 -0.7335,3.284779 -0.30248,0.600644 -1.13679,1.816558 -1.3272,1.934235 -0.0406,0.02511 -0.27709,-0.161115 -0.52547,-0.41383 z m -12.41976,-1.889418 c -0.59513,-0.707264 -1.02867,-1.93614 -1.02867,-2.915766 0,-1.018167 0.54921,-2.488249 1.13528,-3.038831 l 0.23821,-0.223786 0.45628,0.456285 0.45629,0.456285 -0.20965,0.223163 c -0.11531,0.12274 -0.33015,0.486364 -0.47742,0.808055 -0.49252,1.075801 -0.33157,2.366428 0.41759,3.348628 l 0.2529,0.331567 -0.42265,0.430646 c -0.23246,0.236854 -0.45354,0.430645 -0.49129,0.430645 -0.0377,0 -0.18485,-0.138101 -0.32687,-0.306891 z m 10.40576,-0.123754 -0.42264,-0.430646 0.25289,-0.331567 c 0.74916,-0.9822 0.91011,-2.272827 0.41759,-3.348628 -0.14727,-0.321691 -0.36211,-0.685315 -0.47742,-0.808055 l -0.20965,-0.223163 0.45629,-0.456285 0.45628,-0.456285 0.23821,0.223786 c 0.33302,0.312855 0.80826,1.238441 0.98574,1.919842 0.2772,1.064225 0.14137,2.223598 -0.38135,3.255146 -0.24575,0.484965 -0.70231,1.0865 -0.82465,1.0865 -0.0378,0 -0.25883,-0.193791 -0.49129,-0.430645 z"
           style="fill:#4d4d4d;fill-opacity:1;stroke-width:0.09765625" />
        <path
           inkscape:connector-curvature="0"
           id="path1216"
           d="m 134.73467,93.222412 v -0.683594 h 1.51367 1.51368 v -5.556853 -5.556853 l -0.29271,-0.102037 c -1.09168,-0.380564 -1.80763,-1.716075 -1.55983,-2.909692 0.49094,-2.364847 3.73238,-2.827481 4.82275,-0.688326 0.69205,1.357705 0.0523,3.123004 -1.30301,3.595468 l -0.30002,0.104587 v 5.556853 5.556853 h 1.51368 1.51367 v 0.683594 0.683594 h -3.71094 -3.71094 z m -6.09917,-8.316573 c -0.61807,-0.68745 -1.36224,-1.921647 -1.72699,-2.864216 -0.84366,-2.180114 -0.90698,-4.914536 -0.16507,-7.12739 0.43334,-1.292467 1.42644,-2.948793 2.22418,-3.709539 l 0.30327,-0.289203 0.42997,0.435687 0.42997,0.435687 -0.6297,0.779331 c -0.73752,0.912755 -1.41449,2.222805 -1.71677,3.322231 -0.1808,0.657567 -0.21496,1.036348 -0.21574,2.392579 -8.5e-4,1.475771 0.0213,1.683596 0.26314,2.47037 0.39829,1.295681 1.03425,2.454573 1.91337,3.486661 l 0.29113,0.341797 -0.4055,0.415039 c -0.22303,0.228271 -0.43623,0.415039 -0.47378,0.415039 -0.0376,0 -0.27221,-0.226833 -0.52148,-0.504073 z m 18.62496,0.08903 -0.4055,-0.415039 0.29113,-0.341797 c 0.87912,-1.032088 1.51508,-2.19098 1.91337,-3.486661 0.24185,-0.786774 0.26399,-0.994599 0.26314,-2.47037 -7.8e-4,-1.350598 -0.0352,-1.735298 -0.21274,-2.377466 -0.30496,-1.103106 -0.99198,-2.436602 -1.71875,-3.336072 l -0.63072,-0.780603 0.4293,-0.43502 0.42931,-0.43502 0.25938,0.239708 c 0.88993,0.822427 2.09241,2.969682 2.48583,4.438926 0.31645,1.181811 0.37206,3.493099 0.11394,4.736328 -0.24944,1.201437 -0.67798,2.296764 -1.28366,3.280958 -0.46038,0.748081 -1.31279,1.797167 -1.46025,1.797167 -0.0376,0 -0.25075,-0.186768 -0.47378,-0.415039 z m -16.66754,-2.249292 c -0.57064,-0.722335 -1.14291,-1.907899 -1.37728,-2.853247 -0.21913,-0.883893 -0.22199,-2.498829 -0.006,-3.417969 0.20697,-0.880972 0.89834,-2.285898 1.48134,-3.0102 l 0.45782,-0.568793 0.46336,0.456398 0.46337,0.456398 -0.46466,0.613895 c -0.88346,1.167213 -1.26779,2.307455 -1.26779,3.761286 0,1.446366 0.41852,2.656953 1.31993,3.817937 l 0.42427,0.546452 -0.41337,0.405696 c -0.22736,0.223133 -0.45566,0.404257 -0.50734,0.402498 -0.0517,-0.0018 -0.3098,-0.276417 -0.5736,-0.610351 z m 14.61797,0.19851 -0.40429,-0.415039 0.39471,-0.488281 c 0.88618,-1.096258 1.34688,-2.415686 1.34688,-3.857422 0,-1.453831 -0.38433,-2.594073 -1.26779,-3.761286 l -0.46466,-0.613895 0.46337,-0.456398 0.46336,-0.456398 0.45271,0.568793 c 1.8529,2.328046 2.18126,5.488404 0.84524,8.135046 -0.31203,0.61813 -1.16611,1.751774 -1.3235,1.756721 -0.056,0.0018 -0.28367,-0.183569 -0.50603,-0.411841 z m -12.4227,-1.920323 c -0.75035,-0.947391 -1.10013,-2.309107 -0.9095,-3.54069 0.12126,-0.78344 0.64551,-1.947688 1.04674,-2.324631 l 0.25304,-0.237715 0.44916,0.449161 0.44916,0.449162 -0.30195,0.376483 c -0.439,0.547361 -0.63015,1.143041 -0.63789,1.987811 -0.006,0.603505 0.041,0.835505 0.26405,1.318072 0.1489,0.322107 0.36448,0.685431 0.47905,0.807387 l 0.20831,0.221738 -0.4296,0.43773 c -0.23628,0.240751 -0.4607,0.43773 -0.49871,0.43773 -0.038,0 -0.20535,-0.172007 -0.37186,-0.382238 z m 10.44427,-0.05549 -0.4296,-0.43773 0.20831,-0.221738 c 0.11457,-0.121956 0.33015,-0.48528 0.47905,-0.807387 0.48403,-1.047014 0.32747,-2.431463 -0.37384,-3.305883 l -0.30195,-0.376483 0.44916,-0.449162 0.44916,-0.449161 0.25304,0.237715 c 0.40123,0.376943 0.92548,1.541191 1.04674,2.324631 0.13473,0.870407 0.006,1.820739 -0.35396,2.606253 -0.2495,0.54499 -0.79304,1.316675 -0.9274,1.316675 -0.038,0 -0.26243,-0.196979 -0.49871,-0.43773 z"
           style="fill:#4d4d4d;fill-opacity:1;stroke-width:0.09765625" />
      </g>
    </g>
  </g>
</svg>
