<?xml version="1.0" encoding="UTF-8" standalone="no"?>
<!-- Created with Inkscape (http://www.inkscape.org/) -->

<svg
   xmlns:dc="http://purl.org/dc/elements/1.1/"
   xmlns:cc="http://creativecommons.org/ns#"
   xmlns:rdf="http://www.w3.org/1999/02/22-rdf-syntax-ns#"
   xmlns:svg="http://www.w3.org/2000/svg"
   xmlns="http://www.w3.org/2000/svg"
   xmlns:sodipodi="http://sodipodi.sourceforge.net/DTD/sodipodi-0.dtd"
   xmlns:inkscape="http://www.inkscape.org/namespaces/inkscape"
   width="38.403652mm"
   height="41.574379mm"
   viewBox="0 0 38.403652 41.574379"
   version="1.1"
   id="svg316"
   inkscape:version="0.92.2 (5c3e80d, 2017-08-06)"
   sodipodi:docname="image_s01.svg">
  <defs
     id="defs310" />
  <sodipodi:namedview
     id="base"
     pagecolor="#ffffff"
     bordercolor="#666666"
     borderopacity="1.0"
     inkscape:pageopacity="0.0"
     inkscape:pageshadow="2"
     inkscape:zoom="0.35"
     inkscape:cx="-294.56903"
     inkscape:cy="304.28004"
     inkscape:document-units="mm"
     inkscape:current-layer="layer1"
     showgrid="false"
     inkscape:window-width="3200"
     inkscape:window-height="1675"
     inkscape:window-x="-13"
     inkscape:window-y="-13"
     inkscape:window-maximized="1" />
  <metadata
     id="metadata313">
    <rdf:RDF>
      <cc:Work
         rdf:about="">
        <dc:format>image/svg+xml</dc:format>
        <dc:type
           rdf:resource="http://purl.org/dc/dcmitype/StillImage" />
        <dc:title></dc:title>
      </cc:Work>
    </rdf:RDF>
  </metadata>
  <g
     inkscape:label="Layer 1"
     inkscape:groupmode="layer"
     id="layer1"
     transform="translate(1.8149213,-187.76638)">
    <g
       id="g201"
       transform="matrix(0.09201628,0,0,0.09201628,-2.7350843,186.84622)"
       inkscape:export-filename="C:\Users\dmarin\Dropbox\Pro\OpenDC\02 IT\00 - Website\01 Images\services\256px\s01_icon_opendata.png"
       inkscape:export-xdpi="255.90492"
       inkscape:export-ydpi="255.90492">
      <g
         transform="translate(-138.39556,-229.97029)"
         id="g3253">
        <path
           d="M 357.08892,326.0625 V 573.54988"
           id="path3223"
           style="fill:none;stroke:#5a50a0;stroke-width:1px;stroke-linecap:butt;stroke-linejoin:miter;stroke-opacity:1"
           inkscape:connector-curvature="0" />
        <path
           d="m 269.58892,362.30619 175,175"
           id="path3225"
           style="fill:none;stroke:#5a50a0;stroke-width:1px;stroke-linecap:butt;stroke-linejoin:miter;stroke-opacity:1"
           inkscape:connector-curvature="0" />
        <path
           d="M 233.34523,449.80619 H 480.83261"
           id="path3227"
           style="fill:none;stroke:#5a50a0;stroke-width:1px;stroke-linecap:butt;stroke-linejoin:miter;stroke-opacity:1"
           inkscape:connector-curvature="0" />
        <path
           d="m 269.58892,537.30619 175,-175"
           id="path3229"
           style="fill:none;stroke:#5a50a0;stroke-width:1px;stroke-linecap:butt;stroke-linejoin:miter;stroke-opacity:1"
           inkscape:connector-curvature="0" />
      </g>
      <path
         d="m 378.70092,102.49838 a 43.5,43.5 0 0 1 -87,0 43.5,43.5 0 1 1 87,0 z"
         id="path3199"
         style="fill:#4d4d4d;fill-opacity:1;stroke:none"
         inkscape:connector-curvature="0" />
      <path
         d="m 427.35715,218.74659 a 43.5,43.5 0 0 1 -87,0 43.5,43.5 0 1 1 87,0 z"
         id="path3197"
         style="fill:#4d4d4d;fill-opacity:1;stroke:none"
         inkscape:connector-curvature="0" />
      <path
         d="m 379.50001,334.46087 a 43.5,43.5 0 0 1 -87,0 43.5,43.5 0 1 1 87,0 z"
         id="path3201"
         style="fill:#4d4d4d;fill-opacity:1;stroke:none"
         inkscape:connector-curvature="0" />
      <path
         d="m 284.9549,217.79772 a 66.203049,65.845907 0 0 1 -132.40609,0 66.203049,65.845907 0 1 1 132.40609,0 z"
         id="path3124"
         style="fill:#4d4d4d;fill-opacity:1;stroke:none"
         inkscape:connector-curvature="0" />
      <path
         d="m 97.000002,218.56801 a 43.5,43.5 0 0 1 -86.999999,0 43.5,43.5 0 1 1 86.999999,0 z"
         id="path3193"
         style="fill:#4d4d4d;fill-opacity:1;stroke:none"
         inkscape:connector-curvature="0" />
      <path
         d="m 72.85444,190.52971 c -2.62639,3.51281 -6.11136,9.25788 -11.375,11 -5.26364,1.74212 -8.66599,2.4428 -12.875,7.75 -6.14611,7.74971 -2.71896,15.48449 -0.0312,18.15625 0.47201,-0.63098 0.98845,-1.20379 1.53125,-1.65625 l 6.46875,-5.40625 c -1.02761,-4.30073 0.92619,-8.17333 1.625,-11.71875 0.0386,3.32423 -0.54555,6.89452 0.25,10.21875 l 6.65625,-4.9375 c -0.58826,-5.35746 0.99311,-7.50662 1.125,-8.1875 0.15958,-0.82378 -0.40164,3.28721 0.59375,5.875 2.25716,-3.12451 3.23597,-6.51463 5,-9.71875 -0.85078,3.11271 -0.93133,6.31127 -2.5625,9.3125 l -1.03125,1.46875 c 1.6687,0.50189 3.36255,-0.25517 5.03125,-0.40625 -1.86761,0.82144 -3.75739,2.1624 -5.625,2.25 l -7.5625,6.03125 c 2.07506,0.31692 6.20398,0.21094 9.125,0 l -1.6875,0.78125 c -5.0426,1.9191 -6.87305,1.25215 -9.5625,1.15625 l -6.125,5.5625 c -0.34224,0.4399 -0.69061,0.8734 -1.03125,1.3125 0.10465,0.0939 0.20326,0.17757 0.34375,0.28125 2.1643,1.59733 3.2731,3.02882 10.09375,3.75 6.82065,0.72118 14.67931,-9.37464 16.375,-14.875 1.69569,-5.50036 0.25,-16.5 0.25,-16.5 -0.57109,-4.27401 -2.65592,-8.71478 -5,-11.5 z m -22.0625,38.84375 c -0.48022,-0.43098 -0.70438,-0.79856 -1.5625,-1.34375 -0.21109,-0.15029 -0.42833,-0.36715 -0.65625,-0.59375 0.005,0.005 -0.005,0.0261 0,0.0312 -1.74163,2.32964 -2.98626,5.46372 -3.5625,6.625 -0.73339,1.47799 -1.03125,4.40625 -1.03125,4.40625 l -3.46875,-4.78125 -0.6875,1.0625 c -1.47496,-2.36617 -3.01411,-4.43758 -3.90625,-5.1875 l -4.875,-4.09375 c 2.66727,1.0274 6.29162,3.75777 8,6.125 l 1.46875,2.0625 0.34375,-0.53125 v -4.375 c 0,-2.93425 -3.10396,-8.2795 -10.40625,-8.1875 l -8.21875,0.0937 c 3.36053,5.22423 4.66577,11.67845 7.875,14.9375 3.20924,3.25905 7.35454,2.5623 9.375,-0.21875 l 0.34375,-0.59375 c 1.70134,2.72935 3.28558,5.838 3.625,7.75 0,0 -0.21175,0.30705 -0.125,4.375 0.0867,4.06794 0.64579,5.1522 3.375,4.96875 -0.74376,-5.33937 -0.67505,-10.66022 0.4375,-15.78125 0.5555,-2.55696 2.05195,-4.67829 3.65625,-6.75 z"
         id="path3276"
         style="fill:#ffffff;stroke:none"
         inkscape:connector-curvature="0" />
      <path
         d="m 145.21429,334.10373 a 43.499999,43.499999 0 0 1 -86.999997,0 43.499999,43.499999 0 1 1 86.999997,0 z"
         id="path3195"
         style="fill:#4d4d4d;fill-opacity:1;stroke:none"
         inkscape:connector-curvature="0" />
      <path
         d="m 262.15573,384.06889 a 43.5,43.5 0 0 1 -87,0 43.5,43.5 0 1 1 87,0 z"
         id="path3187"
         style="fill:#4d4d4d;fill-opacity:1;stroke:none"
         inkscape:connector-curvature="0" />
      <path
         d="m 218.65573,350.86577 c -18.34374,0 -33.21875,14.87501 -33.21875,33.21875 0,18.34374 14.87501,33.1875 33.21875,33.1875 18.34374,0 33.21875,-14.84376 33.21875,-33.1875 0,-18.34374 -14.87501,-33.21875 -33.21875,-33.21875 z m -0.5625,5.5625 v 28.1875 l 19.53125,19.34375 c -4.91718,4.6068 -11.54281,7.4375 -18.8125,7.4375 -15.18783,0 -27.5,-12.31217 -27.5,-27.5 0,-14.94513 11.92893,-27.08392 26.78125,-27.46875 z"
         id="path3146"
         style="fill:#ffffff;fill-opacity:1;stroke:none"
         inkscape:connector-curvature="0" />
      <path
         d="m 262.94819,53.499995 a 43.5,43.5 0 0 1 -87,0 43.5,43.5 0 1 1 87,0 z"
         id="path3046"
         style="fill:#4d4d4d;fill-opacity:1;stroke:none"
         inkscape:connector-curvature="0" />
      <path
         d="m 219.44819,26.06096 c -9.52933,0 -17.25,7.72067 -17.25,17.25 0,3.79908 1.29897,7.11585 2.9375,10.21875 l 14.3125,29.9375 14.5625,-30.0625 c 1.44912,-2.85037 2.6875,-6.29467 2.6875,-10.09375 0,-9.52933 -7.72067,-17.25 -17.25,-17.25 z m 0,7.90625 c 5.1605,0 9.34375,4.18325 9.34375,9.34375 0,5.1605 -4.18325,9.34375 -9.34375,9.34375 -5.1605,0 -9.34375,-4.18325 -9.34375,-9.34375 0,-5.1605 4.18325,-9.34375 9.34375,-9.34375 z"
         id="path3043"
         style="fill:#ffffff;fill-opacity:1;stroke:none"
         inkscape:connector-curvature="0" />
      <path
         d="m 145.01288,102.99746 a 43.499999,43.499999 0 0 1 -86.999997,0 43.499999,43.499999 0 1 1 86.999997,0 z"
         id="path3118"
         style="fill:#4d4d4d;fill-opacity:1;stroke:none"
         inkscape:connector-curvature="0" />
      <g
         transform="translate(-137.67055,-229.97029)"
         id="g3120">
        <path
           d="m 255.09375,313.5 c -7.95495,0.0998 -15.6804,2.53524 -15.8125,7.375 -0.26098,9.56175 -0.46837,19.12457 -0.625,28.6875 h 2.125 c -5.2e-4,0.0423 0,0.0825 0,0.125 0,3.06841 1.35757,5.53125 3.03125,5.53125 1.67368,0 3.03125,-2.46284 3.03125,-5.53125 0,-0.0425 5.2e-4,-0.0827 0,-0.125 h 16.5625 c -5.2e-4,0.0423 0,0.0825 0,0.125 0,3.06841 1.35757,5.53125 3.03125,5.53125 1.67368,0 3.03125,-2.46284 3.03125,-5.53125 0,-0.0425 5.2e-4,-0.0827 0,-0.125 h 2.25 c 0.0607,-9.83939 0.0476,-19.62312 -0.625,-29.4375 -0.30652,-4.4725 -8.04505,-6.72475 -16,-6.625 z m -7.71875,4.03125 h 15.65625 v 2.15625 H 247.375 Z m -5.03125,3.21875 h 26.21875 l 0.625,13.125 h -27.375 z m 1.46875,18.8125 c 1.04605,0 1.90625,0.8602 1.90625,1.90625 0,1.04605 -0.8602,1.90625 -1.90625,1.90625 -1.04605,0 -1.875,-0.8602 -1.875,-1.90625 0,-1.04605 0.82895,-1.90625 1.875,-1.90625 z m 22.53125,0 c 1.04605,0 1.875,0.8602 1.875,1.90625 0,1.04605 -0.82895,1.90625 -1.875,1.90625 -1.04605,0 -1.90625,-0.8602 -1.90625,-1.90625 0,-1.04605 0.8602,-1.90625 1.90625,-1.90625 z"
           id="rect3068"
           style="fill:#ffffff;fill-opacity:1;stroke:none"
           inkscape:connector-curvature="0" />
        <path
           d="m 218.6875,325.5625 v 2.96875 h -5.8125 c -2.17973,5.60396 -3.734,10.09774 -6.25,10.6875 v 10.34375 h 2.5 c 0.12912,2.74537 1.21971,4.90625 2.5625,4.90625 1.34279,0 2.43338,-2.16088 2.5625,-4.90625 h 16 c 0.12912,2.74537 1.21971,4.90625 2.5625,4.90625 1.34279,0 2.43338,-2.16088 2.5625,-4.90625 h 2.34375 v -10.34375 c -2.46149,-1.46623 -4.28148,-4.81752 -6.40625,-10.6875 h -5.40625 v -2.96875 z m -4.40625,5.5 h 15.53125 l 1.90625,6.5 H 212.5 Z m -2.65625,9.03125 c 1.04605,0 1.90625,0.82895 1.90625,1.875 0,1.04605 -0.8602,1.90625 -1.90625,1.90625 -1.04605,0 -1.90625,-0.8602 -1.90625,-1.90625 0,-1.04605 0.8602,-1.875 1.90625,-1.875 z m 21,0 c 1.04605,0 1.875,0.82895 1.875,1.875 0,1.04605 -0.82895,1.90625 -1.875,1.90625 -1.04605,0 -1.90625,-0.8602 -1.90625,-1.90625 0,-1.04605 0.8602,-1.875 1.90625,-1.875 z"
           id="rect3092"
           style="fill:#ffffff;fill-opacity:1;stroke:none"
           inkscape:connector-curvature="0" />
      </g>
      <path
         d="m 210.81224,232.72513 v -2.89074 c -1e-5,-1.32815 0.13886,-2.52612 0.41662,-3.59389 0.30551,-1.09376 0.74991,-2.12245 1.33319,-3.08606 0.61103,-0.98959 1.38873,-1.94015 2.33308,-2.85168 0.94432,-0.9375 2.08308,-1.90108 3.41629,-2.89074 1.16652,-0.85937 2.15253,-1.62763 2.95801,-2.30478 0.80544,-0.67706 1.45815,-1.34116 1.95812,-1.99226 0.49992,-0.67707 0.86099,-1.38022 1.08321,-2.10945 0.22218,-0.72917 0.33328,-1.57554 0.3333,-2.53918 -2e-5,-1.48438 -0.54163,-2.70839 -1.62482,-3.67201 -1.05547,-0.96354 -2.68028,-1.44532 -4.87447,-1.44537 -1.91647,5e-5 -3.98568,0.37766 -6.20765,1.13285 -2.19422,0.75529 -4.47174,1.6798 -6.83259,2.77356 l -4.24953,-8.63316 c 1.19431,-0.65102 2.48583,-1.26302 3.87457,-1.83601 1.41651,-0.59893 2.87468,-1.11978 4.37452,-1.56256 1.5276,-0.46872 3.0691,-0.83332 4.6245,-1.0938 1.55536,-0.26037 3.08298,-0.39058 4.58283,-0.39064 2.83301,6e-5 5.38827,0.32559 7.66583,0.9766 2.27749,0.62508 4.20784,1.5496 5.79103,2.77354 1.58313,1.22407 2.79132,2.7085 3.6246,4.45331 0.86098,1.74491 1.29149,3.73717 1.29153,5.9768 -4e-5,1.64073 -0.19446,3.11214 -0.58327,4.41424 -0.38888,1.27613 -0.97215,2.47409 -1.7498,3.59389 -0.74996,1.09383 -1.70818,2.16158 -2.87469,3.20326 -1.1388,1.0157 -2.47199,2.09646 -3.99956,3.24231 -1.16657,0.85943 -2.1248,1.61467 -2.87469,2.26571 -0.72217,0.62506 -1.29155,1.22403 -1.70815,1.79695 -0.41664,0.57296 -0.70828,1.17195 -0.87491,1.79695 -0.13889,0.59901 -0.20833,1.31518 -0.20831,2.14852 v 2.34384 h -10.99879"
         id="path4113"
         style="font-style:normal;font-variant:normal;font-weight:bold;font-stretch:normal;font-size:82.62076569px;line-height:125%;font-family:'Droid Sans';-inkscape-font-specification:'Droid Sans Bold';letter-spacing:0px;word-spacing:0px;fill:#ffffff;fill-opacity:1;stroke:none"
         inkscape:connector-curvature="0" />
      <g
         aria-label="Transport"
         style="font-style:normal;font-weight:normal;font-size:16px;line-height:0%;font-family:sans-serif;letter-spacing:0px;word-spacing:0px;fill:#1d193d;fill-opacity:1;stroke:none"
         id="text3130">
        <path
           d="m 75.31073,163.46333 v -8.83886 h -3.301758 v -1.18262 h 7.94336 v 1.18262 h -3.31543 v 8.83886 z"
           style="font-style:normal;font-variant:normal;font-weight:normal;font-stretch:normal;font-size:14px;font-family:'Liberation Sans';-inkscape-font-specification:'Liberation Sans';fill:#1d193d;fill-opacity:1"
           id="path1008"
           inkscape:connector-curvature="0" />
        <path
           d="m 80.629089,163.46333 v -7.25976 h 1.107422 v 1.10058 q 0.423828,-0.77246 0.779297,-1.01855 0.362305,-0.24609 0.792969,-0.24609 0.62207,0 1.264648,0.39648 l -0.423828,1.1416 q -0.451172,-0.2666 -0.902344,-0.2666 -0.40332,0 -0.724609,0.24609 -0.321289,0.23926 -0.458008,0.66993 -0.205078,0.65625 -0.205078,1.43554 v 3.80078 z"
           style="font-style:normal;font-variant:normal;font-weight:normal;font-stretch:normal;font-size:14px;font-family:'Liberation Sans';-inkscape-font-specification:'Liberation Sans';fill:#1d193d;fill-opacity:1"
           id="path1010"
           inkscape:connector-curvature="0" />
        <path
           d="m 90.055847,162.56783 q -0.683594,0.58105 -1.319336,0.82031 -0.628906,0.23926 -1.353515,0.23926 -1.196289,0 -1.838868,-0.58106 -0.642578,-0.58789 -0.642578,-1.49707 0,-0.5332 0.239258,-0.9707 0.246094,-0.44434 0.635742,-0.71094 0.396485,-0.2666 0.888672,-0.40332 0.362305,-0.0957 1.09375,-0.18457 1.490235,-0.17773 2.194336,-0.42383 0.0068,-0.25293 0.0068,-0.32129 0,-0.75195 -0.348633,-1.05957 -0.471679,-0.41699 -1.401367,-0.41699 -0.868164,0 -1.285156,0.30762 -0.410156,0.30078 -0.608399,1.07324 l -1.203125,-0.16406 q 0.164063,-0.77246 0.540039,-1.24414 0.375977,-0.47852 1.086914,-0.73145 0.710938,-0.25976 1.647461,-0.25976 0.929688,0 1.510743,0.21875 0.581054,0.21875 0.854492,0.55371 0.273437,0.32812 0.382812,0.83398 0.06152,0.31445 0.06152,1.13477 v 1.64062 q 0,1.71582 0.07519,2.17383 0.08203,0.45117 0.314453,0.86816 h -1.285156 q -0.191406,-0.38281 -0.246094,-0.8955 z m -0.102539,-2.74805 q -0.669922,0.27344 -2.009766,0.46484 -0.758789,0.10938 -1.073242,0.2461 -0.314453,0.13671 -0.485351,0.40332 -0.170899,0.25976 -0.170899,0.58105 0,0.49219 0.369141,0.82031 0.375976,0.32813 1.09375,0.32813 0.710937,0 1.264648,-0.30762 0.553711,-0.31445 0.813477,-0.85449 0.198242,-0.41699 0.198242,-1.23047 z"
           style="font-style:normal;font-variant:normal;font-weight:normal;font-stretch:normal;font-size:14px;font-family:'Liberation Sans';-inkscape-font-specification:'Liberation Sans';fill:#1d193d;fill-opacity:1"
           id="path1012"
           inkscape:connector-curvature="0" />
        <path
           d="m 93.111511,163.46333 v -7.25976 h 1.107422 v 1.03222 q 0.799805,-1.19628 2.310547,-1.19628 0.65625,0 1.203125,0.23925 0.553711,0.23242 0.827148,0.61524 0.273438,0.38281 0.382813,0.90918 0.06836,0.34179 0.06836,1.19629 v 4.46386 h -1.230468 v -4.41601 q 0,-0.75196 -0.143555,-1.1211 -0.143555,-0.37597 -0.512695,-0.59472 -0.362305,-0.22559 -0.854493,-0.22559 -0.786132,0 -1.360351,0.49902 -0.567383,0.49903 -0.567383,1.89356 v 3.96484 z"
           style="font-style:normal;font-variant:normal;font-weight:normal;font-stretch:normal;font-size:14px;font-family:'Liberation Sans';-inkscape-font-specification:'Liberation Sans';fill:#1d193d;fill-opacity:1"
           id="path1014"
           inkscape:connector-curvature="0" />
        <path
           d="m 100.41229,161.29634 1.2168,-0.19141 q 0.10254,0.73145 0.56738,1.1211 0.47168,0.38965 1.3125,0.38965 0.84766,0 1.25781,-0.3418 0.41016,-0.34863 0.41016,-0.81348 0,-0.41699 -0.3623,-0.65625 -0.25293,-0.16406 -1.25782,-0.41699 -1.35351,-0.3418 -1.87988,-0.58789 -0.51953,-0.25293 -0.79297,-0.69043 -0.2666,-0.44433 -0.2666,-0.97754 0,-0.48535 0.21875,-0.89551 0.22559,-0.41699 0.6084,-0.69043 0.28711,-0.21191 0.7793,-0.35546 0.49902,-0.15039 1.0664,-0.15039 0.85449,0 1.49707,0.24609 0.64942,0.24609 0.95703,0.66992 0.30762,0.41699 0.42383,1.12109 l -1.20312,0.16407 q -0.082,-0.56055 -0.47852,-0.875 -0.38965,-0.31446 -1.10742,-0.31446 -0.84766,0 -1.20996,0.28028 -0.36231,0.28027 -0.36231,0.65625 0,0.23926 0.15039,0.43066 0.15039,0.19824 0.47168,0.32813 0.18457,0.0684 1.08692,0.31445 1.30566,0.34863 1.81836,0.57422 0.51953,0.21875 0.81347,0.64258 0.29395,0.42382 0.29395,1.05273 0,0.61524 -0.36231,1.16211 -0.35546,0.54004 -1.03222,0.84082 -0.67676,0.29395 -1.53125,0.29395 -1.41504,0 -2.16016,-0.58789 -0.73828,-0.5879 -0.94336,-1.74317 z"
           style="font-style:normal;font-variant:normal;font-weight:normal;font-stretch:normal;font-size:14px;font-family:'Liberation Sans';-inkscape-font-specification:'Liberation Sans';fill:#1d193d;fill-opacity:1"
           id="path1016"
           inkscape:connector-curvature="0" />
        <path
           d="m 107.90448,166.24556 v -10.04199 h 1.12109 v 0.94336 q 0.39649,-0.55371 0.89551,-0.82715 0.49902,-0.28027 1.20996,-0.28027 0.92969,0 1.64063,0.47851 0.71093,0.47852 1.07324,1.35352 0.3623,0.86816 0.3623,1.90722 0,1.11426 -0.40332,2.00977 -0.39648,0.88867 -1.16211,1.36719 -0.75878,0.47168 -1.5996,0.47168 -0.61524,0 -1.10743,-0.25977 -0.48535,-0.25977 -0.7998,-0.65625 v 3.53418 z m 1.11426,-6.37109 q 0,1.40136 0.56738,2.07129 0.56738,0.66992 1.37402,0.66992 0.82032,0 1.40137,-0.69043 0.58789,-0.69727 0.58789,-2.15332 0,-1.3877 -0.57422,-2.07813 -0.56738,-0.69043 -1.36035,-0.69043 -0.78613,0 -1.39453,0.73828 -0.60156,0.73145 -0.60156,2.13282 z"
           style="font-style:normal;font-variant:normal;font-weight:normal;font-stretch:normal;font-size:14px;font-family:'Liberation Sans';-inkscape-font-specification:'Liberation Sans';fill:#1d193d;fill-opacity:1"
           id="path1018"
           inkscape:connector-curvature="0" />
        <path
           d="m 115.23944,159.83345 q 0,-2.0166 1.12109,-2.9873 0.93653,-0.80664 2.28321,-0.80664 1.49707,0 2.44726,0.98437 0.9502,0.97754 0.9502,2.70703 0,1.40137 -0.42383,2.20801 -0.41699,0.7998 -1.22363,1.24414 -0.79981,0.44434 -1.75,0.44434 -1.52442,0 -2.46778,-0.97754 -0.93652,-0.97754 -0.93652,-2.81641 z m 1.26465,0 q 0,1.39453 0.6084,2.0918 0.6084,0.69043 1.53125,0.69043 0.91601,0 1.52441,-0.69727 0.6084,-0.69726 0.6084,-2.12598 0,-1.34667 -0.61523,-2.0371 -0.6084,-0.69727 -1.51758,-0.69727 -0.92285,0 -1.53125,0.69043 -0.6084,0.69043 -0.6084,2.08496 z"
           style="font-style:normal;font-variant:normal;font-weight:normal;font-stretch:normal;font-size:14px;font-family:'Liberation Sans';-inkscape-font-specification:'Liberation Sans';fill:#1d193d;fill-opacity:1"
           id="path1020"
           inkscape:connector-curvature="0" />
        <path
           d="m 123.47675,163.46333 v -7.25976 h 1.10742 v 1.10058 q 0.42383,-0.77246 0.77929,-1.01855 0.36231,-0.24609 0.79297,-0.24609 0.62207,0 1.26465,0.39648 l -0.42383,1.1416 q -0.45117,-0.2666 -0.90234,-0.2666 -0.40332,0 -0.72461,0.24609 -0.32129,0.23926 -0.45801,0.66993 -0.20508,0.65625 -0.20508,1.43554 v 3.80078 z"
           style="font-style:normal;font-variant:normal;font-weight:normal;font-stretch:normal;font-size:14px;font-family:'Liberation Sans';-inkscape-font-specification:'Liberation Sans';fill:#1d193d;fill-opacity:1"
           id="path1022"
           inkscape:connector-curvature="0" />
        <path
           d="m 130.85272,162.36275 0.17774,1.08691 q -0.51953,0.10938 -0.92969,0.10938 -0.66992,0 -1.03906,-0.21192 -0.36914,-0.21191 -0.51953,-0.55371 -0.1504,-0.34863 -0.1504,-1.45605 v -4.17676 h -0.90234 v -0.95703 h 0.90234 v -1.79785 l 1.22364,-0.73829 v 2.53614 h 1.2373 v 0.95703 h -1.2373 v 4.24512 q 0,0.52636 0.0615,0.67675 0.0684,0.15039 0.21191,0.23926 0.1504,0.0889 0.42383,0.0889 0.20508,0 0.54004,-0.0478 z"
           style="font-style:normal;font-variant:normal;font-weight:normal;font-stretch:normal;font-size:14px;font-family:'Liberation Sans';-inkscape-font-specification:'Liberation Sans';fill:#1d193d;fill-opacity:1"
           id="path1024"
           inkscape:connector-curvature="0" />
      </g>
      <g
         aria-label="Geographical"
         style="font-style:normal;font-weight:normal;font-size:16px;line-height:0%;font-family:sans-serif;letter-spacing:0px;word-spacing:0px;fill:#1d193d;fill-opacity:1;stroke:none"
         id="text3134">
        <path
           d="m 183.66548,110.24696 v -1.17578 l 4.24512,-0.007 v 3.71875 q -0.97754,0.77929 -2.0166,1.17578 -1.03907,0.38965 -2.13282,0.38965 -1.47656,0 -2.68652,-0.62891 -1.20312,-0.63574 -1.81836,-1.83203 -0.61523,-1.19629 -0.61523,-2.67285 0,-1.46289 0.6084,-2.72754 0.61523,-1.27149 1.76367,-1.88672 1.14844,-0.61524 2.64551,-0.61524 1.08691,0 1.96191,0.35547 0.88184,0.34864 1.38086,0.97754 0.49902,0.62891 0.75879,1.64063 l -1.19629,0.32812 q -0.22559,-0.76562 -0.56055,-1.20312 -0.33496,-0.4375 -0.95703,-0.69727 -0.62207,-0.2666 -1.38086,-0.2666 -0.90918,0 -1.57226,0.28027 -0.66309,0.27344 -1.07325,0.72461 -0.40332,0.45118 -0.6289,0.99121 -0.38281,0.92969 -0.38281,2.01661 0,1.33984 0.458,2.24218 0.46485,0.90235 1.34668,1.33985 0.88184,0.4375 1.87305,0.4375 0.86133,0 1.68164,-0.32813 0.82031,-0.33496 1.24414,-0.71094 v -1.86621 z"
           style="font-style:normal;font-variant:normal;font-weight:normal;font-stretch:normal;font-size:14px;font-family:'Liberation Sans';-inkscape-font-specification:'Liberation Sans';text-align:center;text-anchor:middle;fill:#1d193d;fill-opacity:1"
           id="path1027"
           inkscape:connector-curvature="0" />
        <path
           d="m 194.67134,111.83974 1.27149,0.15722 q -0.30079,1.11426 -1.11426,1.7295 -0.81348,0.61523 -2.07813,0.61523 -1.59277,0 -2.52929,-0.97754 -0.92969,-0.98437 -0.92969,-2.75488 0,-1.83203 0.94336,-2.84375 0.94336,-1.01172 2.44726,-1.01172 1.45606,0 2.37891,0.99121 0.92285,0.99121 0.92285,2.78906 0,0.10938 -0.007,0.32813 h -5.41407 q 0.0684,1.19629 0.67676,1.83203 0.6084,0.63574 1.51758,0.63574 0.67676,0 1.15527,-0.35547 0.47852,-0.35547 0.75879,-1.13476 z m -4.04004,-1.98926 h 4.05371 q -0.082,-0.91602 -0.46484,-1.37402 -0.58789,-0.71094 -1.52441,-0.71094 -0.84766,0 -1.42872,0.56738 -0.57421,0.56738 -0.63574,1.51758 z"
           style="font-style:normal;font-variant:normal;font-weight:normal;font-stretch:normal;font-size:14px;font-family:'Liberation Sans';-inkscape-font-specification:'Liberation Sans';text-align:center;text-anchor:middle;fill:#1d193d;fill-opacity:1"
           id="path1029"
           inkscape:connector-curvature="0" />
        <path
           d="m 197.03658,110.54774 q 0,-2.0166 1.12109,-2.9873 0.93652,-0.80664 2.2832,-0.80664 1.49707,0 2.44727,0.98437 0.95019,0.97754 0.95019,2.70704 0,1.40136 -0.42382,2.208 -0.417,0.79981 -1.22364,1.24414 -0.7998,0.44434 -1.75,0.44434 -1.52441,0 -2.46777,-0.97754 -0.93652,-0.97754 -0.93652,-2.81641 z m 1.26464,0 q 0,1.39454 0.6084,2.0918 0.6084,0.69043 1.53125,0.69043 0.91602,0 1.52442,-0.69726 0.60839,-0.69727 0.60839,-2.12598 0,-1.34668 -0.61523,-2.03711 -0.6084,-0.69727 -1.51758,-0.69727 -0.92285,0 -1.53125,0.69043 -0.6084,0.69043 -0.6084,2.08496 z"
           style="font-style:normal;font-variant:normal;font-weight:normal;font-stretch:normal;font-size:14px;font-family:'Liberation Sans';-inkscape-font-specification:'Liberation Sans';text-align:center;text-anchor:middle;fill:#1d193d;fill-opacity:1"
           id="path1031"
           inkscape:connector-curvature="0" />
        <path
           d="m 205.06197,114.77919 1.19629,0.17773 q 0.0752,0.55372 0.41699,0.80665 0.45801,0.34179 1.25097,0.34179 0.8545,0 1.31934,-0.34179 0.46484,-0.3418 0.62891,-0.95704 0.0957,-0.37597 0.0889,-1.5791 -0.80664,0.9502 -2.00976,0.9502 -1.49707,0 -2.31739,-1.08008 -0.82031,-1.08008 -0.82031,-2.59082 0,-1.03906 0.37598,-1.91406 0.37598,-0.88184 1.08691,-1.36035 0.71778,-0.47852 1.68164,-0.47852 1.28516,0 2.11914,1.03906 v -0.875 h 1.13477 v 6.27539 q 0,1.69532 -0.34863,2.39942 -0.3418,0.71093 -1.09375,1.12109 -0.74512,0.41016 -1.83887,0.41016 -1.29883,0 -2.09863,-0.58789 -0.79981,-0.58106 -0.77246,-1.75684 z m 1.01855,-4.36133 q 0,1.42871 0.56738,2.08496 0.56739,0.65625 1.42188,0.65625 0.84765,0 1.42187,-0.64941 0.57422,-0.65625 0.57422,-2.05078 0,-1.33301 -0.59472,-2.00977 -0.58789,-0.67676 -1.42188,-0.67676 -0.82031,0 -1.39453,0.66993 -0.57422,0.66308 -0.57422,1.97558 z"
           style="font-style:normal;font-variant:normal;font-weight:normal;font-stretch:normal;font-size:14px;font-family:'Liberation Sans';-inkscape-font-specification:'Liberation Sans';text-align:center;text-anchor:middle;fill:#1d193d;fill-opacity:1"
           id="path1033"
           inkscape:connector-curvature="0" />
        <path
           d="m 213.06685,114.17763 v -7.25977 h 1.10742 v 1.10059 q 0.42383,-0.77246 0.7793,-1.01856 0.3623,-0.24609 0.79297,-0.24609 0.62207,0 1.26464,0.39648 l -0.42382,1.14161 q -0.45118,-0.26661 -0.90235,-0.26661 -0.40332,0 -0.72461,0.2461 -0.32129,0.23926 -0.458,0.66992 -0.20508,0.65625 -0.20508,1.43555 v 3.80078 z"
           style="font-style:normal;font-variant:normal;font-weight:normal;font-stretch:normal;font-size:14px;font-family:'Liberation Sans';-inkscape-font-specification:'Liberation Sans';text-align:center;text-anchor:middle;fill:#1d193d;fill-opacity:1"
           id="path1035"
           inkscape:connector-curvature="0" />
        <path
           d="m 222.49361,113.28212 q -0.6836,0.58105 -1.31934,0.82031 -0.62891,0.23926 -1.35351,0.23926 -1.19629,0 -1.83887,-0.58105 -0.64258,-0.5879 -0.64258,-1.49707 0,-0.53321 0.23926,-0.97071 0.24609,-0.44433 0.63574,-0.71094 0.39648,-0.2666 0.88867,-0.40332 0.36231,-0.0957 1.09375,-0.18457 1.49024,-0.17773 2.19434,-0.42382 0.007,-0.25293 0.007,-0.32129 0,-0.75196 -0.34863,-1.05957 -0.47168,-0.417 -1.40137,-0.417 -0.86816,0 -1.28515,0.30762 -0.41016,0.30078 -0.6084,1.07324 l -1.20313,-0.16406 q 0.16407,-0.77246 0.54004,-1.24414 0.37598,-0.47852 1.08692,-0.73144 0.71093,-0.25977 1.64746,-0.25977 0.92969,0 1.51074,0.21875 0.58105,0.21875 0.85449,0.55371 0.27344,0.32813 0.38281,0.83398 0.0615,0.31446 0.0615,1.13477 v 1.64063 q 0,1.71582 0.0752,2.17382 0.082,0.45118 0.31446,0.86817 h -1.28516 q -0.19141,-0.38281 -0.24609,-0.89551 z m -0.10254,-2.74805 q -0.66992,0.27344 -2.00977,0.46485 -0.75879,0.10937 -1.07324,0.24609 -0.31445,0.13672 -0.48535,0.40332 -0.1709,0.25977 -0.1709,0.58106 0,0.49218 0.36914,0.82031 0.37598,0.32812 1.09375,0.32812 0.71094,0 1.26465,-0.30761 0.55371,-0.31446 0.81348,-0.8545 0.19824,-0.41699 0.19824,-1.23047 z"
           style="font-style:normal;font-variant:normal;font-weight:normal;font-stretch:normal;font-size:14px;font-family:'Liberation Sans';-inkscape-font-specification:'Liberation Sans';text-align:center;text-anchor:middle;fill:#1d193d;fill-opacity:1"
           id="path1037"
           inkscape:connector-curvature="0" />
        <path
           d="m 225.54927,116.95985 v -10.04199 h 1.12109 v 0.94336 q 0.39649,-0.55371 0.89551,-0.82715 0.49903,-0.28027 1.20996,-0.28027 0.92969,0 1.64063,0.47852 0.71094,0.47851 1.07324,1.35351 0.36231,0.86816 0.36231,1.90723 0,1.11426 -0.40333,2.00976 -0.39648,0.88867 -1.1621,1.36719 -0.75879,0.47168 -1.59961,0.47168 -0.61524,0 -1.10743,-0.25977 -0.48535,-0.25976 -0.7998,-0.65625 v 3.53418 z m 1.11426,-6.37109 q 0,1.40137 0.56738,2.07129 0.56738,0.66992 1.37402,0.66992 0.82032,0 1.40137,-0.69043 0.58789,-0.69726 0.58789,-2.15332 0,-1.38769 -0.57422,-2.07812 -0.56738,-0.69043 -1.36035,-0.69043 -0.78613,0 -1.39453,0.73828 -0.60156,0.73144 -0.60156,2.13281 z"
           style="font-style:normal;font-variant:normal;font-weight:normal;font-stretch:normal;font-size:14px;font-family:'Liberation Sans';-inkscape-font-specification:'Liberation Sans';text-align:center;text-anchor:middle;fill:#1d193d;fill-opacity:1"
           id="path1039"
           inkscape:connector-curvature="0" />
        <path
           d="m 233.34224,114.17763 v -10.02149 h 1.23047 v 3.59571 q 0.86133,-0.99805 2.17383,-0.99805 0.80664,0 1.40136,0.32129 0.59473,0.31445 0.84766,0.875 0.25977,0.56055 0.25977,1.62695 v 4.60059 h -1.23047 v -4.60059 q 0,-0.92285 -0.40332,-1.33984 -0.39649,-0.42383 -1.12793,-0.42383 -0.54688,0 -1.03223,0.28711 -0.47852,0.28027 -0.68359,0.76562 -0.20508,0.48536 -0.20508,1.33985 v 3.97168 z"
           style="font-style:normal;font-variant:normal;font-weight:normal;font-stretch:normal;font-size:14px;font-family:'Liberation Sans';-inkscape-font-specification:'Liberation Sans';text-align:center;text-anchor:middle;fill:#1d193d;fill-opacity:1"
           id="path1041"
           inkscape:connector-curvature="0" />
        <path
           d="m 241.14204,105.57118 v -1.41504 h 1.23047 v 1.41504 z m 0,8.60645 v -7.25977 h 1.23047 v 7.25977 z"
           style="font-style:normal;font-variant:normal;font-weight:normal;font-stretch:normal;font-size:14px;font-family:'Liberation Sans';-inkscape-font-specification:'Liberation Sans';text-align:center;text-anchor:middle;fill:#1d193d;fill-opacity:1"
           id="path1043"
           inkscape:connector-curvature="0" />
        <path
           d="m 248.9897,111.51845 1.20996,0.15722 q -0.19824,1.25098 -1.01855,1.96192 -0.81348,0.7041 -2.00293,0.7041 -1.49024,0 -2.39942,-0.9707 -0.90234,-0.97754 -0.90234,-2.7959 0,-1.17578 0.38965,-2.05762 0.38965,-0.88183 1.18261,-1.31933 0.79981,-0.44434 1.73633,-0.44434 1.18262,0 1.93457,0.60156 0.75196,0.59473 0.96387,1.69531 l -1.19629,0.18457 q -0.1709,-0.73144 -0.6084,-1.10058 -0.43066,-0.36914 -1.0459,-0.36914 -0.92968,0 -1.51074,0.66992 -0.58105,0.66309 -0.58105,2.10547 0,1.46289 0.56054,2.12598 0.56055,0.66308 1.4629,0.66308 0.7246,0 1.20996,-0.44433 0.48535,-0.44434 0.61523,-1.36719 z"
           style="font-style:normal;font-variant:normal;font-weight:normal;font-stretch:normal;font-size:14px;font-family:'Liberation Sans';-inkscape-font-specification:'Liberation Sans';text-align:center;text-anchor:middle;fill:#1d193d;fill-opacity:1"
           id="path1045"
           inkscape:connector-curvature="0" />
        <path
           d="m 255.9897,113.28212 q -0.68359,0.58105 -1.31934,0.82031 -0.6289,0.23926 -1.35351,0.23926 -1.19629,0 -1.83887,-0.58105 -0.64258,-0.5879 -0.64258,-1.49707 0,-0.53321 0.23926,-0.97071 0.2461,-0.44433 0.63574,-0.71094 0.39649,-0.2666 0.88868,-0.40332 0.3623,-0.0957 1.09375,-0.18457 1.49023,-0.17773 2.19433,-0.42382 0.007,-0.25293 0.007,-0.32129 0,-0.75196 -0.34864,-1.05957 -0.47168,-0.417 -1.40136,-0.417 -0.86817,0 -1.28516,0.30762 -0.41016,0.30078 -0.6084,1.07324 l -1.20312,-0.16406 q 0.16406,-0.77246 0.54004,-1.24414 0.37597,-0.47852 1.08691,-0.73144 0.71094,-0.25977 1.64746,-0.25977 0.92969,0 1.51074,0.21875 0.58106,0.21875 0.8545,0.55371 0.27343,0.32813 0.38281,0.83398 0.0615,0.31446 0.0615,1.13477 v 1.64063 q 0,1.71582 0.0752,2.17382 0.082,0.45118 0.31445,0.86817 h -1.28516 q -0.1914,-0.38281 -0.24609,-0.89551 z m -0.10254,-2.74805 q -0.66992,0.27344 -2.00976,0.46485 -0.75879,0.10937 -1.07325,0.24609 -0.31445,0.13672 -0.48535,0.40332 -0.1709,0.25977 -0.1709,0.58106 0,0.49218 0.36914,0.82031 0.37598,0.32812 1.09375,0.32812 0.71094,0 1.26465,-0.30761 0.55371,-0.31446 0.81348,-0.8545 0.19824,-0.41699 0.19824,-1.23047 z"
           style="font-style:normal;font-variant:normal;font-weight:normal;font-stretch:normal;font-size:14px;font-family:'Liberation Sans';-inkscape-font-specification:'Liberation Sans';text-align:center;text-anchor:middle;fill:#1d193d;fill-opacity:1"
           id="path1047"
           inkscape:connector-curvature="0" />
        <path
           d="m 259.01802,114.17763 v -10.02149 h 1.23047 v 10.02149 z"
           style="font-style:normal;font-variant:normal;font-weight:normal;font-stretch:normal;font-size:14px;font-family:'Liberation Sans';-inkscape-font-specification:'Liberation Sans';text-align:center;text-anchor:middle;fill:#1d193d;fill-opacity:1"
           id="path1049"
           inkscape:connector-curvature="0" />
      </g>
      <g
         aria-label="Types of Data"
         style="font-style:normal;font-weight:normal;font-size:16px;line-height:0%;font-family:sans-serif;letter-spacing:0px;word-spacing:0px;fill:#1d193d;fill-opacity:1;stroke:none"
         id="text3140">
        <path
           d="m 179.02481,303.8205 v -8.83887 h -3.30176 v -1.18262 h 7.94336 v 1.18262 h -3.31543 v 8.83887 z"
           style="font-style:normal;font-variant:normal;font-weight:normal;font-stretch:normal;font-size:14px;font-family:'Liberation Sans';-inkscape-font-specification:'Liberation Sans';fill:#1d193d;fill-opacity:1"
           id="path1053"
           inkscape:connector-curvature="0" />
        <path
           d="m 184.05606,306.61639 -0.13672,-1.15527 q 0.40332,0.10938 0.7041,0.10938 0.41016,0 0.65625,-0.13672 0.2461,-0.13672 0.40332,-0.38282 0.11621,-0.18457 0.37598,-0.91601 0.0342,-0.10254 0.10938,-0.30078 l -2.75489,-7.27344 h 1.32617 l 1.51075,4.2041 q 0.29394,0.79981 0.52636,1.68164 0.21192,-0.84765 0.50586,-1.65429 l 1.55176,-4.23145 h 1.23047 l -2.76172,7.38281 q -0.44433,1.19629 -0.69043,1.64746 -0.32812,0.6084 -0.75195,0.88868 -0.42383,0.2871 -1.01172,0.2871 -0.35547,0 -0.79297,-0.15039 z"
           style="font-style:normal;font-variant:normal;font-weight:normal;font-stretch:normal;font-size:14px;font-family:'Liberation Sans';-inkscape-font-specification:'Liberation Sans';fill:#1d193d;fill-opacity:1"
           id="path1055"
           inkscape:connector-curvature="0" />
        <path
           d="m 191.11075,306.60272 v -10.04199 h 1.12109 v 0.94336 q 0.39649,-0.55371 0.89551,-0.82715 0.49902,-0.28027 1.20996,-0.28027 0.92969,0 1.64063,0.47851 0.71093,0.47852 1.07324,1.35352 0.3623,0.86816 0.3623,1.90723 0,1.11425 -0.40332,2.00976 -0.39648,0.88867 -1.16211,1.36719 -0.75879,0.47168 -1.59961,0.47168 -0.61523,0 -1.10742,-0.25977 -0.48535,-0.25976 -0.7998,-0.65625 v 3.53418 z m 1.11426,-6.37109 q 0,1.40137 0.56738,2.07129 0.56738,0.66992 1.37402,0.66992 0.82031,0 1.40137,-0.69043 0.58789,-0.69727 0.58789,-2.15332 0,-1.3877 -0.57422,-2.07813 -0.56738,-0.69043 -1.36035,-0.69043 -0.78613,0 -1.39453,0.73829 -0.60156,0.73144 -0.60156,2.13281 z"
           style="font-style:normal;font-variant:normal;font-weight:normal;font-stretch:normal;font-size:14px;font-family:'Liberation Sans';-inkscape-font-specification:'Liberation Sans';fill:#1d193d;fill-opacity:1"
           id="path1057"
           inkscape:connector-curvature="0" />
        <path
           d="m 203.87344,301.4826 1.27149,0.15723 q -0.30078,1.11426 -1.11426,1.72949 -0.81348,0.61524 -2.07812,0.61524 -1.59278,0 -2.5293,-0.97754 -0.92969,-0.98438 -0.92969,-2.75488 0,-1.83204 0.94336,-2.84375 0.94336,-1.01172 2.44727,-1.01172 1.45605,0 2.3789,0.99121 0.92285,0.99121 0.92285,2.78906 0,0.10938 -0.007,0.32813 h -5.41406 q 0.0684,1.19628 0.67675,1.83203 0.6084,0.63574 1.51758,0.63574 0.67676,0 1.15527,-0.35547 0.47852,-0.35547 0.75879,-1.13477 z m -4.04004,-1.98925 h 4.05372 q -0.082,-0.91602 -0.46485,-1.37403 -0.58789,-0.71093 -1.52441,-0.71093 -0.84766,0 -1.42871,0.56738 -0.57422,0.56738 -0.63575,1.51758 z"
           style="font-style:normal;font-variant:normal;font-weight:normal;font-stretch:normal;font-size:14px;font-family:'Liberation Sans';-inkscape-font-specification:'Liberation Sans';fill:#1d193d;fill-opacity:1"
           id="path1059"
           inkscape:connector-curvature="0" />
        <path
           d="m 206.2045,301.6535 1.2168,-0.1914 q 0.10253,0.73144 0.56738,1.12109 0.47168,0.38965 1.3125,0.38965 0.84765,0 1.25781,-0.3418 0.41016,-0.34863 0.41016,-0.81347 0,-0.417 -0.36231,-0.65625 -0.25293,-0.16407 -1.25781,-0.417 -1.35352,-0.34179 -1.87988,-0.58789 -0.51953,-0.25293 -0.79297,-0.69043 -0.2666,-0.44433 -0.2666,-0.97754 0,-0.48535 0.21875,-0.8955 0.22558,-0.417 0.60839,-0.69043 0.28711,-0.21192 0.7793,-0.35547 0.49903,-0.15039 1.06641,-0.15039 0.85449,0 1.49707,0.24609 0.64941,0.24609 0.95703,0.66992 0.30762,0.417 0.42383,1.1211 l -1.20313,0.16406 q -0.082,-0.56055 -0.47851,-0.875 -0.38965,-0.31445 -1.10742,-0.31445 -0.84766,0 -1.20997,0.28027 -0.3623,0.28027 -0.3623,0.65625 0,0.23926 0.15039,0.43066 0.15039,0.19825 0.47168,0.32813 0.18457,0.0684 1.08691,0.31445 1.30567,0.34863 1.81836,0.57422 0.51953,0.21875 0.81348,0.64258 0.29395,0.42383 0.29395,1.05273 0,0.61524 -0.36231,1.16211 -0.35547,0.54004 -1.03223,0.84082 -0.67675,0.29395 -1.53125,0.29395 -1.41504,0 -2.16015,-0.58789 -0.73828,-0.58789 -0.94336,-1.74317 z"
           style="font-style:normal;font-variant:normal;font-weight:normal;font-stretch:normal;font-size:14px;font-family:'Liberation Sans';-inkscape-font-specification:'Liberation Sans';fill:#1d193d;fill-opacity:1"
           id="path1061"
           inkscape:connector-curvature="0" />
        <path
           d="m 217.12149,300.19061 q 0,-2.0166 1.12109,-2.9873 0.93653,-0.80664 2.28321,-0.80664 1.49707,0 2.44726,0.98437 0.9502,0.97754 0.9502,2.70703 0,1.40137 -0.42383,2.20801 -0.41699,0.79981 -1.22363,1.24414 -0.79981,0.44434 -1.75,0.44434 -1.52442,0 -2.46778,-0.97754 -0.93652,-0.97754 -0.93652,-2.81641 z m 1.26465,0 q 0,1.39453 0.6084,2.0918 0.6084,0.69043 1.53125,0.69043 0.91601,0 1.52441,-0.69727 0.6084,-0.69726 0.6084,-2.12597 0,-1.34668 -0.61523,-2.03711 -0.6084,-0.69727 -1.51758,-0.69727 -0.92285,0 -1.53125,0.69043 -0.6084,0.69043 -0.6084,2.08496 z"
           style="font-style:normal;font-variant:normal;font-weight:normal;font-stretch:normal;font-size:14px;font-family:'Liberation Sans';-inkscape-font-specification:'Liberation Sans';fill:#1d193d;fill-opacity:1"
           id="path1063"
           inkscape:connector-curvature="0" />
        <path
           d="m 225.66641,303.8205 v -6.30274 h -1.08691 v -0.95703 h 1.08691 v -0.77246 q 0,-0.73145 0.12989,-1.08692 0.17773,-0.47851 0.62207,-0.77246 0.45117,-0.30078 1.25781,-0.30078 0.51953,0 1.14844,0.12305 l -0.18457,1.07324 q -0.38282,-0.0684 -0.72461,-0.0684 -0.56055,0 -0.79297,0.23926 -0.23242,0.23926 -0.23242,0.89551 v 0.66992 h 1.41503 v 0.95703 h -1.41503 v 6.30274 z"
           style="font-style:normal;font-variant:normal;font-weight:normal;font-stretch:normal;font-size:14px;font-family:'Liberation Sans';-inkscape-font-specification:'Liberation Sans';fill:#1d193d;fill-opacity:1"
           id="path1065"
           inkscape:connector-curvature="0" />
        <path
           d="m 233.29532,303.8205 v -10.02149 h 3.45215 q 1.16894,0 1.78418,0.14356 0.86132,0.19824 1.46972,0.71777 0.79297,0.66992 1.18262,1.71582 0.39648,1.03906 0.39648,2.37891 0,1.1416 -0.2666,2.02343 -0.2666,0.88184 -0.68359,1.46289 -0.41699,0.57422 -0.91602,0.90918 -0.49218,0.32813 -1.19629,0.49903 -0.69726,0.1709 -1.60644,0.1709 z m 1.32617,-1.18262 h 2.13965 q 0.99121,0 1.55176,-0.18457 0.56738,-0.18457 0.90234,-0.51953 0.47168,-0.47168 0.73145,-1.26465 0.2666,-0.79981 0.2666,-1.93457 0,-1.57227 -0.51953,-2.41309 -0.5127,-0.84765 -1.25098,-1.13476 -0.5332,-0.20508 -1.71582,-0.20508 h -2.10547 z"
           style="font-style:normal;font-variant:normal;font-weight:normal;font-stretch:normal;font-size:14px;font-family:'Liberation Sans';-inkscape-font-specification:'Liberation Sans';fill:#1d193d;fill-opacity:1"
           id="path1067"
           inkscape:connector-curvature="0" />
        <path
           d="m 247.99258,302.92499 q -0.68359,0.58105 -1.31933,0.82031 -0.62891,0.23926 -1.35352,0.23926 -1.19629,0 -1.83886,-0.58106 -0.64258,-0.58789 -0.64258,-1.49707 0,-0.5332 0.23926,-0.9707 0.24609,-0.44434 0.63574,-0.71094 0.39648,-0.2666 0.88867,-0.40332 0.3623,-0.0957 1.09375,-0.18457 1.49023,-0.17773 2.19434,-0.42383 0.007,-0.25293 0.007,-0.32129 0,-0.75195 -0.34863,-1.05957 -0.47168,-0.41699 -1.40137,-0.41699 -0.86816,0 -1.28516,0.30762 -0.41015,0.30078 -0.60839,1.07324 l -1.20313,-0.16406 q 0.16406,-0.77246 0.54004,-1.24414 0.37598,-0.47852 1.08691,-0.73145 0.71094,-0.25976 1.64747,-0.25976 0.92968,0 1.51074,0.21875 0.58105,0.21875 0.85449,0.55371 0.27344,0.32812 0.38281,0.83398 0.0615,0.31446 0.0615,1.13477 v 1.64062 q 0,1.71582 0.0752,2.17383 0.082,0.45117 0.31445,0.86817 h -1.28515 q -0.19141,-0.38282 -0.2461,-0.89551 z m -0.10253,-2.74805 q -0.66993,0.27344 -2.00977,0.46484 -0.75879,0.10938 -1.07324,0.2461 -0.31446,0.13672 -0.48535,0.40332 -0.1709,0.25976 -0.1709,0.58105 0,0.49219 0.36914,0.82032 0.37597,0.32812 1.09375,0.32812 0.71094,0 1.26465,-0.30762 0.55371,-0.31445 0.81347,-0.85449 0.19825,-0.41699 0.19825,-1.23047 z"
           style="font-style:normal;font-variant:normal;font-weight:normal;font-stretch:normal;font-size:14px;font-family:'Liberation Sans';-inkscape-font-specification:'Liberation Sans';fill:#1d193d;fill-opacity:1"
           id="path1069"
           inkscape:connector-curvature="0" />
        <path
           d="m 253.73477,302.71991 0.17774,1.08691 q -0.51954,0.10938 -0.92969,0.10938 -0.66992,0 -1.03906,-0.21192 -0.36914,-0.21191 -0.51954,-0.55371 -0.15039,-0.34863 -0.15039,-1.45605 v -4.17676 h -0.90234 v -0.95703 h 0.90234 v -1.79785 l 1.22364,-0.73828 v 2.53613 h 1.2373 v 0.95703 h -1.2373 v 4.24512 q 0,0.52637 0.0615,0.67676 0.0684,0.15039 0.21191,0.23925 0.1504,0.0889 0.42383,0.0889 0.20508,0 0.54004,-0.0478 z"
           style="font-style:normal;font-variant:normal;font-weight:normal;font-stretch:normal;font-size:14px;font-family:'Liberation Sans';-inkscape-font-specification:'Liberation Sans';fill:#1d193d;fill-opacity:1"
           id="path1071"
           inkscape:connector-curvature="0" />
        <path
           d="m 259.66837,302.92499 q -0.6836,0.58105 -1.31934,0.82031 -0.62891,0.23926 -1.35352,0.23926 -1.19629,0 -1.83886,-0.58106 -0.64258,-0.58789 -0.64258,-1.49707 0,-0.5332 0.23926,-0.9707 0.24609,-0.44434 0.63574,-0.71094 0.39648,-0.2666 0.88867,-0.40332 0.36231,-0.0957 1.09375,-0.18457 1.49023,-0.17773 2.19434,-0.42383 0.007,-0.25293 0.007,-0.32129 0,-0.75195 -0.34863,-1.05957 -0.47168,-0.41699 -1.40137,-0.41699 -0.86816,0 -1.28515,0.30762 -0.41016,0.30078 -0.6084,1.07324 l -1.20313,-0.16406 q 0.16407,-0.77246 0.54004,-1.24414 0.37598,-0.47852 1.08692,-0.73145 0.71093,-0.25976 1.64746,-0.25976 0.92968,0 1.51074,0.21875 0.58105,0.21875 0.85449,0.55371 0.27344,0.32812 0.38281,0.83398 0.0615,0.31446 0.0615,1.13477 v 1.64062 q 0,1.71582 0.0752,2.17383 0.082,0.45117 0.31446,0.86817 h -1.28516 q -0.19141,-0.38282 -0.24609,-0.89551 z m -0.10254,-2.74805 q -0.66993,0.27344 -2.00977,0.46484 -0.75879,0.10938 -1.07324,0.2461 -0.31445,0.13672 -0.48535,0.40332 -0.1709,0.25976 -0.1709,0.58105 0,0.49219 0.36914,0.82032 0.37598,0.32812 1.09375,0.32812 0.71094,0 1.26465,-0.30762 0.55371,-0.31445 0.81347,-0.85449 0.19825,-0.41699 0.19825,-1.23047 z"
           style="font-style:normal;font-variant:normal;font-weight:normal;font-stretch:normal;font-size:14px;font-family:'Liberation Sans';-inkscape-font-specification:'Liberation Sans';fill:#1d193d;fill-opacity:1"
           id="path1073"
           inkscape:connector-curvature="0" />
      </g>
      <g
         aria-label="Statistical"
         style="font-style:normal;font-weight:normal;font-size:16px;line-height:0%;font-family:sans-serif;letter-spacing:0px;word-spacing:0px;fill:#1d193d;fill-opacity:1;stroke:none"
         id="text3189">
        <path
           d="m 189.4697,441.31506 1.25097,-0.10937 q 0.0889,0.75195 0.41016,1.2373 0.32812,0.47852 1.01172,0.7793 0.68359,0.29395 1.53808,0.29395 0.75879,0 1.33985,-0.22559 0.58105,-0.22559 0.86133,-0.61523 0.2871,-0.39649 0.2871,-0.86133 0,-0.47168 -0.27343,-0.82032 -0.27344,-0.35546 -0.90235,-0.59472 -0.40332,-0.15723 -1.78418,-0.48535 -1.38086,-0.33496 -1.93457,-0.62891 -0.71777,-0.37598 -1.07324,-0.92969 -0.34863,-0.56054 -0.34863,-1.25097 0,-0.75879 0.43066,-1.41504 0.43067,-0.66309 1.25782,-1.00489 0.82714,-0.34179 1.83886,-0.34179 1.11426,0 1.96192,0.3623 0.85449,0.35547 1.3125,1.05274 0.458,0.69726 0.49218,1.5791 l -1.27148,0.0957 q -0.10254,-0.95019 -0.69727,-1.43555 -0.58789,-0.48535 -1.74316,-0.48535 -1.20313,0 -1.75684,0.44434 -0.54687,0.4375 -0.54687,1.05957 0,0.54004 0.38965,0.88867 0.38281,0.34863 1.99609,0.71777 1.62012,0.36231 2.22168,0.63575 0.875,0.40332 1.29199,1.02539 0.417,0.61523 0.417,1.42187 0,0.79981 -0.45801,1.51074 -0.45801,0.70411 -1.31934,1.10059 -0.85449,0.38965 -1.92773,0.38965 -1.36035,0 -2.28321,-0.39649 -0.91601,-0.39648 -1.44238,-1.18945 -0.51953,-0.7998 -0.54687,-1.80469 z"
           style="font-style:normal;font-variant:normal;font-weight:normal;font-stretch:normal;font-size:14px;font-family:'Liberation Sans';-inkscape-font-specification:'Liberation Sans';fill:#1d193d;fill-opacity:1"
           id="path1076"
           inkscape:connector-curvature="0" />
        <path
           d="m 201.80173,443.4342 0.17773,1.08692 q -0.51953,0.10937 -0.92969,0.10937 -0.66992,0 -1.03906,-0.21191 -0.36914,-0.21191 -0.51953,-0.55371 -0.15039,-0.34863 -0.15039,-1.45606 v -4.17675 h -0.90234 v -0.95704 h 0.90234 v -1.79785 l 1.22363,-0.73828 v 2.53613 h 1.23731 v 0.95704 h -1.23731 v 4.24511 q 0,0.52637 0.0615,0.67676 0.0684,0.15039 0.21191,0.23926 0.15039,0.0889 0.42383,0.0889 0.20508,0 0.54004,-0.0479 z"
           style="font-style:normal;font-variant:normal;font-weight:normal;font-stretch:normal;font-size:14px;font-family:'Liberation Sans';-inkscape-font-specification:'Liberation Sans';fill:#1d193d;fill-opacity:1"
           id="path1078"
           inkscape:connector-curvature="0" />
        <path
           d="m 207.73532,443.63928 q -0.68359,0.58106 -1.31933,0.82031 -0.62891,0.23926 -1.35352,0.23926 -1.19629,0 -1.83887,-0.58105 -0.64258,-0.58789 -0.64258,-1.49707 0,-0.53321 0.23926,-0.97071 0.2461,-0.44433 0.63574,-0.71093 0.39649,-0.2666 0.88868,-0.40332 0.3623,-0.0957 1.09375,-0.18457 1.49023,-0.17774 2.19433,-0.42383 0.007,-0.25293 0.007,-0.32129 0,-0.75195 -0.34863,-1.05957 -0.47168,-0.41699 -1.40137,-0.41699 -0.86817,0 -1.28516,0.30761 -0.41015,0.30079 -0.6084,1.07325 l -1.20312,-0.16407 q 0.16406,-0.77246 0.54004,-1.24414 0.37597,-0.47851 1.08691,-0.73144 0.71094,-0.25977 1.64746,-0.25977 0.92969,0 1.51074,0.21875 0.58106,0.21875 0.8545,0.55371 0.27343,0.32813 0.38281,0.83399 0.0615,0.31445 0.0615,1.13476 v 1.64063 q 0,1.71582 0.0752,2.17383 0.082,0.45117 0.31445,0.86816 h -1.28516 q -0.1914,-0.38281 -0.24609,-0.89551 z m -0.10254,-2.74804 q -0.66992,0.27343 -2.00976,0.46484 -0.75879,0.10937 -1.07325,0.24609 -0.31445,0.13672 -0.48535,0.40332 -0.1709,0.25977 -0.1709,0.58106 0,0.49219 0.36914,0.82031 0.37598,0.32813 1.09375,0.32813 0.71094,0 1.26465,-0.30762 0.55371,-0.31445 0.81348,-0.85449 0.19824,-0.417 0.19824,-1.23047 z"
           style="font-style:normal;font-variant:normal;font-weight:normal;font-stretch:normal;font-size:14px;font-family:'Liberation Sans';-inkscape-font-specification:'Liberation Sans';fill:#1d193d;fill-opacity:1"
           id="path1080"
           inkscape:connector-curvature="0" />
        <path
           d="m 213.47751,443.4342 0.17773,1.08692 q -0.51953,0.10937 -0.92968,0.10937 -0.66993,0 -1.03907,-0.21191 -0.36914,-0.21191 -0.51953,-0.55371 -0.15039,-0.34863 -0.15039,-1.45606 v -4.17675 h -0.90234 v -0.95704 h 0.90234 v -1.79785 l 1.22363,-0.73828 v 2.53613 h 1.23731 v 0.95704 h -1.23731 v 4.24511 q 0,0.52637 0.0615,0.67676 0.0684,0.15039 0.21191,0.23926 0.15039,0.0889 0.42383,0.0889 0.20508,0 0.54004,-0.0479 z"
           style="font-style:normal;font-variant:normal;font-weight:normal;font-stretch:normal;font-size:14px;font-family:'Liberation Sans';-inkscape-font-specification:'Liberation Sans';fill:#1d193d;fill-opacity:1"
           id="path1082"
           inkscape:connector-curvature="0" />
        <path
           d="m 214.68063,435.92834 v -1.41503 h 1.23047 v 1.41503 z m 0,8.60645 v -7.25977 h 1.23047 v 7.25977 z"
           style="font-style:normal;font-variant:normal;font-weight:normal;font-stretch:normal;font-size:14px;font-family:'Liberation Sans';-inkscape-font-specification:'Liberation Sans';fill:#1d193d;fill-opacity:1"
           id="path1084"
           inkscape:connector-curvature="0" />
        <path
           d="m 217.2988,442.3678 1.21679,-0.19141 q 0.10254,0.73145 0.56739,1.1211 0.47168,0.38964 1.3125,0.38964 0.84765,0 1.25781,-0.34179 0.41016,-0.34864 0.41016,-0.81348 0,-0.41699 -0.36231,-0.65625 -0.25293,-0.16406 -1.25781,-0.41699 -1.35352,-0.3418 -1.87988,-0.58789 -0.51954,-0.25293 -0.79297,-0.69043 -0.2666,-0.44434 -0.2666,-0.97754 0,-0.48535 0.21875,-0.89551 0.22558,-0.41699 0.60839,-0.69043 0.28711,-0.21191 0.7793,-0.35547 0.49902,-0.15039 1.06641,-0.15039 0.85449,0 1.49707,0.2461 0.64941,0.24609 0.95703,0.66992 0.30762,0.41699 0.42383,1.12109 l -1.20313,0.16406 q -0.082,-0.56054 -0.47851,-0.875 -0.38965,-0.31445 -1.10743,-0.31445 -0.84765,0 -1.20996,0.28027 -0.3623,0.28028 -0.3623,0.65625 0,0.23926 0.15039,0.43067 0.15039,0.19824 0.47168,0.32812 0.18457,0.0684 1.08691,0.31446 1.30567,0.34863 1.81836,0.57422 0.51953,0.21875 0.81348,0.64257 0.29394,0.42383 0.29394,1.05274 0,0.61523 -0.3623,1.16211 -0.35547,0.54004 -1.03223,0.84082 -0.67675,0.29394 -1.53125,0.29394 -1.41504,0 -2.16015,-0.58789 -0.73828,-0.58789 -0.94336,-1.74316 z"
           style="font-style:normal;font-variant:normal;font-weight:normal;font-stretch:normal;font-size:14px;font-family:'Liberation Sans';-inkscape-font-specification:'Liberation Sans';fill:#1d193d;fill-opacity:1"
           id="path1086"
           inkscape:connector-curvature="0" />
        <path
           d="m 227.47751,443.4342 0.17773,1.08692 q -0.51953,0.10937 -0.92968,0.10937 -0.66993,0 -1.03907,-0.21191 -0.36914,-0.21191 -0.51953,-0.55371 -0.15039,-0.34863 -0.15039,-1.45606 v -4.17675 h -0.90234 v -0.95704 h 0.90234 v -1.79785 l 1.22363,-0.73828 v 2.53613 h 1.23731 v 0.95704 h -1.23731 v 4.24511 q 0,0.52637 0.0615,0.67676 0.0684,0.15039 0.21191,0.23926 0.15039,0.0889 0.42383,0.0889 0.20508,0 0.54004,-0.0479 z"
           style="font-style:normal;font-variant:normal;font-weight:normal;font-stretch:normal;font-size:14px;font-family:'Liberation Sans';-inkscape-font-specification:'Liberation Sans';fill:#1d193d;fill-opacity:1"
           id="path1088"
           inkscape:connector-curvature="0" />
        <path
           d="m 228.68063,435.92834 v -1.41503 h 1.23047 v 1.41503 z m 0,8.60645 v -7.25977 h 1.23047 v 7.25977 z"
           style="font-style:normal;font-variant:normal;font-weight:normal;font-stretch:normal;font-size:14px;font-family:'Liberation Sans';-inkscape-font-specification:'Liberation Sans';fill:#1d193d;fill-opacity:1"
           id="path1090"
           inkscape:connector-curvature="0" />
        <path
           d="m 236.52829,441.87561 1.20996,0.15723 q -0.19824,1.25097 -1.01855,1.96191 -0.81348,0.7041 -2.00293,0.7041 -1.49024,0 -2.39942,-0.9707 -0.90234,-0.97754 -0.90234,-2.7959 0,-1.17578 0.38965,-2.05762 0.38965,-0.88183 1.18261,-1.31933 0.79981,-0.44434 1.73633,-0.44434 1.18262,0 1.93457,0.60156 0.75196,0.59473 0.96387,1.69532 l -1.19629,0.18457 q -0.1709,-0.73145 -0.6084,-1.10059 -0.43066,-0.36914 -1.0459,-0.36914 -0.92968,0 -1.51074,0.66992 -0.58105,0.66309 -0.58105,2.10547 0,1.46289 0.56054,2.12598 0.56055,0.66308 1.46289,0.66308 0.72461,0 1.20997,-0.44433 0.48535,-0.44434 0.61523,-1.36719 z"
           style="font-style:normal;font-variant:normal;font-weight:normal;font-stretch:normal;font-size:14px;font-family:'Liberation Sans';-inkscape-font-specification:'Liberation Sans';fill:#1d193d;fill-opacity:1"
           id="path1092"
           inkscape:connector-curvature="0" />
        <path
           d="m 243.52829,443.63928 q -0.68359,0.58106 -1.31934,0.82031 -0.6289,0.23926 -1.35351,0.23926 -1.19629,0 -1.83887,-0.58105 -0.64258,-0.58789 -0.64258,-1.49707 0,-0.53321 0.23926,-0.97071 0.24609,-0.44433 0.63574,-0.71093 0.39649,-0.2666 0.88867,-0.40332 0.36231,-0.0957 1.09375,-0.18457 1.49024,-0.17774 2.19434,-0.42383 0.007,-0.25293 0.007,-0.32129 0,-0.75195 -0.34864,-1.05957 -0.47168,-0.41699 -1.40136,-0.41699 -0.86817,0 -1.28516,0.30761 -0.41016,0.30079 -0.6084,1.07325 l -1.20312,-0.16407 q 0.16406,-0.77246 0.54004,-1.24414 0.37597,-0.47851 1.08691,-0.73144 0.71094,-0.25977 1.64746,-0.25977 0.92969,0 1.51074,0.21875 0.58106,0.21875 0.8545,0.55371 0.27343,0.32813 0.38281,0.83399 0.0615,0.31445 0.0615,1.13476 v 1.64063 q 0,1.71582 0.0752,2.17383 0.082,0.45117 0.31445,0.86816 h -1.28516 q -0.1914,-0.38281 -0.24609,-0.89551 z m -0.10254,-2.74804 q -0.66992,0.27343 -2.00976,0.46484 -0.75879,0.10937 -1.07325,0.24609 -0.31445,0.13672 -0.48535,0.40332 -0.1709,0.25977 -0.1709,0.58106 0,0.49219 0.36914,0.82031 0.37598,0.32813 1.09375,0.32813 0.71094,0 1.26465,-0.30762 0.55371,-0.31445 0.81348,-0.85449 0.19824,-0.417 0.19824,-1.23047 z"
           style="font-style:normal;font-variant:normal;font-weight:normal;font-stretch:normal;font-size:14px;font-family:'Liberation Sans';-inkscape-font-specification:'Liberation Sans';fill:#1d193d;fill-opacity:1"
           id="path1094"
           inkscape:connector-curvature="0" />
        <path
           d="m 246.55661,444.53479 v -10.02148 h 1.23047 v 10.02148 z"
           style="font-style:normal;font-variant:normal;font-weight:normal;font-stretch:normal;font-size:14px;font-family:'Liberation Sans';-inkscape-font-specification:'Liberation Sans';fill:#1d193d;fill-opacity:1"
           id="path1096"
           inkscape:connector-curvature="0" />
      </g>
      <g
         aria-label="Metrological"
         style="font-style:normal;font-weight:normal;font-size:16px;line-height:0%;font-family:sans-serif;letter-spacing:0px;word-spacing:0px;fill:#1d193d;fill-opacity:1;stroke:none"
         id="text3203">
        <path
           d="m 64.875423,394.17767 v -10.02148 h 1.996094 l 2.37207,7.0957 q 0.328125,0.99121 0.478516,1.4834 0.170899,-0.54687 0.533203,-1.60644 l 2.399414,-6.97266 h 1.78418 v 10.02148 h -1.27832 v -8.38769 l -2.91211,8.38769 h -1.196289 l -2.898437,-8.53125 v 8.53125 z"
           style="font-style:normal;font-variant:normal;font-weight:normal;font-stretch:normal;font-size:14px;font-family:'Liberation Sans';-inkscape-font-specification:'Liberation Sans';fill:#1d193d;fill-opacity:1"
           id="path1099"
           inkscape:connector-curvature="0" />
        <path
           d="m 81.40472,391.83978 1.271485,0.15723 q -0.300782,1.11426 -1.114258,1.72949 -0.813477,0.61524 -2.078125,0.61524 -1.592774,0 -2.529297,-0.97754 -0.929688,-0.98438 -0.929688,-2.75489 0,-1.83203 0.94336,-2.84375 0.943359,-1.01171 2.447265,-1.01171 1.456055,0 2.378907,0.99121 0.922851,0.99121 0.922851,2.78906 0,0.10937 -0.0068,0.32812 h -5.414062 q 0.06836,1.19629 0.676758,1.83203 0.608398,0.63575 1.517578,0.63575 0.676758,0 1.155273,-0.35547 0.478516,-0.35547 0.758789,-1.13477 z m -4.040039,-1.98926 h 4.053711 q -0.08203,-0.91601 -0.464844,-1.37402 -0.58789,-0.71094 -1.524414,-0.71094 -0.847656,0 -1.428711,0.56739 -0.574218,0.56738 -0.635742,1.51757 z"
           style="font-style:normal;font-variant:normal;font-weight:normal;font-stretch:normal;font-size:14px;font-family:'Liberation Sans';-inkscape-font-specification:'Liberation Sans';fill:#1d193d;fill-opacity:1"
           id="path1101"
           inkscape:connector-curvature="0" />
        <path
           d="m 86.914486,393.07709 0.177734,1.08691 q -0.519531,0.10938 -0.929687,0.10938 -0.669922,0 -1.039063,-0.21192 -0.36914,-0.21191 -0.519531,-0.55371 -0.150391,-0.34863 -0.150391,-1.45605 v -4.17676 h -0.902343 v -0.95703 h 0.902343 v -1.79785 l 1.223633,-0.73829 v 2.53614 h 1.237305 v 0.95703 h -1.237305 v 4.24512 q 0,0.52636 0.06152,0.67675 0.06836,0.15039 0.211914,0.23926 0.15039,0.0889 0.423828,0.0889 0.205078,0 0.540039,-0.0478 z"
           style="font-style:normal;font-variant:normal;font-weight:normal;font-stretch:normal;font-size:14px;font-family:'Liberation Sans';-inkscape-font-specification:'Liberation Sans';fill:#1d193d;fill-opacity:1"
           id="path1103"
           inkscape:connector-curvature="0" />
        <path
           d="m 88.097103,394.17767 v -7.25976 h 1.107422 v 1.10058 q 0.423828,-0.77246 0.779297,-1.01855 0.362305,-0.24609 0.792969,-0.24609 0.62207,0 1.264648,0.39648 l -0.423828,1.1416 q -0.451172,-0.2666 -0.902344,-0.2666 -0.40332,0 -0.724609,0.24609 -0.321289,0.23926 -0.458008,0.66993 -0.205078,0.65625 -0.205078,1.43554 v 3.80078 z"
           style="font-style:normal;font-variant:normal;font-weight:normal;font-stretch:normal;font-size:14px;font-family:'Liberation Sans';-inkscape-font-specification:'Liberation Sans';fill:#1d193d;fill-opacity:1"
           id="path1105"
           inkscape:connector-curvature="0" />
        <path
           d="m 92.328548,390.54779 q 0,-2.0166 1.121094,-2.9873 0.936524,-0.80664 2.283203,-0.80664 1.497071,0 2.447266,0.98437 0.950195,0.97754 0.950195,2.70703 0,1.40137 -0.423828,2.20801 -0.416992,0.7998 -1.223633,1.24414 -0.799804,0.44434 -1.75,0.44434 -1.524414,0 -2.467773,-0.97754 -0.936524,-0.97754 -0.936524,-2.81641 z m 1.264649,0 q 0,1.39453 0.608398,2.0918 0.608399,0.69043 1.53125,0.69043 0.916016,0 1.524414,-0.69727 0.608399,-0.69726 0.608399,-2.12598 0,-1.34667 -0.615235,-2.0371 -0.608398,-0.69727 -1.517578,-0.69727 -0.922851,0 -1.53125,0.69043 -0.608398,0.69043 -0.608398,2.08496 z"
           style="font-style:normal;font-variant:normal;font-weight:normal;font-stretch:normal;font-size:14px;font-family:'Liberation Sans';-inkscape-font-specification:'Liberation Sans';fill:#1d193d;fill-opacity:1"
           id="path1107"
           inkscape:connector-curvature="0" />
        <path
           d="m 100.55218,394.17767 v -10.02148 h 1.23047 v 10.02148 z"
           style="font-style:normal;font-variant:normal;font-weight:normal;font-stretch:normal;font-size:14px;font-family:'Liberation Sans';-inkscape-font-specification:'Liberation Sans';fill:#1d193d;fill-opacity:1"
           id="path1109"
           inkscape:connector-curvature="0" />
        <path
           d="m 103.2387,390.54779 q 0,-2.0166 1.1211,-2.9873 0.93652,-0.80664 2.2832,-0.80664 1.49707,0 2.44727,0.98437 0.95019,0.97754 0.95019,2.70703 0,1.40137 -0.42383,2.20801 -0.41699,0.7998 -1.22363,1.24414 -0.7998,0.44434 -1.75,0.44434 -1.52441,0 -2.46777,-0.97754 -0.93653,-0.97754 -0.93653,-2.81641 z m 1.26465,0 q 0,1.39453 0.6084,2.0918 0.6084,0.69043 1.53125,0.69043 0.91602,0 1.52442,-0.69727 0.60839,-0.69726 0.60839,-2.12598 0,-1.34667 -0.61523,-2.0371 -0.6084,-0.69727 -1.51758,-0.69727 -0.92285,0 -1.53125,0.69043 -0.6084,0.69043 -0.6084,2.08496 z"
           style="font-style:normal;font-variant:normal;font-weight:normal;font-stretch:normal;font-size:14px;font-family:'Liberation Sans';-inkscape-font-specification:'Liberation Sans';fill:#1d193d;fill-opacity:1"
           id="path1111"
           inkscape:connector-curvature="0" />
        <path
           d="m 111.2641,394.77924 1.19628,0.17773 q 0.0752,0.55371 0.417,0.80664 0.458,0.3418 1.25097,0.3418 0.8545,0 1.31934,-0.3418 0.46484,-0.3418 0.62891,-0.95703 0.0957,-0.37598 0.0889,-1.5791 -0.80664,0.95019 -2.00976,0.95019 -1.49707,0 -2.31739,-1.08007 -0.82031,-1.08008 -0.82031,-2.59083 0,-1.03906 0.37598,-1.91406 0.37597,-0.88183 1.08691,-1.36035 0.71778,-0.47851 1.68164,-0.47851 1.28516,0 2.11914,1.03906 v -0.875 h 1.13477 v 6.27539 q 0,1.69531 -0.34863,2.39941 -0.3418,0.71094 -1.09375,1.1211 -0.74512,0.41015 -1.83887,0.41015 -1.29883,0 -2.09863,-0.58789 -0.79981,-0.58105 -0.77246,-1.75683 z m 1.01855,-4.36133 q 0,1.42871 0.56738,2.08496 0.56739,0.65625 1.42188,0.65625 0.84765,0 1.42187,-0.64942 0.57422,-0.65625 0.57422,-2.05078 0,-1.333 -0.59473,-2.00976 -0.58789,-0.67676 -1.42187,-0.67676 -0.82031,0 -1.39453,0.66992 -0.57422,0.66309 -0.57422,1.97559 z"
           style="font-style:normal;font-variant:normal;font-weight:normal;font-stretch:normal;font-size:14px;font-family:'Liberation Sans';-inkscape-font-specification:'Liberation Sans';fill:#1d193d;fill-opacity:1"
           id="path1113"
           inkscape:connector-curvature="0" />
        <path
           d="m 119.28949,385.57123 v -1.41504 h 1.23046 v 1.41504 z m 0,8.60644 v -7.25976 h 1.23046 v 7.25976 z"
           style="font-style:normal;font-variant:normal;font-weight:normal;font-stretch:normal;font-size:14px;font-family:'Liberation Sans';-inkscape-font-specification:'Liberation Sans';fill:#1d193d;fill-opacity:1"
           id="path1115"
           inkscape:connector-curvature="0" />
        <path
           d="m 127.13714,391.51849 1.20996,0.15723 q -0.19824,1.25098 -1.01855,1.96191 -0.81348,0.70411 -2.00293,0.70411 -1.49024,0 -2.39942,-0.97071 -0.90234,-0.97754 -0.90234,-2.7959 0,-1.17578 0.38965,-2.05761 0.38965,-0.88184 1.18262,-1.31934 0.7998,-0.44433 1.73632,-0.44433 1.18262,0 1.93457,0.60156 0.75196,0.59472 0.96387,1.69531 l -1.19629,0.18457 q -0.1709,-0.73144 -0.6084,-1.10059 -0.43066,-0.36914 -1.04589,-0.36914 -0.92969,0 -1.51075,0.66993 -0.58105,0.66308 -0.58105,2.10546 0,1.4629 0.56055,2.12598 0.56054,0.66309 1.46289,0.66309 0.72461,0 1.20996,-0.44434 0.48535,-0.44433 0.61523,-1.36719 z"
           style="font-style:normal;font-variant:normal;font-weight:normal;font-stretch:normal;font-size:14px;font-family:'Liberation Sans';-inkscape-font-specification:'Liberation Sans';fill:#1d193d;fill-opacity:1"
           id="path1117"
           inkscape:connector-curvature="0" />
        <path
           d="m 134.13714,393.28217 q -0.68359,0.58105 -1.31933,0.82031 -0.62891,0.23926 -1.35352,0.23926 -1.19629,0 -1.83887,-0.58106 -0.64257,-0.58789 -0.64257,-1.49707 0,-0.5332 0.23925,-0.9707 0.2461,-0.44434 0.63575,-0.71094 0.39648,-0.2666 0.88867,-0.40332 0.3623,-0.0957 1.09375,-0.18457 1.49023,-0.17773 2.19433,-0.42383 0.007,-0.25293 0.007,-0.32129 0,-0.75195 -0.34863,-1.05957 -0.47168,-0.41699 -1.40137,-0.41699 -0.86817,0 -1.28516,0.30762 -0.41015,0.30078 -0.6084,1.07324 l -1.20312,-0.16406 q 0.16406,-0.77246 0.54004,-1.24414 0.37597,-0.47852 1.08691,-0.73145 0.71094,-0.25976 1.64746,-0.25976 0.92969,0 1.51075,0.21875 0.58105,0.21875 0.85449,0.55371 0.27344,0.32812 0.38281,0.83398 0.0615,0.31445 0.0615,1.13477 v 1.64062 q 0,1.71582 0.0752,2.17383 0.082,0.45117 0.31445,0.86816 h -1.28515 q -0.19141,-0.38281 -0.2461,-0.8955 z m -0.10254,-2.74805 q -0.66992,0.27344 -2.00976,0.46484 -0.75879,0.10938 -1.07324,0.2461 -0.31446,0.13671 -0.48536,0.40332 -0.17089,0.25976 -0.17089,0.58105 0,0.49219 0.36914,0.82031 0.37597,0.32813 1.09375,0.32813 0.71093,0 1.26464,-0.30762 0.55372,-0.31445 0.81348,-0.85449 0.19824,-0.41699 0.19824,-1.23047 z"
           style="font-style:normal;font-variant:normal;font-weight:normal;font-stretch:normal;font-size:14px;font-family:'Liberation Sans';-inkscape-font-specification:'Liberation Sans';fill:#1d193d;fill-opacity:1"
           id="path1119"
           inkscape:connector-curvature="0" />
        <path
           d="m 137.16546,394.17767 v -10.02148 h 1.23047 v 10.02148 z"
           style="font-style:normal;font-variant:normal;font-weight:normal;font-stretch:normal;font-size:14px;font-family:'Liberation Sans';-inkscape-font-specification:'Liberation Sans';fill:#1d193d;fill-opacity:1"
           id="path1121"
           inkscape:connector-curvature="0" />
      </g>
      <g
         aria-label="Scientific"
         style="font-style:normal;font-weight:normal;font-size:16px;line-height:0%;font-family:sans-serif;letter-spacing:0px;word-spacing:0px;fill:#1d193d;fill-opacity:1;stroke:none"
         id="text3207">
        <path
           d="m 356.32541,276.67218 1.25098,-0.10937 q 0.0889,0.75195 0.41015,1.2373 0.32813,0.47852 1.01172,0.7793 0.68359,0.29394 1.53809,0.29394 0.75879,0 1.33984,-0.22558 0.58105,-0.22559 0.86133,-0.61524 0.28711,-0.39648 0.28711,-0.86133 0,-0.47168 -0.27344,-0.82031 -0.27344,-0.35547 -0.90234,-0.59473 -0.40332,-0.15722 -1.78418,-0.48535 -1.38086,-0.33496 -1.93457,-0.6289 -0.71778,-0.37598 -1.07325,-0.92969 -0.34863,-0.56055 -0.34863,-1.25098 0,-0.75879 0.43067,-1.41504 0.43066,-0.66308 1.25781,-1.00488 0.82715,-0.3418 1.83887,-0.3418 1.11425,0 1.96191,0.36231 0.85449,0.35547 1.3125,1.05273 0.45801,0.69727 0.49219,1.5791 l -1.27149,0.0957 q -0.10254,-0.9502 -0.69726,-1.43555 -0.58789,-0.48535 -1.74317,-0.48535 -1.20312,0 -1.75683,0.44434 -0.54688,0.4375 -0.54688,1.05957 0,0.54003 0.38965,0.88867 0.38281,0.34863 1.99609,0.71777 1.62012,0.36231 2.22168,0.63574 0.875,0.40332 1.292,1.02539 0.41699,0.61524 0.41699,1.42188 0,0.7998 -0.45801,1.51074 -0.45801,0.7041 -1.31934,1.10059 -0.85449,0.38965 -1.92773,0.38965 -1.36035,0 -2.2832,-0.39649 -0.91602,-0.39648 -1.44239,-1.18945 -0.51953,-0.79981 -0.54687,-1.80469 z"
           style="font-style:normal;font-variant:normal;font-weight:normal;font-stretch:normal;font-size:14px;font-family:'Liberation Sans';-inkscape-font-specification:'Liberation Sans';fill:#1d193d;fill-opacity:1"
           id="path1124"
           inkscape:connector-curvature="0" />
        <path
           d="m 370.70822,277.23273 1.20996,0.15722 q -0.19824,1.25098 -1.01855,1.96192 -0.81348,0.7041 -2.00293,0.7041 -1.49024,0 -2.39942,-0.9707 -0.90234,-0.97754 -0.90234,-2.7959 0,-1.17578 0.38965,-2.05762 0.38965,-0.88184 1.18262,-1.31934 0.7998,-0.44433 1.73632,-0.44433 1.18262,0 1.93457,0.60156 0.75196,0.59473 0.96387,1.69531 l -1.19629,0.18457 q -0.1709,-0.73144 -0.6084,-1.10058 -0.43066,-0.36914 -1.04589,-0.36914 -0.92969,0 -1.51075,0.66992 -0.58105,0.66309 -0.58105,2.10547 0,1.46289 0.56055,2.12597 0.56054,0.66309 1.46289,0.66309 0.72461,0 1.20996,-0.44434 0.48535,-0.44433 0.61523,-1.36718 z"
           style="font-style:normal;font-variant:normal;font-weight:normal;font-stretch:normal;font-size:14px;font-family:'Liberation Sans';-inkscape-font-specification:'Liberation Sans';fill:#1d193d;fill-opacity:1"
           id="path1126"
           inkscape:connector-curvature="0" />
        <path
           d="m 372.97775,271.28546 v -1.41504 h 1.23047 v 1.41504 z m 0,8.60645 v -7.25977 h 1.23047 v 7.25977 z"
           style="font-style:normal;font-variant:normal;font-weight:normal;font-stretch:normal;font-size:14px;font-family:'Liberation Sans';-inkscape-font-specification:'Liberation Sans';fill:#1d193d;fill-opacity:1"
           id="path1128"
           inkscape:connector-curvature="0" />
        <path
           d="m 381.05783,277.55402 1.27149,0.15722 q -0.30079,1.11426 -1.11426,1.72949 -0.81348,0.61524 -2.07813,0.61524 -1.59277,0 -2.52929,-0.97754 -0.92969,-0.98437 -0.92969,-2.75488 0,-1.83203 0.94336,-2.84375 0.94336,-1.01172 2.44726,-1.01172 1.45606,0 2.37891,0.99121 0.92285,0.99121 0.92285,2.78906 0,0.10938 -0.007,0.32813 h -5.41406 q 0.0684,1.19629 0.67676,1.83203 0.6084,0.63574 1.51758,0.63574 0.67676,0 1.15527,-0.35547 0.47852,-0.35547 0.75879,-1.13476 z m -4.04004,-1.98926 h 4.05371 q -0.082,-0.91602 -0.46484,-1.37403 -0.58789,-0.71093 -1.52442,-0.71093 -0.84765,0 -1.42871,0.56738 -0.57421,0.56738 -0.63574,1.51758 z"
           style="font-style:normal;font-variant:normal;font-weight:normal;font-stretch:normal;font-size:14px;font-family:'Liberation Sans';-inkscape-font-specification:'Liberation Sans';fill:#1d193d;fill-opacity:1"
           id="path1130"
           inkscape:connector-curvature="0" />
        <path
           d="m 383.88107,279.89191 v -7.25977 h 1.10742 v 1.03223 q 0.79981,-1.19629 2.31055,-1.19629 0.65625,0 1.20313,0.23926 0.55371,0.23242 0.82715,0.61523 0.27343,0.38281 0.38281,0.90918 0.0684,0.3418 0.0684,1.19629 v 4.46387 h -1.23047 v -4.41602 q 0,-0.75195 -0.14356,-1.12109 -0.14355,-0.37598 -0.51269,-0.59473 -0.36231,-0.22559 -0.85449,-0.22559 -0.78614,0 -1.36036,0.49903 -0.56738,0.49902 -0.56738,1.89355 v 3.96485 z"
           style="font-style:normal;font-variant:normal;font-weight:normal;font-stretch:normal;font-size:14px;font-family:'Liberation Sans';-inkscape-font-specification:'Liberation Sans';fill:#1d193d;fill-opacity:1"
           id="path1132"
           inkscape:connector-curvature="0" />
        <path
           d="m 394.36057,278.79132 0.17773,1.08691 q -0.51953,0.10938 -0.92969,0.10938 -0.66992,0 -1.03906,-0.21191 -0.36914,-0.21192 -0.51953,-0.55372 -0.15039,-0.34863 -0.15039,-1.45605 v -4.17676 h -0.90235 v -0.95703 h 0.90235 v -1.79785 l 1.22363,-0.73828 v 2.53613 h 1.23731 v 0.95703 h -1.23731 v 4.24512 q 0,0.52637 0.0615,0.67676 0.0684,0.15039 0.21192,0.23926 0.15039,0.0889 0.42383,0.0889 0.20507,0 0.54004,-0.0479 z"
           style="font-style:normal;font-variant:normal;font-weight:normal;font-stretch:normal;font-size:14px;font-family:'Liberation Sans';-inkscape-font-specification:'Liberation Sans';fill:#1d193d;fill-opacity:1"
           id="path1134"
           inkscape:connector-curvature="0" />
        <path
           d="m 395.56369,271.28546 v -1.41504 h 1.23047 v 1.41504 z m 0,8.60645 v -7.25977 h 1.23047 v 7.25977 z"
           style="font-style:normal;font-variant:normal;font-weight:normal;font-stretch:normal;font-size:14px;font-family:'Liberation Sans';-inkscape-font-specification:'Liberation Sans';fill:#1d193d;fill-opacity:1"
           id="path1136"
           inkscape:connector-curvature="0" />
        <path
           d="m 398.96799,279.89191 v -6.30274 h -1.08692 v -0.95703 h 1.08692 v -0.77246 q 0,-0.73145 0.12988,-1.08691 0.17773,-0.47852 0.62207,-0.77246 0.45117,-0.30079 1.25781,-0.30079 0.51953,0 1.14844,0.12305 l -0.18457,1.07324 q -0.38281,-0.0684 -0.72461,-0.0684 -0.56055,0 -0.79297,0.23926 -0.23242,0.23926 -0.23242,0.89551 v 0.66992 h 1.41504 v 0.95703 h -1.41504 v 6.30274 z"
           style="font-style:normal;font-variant:normal;font-weight:normal;font-stretch:normal;font-size:14px;font-family:'Liberation Sans';-inkscape-font-specification:'Liberation Sans';fill:#1d193d;fill-opacity:1"
           id="path1138"
           inkscape:connector-curvature="0" />
        <path
           d="m 402.56369,271.28546 v -1.41504 h 1.23047 v 1.41504 z m 0,8.60645 v -7.25977 h 1.23047 v 7.25977 z"
           style="font-style:normal;font-variant:normal;font-weight:normal;font-stretch:normal;font-size:14px;font-family:'Liberation Sans';-inkscape-font-specification:'Liberation Sans';fill:#1d193d;fill-opacity:1"
           id="path1140"
           inkscape:connector-curvature="0" />
        <path
           d="m 410.41135,277.23273 1.20996,0.15722 q -0.19824,1.25098 -1.01856,1.96192 -0.81347,0.7041 -2.00293,0.7041 -1.49023,0 -2.39941,-0.9707 -0.90234,-0.97754 -0.90234,-2.7959 0,-1.17578 0.38964,-2.05762 0.38965,-0.88184 1.18262,-1.31934 0.79981,-0.44433 1.73633,-0.44433 1.18262,0 1.93457,0.60156 0.75195,0.59473 0.96387,1.69531 l -1.19629,0.18457 q -0.1709,-0.73144 -0.6084,-1.10058 -0.43067,-0.36914 -1.0459,-0.36914 -0.92969,0 -1.51074,0.66992 -0.58106,0.66309 -0.58106,2.10547 0,1.46289 0.56055,2.12597 0.56055,0.66309 1.46289,0.66309 0.72461,0 1.20996,-0.44434 0.48535,-0.44433 0.61524,-1.36718 z"
           style="font-style:normal;font-variant:normal;font-weight:normal;font-stretch:normal;font-size:14px;font-family:'Liberation Sans';-inkscape-font-specification:'Liberation Sans';fill:#1d193d;fill-opacity:1"
           id="path1142"
           inkscape:connector-curvature="0" />
      </g>
      <g
         aria-label="Financial"
         style="font-style:normal;font-weight:normal;font-size:16px;line-height:0%;font-family:sans-serif;letter-spacing:0px;word-spacing:0px;fill:#1d193d;fill-opacity:1;stroke:none"
         id="text3211">
        <path
           d="m 309.00488,394.53479 v -10.02148 h 6.76074 v 1.18261 h -5.43457 v 3.10352 h 4.70313 v 1.18262 h -4.70313 v 4.55273 z"
           style="font-style:normal;font-variant:normal;font-weight:normal;font-stretch:normal;font-size:14px;font-family:'Liberation Sans';-inkscape-font-specification:'Liberation Sans';fill:#1d193d;fill-opacity:1"
           id="path1145"
           inkscape:connector-curvature="0" />
        <path
           d="m 317.34473,385.92834 v -1.41503 h 1.23047 v 1.41503 z m 0,8.60645 v -7.25977 h 1.23047 v 7.25977 z"
           style="font-style:normal;font-variant:normal;font-weight:normal;font-stretch:normal;font-size:14px;font-family:'Liberation Sans';-inkscape-font-specification:'Liberation Sans';fill:#1d193d;fill-opacity:1"
           id="path1147"
           inkscape:connector-curvature="0" />
        <path
           d="m 320.45508,394.53479 v -7.25977 h 1.10742 v 1.03223 q 0.7998,-1.19629 2.31055,-1.19629 0.65625,0 1.20312,0.23926 0.55371,0.23242 0.82715,0.61523 0.27344,0.38282 0.38281,0.90918 0.0684,0.3418 0.0684,1.19629 v 4.46387 h -1.23047 v -4.41602 q 0,-0.75195 -0.14355,-1.12109 -0.14356,-0.37598 -0.5127,-0.59473 -0.3623,-0.22558 -0.85449,-0.22558 -0.78613,0 -1.36035,0.49902 -0.56738,0.49903 -0.56738,1.89356 v 3.96484 z"
           style="font-style:normal;font-variant:normal;font-weight:normal;font-stretch:normal;font-size:14px;font-family:'Liberation Sans';-inkscape-font-specification:'Liberation Sans';fill:#1d193d;fill-opacity:1"
           id="path1149"
           inkscape:connector-curvature="0" />
        <path
           d="m 332.98535,393.63928 q -0.68359,0.58106 -1.31933,0.82031 -0.62891,0.23926 -1.35352,0.23926 -1.19629,0 -1.83887,-0.58105 -0.64258,-0.58789 -0.64258,-1.49707 0,-0.53321 0.23926,-0.97071 0.2461,-0.44433 0.63574,-0.71093 0.39649,-0.2666 0.88868,-0.40332 0.3623,-0.0957 1.09375,-0.18457 1.49023,-0.17774 2.19433,-0.42383 0.007,-0.25293 0.007,-0.32129 0,-0.75195 -0.34863,-1.05957 -0.47168,-0.41699 -1.40137,-0.41699 -0.86817,0 -1.28516,0.30761 -0.41015,0.30079 -0.6084,1.07325 l -1.20312,-0.16407 q 0.16406,-0.77246 0.54004,-1.24414 0.37597,-0.47851 1.08691,-0.73144 0.71094,-0.25977 1.64746,-0.25977 0.92969,0 1.51074,0.21875 0.58106,0.21875 0.8545,0.55371 0.27343,0.32813 0.38281,0.83399 0.0615,0.31445 0.0615,1.13476 v 1.64063 q 0,1.71582 0.0752,2.17383 0.082,0.45117 0.31445,0.86816 h -1.28515 q -0.19141,-0.38281 -0.2461,-0.89551 z m -0.10254,-2.74804 q -0.66992,0.27343 -2.00976,0.46484 -0.75879,0.10937 -1.07325,0.24609 -0.31445,0.13672 -0.48535,0.40332 -0.1709,0.25977 -0.1709,0.58106 0,0.49219 0.36915,0.82031 0.37597,0.32813 1.09375,0.32813 0.71093,0 1.26464,-0.30762 0.55371,-0.31445 0.81348,-0.85449 0.19824,-0.417 0.19824,-1.23047 z"
           style="font-style:normal;font-variant:normal;font-weight:normal;font-stretch:normal;font-size:14px;font-family:'Liberation Sans';-inkscape-font-specification:'Liberation Sans';fill:#1d193d;fill-opacity:1"
           id="path1151"
           inkscape:connector-curvature="0" />
        <path
           d="m 336.04102,394.53479 v -7.25977 h 1.10742 v 1.03223 q 0.7998,-1.19629 2.31054,-1.19629 0.65625,0 1.20313,0.23926 0.55371,0.23242 0.82715,0.61523 0.27344,0.38282 0.38281,0.90918 0.0684,0.3418 0.0684,1.19629 v 4.46387 H 340.71 v -4.41602 q 0,-0.75195 -0.14355,-1.12109 -0.14356,-0.37598 -0.5127,-0.59473 -0.3623,-0.22558 -0.85449,-0.22558 -0.78613,0 -1.36035,0.49902 -0.56739,0.49903 -0.56739,1.89356 v 3.96484 z"
           style="font-style:normal;font-variant:normal;font-weight:normal;font-stretch:normal;font-size:14px;font-family:'Liberation Sans';-inkscape-font-specification:'Liberation Sans';fill:#1d193d;fill-opacity:1"
           id="path1153"
           inkscape:connector-curvature="0" />
        <path
           d="m 348.57129,391.87561 1.20996,0.15723 q -0.19824,1.25097 -1.01855,1.96191 -0.81348,0.7041 -2.00293,0.7041 -1.49024,0 -2.39942,-0.9707 -0.90234,-0.97754 -0.90234,-2.7959 0,-1.17578 0.38965,-2.05762 0.38964,-0.88183 1.18261,-1.31933 0.79981,-0.44434 1.73633,-0.44434 1.18262,0 1.93457,0.60156 0.75195,0.59473 0.96387,1.69532 l -1.19629,0.18457 q -0.1709,-0.73145 -0.6084,-1.10059 -0.43066,-0.36914 -1.0459,-0.36914 -0.92968,0 -1.51074,0.66992 -0.58105,0.66309 -0.58105,2.10547 0,1.46289 0.56054,2.12598 0.56055,0.66308 1.46289,0.66308 0.72461,0 1.20996,-0.44433 0.48536,-0.44434 0.61524,-1.36719 z"
           style="font-style:normal;font-variant:normal;font-weight:normal;font-stretch:normal;font-size:14px;font-family:'Liberation Sans';-inkscape-font-specification:'Liberation Sans';fill:#1d193d;fill-opacity:1"
           id="path1155"
           inkscape:connector-curvature="0" />
        <path
           d="m 350.84082,385.92834 v -1.41503 h 1.23047 v 1.41503 z m 0,8.60645 v -7.25977 h 1.23047 v 7.25977 z"
           style="font-style:normal;font-variant:normal;font-weight:normal;font-stretch:normal;font-size:14px;font-family:'Liberation Sans';-inkscape-font-specification:'Liberation Sans';fill:#1d193d;fill-opacity:1"
           id="path1157"
           inkscape:connector-curvature="0" />
        <path
           d="m 358.68848,393.63928 q -0.6836,0.58106 -1.31934,0.82031 -0.62891,0.23926 -1.35352,0.23926 -1.19628,0 -1.83886,-0.58105 -0.64258,-0.58789 -0.64258,-1.49707 0,-0.53321 0.23926,-0.97071 0.24609,-0.44433 0.63574,-0.71093 0.39648,-0.2666 0.88867,-0.40332 0.36231,-0.0957 1.09375,-0.18457 1.49024,-0.17774 2.19434,-0.42383 0.007,-0.25293 0.007,-0.32129 0,-0.75195 -0.34863,-1.05957 -0.47168,-0.41699 -1.40137,-0.41699 -0.86816,0 -1.28515,0.30761 -0.41016,0.30079 -0.6084,1.07325 l -1.20313,-0.16407 q 0.16407,-0.77246 0.54004,-1.24414 0.37598,-0.47851 1.08692,-0.73144 0.71093,-0.25977 1.64746,-0.25977 0.92969,0 1.51074,0.21875 0.58105,0.21875 0.85449,0.55371 0.27344,0.32813 0.38281,0.83399 0.0615,0.31445 0.0615,1.13476 v 1.64063 q 0,1.71582 0.0752,2.17383 0.082,0.45117 0.31446,0.86816 h -1.28516 q -0.19141,-0.38281 -0.24609,-0.89551 z m -0.10254,-2.74804 q -0.66992,0.27343 -2.00977,0.46484 -0.75879,0.10937 -1.07324,0.24609 -0.31445,0.13672 -0.48535,0.40332 -0.1709,0.25977 -0.1709,0.58106 0,0.49219 0.36914,0.82031 0.37598,0.32813 1.09375,0.32813 0.71094,0 1.26465,-0.30762 0.55371,-0.31445 0.81348,-0.85449 0.19824,-0.417 0.19824,-1.23047 z"
           style="font-style:normal;font-variant:normal;font-weight:normal;font-stretch:normal;font-size:14px;font-family:'Liberation Sans';-inkscape-font-specification:'Liberation Sans';fill:#1d193d;fill-opacity:1"
           id="path1159"
           inkscape:connector-curvature="0" />
        <path
           d="m 361.7168,394.53479 v -10.02148 h 1.23047 v 10.02148 z"
           style="font-style:normal;font-variant:normal;font-weight:normal;font-stretch:normal;font-size:14px;font-family:'Liberation Sans';-inkscape-font-specification:'Liberation Sans';fill:#1d193d;fill-opacity:1"
           id="path1161"
           inkscape:connector-curvature="0" />
      </g>
      <g
         aria-label="Natural"
         style="font-style:normal;font-weight:normal;font-size:16px;line-height:0%;font-family:sans-serif;letter-spacing:0px;word-spacing:0px;fill:#1d193d;fill-opacity:1;stroke:none"
         id="text3215">
        <path
           d="m 31.877932,279.89194 v -10.02149 h 1.360351 l 5.263672,7.86817 v -7.86817 h 1.271484 v 10.02149 h -1.360351 l -5.263672,-7.875 v 7.875 z"
           style="font-style:normal;font-variant:normal;font-weight:normal;font-stretch:normal;font-size:14px;font-family:'Liberation Sans';-inkscape-font-specification:'Liberation Sans';fill:#1d193d;fill-opacity:1"
           id="path1164"
           inkscape:connector-curvature="0" />
        <path
           d="m 46.588869,278.99643 q -0.683594,0.58105 -1.319336,0.82031 -0.628906,0.23926 -1.353515,0.23926 -1.19629,0 -1.838868,-0.58105 -0.642578,-0.5879 -0.642578,-1.49708 0,-0.5332 0.239258,-0.9707 0.246094,-0.44433 0.635742,-0.71094 0.396485,-0.2666 0.888672,-0.40332 0.362305,-0.0957 1.09375,-0.18457 1.490234,-0.17773 2.194336,-0.42382 0.0068,-0.25293 0.0068,-0.32129 0,-0.75196 -0.348633,-1.05957 -0.47168,-0.417 -1.401367,-0.417 -0.868164,0 -1.285156,0.30762 -0.410157,0.30078 -0.608399,1.07324 l -1.203125,-0.16406 q 0.164063,-0.77246 0.540039,-1.24414 0.375977,-0.47852 1.086914,-0.73145 0.710938,-0.25976 1.647461,-0.25976 0.929688,0 1.510743,0.21875 0.581054,0.21875 0.854492,0.55371 0.273437,0.32813 0.382812,0.83398 0.06152,0.31446 0.06152,1.13477 v 1.64063 q 0,1.71582 0.0752,2.17382 0.08203,0.45118 0.314453,0.86817 h -1.285156 q -0.191406,-0.38282 -0.246094,-0.89551 z m -0.102539,-2.74805 q -0.669922,0.27344 -2.009766,0.46485 -0.758789,0.10937 -1.073242,0.24609 -0.314453,0.13672 -0.485351,0.40332 -0.170899,0.25977 -0.170899,0.58106 0,0.49218 0.369141,0.82031 0.375976,0.32812 1.09375,0.32812 0.710937,0 1.264648,-0.30761 0.553711,-0.31446 0.813477,-0.8545 0.198242,-0.41699 0.198242,-1.23047 z"
           style="font-style:normal;font-variant:normal;font-weight:normal;font-stretch:normal;font-size:14px;font-family:'Liberation Sans';-inkscape-font-specification:'Liberation Sans';fill:#1d193d;fill-opacity:1"
           id="path1166"
           inkscape:connector-curvature="0" />
        <path
           d="m 52.331057,278.79135 0.177734,1.08692 q -0.519531,0.10937 -0.929688,0.10937 -0.669921,0 -1.039062,-0.21191 -0.369141,-0.21192 -0.519531,-0.55371 -0.150391,-0.34864 -0.150391,-1.45606 v -4.17676 h -0.902344 v -0.95703 h 0.902344 v -1.79785 l 1.223633,-0.73828 v 2.53613 h 1.237305 v 0.95703 h -1.237305 v 4.24512 q 0,0.52637 0.06152,0.67676 0.06836,0.15039 0.211914,0.23926 0.150391,0.0889 0.423829,0.0889 0.205078,0 0.540039,-0.0478 z"
           style="font-style:normal;font-variant:normal;font-weight:normal;font-stretch:normal;font-size:14px;font-family:'Liberation Sans';-inkscape-font-specification:'Liberation Sans';fill:#1d193d;fill-opacity:1"
           id="path1168"
           inkscape:connector-curvature="0" />
        <path
           d="m 58.285158,279.89194 v -1.06641 q -0.847656,1.23047 -2.303711,1.23047 -0.642578,0 -1.203125,-0.24609 -0.553711,-0.2461 -0.827148,-0.61524 -0.266602,-0.37597 -0.375977,-0.91601 -0.0752,-0.36231 -0.0752,-1.14844 v -4.49805 h 1.230469 v 4.02637 q 0,0.96387 0.0752,1.29883 0.116211,0.48535 0.492187,0.76562 0.375977,0.27344 0.929688,0.27344 0.553711,0 1.039062,-0.28027 0.485352,-0.28711 0.683594,-0.77246 0.205078,-0.49219 0.205078,-1.42188 v -3.88965 h 1.230469 v 7.25977 z"
           style="font-style:normal;font-variant:normal;font-weight:normal;font-stretch:normal;font-size:14px;font-family:'Liberation Sans';-inkscape-font-specification:'Liberation Sans';fill:#1d193d;fill-opacity:1"
           id="path1170"
           inkscape:connector-curvature="0" />
        <path
           d="m 61.306643,279.89194 v -7.25977 h 1.107421 v 1.10059 q 0.423829,-0.77246 0.779297,-1.01856 0.362305,-0.24609 0.792969,-0.24609 0.62207,0 1.264648,0.39648 l -0.423828,1.14161 q -0.451172,-0.26661 -0.902343,-0.26661 -0.403321,0 -0.72461,0.2461 -0.321289,0.23926 -0.458008,0.66992 -0.205078,0.65625 -0.205078,1.43555 v 3.80078 z"
           style="font-style:normal;font-variant:normal;font-weight:normal;font-stretch:normal;font-size:14px;font-family:'Liberation Sans';-inkscape-font-specification:'Liberation Sans';fill:#1d193d;fill-opacity:1"
           id="path1172"
           inkscape:connector-curvature="0" />
        <path
           d="m 70.7334,278.99643 q -0.683593,0.58105 -1.319336,0.82031 -0.628906,0.23926 -1.353515,0.23926 -1.196289,0 -1.838867,-0.58105 -0.642579,-0.5879 -0.642579,-1.49708 0,-0.5332 0.239258,-0.9707 0.246094,-0.44433 0.635742,-0.71094 0.396485,-0.2666 0.888672,-0.40332 0.362305,-0.0957 1.09375,-0.18457 1.490235,-0.17773 2.194336,-0.42382 0.0068,-0.25293 0.0068,-0.32129 0,-0.75196 -0.348633,-1.05957 -0.471679,-0.417 -1.401367,-0.417 -0.868164,0 -1.285156,0.30762 -0.410156,0.30078 -0.608398,1.07324 l -1.203125,-0.16406 q 0.164062,-0.77246 0.540039,-1.24414 0.375976,-0.47852 1.086914,-0.73145 0.710937,-0.25976 1.647461,-0.25976 0.929687,0 1.510742,0.21875 0.581054,0.21875 0.854492,0.55371 0.273437,0.32813 0.382812,0.83398 0.06152,0.31446 0.06152,1.13477 v 1.64063 q 0,1.71582 0.0752,2.17382 0.08203,0.45118 0.314453,0.86817 h -1.285156 q -0.191406,-0.38282 -0.246094,-0.89551 z m -0.102539,-2.74805 q -0.669922,0.27344 -2.009765,0.46485 -0.758789,0.10937 -1.073243,0.24609 -0.314453,0.13672 -0.485351,0.40332 -0.170899,0.25977 -0.170899,0.58106 0,0.49218 0.369141,0.82031 0.375977,0.32812 1.09375,0.32812 0.710938,0 1.264649,-0.30761 0.55371,-0.31446 0.813476,-0.8545 0.198242,-0.41699 0.198242,-1.23047 z"
           style="font-style:normal;font-variant:normal;font-weight:normal;font-stretch:normal;font-size:14px;font-family:'Liberation Sans';-inkscape-font-specification:'Liberation Sans';fill:#1d193d;fill-opacity:1"
           id="path1174"
           inkscape:connector-curvature="0" />
        <path
           d="m 73.761721,279.89194 v -10.02149 h 1.230468 v 10.02149 z"
           style="font-style:normal;font-variant:normal;font-weight:normal;font-stretch:normal;font-size:14px;font-family:'Liberation Sans';-inkscape-font-specification:'Liberation Sans';fill:#1d193d;fill-opacity:1"
           id="path1176"
           inkscape:connector-curvature="0" />
      </g>
      <g
         aria-label="Cultural"
         style="font-style:normal;font-weight:normal;font-size:16px;line-height:0%;font-family:sans-serif;letter-spacing:0px;word-spacing:0px;fill:#1d193d;fill-opacity:1;stroke:none"
         id="text3219">
        <path
           d="m 319.40308,159.59254 1.32617,0.33497 q -0.41699,1.63378 -1.50391,2.49511 -1.08008,0.85449 -2.64551,0.85449 -1.62011,0 -2.63867,-0.65625 -1.01172,-0.66308 -1.54492,-1.91406 -0.52637,-1.25097 -0.52637,-2.68652 0,-1.56543 0.59473,-2.72754 0.60156,-1.16895 1.70215,-1.77051 1.10742,-0.6084 2.43359,-0.6084 1.50391,0 2.5293,0.76563 1.02539,0.76562 1.42871,2.15332 l -1.30566,0.30762 q -0.34864,-1.09375 -1.01172,-1.59278 -0.66309,-0.49902 -1.66797,-0.49902 -1.15528,0 -1.93457,0.55371 -0.77246,0.55371 -1.08692,1.49023 -0.31445,0.92969 -0.31445,1.9209 0,1.27832 0.36914,2.23535 0.37598,0.9502 1.16211,1.42188 0.78613,0.47168 1.70215,0.47168 1.11426,0 1.88672,-0.64258 0.77246,-0.64258 1.0459,-1.90723 z"
           style="font-style:normal;font-variant:normal;font-weight:normal;font-stretch:normal;font-size:14px;font-family:'Liberation Sans';-inkscape-font-specification:'Liberation Sans';text-align:center;text-anchor:middle;fill:#1d193d;fill-opacity:1"
           id="path1179"
           inkscape:connector-curvature="0" />
        <path
           d="m 326.97046,163.10622 v -1.06641 q -0.84766,1.23047 -2.30371,1.23047 -0.64258,0 -1.20313,-0.24609 -0.55371,-0.2461 -0.82715,-0.61524 -0.2666,-0.37598 -0.37597,-0.91601 -0.0752,-0.36231 -0.0752,-1.14844 v -4.49805 h 1.23047 v 4.02637 q 0,0.96387 0.0752,1.29883 0.11621,0.48535 0.49218,0.76562 0.37598,0.27344 0.92969,0.27344 0.55371,0 1.03906,-0.28027 0.48536,-0.28711 0.6836,-0.77247 0.20508,-0.49218 0.20508,-1.42187 v -3.88965 h 1.23046 v 7.25977 z"
           style="font-style:normal;font-variant:normal;font-weight:normal;font-stretch:normal;font-size:14px;font-family:'Liberation Sans';-inkscape-font-specification:'Liberation Sans';text-align:center;text-anchor:middle;fill:#1d193d;fill-opacity:1"
           id="path1181"
           inkscape:connector-curvature="0" />
        <path
           d="m 329.97827,163.10622 v -10.02149 h 1.23047 v 10.02149 z"
           style="font-style:normal;font-variant:normal;font-weight:normal;font-stretch:normal;font-size:14px;font-family:'Liberation Sans';-inkscape-font-specification:'Liberation Sans';text-align:center;text-anchor:middle;fill:#1d193d;fill-opacity:1"
           id="path1183"
           inkscape:connector-curvature="0" />
        <path
           d="m 335.80933,162.00563 0.17773,1.08691 q -0.51953,0.10938 -0.92969,0.10938 -0.66992,0 -1.03906,-0.21191 -0.36914,-0.21192 -0.51953,-0.55372 -0.15039,-0.34863 -0.15039,-1.45605 v -4.17676 h -0.90235 v -0.95703 h 0.90235 v -1.79785 l 1.22363,-0.73828 v 2.53613 h 1.23731 v 0.95703 h -1.23731 v 4.24512 q 0,0.52637 0.0615,0.67676 0.0684,0.15039 0.21192,0.23925 0.15039,0.0889 0.42383,0.0889 0.20508,0 0.54004,-0.0479 z"
           style="font-style:normal;font-variant:normal;font-weight:normal;font-stretch:normal;font-size:14px;font-family:'Liberation Sans';-inkscape-font-specification:'Liberation Sans';text-align:center;text-anchor:middle;fill:#1d193d;fill-opacity:1"
           id="path1185"
           inkscape:connector-curvature="0" />
        <path
           d="m 341.76343,163.10622 v -1.06641 q -0.84766,1.23047 -2.30371,1.23047 -0.64258,0 -1.20313,-0.24609 -0.55371,-0.2461 -0.82715,-0.61524 -0.2666,-0.37598 -0.37597,-0.91601 -0.0752,-0.36231 -0.0752,-1.14844 v -4.49805 h 1.23047 v 4.02637 q 0,0.96387 0.0752,1.29883 0.11621,0.48535 0.49218,0.76562 0.37598,0.27344 0.92969,0.27344 0.55371,0 1.03906,-0.28027 0.48535,-0.28711 0.6836,-0.77247 0.20507,-0.49218 0.20507,-1.42187 v -3.88965 h 1.23047 v 7.25977 z"
           style="font-style:normal;font-variant:normal;font-weight:normal;font-stretch:normal;font-size:14px;font-family:'Liberation Sans';-inkscape-font-specification:'Liberation Sans';text-align:center;text-anchor:middle;fill:#1d193d;fill-opacity:1"
           id="path1187"
           inkscape:connector-curvature="0" />
        <path
           d="m 344.78491,163.10622 v -7.25977 h 1.10742 v 1.10059 q 0.42383,-0.77246 0.7793,-1.01856 0.36231,-0.24609 0.79297,-0.24609 0.62207,0 1.26465,0.39648 l -0.42383,1.1416 q -0.45117,-0.2666 -0.90234,-0.2666 -0.40332,0 -0.72461,0.2461 -0.32129,0.23925 -0.45801,0.66992 -0.20508,0.65625 -0.20508,1.43555 v 3.80078 z"
           style="font-style:normal;font-variant:normal;font-weight:normal;font-stretch:normal;font-size:14px;font-family:'Liberation Sans';-inkscape-font-specification:'Liberation Sans';text-align:center;text-anchor:middle;fill:#1d193d;fill-opacity:1"
           id="path1189"
           inkscape:connector-curvature="0" />
        <path
           d="m 354.21167,162.21071 q -0.68359,0.58105 -1.31934,0.82031 -0.6289,0.23926 -1.35351,0.23926 -1.19629,0 -1.83887,-0.58106 -0.64258,-0.58789 -0.64258,-1.49707 0,-0.5332 0.23926,-0.9707 0.24609,-0.44434 0.63574,-0.71094 0.39649,-0.2666 0.88867,-0.40332 0.36231,-0.0957 1.09375,-0.18457 1.49024,-0.17773 2.19434,-0.42383 0.007,-0.25293 0.007,-0.32128 0,-0.75196 -0.34864,-1.05957 -0.47168,-0.417 -1.40136,-0.417 -0.86817,0 -1.28516,0.30762 -0.41016,0.30078 -0.6084,1.07324 l -1.20312,-0.16406 q 0.16406,-0.77246 0.54004,-1.24414 0.37597,-0.47852 1.08691,-0.73145 0.71094,-0.25976 1.64746,-0.25976 0.92969,0 1.51074,0.21875 0.58106,0.21875 0.8545,0.55371 0.27343,0.32812 0.38281,0.83398 0.0615,0.31446 0.0615,1.13477 v 1.64062 q 0,1.71582 0.0752,2.17383 0.082,0.45117 0.31445,0.86817 h -1.28516 q -0.1914,-0.38282 -0.24609,-0.89551 z m -0.10254,-2.74805 q -0.66992,0.27344 -2.00976,0.46485 -0.75879,0.10937 -1.07325,0.24609 -0.31445,0.13672 -0.48535,0.40332 -0.1709,0.25977 -0.1709,0.58105 0,0.49219 0.36914,0.82032 0.37598,0.32812 1.09375,0.32812 0.71094,0 1.26465,-0.30762 0.55371,-0.31445 0.81348,-0.85449 0.19824,-0.41699 0.19824,-1.23047 z"
           style="font-style:normal;font-variant:normal;font-weight:normal;font-stretch:normal;font-size:14px;font-family:'Liberation Sans';-inkscape-font-specification:'Liberation Sans';text-align:center;text-anchor:middle;fill:#1d193d;fill-opacity:1"
           id="path1191"
           inkscape:connector-curvature="0" />
        <path
           d="m 357.23999,163.10622 v -10.02149 h 1.23047 v 10.02149 z"
           style="font-style:normal;font-variant:normal;font-weight:normal;font-stretch:normal;font-size:14px;font-family:'Liberation Sans';-inkscape-font-specification:'Liberation Sans';text-align:center;text-anchor:middle;fill:#1d193d;fill-opacity:1"
           id="path1193"
           inkscape:connector-curvature="0" />
      </g>
      <path
         d="m 103.10444,303.40471 c -8.13615,0 -14.73451,6.48305 -14.96875,14.5625 -4.37363,0.53075 -7.83864,3.88704 -8.59375,8.1875 -0.57695,-0.16404 -1.18296,-0.25 -1.8125,-0.25 -3.65889,0 -6.625,2.96611 -6.625,6.625 0,3.65889 2.96611,6.625 6.625,6.625 0.0412,0 0.0839,7.5e-4 0.125,0 h 43.25 c 0.084,0.002 0.16564,0 0.25,0 6.76549,0 12.25,-5.48451 12.25,-12.25 0,-6.76549 -5.48451,-12.25 -12.25,-12.25 -1.25799,0 -2.48261,0.17902 -3.625,0.53125 -1.47245,-6.73832 -7.44499,-11.78125 -14.625,-11.78125 z"
         id="path3325"
         style="fill:#ffffff;fill-opacity:1;stroke:none"
         inkscape:connector-curvature="0" />
      <path
         d="m 97.35444,340.64189 13.14905,-0.0884 -5.89783,6.20032 h 6.28782 l -22.53213,20.3738 9.41766,-16.64978 h -9.7504 z"
         id="rect4104"
         style="fill:#ffffff;fill-opacity:1;stroke:none"
         inkscape:connector-curvature="0" />
      <path
         d="m 223.35444,245.64189 a 6.5,6.5 0 0 1 -13,0 6.5,6.5 0 1 1 13,0 z"
         id="path4115"
         style="fill:#ffffff;fill-opacity:1;stroke:none"
         inkscape:connector-curvature="0" />
      <g
         aria-label="$"
         transform="scale(0.96796135,1.0330991)"
         style="font-style:normal;font-variant:normal;font-weight:bold;font-stretch:normal;font-size:62.99202728px;line-height:0%;font-family:'DejaVu Sans';-inkscape-font-specification:'DejaVu Sans Bold';letter-spacing:0px;word-spacing:0px;fill:#ffffff;fill-opacity:1;stroke:none"
         id="text4117">
        <path
           d="m 349.33586,352.30382 h -4.98276 l -0.0308,-9.2581 q -3.84473,-0.15379 -7.4434,-0.86122 -3.59866,-0.70743 -7.01278,-1.9685 v -8.05856 q 3.53715,1.81472 7.13582,2.79897 3.62942,0.95349 7.35112,1.07652 v -9.56568 l -1.01501,-0.18455 q -7.35112,-1.29183 -10.45766,-4.06003 -3.07579,-2.76821 -3.07579,-7.96628 0,-5.50565 3.75246,-8.58143 3.78321,-3.10654 10.76524,-3.38336 l 0.0308,-7.10506 h 4.98276 v 6.98202 q 3.07579,0.24607 6.15157,0.76895 3.07578,0.52288 6.18232,1.35334 v 7.81249 q -3.07578,-1.29183 -6.15156,-1.99926 -3.07579,-0.73818 -6.18233,-0.89197 v 8.82749 l 0.98425,0.18455 q 7.81249,1.23031 10.94979,4.12155 3.16806,2.86048 3.16806,8.48916 0,5.65944 -3.75246,8.70446 -3.75245,3.01427 -11.34964,3.44488 z m -4.98276,-34.97165 v -8.02779 q -2.18381,0.12303 -3.5064,1.19956 -1.29182,1.04576 -1.29182,2.67593 0,1.81471 1.19955,2.86047 1.19956,1.01501 3.59867,1.29183 z m 4.98276,10.02705 v 8.55068 q 2.67593,-0.0308 3.99852,-1.04577 1.35335,-1.015 1.35335,-3.04502 0,-2.09153 -1.23032,-3.10654 -1.23031,-1.04577 -4.12155,-1.35335 z"
           style="font-style:normal;font-variant:normal;font-weight:bold;font-stretch:normal;font-family:'DejaVu Sans';-inkscape-font-specification:'DejaVu Sans Bold';fill:#ffffff"
           id="path1196"
           inkscape:connector-curvature="0" />
      </g>
      <path
         d="m 370.54194,185.27971 v 4.25 c 2.40687,5.93695 6.48921,9.66538 10.71875,13.15625 -2.56481,2.16177 -4.97871,4.30566 -6.53125,6.46875 -4.4306,6.17297 -7.61808,15.48978 1.4375,23.5 1.42182,1.25769 2.9963,2.40854 4.59375,3.53125 -5.88894,5.16048 -10.34375,10.0925 -10.34375,14.375 v 3.125 h 5.65625 v -2.0625 c 0,-0.13847 0.0255,-0.27014 0.0312,-0.40625 h 18.34375 c 0.006,0.13611 0.0312,0.26778 0.0312,0.40625 v 2.0625 h 5.6875 v -3.125 c 0,-4.27818 -4.46366,-9.22018 -10.34375,-14.375 1.59745,-1.12271 3.17193,-2.27356 4.59375,-3.53125 9.05558,-8.01022 5.83685,-17.32703 1.40625,-23.5 -1.54888,-2.15798 -3.94212,-4.31211 -6.5,-6.46875 4.22649,-3.48886 8.28224,-7.22328 10.6875,-13.15625 v -4.25 h -5.78125 l -0.0625,2.21875 h -17.75 l -0.0937,-2.21875 h -5.78125 z m 6.09375,3.625 h 17.3125 c -0.29461,1.15845 -0.90725,2.32807 -1.71875,3.46875 h -13.875 c -0.81137,-1.1405 -1.42409,-2.31048 -1.71875,-3.46875 z m 2.8125,4.875 h 11.6875 c -1.59556,1.85929 -3.66399,3.70112 -5.84375,5.53125 -2.17867,-1.82905 -4.24773,-3.67309 -5.84375,-5.53125 z m 5.84375,12.21875 c 1.85073,1.56418 3.62436,3.2131 5.21875,5.09375 0.10184,0.12013 0.18318,0.25241 0.28125,0.375 h -11.03125 c 0.0981,-0.12259 0.17941,-0.25487 0.28125,-0.375 1.59963,-1.88683 3.39277,-3.52491 5.25,-5.09375 z m -6.53125,6.875 h 13.0625 c 0.69383,1.08919 1.25038,2.24432 1.625,3.4375 h -16.34375 c 0.37506,-1.19456 0.96127,-2.34721 1.65625,-3.4375 z m -2,4.84375 h 17.03125 c 0.23438,1.20427 0.31211,2.4085 0.15625,3.625 h -17.3125 c -0.15586,-1.2165 -0.10938,-2.42073 0.125,-3.625 z m 0.1875,5.0625 h 16.6875 c -0.32611,1.21265 -0.88716,2.3975 -1.6875,3.53125 h -13.34375 c -0.79807,-1.13168 -1.33052,-2.321 -1.65625,-3.53125 z m 2.8125,4.9375 h 11.03125 c -0.45726,0.48484 -0.93415,0.95256 -1.5,1.40625 -1.34725,1.0802 -2.68676,2.17651 -4,3.25 -1.31923,-1.07857 -2.64631,-2.16464 -4,-3.25 -0.56815,-0.45553 -1.07256,-0.91932 -1.53125,-1.40625 z m 5.53125,11.625 c 2.61122,1.82365 4.9889,3.67418 6.6875,5.78125 h -13.40625 c 1.69899,-2.10756 4.10683,-3.95719 6.71875,-5.78125 z m -7.71875,7.1875 h 15.40625 c 0.62368,1.02062 1.08252,2.10582 1.3125,3.28125 h -18.03125 c 0.22998,-1.17543 0.68882,-2.26063 1.3125,-3.28125 z"
         id="path4147"
         style="fill:#ffffff;stroke:none"
         inkscape:connector-curvature="0" />
      <path
         d="m 330.22944,72.40471 c -1.17317,12.52007 -16.47952,19.18252 -19.62105,20.97503 l 24.2773,27.68122 c 10.71277,-2.2773 16.23315,-9.65284 19.96875,-18.90625 z m 6,2 -0.25,4.25 19.4375,23.3125 -0.0312,0.25 c -3.46125,9.41044 -9.73525,16.58939 -20.14071,19.28125 v 1.75 c 8.68872,-2.88239 15.15147,-5.2799 26.73446,-19.59375 z m -25.62105,19.5 -0.004,8.625 24.0625,28.21875 -0.0625,-9.09375 z m 49.30855,13.21875 c -9.98071,11.78032 -17.38764,14.05001 -24.67191,16.625 v 1.96875 c 10.14268,-3.41113 17.46545,-6.52415 28.35941,-14.6875 z m -0.33655,7.4205 c -4.39085,2.82551 -10.18406,6.97848 -24.33536,11.61075 v 1.46875 c 7.32448,-2.67823 12.98252,-4.77697 26.07811,-11.28125 z m 1.6803,2.5795 c -10.59943,4.88603 -18.73139,8.30001 -26.01566,10.875 v 2.75 c 8.04893,-2.06738 15.70154,-4.88107 26.04686,-8.875 z"
         id="rect4168"
         style="fill:#ffffff;fill-opacity:1;stroke:none"
         inkscape:connector-curvature="0" />
    </g>
    <text
       xml:space="preserve"
       style="font-style:normal;font-variant:normal;font-weight:normal;font-stretch:normal;font-size:0.70555556px;line-height:1.25;font-family:sans-serif;-inkscape-font-specification:'sans-serif, Normal';font-variant-ligatures:normal;font-variant-caps:normal;font-variant-numeric:normal;font-feature-settings:normal;text-align:start;letter-spacing:0px;word-spacing:0px;writing-mode:lr-tb;text-anchor:start;fill:#000000;fill-opacity:1;stroke:none;stroke-width:0.26458332"
       x="-1.8674611"
       y="229.194"
       id="text978"
       inkscape:export-filename="C:\Users\dmarin\Dropbox\Pro\OpenDC\02 IT\00 - Website\01 Images\services\256px\s01_icon_opendata.png"
       inkscape:export-xdpi="255.90492"
       inkscape:export-ydpi="255.90492"><tspan
         sodipodi:role="line"
         x="-1.8674611"
         y="229.194"
         style="font-style:normal;font-variant:normal;font-weight:normal;font-stretch:normal;font-size:0.70555556px;font-family:sans-serif;-inkscape-font-specification:'sans-serif, Normal';font-variant-ligatures:normal;font-variant-caps:normal;font-variant-numeric:normal;font-feature-settings:normal;text-align:start;writing-mode:lr-tb;text-anchor:start;stroke-width:0.26458332"
         id="tspan982">Image by Joo Batista Neto distributed under Creative Commons Attribution 3.0</tspan></text>
  </g>
</svg>
