<?xml version="1.0" encoding="UTF-8" standalone="no"?>
<!-- Created with Inkscape (http://www.inkscape.org/) -->

<svg
   xmlns:dc="http://purl.org/dc/elements/1.1/"
   xmlns:cc="http://creativecommons.org/ns#"
   xmlns:rdf="http://www.w3.org/1999/02/22-rdf-syntax-ns#"
   xmlns:svg="http://www.w3.org/2000/svg"
   xmlns="http://www.w3.org/2000/svg"
   xmlns:sodipodi="http://sodipodi.sourceforge.net/DTD/sodipodi-0.dtd"
   xmlns:inkscape="http://www.inkscape.org/namespaces/inkscape"
   width="30.001413mm"
   height="30mm"
   viewBox="0 0 30.001413 30"
   version="1.1"
   id="svg713"
   inkscape:version="0.92.2 (5c3e80d, 2017-08-06)"
   sodipodi:docname="image_s05.svg">
  <defs
     id="defs707" />
  <sodipodi:namedview
     id="base"
     pagecolor="#ffffff"
     bordercolor="#666666"
     borderopacity="1.0"
     inkscape:pageopacity="0.0"
     inkscape:pageshadow="2"
     inkscape:zoom="0.35"
     inkscape:cx="-430.44728"
     inkscape:cy="1508.1215"
     inkscape:document-units="mm"
     inkscape:current-layer="layer1"
     showgrid="false"
     inkscape:window-width="3200"
     inkscape:window-height="1675"
     inkscape:window-x="-13"
     inkscape:window-y="-13"
     inkscape:window-maximized="1" />
  <metadata
     id="metadata710">
    <rdf:RDF>
      <cc:Work
         rdf:about="">
        <dc:format>image/svg+xml</dc:format>
        <dc:type
           rdf:resource="http://purl.org/dc/dcmitype/StillImage" />
        <dc:title></dc:title>
      </cc:Work>
    </rdf:RDF>
  </metadata>
  <g
     inkscape:label="Layer 1"
     inkscape:groupmode="layer"
     id="layer1"
     transform="translate(-34.136199,-517.85714)">
    <g
       id="g1252"
       style="fill:#4d4d4d;fill-opacity:1"
       transform="matrix(0.55298769,0,0,0.55298769,-26.023769,432.81918)"
       inkscape:export-filename="C:\Users\dmarin\Dropbox\Pro\OpenDC\02 IT\00 - Website\01 Images\services\256px\s05_icon_mobility.png"
       inkscape:export-xdpi="255.69339"
       inkscape:export-ydpi="255.69339">
      <path
         style="fill:#4d4d4d;fill-opacity:1;stroke-width:0.26458332"
         d="m 136.57687,207.52316 c -0.80789,-0.65419 -1.14691,-3.92904 -1.00565,-9.71441 l 0.10982,-4.49791 1.65206,-4.12092 c 1.71425,-4.27609 2.41039,-5.34079 3.89857,-5.96259 1.10364,-0.46114 14.97092,-0.53504 16.15908,-0.0861 1.48665,0.5617 2.15334,1.56122 3.77348,5.65738 l 1.57957,3.99359 0.13771,6.95767 0.1377,6.95767 -0.64385,0.64384 c -0.56101,0.56101 -0.88524,0.64385 -2.51999,0.64385 -1.63917,0 -1.95816,-0.082 -2.52556,-0.64943 -0.53338,-0.53337 -0.64944,-0.91164 -0.64944,-2.11667 v -1.46723 h -7.27604 -7.27604 v 1.5683 c 0,1.37912 -0.0841,1.63444 -0.69714,2.11666 -0.94005,0.73944 -3.9764,0.78718 -4.85428,0.0763 z m 4.90199,-6.52738 c 1.26876,-1.26876 0.40422,-3.31932 -1.39946,-3.31932 -1.28593,0 -1.91986,0.62509 -1.91986,1.89309 0,1.94283 1.96039,2.78516 3.31932,1.42623 z m 18.61099,0.18641 c 1.4685,-1.21924 0.63953,-3.50573 -1.27101,-3.50573 -1.2743,0 -1.9268,0.68536 -1.9268,2.02382 0,1.70327 1.88119,2.57505 3.19781,1.48191 z m -0.76364,-8.55275 c 0,-0.30201 -0.48821,-1.79778 -1.08491,-3.32394 -0.85528,-2.18751 -1.22293,-2.82732 -1.73702,-3.02277 -0.83579,-0.31777 -13.34323,-0.32571 -14.17623,-0.009 -0.49162,0.18691 -0.87472,0.88146 -1.75957,3.19001 -0.62212,1.62309 -1.06518,3.12291 -0.98458,3.33294 0.12404,0.32325 1.65039,0.38187 9.94442,0.38187 9.74009,0 9.79789,-0.003 9.79789,-0.54911 z m -47.88959,10.60327 c -0.42669,-0.42669 -0.52916,-0.88194 -0.52916,-2.35082 0,-1.62024 -0.0688,-1.8667 -0.62191,-2.22914 -1.45568,-0.95379 -1.49476,-1.30006 -1.49476,-13.24287 V 174.4139 l 1.57253,-7.6645 c 0.86489,-4.21547 1.8073,-8.11944 2.09425,-8.67549 0.66381,-1.28634 2.21507,-2.76342 3.74155,-3.56262 l 1.19063,-0.62337 h 11.1125 11.1125 l 1.30252,0.64106 c 1.66738,0.82064 3.23653,2.3929 3.91188,3.91964 0.29197,0.66003 1.23246,4.59276 2.08999,8.7394 1.3914,6.72817 1.55915,7.87719 1.55915,10.67952 v 3.14017 h -3.44247 c -5.67406,0 -6.58756,0.72359 -9.25279,7.32912 l -1.68666,4.18026 -0.15123,3.57187 -0.15123,3.57188 -7.17748,0.0703 -7.17748,0.0703 -0.12397,1.49497 c -0.18583,2.24088 -0.58066,2.46539 -4.33579,2.46539 -2.66062,0 -3.07535,-0.0619 -3.54257,-0.52917 z m 6.62675,-8.6651 c 1.62473,-1.45182 1.23329,-4.03832 -0.75387,-4.98128 -2.47624,-1.17506 -5.17804,1.62769 -3.91799,4.06437 0.59343,1.14756 1.41841,1.64451 2.73002,1.64451 0.8563,0 1.32348,-0.17505 1.94184,-0.7276 z m 25.14679,-20.66681 c 0.67283,-0.83117 0.64722,-1.31379 -0.32931,-6.20531 -0.53935,-2.7017 -1.01492,-4.41245 -1.3423,-4.82864 l -0.507,-0.64455 h -12.16902 c -7.3749,0 -12.35838,0.10134 -12.64967,0.25723 -0.66465,0.35571 -0.74465,0.61399 -1.74821,5.64447 -1.02495,5.13765 -0.9272,5.90509 0.80843,6.34688 0.29104,0.0741 6.58218,0.11666 13.98031,0.0946 l 13.45115,-0.0401 z m -7.96104,-14.58892 c 0.79531,-0.79531 0.70555,-2.20411 -0.18507,-2.90466 -0.68818,-0.54132 -0.93516,-0.55892 -6.7686,-0.48223 -5.6372,0.0741 -6.08021,0.11499 -6.42951,0.59319 -0.50816,0.69569 -0.47391,2.24603 0.0627,2.83901 0.40039,0.44243 0.96672,0.48386 6.61459,0.48386 5.82392,0 6.20692,-0.0302 6.70586,-0.52917 z"
         id="path1266"
         inkscape:connector-curvature="0" />
      <path
         style="fill:#4d4d4d;fill-opacity:1;stroke-width:0.26458332"
         d="m 136.8972,207.81813 c -0.96777,-0.38938 -1.11891,-1.49278 -1.11891,-8.16868 v -6.51997 l 1.60952,-4.01036 c 1.73777,-4.32993 2.58312,-5.5406 4.2038,-6.02046 0.58446,-0.17305 3.71957,-0.24466 8.38403,-0.19149 l 7.45046,0.0849 1.0162,0.81849 c 0.87529,0.705 1.24191,1.3853 2.644,4.90622 l 1.6278,4.08773 0.15832,6.94573 0.15832,6.94572 -0.64962,0.64962 c -0.56761,0.56761 -0.88643,0.64961 -2.52575,0.64961 -1.63917,0 -1.95816,-0.082 -2.52556,-0.64943 -0.53338,-0.53337 -0.64944,-0.91164 -0.64944,-2.11667 v -1.46723 h -7.27604 -7.27604 v 1.46723 c 0,1.20503 -0.11606,1.5833 -0.64943,2.11667 -0.56761,0.56761 -0.87596,0.6468 -2.4474,0.62854 -0.98888,-0.0115 -1.9493,-0.0818 -2.13426,-0.15619 z m 4.58166,-6.82235 c 0.70848,-0.70848 0.81732,-1.44763 0.34524,-2.34452 -0.42015,-0.79822 -0.73787,-0.96606 -1.83761,-0.97075 -1.22457,-0.005 -1.87987,0.69886 -1.87987,2.01977 0,1.83445 2.04693,2.62081 3.37224,1.2955 z m 18.78541,0 c 1.28795,-1.28795 0.40337,-3.31932 -1.44543,-3.31932 -1.2651,0 -1.97972,0.73336 -1.97972,2.03163 0,1.80076 2.11641,2.59643 3.42515,1.28769 z m -1.09737,-7.96031 c 0.36716,-0.36716 0.35338,-0.5446 -0.13875,-1.78594 -0.30052,-0.75805 -0.78483,-2.03312 -1.07622,-2.83348 -0.89874,-2.46853 -0.58624,-2.38125 -8.52634,-2.38125 -5.13654,0 -7.04439,0.0856 -7.36721,0.33073 -0.45998,0.34921 -2.57592,5.5349 -2.57592,6.31299 0,0.25076 0.14882,0.51598 0.33073,0.58938 0.1819,0.0734 4.51917,0.14285 9.63839,0.15434 8.04898,0.0181 9.36279,-0.0342 9.71532,-0.38677 z m -47.68416,10.11404 c -0.4716,-0.50199 -0.57528,-0.92948 -0.57528,-2.37194 0,-1.48782 -0.0816,-1.80324 -0.52831,-2.04231 -0.29056,-0.15551 -0.76681,-0.75027 -1.05833,-1.32169 -0.50501,-0.98991 -0.53003,-1.55514 -0.53003,-11.97553 v -10.93659 l 1.59777,-7.78749 c 1.73883,-8.47506 2.02474,-9.25736 4.00177,-10.94963 0.60794,-0.52037 1.75774,-1.19023 2.55512,-1.48856 1.38713,-0.51899 1.90821,-0.53909 12.05953,-0.46514 10.47666,0.0763 10.62535,0.085 11.85195,0.68915 1.55611,0.76648 3.18809,2.37993 3.90481,3.86049 0.30243,0.62473 1.26621,4.61329 2.14174,8.86346 1.47484,7.15948 1.58638,7.94533 1.51719,10.68963 l -0.0747,2.96206 -3.72473,0.13229 c -3.49627,0.12418 -3.79113,0.17628 -4.80724,0.84949 -1.63479,1.08309 -2.32931,2.1824 -4.08895,6.47213 l -1.60928,3.92317 -0.12017,3.63803 -0.12017,3.63802 h -7.25067 -7.25067 v 1.01885 c 0,1.34187 -0.46707,2.63346 -1.06877,2.95548 -0.26616,0.14245 -1.7807,0.259 -3.36563,0.259 -2.6701,0 -2.92393,-0.045 -3.45698,-0.61237 z m 6.72722,-8.75388 c 0.69441,-0.69441 0.89958,-1.11982 0.89958,-1.86522 0,-1.35827 -0.67214,-2.50305 -1.72887,-2.94458 -1.13974,-0.47622 -1.56045,-0.47217 -2.60839,0.0251 -1.56564,0.74294 -2.15824,2.53627 -1.35279,4.09384 0.5694,1.1011 1.41016,1.59042 2.73267,1.59042 0.96441,0 1.30874,-0.15053 2.0578,-0.89958 z m 24.94906,-20.37424 c 0.39804,-0.36033 0.55375,-0.81291 0.54619,-1.5875 -0.0177,-1.80876 -1.69736,-9.08461 -2.2342,-9.67781 -0.47119,-0.52066 -0.78385,-0.53378 -12.71587,-0.53378 -11.25842,0 -12.27787,0.0369 -12.79847,0.46302 -0.82744,0.67731 -2.56609,9.57665 -2.0722,10.60666 0.65887,1.37406 0.61828,1.37059 15.18549,1.29949 12.88517,-0.0629 13.55893,-0.0901 14.08906,-0.57008 z m -7.8862,-14.67268 c 0.74816,-0.92452 0.66091,-2.2574 -0.19167,-2.92804 -0.65714,-0.51691 -1.03004,-0.54837 -6.49969,-0.54837 -3.27897,0 -6.01301,0.11264 -6.28648,0.25899 -1.05149,0.56274 -1.19359,2.58302 -0.23644,3.36143 0.64212,0.52221 1.3415,0.57442 7.06272,0.52721 5.58847,-0.0461 5.65125,-0.053 6.15156,-0.67122 z"
         id="path1264"
         inkscape:connector-curvature="0" />
      <path
         style="fill:#4d4d4d;fill-opacity:1;stroke-width:0.26458332"
         d="m 136.90105,207.67152 c -1.0168,-0.49027 -1.169,-1.72708 -1.06719,-8.67214 l 0.095,-6.48229 1.54486,-3.70417 c 1.67771,-4.02269 2.51466,-5.1747 4.10587,-5.65144 0.64592,-0.19352 3.5098,-0.2996 7.98771,-0.29587 9.54493,0.008 9.1272,-0.21452 11.66429,6.21189 l 1.46238,3.70417 0.17506,6.95047 0.17507,6.95047 -0.65631,0.6563 c -0.57249,0.57249 -0.8906,0.6563 -2.4911,0.6563 -2.50196,0 -3.00364,-0.41351 -3.16226,-2.60648 l -0.11768,-1.62685 h -7.24424 -7.24424 v 1.46723 c 0,1.20503 -0.11606,1.5833 -0.64943,2.11667 -0.55719,0.55719 -0.88602,0.64689 -2.31511,0.63153 -0.91612,-0.01 -1.93433,-0.14746 -2.2627,-0.30579 z m 4.67887,-6.72345 c 1.18199,-1.50265 0.35618,-3.27161 -1.52729,-3.27161 -1.28536,0 -1.99892,0.72524 -1.99892,2.03163 0,1.83907 2.39304,2.68058 3.52621,1.23998 z m 18.68435,0.0477 c 0.70849,-0.70848 0.81733,-1.44763 0.34524,-2.34452 -0.42163,-0.80105 -0.73774,-0.96607 -1.85941,-0.97075 -0.74773,-0.003 -1.10473,0.16343 -1.54204,0.71938 -1.57269,1.99935 1.25282,4.39929 3.05621,2.59589 z m -0.96348,-7.91889 c 0.23568,-0.28399 0.0586,-1.01198 -0.78821,-3.24115 -0.6007,-1.5812 -1.3314,-3.08326 -1.62379,-3.33792 -0.47697,-0.41543 -1.23755,-0.46302 -7.39887,-0.46302 -4.04634,0 -7.06919,0.10807 -7.35885,0.26309 -0.50103,0.26814 -2.64861,5.41046 -2.64861,6.34201 0,0.272 0.14882,0.5546 0.33073,0.628 0.1819,0.0734 4.57263,0.14285 9.75718,0.15434 7.72488,0.0171 9.48133,-0.0452 9.73042,-0.34535 z m -47.81805,10.07262 c -0.47121,-0.50158 -0.57528,-0.92964 -0.57528,-2.36624 0,-1.41102 -0.0964,-1.82147 -0.49307,-2.09962 -0.27119,-0.19015 -0.747,-0.76245 -1.05735,-1.27177 -0.55189,-0.90573 -0.56429,-1.16596 -0.56526,-11.86362 l -9.9e-4,-10.93758 1.46756,-7.18638 c 0.80716,-3.95251 1.64702,-7.74246 1.86636,-8.42212 0.54307,-1.68278 2.18904,-3.47382 4.01768,-4.3718 l 1.51194,-0.74246 h 10.98021 10.98021 l 1.33354,0.70393 c 1.53113,0.80823 3.42738,2.74751 3.98015,4.07048 0.2082,0.4983 1.09209,4.37636 1.9642,8.6179 1.36043,6.61653 1.58565,8.11535 1.58565,10.55229 v 2.84037 l -3.37344,0.12362 c -5.72093,0.20964 -6.63961,0.92966 -9.26574,7.26208 l -1.73926,4.19391 -0.1121,3.63388 -0.1121,3.63388 -7.31691,0.0703 -7.31691,0.0703 -0.13331,1.67572 c -0.18251,2.29408 -0.40462,2.42532 -4.10447,2.42532 -2.73734,0 -2.98677,-0.0434 -3.52131,-0.61237 z m 6.72722,-8.75388 c 2.55009,-2.55009 -0.66187,-6.55326 -3.73441,-4.65433 -2.59314,1.60265 -1.43924,5.55391 1.62191,5.55391 1.02661,0 1.35109,-0.13817 2.1125,-0.89958 z m 24.80869,-20.28629 c 0.92016,-0.7238 0.90571,-1.45139 -0.1321,-6.64992 -0.56975,-2.85391 -0.98742,-4.32498 -1.33341,-4.69636 -0.49354,-0.52975 -0.75598,-0.54076 -12.8879,-0.54076 -11.66012,0 -12.40969,0.0283 -12.82185,0.4837 -0.37376,0.41301 -2.2901,8.80811 -2.2901,10.03249 0,0.20483 0.34803,0.72046 0.7734,1.14583 l 0.77339,0.77339 h 13.61072 c 13.36896,0 13.62309,-0.01 14.30785,-0.54837 z m -7.79669,-14.64003 c 0.74351,-0.67361 0.75824,-2.33678 0.0272,-3.06785 -0.49834,-0.49834 -0.88194,-0.52916 -6.58527,-0.52916 -5.38287,0 -6.11693,0.0515 -6.6033,0.46302 -0.71512,0.60511 -0.92374,1.62226 -0.50089,2.44218 0.64085,1.24265 1.21414,1.341 7.37844,1.26575 5.20398,-0.0635 5.77838,-0.11598 6.28386,-0.57394 z"
         id="path1262"
         inkscape:connector-curvature="0" />
      <path
         style="fill:#4d4d4d;fill-opacity:1;stroke-width:0.26458332"
         d="m 136.90199,207.68613 c -0.98599,-0.49895 -1.15644,-1.87297 -1.07084,-8.63209 l 0.0794,-6.27237 1.524,-3.70417 c 1.70117,-4.13478 2.10439,-4.79401 3.39845,-5.55625 0.84267,-0.49635 1.37424,-0.52916 8.5713,-0.52916 10.01292,0 9.26397,-0.40312 11.89823,6.40417 l 1.41245,3.64999 0.0915,6.93373 c 0.10973,8.31212 0.2704,7.88294 -2.95118,7.88294 -2.62426,0 -2.96153,-0.27057 -3.12319,-2.50553 l -0.11541,-1.59551 h -7.24424 -7.24424 v 1.4259 c 0,2.13602 -0.51459,2.635 -2.81243,2.72712 -0.99978,0.0401 -2.08602,-0.0629 -2.41387,-0.22877 z m 4.61393,-6.6162 c 1.1052,-1.03828 0.71796,-2.85584 -0.71486,-3.35532 -1.57966,-0.55068 -3.1244,0.74689 -2.77625,2.33202 0.34101,1.55261 2.31255,2.1305 3.49111,1.0233 z m 18.84942,-0.12186 c 0.97644,-1.24134 0.61811,-2.74648 -0.76896,-3.23001 -2.16609,-0.75511 -3.85584,1.68846 -2.26657,3.27772 0.91044,0.91044 2.29901,0.88862 3.03553,-0.0477 z m -1.062,-7.87426 c 0.23899,-0.28797 0.0685,-1.00192 -0.77385,-3.24115 -0.5942,-1.5795 -1.32605,-3.08018 -1.62634,-3.33484 -0.48942,-0.41506 -1.25738,-0.46302 -7.41323,-0.46302 -4.04072,0 -7.06935,0.10816 -7.35825,0.26277 -0.28348,0.15171 -0.94711,1.42934 -1.57011,3.02277 -1.05513,2.69868 -1.25903,3.59008 -0.90271,3.9464 0.097,0.097 4.48774,0.17639 9.75718,0.17639 7.87581,0 9.63535,-0.0657 9.88731,-0.36932 z m -47.74645,10.03864 c -0.55361,-0.55361 -0.64943,-0.89816 -0.64943,-2.33513 0,-1.48106 -0.0844,-1.76357 -0.69556,-2.32713 -1.39836,-1.28955 -1.42111,-1.49819 -1.42111,-13.03343 v -10.6892 l 1.59727,-7.77399 c 0.8785,-4.27569 1.83796,-8.27243 2.13213,-8.88164 0.65733,-1.3613 2.28375,-2.86603 3.91113,-3.61851 1.18553,-0.54817 1.55138,-0.5655 11.93864,-0.5655 12.13017,0 12.25594,0.0181 14.49409,2.08112 1.88019,1.73309 2.25867,2.80464 4.01021,11.35355 1.35974,6.63665 1.60403,8.2495 1.60403,10.59024 v 2.76127 l -3.50573,0.12279 c -3.90401,0.13673 -4.90995,0.46503 -6.45267,2.10587 -1.05065,1.11747 -1.37729,1.77497 -3.15713,6.35503 -1.39991,3.60241 -1.45745,3.85148 -1.61697,6.99887 l -0.16541,3.26353 -7.16927,0.0703 -7.16928,0.0703 -0.13229,1.6424 c -0.18353,2.27848 -0.44969,2.43963 -4.04692,2.45023 -2.68543,0.008 -2.89515,-0.0304 -3.50573,-0.64102 z m 5.53235,-7.91747 c 2.50512,-1.0467 2.7479,-4.39113 0.40665,-5.60183 -2.12848,-1.10068 -4.47177,0.41399 -4.47177,2.8905 0,1.14141 1.03292,2.44656 2.20475,2.78582 0.46088,0.13343 0.87155,0.25334 0.91261,0.26646 0.041,0.0131 0.46754,-0.1403 0.94776,-0.34095 z m 25.79063,-20.96084 c 1.08833,-0.7623 1.10225,-1.31883 0.1519,-6.07317 -0.49291,-2.46591 -1.01161,-4.74534 -1.15266,-5.06541 -0.47096,-1.06867 -1.69225,-1.16376 -13.90041,-1.0823 -11.41643,0.0762 -11.50503,0.081 -12.07757,0.65377 -0.45312,0.45332 -0.76647,1.55934 -1.46171,5.15937 -0.48672,2.5203 -0.88521,4.74034 -0.88554,4.93344 -3.1e-4,0.19309 0.34744,0.69911 0.77281,1.12448 l 0.77339,0.77339 h 13.58753 c 12.03024,0 13.65683,-0.0485 14.19226,-0.42357 z m -7.65793,-14.76483 c 0.74353,-0.6736 0.75826,-2.33677 0.0272,-3.06785 -0.49819,-0.49819 -0.88194,-0.52916 -6.55571,-0.52916 -6.56277,0 -6.96667,0.0822 -7.31993,1.48971 -0.22598,0.90037 0.25079,2.06664 0.99604,2.4365 0.37188,0.18457 2.65617,0.26636 6.43628,0.23047 5.34596,-0.0508 5.90858,-0.0998 6.41614,-0.55967 z"
         id="path1260"
         inkscape:connector-curvature="0" />
      <path
         style="fill:#4d4d4d;fill-opacity:1;stroke-width:0.26458332"
         d="m 136.71722,207.41195 -0.74141,-0.63773 -0.13564,-6.60539 -0.13565,-6.60539 1.63921,-4.14436 c 2.68292,-6.78316 2.01456,-6.42699 12.0606,-6.42699 10.01993,0 9.20161,-0.42378 11.74843,6.08405 l 1.55369,3.97011 0.16377,6.53202 c 0.11466,4.57301 0.0751,6.72657 -0.1318,7.18072 -0.38753,0.85055 -1.28697,1.23622 -2.88305,1.23622 -2.35782,0 -3.175,-0.78633 -3.175,-3.05515 v -1.17818 h -7.27604 -7.27604 v 1.4259 c 0,2.12802 -0.51238,2.627 -2.83216,2.75807 -1.64211,0.0928 -1.91635,0.036 -2.57891,-0.5339 z m 4.7987,-6.34202 c 1.67449,-1.5731 -0.1635,-4.27763 -2.3044,-3.39083 -1.30389,0.54008 -1.67443,2.11688 -0.76819,3.26897 0.71001,0.90264 2.17945,0.96092 3.07259,0.12186 z m 18.78542,0 c 1.09643,-1.03005 0.73144,-2.79618 -0.70044,-3.38928 -2.03619,-0.84342 -3.74946,1.51646 -2.37216,3.26742 0.71002,0.90264 2.17946,0.96092 3.0726,0.12186 z m -0.98387,-8.01315 c 0.25789,-0.31073 0.10497,-0.94509 -0.78133,-3.24115 -0.60609,-1.57013 -1.29003,-3.06315 -1.51988,-3.31781 -0.37853,-0.4194 -1.09647,-0.46302 -7.62054,-0.46302 -6.34895,0 -7.24568,0.0514 -7.56576,0.43354 -0.19972,0.23845 -0.85474,1.69696 -1.4556,3.24114 -0.78644,2.0211 -1.02472,2.93731 -0.85059,3.27063 0.22361,0.42804 0.96831,0.46302 9.85747,0.46302 8.10799,0 9.66586,-0.0606 9.93623,-0.38635 z m -47.76058,10.05567 c -0.55361,-0.55361 -0.64943,-0.89816 -0.64943,-2.33513 0,-1.48106 -0.0844,-1.76357 -0.69556,-2.32713 -1.39782,-1.28905 -1.42111,-1.50188 -1.42111,-12.98783 v -10.6436 l 1.6063,-7.81959 c 1.80291,-8.77671 2.18801,-9.78813 4.35637,-11.44163 2.28783,-1.74461 3.13142,-1.84627 14.54254,-1.75236 9.84052,0.081 10.08228,0.0957 11.37708,0.69071 1.72076,0.79081 3.40227,2.45654 4.0873,4.04894 0.3004,0.69829 1.25982,4.73798 2.13204,8.97708 1.33682,6.49705 1.58587,8.13559 1.58587,10.43369 v 2.72624 l -3.50573,0.1119 c -2.93145,0.0936 -3.68465,0.20514 -4.59798,0.68104 -1.99911,1.04167 -2.98756,2.52263 -4.8249,7.22898 -1.6729,4.28513 -1.68474,4.33422 -1.82443,7.56894 l -0.14061,3.25585 h -7.23755 -7.23755 v 1.56829 c 0,1.37912 -0.0841,1.63445 -0.69714,2.11667 -0.60388,0.47501 -1.06562,0.54837 -3.45161,0.54837 -2.57172,0 -2.79756,-0.0431 -3.4039,-0.64943 z m 6.69275,-8.75821 c 2.42275,-2.54515 -0.51301,-6.36357 -3.64668,-4.74309 -1.54721,0.8001 -2.07057,3.13547 -1.00596,4.48891 1.29953,1.65209 3.22199,1.75711 4.65264,0.25418 z m 24.75337,-20.2326 c 0.37483,-0.29483 0.7487,-0.74779 0.83084,-1.00658 0.16872,-0.53161 -1.53747,-9.29056 -1.96558,-10.09048 -0.54072,-1.01035 -1.76096,-1.10001 -13.82191,-1.01557 -11.42321,0.08 -11.5755,0.0881 -12.13571,0.64853 -0.43449,0.43466 -0.77687,1.60719 -1.46234,5.00798 -0.49226,2.44224 -0.89502,4.66655 -0.89502,4.94292 0,0.27636 0.34803,0.85051 0.7734,1.27588 l 0.77339,0.77339 h 13.61072 c 13.26849,0 13.62785,-0.0135 14.29221,-0.53607 z m -7.91547,-14.61132 c 0.95314,-0.85753 1.02526,-2.24518 0.16158,-3.10886 -0.49855,-0.49855 -0.88194,-0.52916 -6.62661,-0.52916 h -6.09744 l -0.64943,0.64943 c -0.97894,0.97894 -0.716,2.68312 0.50523,3.27445 0.33214,0.16082 2.93158,0.28102 6.30506,0.29154 5.59253,0.0174 5.75693,0.003 6.40161,-0.5774 z"
         id="path1258"
         inkscape:connector-curvature="0" />
      <path
         style="fill:#4d4d4d;fill-opacity:1;stroke-width:0.26458332"
         d="m 137.22431,207.75755 c -1.26365,-0.54529 -1.29216,-0.72158 -1.30326,-8.05862 l -0.0105,-6.91726 1.54303,-3.70417 c 1.80944,-4.3437 2.04784,-4.75277 3.1677,-5.4356 0.78817,-0.48057 1.38181,-0.51561 8.75179,-0.51653 10.23777,-0.001 9.27746,-0.50858 11.90947,6.29127 l 1.40492,3.62961 0.1643,6.39715 c 0.10768,4.19251 0.069,6.67062 -0.11233,7.1907 -0.31081,0.89158 -1.3057,1.36111 -2.88409,1.36111 -2.3044,0 -3.175,-0.88142 -3.175,-3.21448 v -1.01885 h -7.24424 -7.24424 l -0.11541,1.59551 c -0.15134,2.09227 -0.53199,2.45851 -2.65687,2.55625 -0.91132,0.0419 -1.8992,-0.0283 -2.1953,-0.15609 z m 4.37481,-6.6415 c 0.62972,-0.62972 0.69807,-2.02238 0.13847,-2.82132 -0.82622,-1.17959 -2.9443,-0.9775 -3.54373,0.33811 -0.43278,0.94985 -0.3706,1.52695 0.24947,2.31523 0.69963,0.88944 2.34666,0.97711 3.15579,0.16798 z m 18.77511,-0.0499 c 1.63603,-1.75607 -0.43913,-4.3932 -2.58415,-3.28397 -1.25468,0.64882 -1.49134,1.98357 -0.56134,3.16588 0.72215,0.91806 2.3435,0.97893 3.14549,0.11809 z m -1.04866,-8.01914 c 0.26829,-0.32326 0.14163,-0.89015 -0.68881,-3.08297 -0.55965,-1.47778 -1.23742,-2.96641 -1.50617,-3.30806 l -0.48862,-0.62119 h -7.21583 c -6.54235,0 -7.25344,0.0432 -7.61875,0.46302 -0.2216,0.25466 -0.89804,1.75672 -1.50319,3.33792 -0.85334,2.22968 -1.03206,2.9571 -0.79632,3.24115 0.47129,0.56787 19.34521,0.53943 19.81769,-0.0299 z m -47.76868,10.06543 c -0.55334,-0.55334 -0.64943,-0.89836 -0.64943,-2.33175 0,-1.52465 -0.0746,-1.75374 -0.79543,-2.44438 -0.43748,-0.41914 -0.91307,-1.18555 -1.05686,-1.70315 -0.15168,-0.54602 -0.26205,-5.31057 -0.2629,-11.34973 l -0.001,-10.40865 1.61633,-7.8476 c 2.04841,-9.94545 2.44006,-10.75079 6.05659,-12.45395 l 1.4552,-0.68532 h 10.71563 c 10.38726,0 10.7531,0.0173 11.93863,0.5655 1.72036,0.79547 3.2789,2.2918 4.05166,3.88994 0.42826,0.88566 1.17472,3.8949 2.12455,8.56471 1.31174,6.44913 1.46433,7.54228 1.46433,10.49062 v 3.2913 l -3.37344,0.10138 c -2.80918,0.0844 -3.55046,0.19576 -4.43177,0.66561 -2.07552,1.10652 -2.90983,2.30097 -4.62961,6.62807 -1.83088,4.60663 -2.11727,5.8373 -2.11727,9.09836 v 2.34514 h -7.27604 -7.27604 v 1.56829 c 0,1.37912 -0.0841,1.63445 -0.69714,2.11667 -0.60388,0.47501 -1.06562,0.54837 -3.45161,0.54837 -2.57172,0 -2.79756,-0.0431 -3.4039,-0.64943 z m 5.84352,-7.97232 c 2.12747,-1.00955 2.44836,-3.71573 0.62276,-5.25187 -1.31884,-1.10973 -3.55718,-0.76719 -4.58611,0.70181 -0.66865,0.95463 -0.53077,2.67242 0.29309,3.65152 1.13414,1.34786 2.18252,1.60452 3.67026,0.89854 z m 25.35901,-20.78132 c 1.27965,-0.58305 1.31359,-1.27115 0.30829,-6.25033 -0.50691,-2.51068 -1.05196,-4.80833 -1.21121,-5.1059 -0.15925,-0.29757 -0.58772,-0.65439 -0.95215,-0.79295 -0.38349,-0.1458 -5.62334,-0.25192 -12.43968,-0.25192 h -11.77709 l -0.72535,0.72761 c -0.63526,0.63723 -0.82991,1.2748 -1.56715,5.13307 -0.46298,2.42301 -0.838,4.62567 -0.83338,4.89479 0.0101,0.58918 0.46406,1.2131 1.18221,1.62496 0.74312,0.42618 27.08286,0.44561 28.01551,0.0207 z m -7.60443,-14.88035 c 0.96461,-0.82972 1.0232,-2.37789 0.11774,-3.11109 -0.55829,-0.45207 -1.14721,-0.49507 -6.78059,-0.49507 h -6.16919 l -0.54837,0.69714 c -0.90393,1.14916 -0.60685,2.78617 0.5934,3.26976 0.31791,0.12809 3.16099,0.24043 6.31795,0.24966 5.66892,0.0166 5.74896,0.009 6.46906,-0.6104 z"
         id="path1256"
         inkscape:connector-curvature="0" />
      <path
         style="fill:#4d4d4d;fill-opacity:1;stroke-width:0.26458332"
         d="m 137.45957,207.81211 c -0.31223,-0.0611 -0.78371,-0.34975 -1.04774,-0.64149 -0.43735,-0.48327 -0.48099,-1.1469 -0.49065,-7.4597 l -0.0106,-6.92925 1.64938,-3.9432 c 1.71359,-4.09671 2.1018,-4.72583 3.2978,-5.3443 1.11778,-0.57803 15.79128,-0.53504 17.0239,0.0499 1.15822,0.54961 1.40871,0.96692 3.18546,5.30706 l 1.50076,3.66598 0.23579,6.70138 c 0.25566,7.26623 0.19065,7.76739 -1.09621,8.45136 -0.90104,0.47891 -3.57894,0.25615 -4.25288,-0.35377 -0.39238,-0.35509 -0.50962,-0.81699 -0.50962,-2.00769 v -1.54649 h -7.40834 -7.40833 v 1.17818 c 0,1.57593 -0.43609,2.44177 -1.39887,2.7774 -0.78384,0.27325 -2.15402,0.31291 -3.26985,0.0947 z m 4.13955,-6.69606 c 0.77414,-0.77414 0.70247,-2.23201 -0.15173,-3.0862 -0.56729,-0.56729 -0.8432,-0.65492 -1.65364,-0.52519 -1.77619,0.28432 -2.46127,2.0312 -1.35042,3.44341 0.69963,0.88944 2.34666,0.97711 3.15579,0.16798 z m 18.78542,0 c 0.77414,-0.77414 0.70246,-2.23201 -0.15173,-3.0862 -1.28927,-1.28927 -3.55244,-0.28454 -3.55244,1.5771 0,1.78613 2.43508,2.77819 3.70417,1.5091 z m -1.05778,-8.07046 c 0.26977,-0.32506 0.14815,-0.88218 -0.66695,-3.0552 -0.54828,-1.46171 -1.2266,-2.94968 -1.50736,-3.30662 l -0.51048,-0.64897 h -7.21583 c -6.53746,0 -7.25492,0.0435 -7.63158,0.46302 -0.22866,0.25466 -0.90624,1.75534 -1.50574,3.33484 -0.85014,2.23984 -1.02255,2.9531 -0.7835,3.24115 0.47462,0.57188 19.3457,0.54501 19.82144,-0.0282 z m -47.27753,10.44986 c -0.83491,-0.33639 -1.14177,-1.08434 -1.14177,-2.78297 0,-1.31826 -0.10674,-1.62139 -0.89532,-2.54266 -0.49242,-0.57529 -0.96867,-1.41277 -1.05833,-1.86107 -0.0897,-0.4483 -0.16302,-5.41649 -0.16302,-11.04041 v -10.22532 l 1.60188,-7.7762 c 0.88104,-4.27691 1.77232,-8.18411 1.98063,-8.68266 0.69751,-1.66937 1.93185,-2.92267 3.76923,-3.82711 l 1.76565,-0.86913 h 10.72099 10.72099 l 1.51181,0.7423 c 1.73972,0.85421 3.43299,2.63515 4.03177,4.24052 0.22619,0.60643 1.06572,4.29428 1.86561,8.19523 1.30189,6.34907 1.45436,7.43557 1.45436,10.36387 v 3.27124 l -3.37344,0.0872 c -5.58929,0.14443 -6.52952,0.91737 -9.20622,7.56818 l -1.78099,4.42524 -0.13084,3.37344 -0.13083,3.37344 h -7.24093 -7.24092 v 1.46723 c 0,1.20503 -0.11606,1.5833 -0.64943,2.11667 -0.60396,0.60396 -0.83091,0.64825 -3.24115,0.63266 -1.42544,-0.009 -2.85182,-0.12157 -3.16973,-0.24966 z m 5.82552,-8.5925 c 0.36302,-0.23786 0.8626,-0.85935 1.11018,-1.38109 0.94246,-1.98609 -0.65681,-4.31206 -2.96486,-4.31206 -1.00827,0 -1.33848,0.1417 -2.09636,0.89958 -2.69137,2.69136 0.76306,6.88241 3.95104,4.79357 z m 25.30514,-20.76767 c 0.28734,-0.28734 0.59072,-0.79448 0.67417,-1.12697 0.16617,-0.6621 -1.51716,-9.1081 -1.9922,-9.99572 -0.1622,-0.30307 -0.59308,-0.6644 -0.95751,-0.80296 -0.98557,-0.37471 -23.71257,-0.3312 -24.5426,0.047 -0.86908,0.39598 -1.0779,0.97956 -2.01425,5.62935 -0.96791,4.80643 -0.97929,5.2878 -0.14478,6.12231 l 0.64943,0.64943 h 13.90265 c 13.49018,0 13.91816,-0.0155 14.42509,-0.52243 z m -8.35797,-14.32856 c 1.3156,-0.59943 1.51769,-2.71751 0.3381,-3.54372 -0.45301,-0.3173 -1.71132,-0.3907 -6.69744,-0.3907 h -6.13963 l -0.54837,0.69714 c -0.74223,0.94359 -0.70233,2.08337 0.10106,2.88676 l 0.64943,0.64943 h 5.82041 c 3.7623,0 6.05238,-0.10569 6.47644,-0.29891 z"
         id="path1254"
         inkscape:connector-curvature="0" />
    </g>
  </g>
</svg>
