<?xml version="1.0" encoding="UTF-8" standalone="no"?>
<!-- Created with Inkscape (http://www.inkscape.org/) -->

<svg
   xmlns:dc="http://purl.org/dc/elements/1.1/"
   xmlns:cc="http://creativecommons.org/ns#"
   xmlns:rdf="http://www.w3.org/1999/02/22-rdf-syntax-ns#"
   xmlns:svg="http://www.w3.org/2000/svg"
   xmlns="http://www.w3.org/2000/svg"
   xmlns:sodipodi="http://sodipodi.sourceforge.net/DTD/sodipodi-0.dtd"
   xmlns:inkscape="http://www.inkscape.org/namespaces/inkscape"
   width="54.144684mm"
   height="43.002739mm"
   viewBox="0 0 54.144684 43.002739"
   version="1.1"
   id="svg5305"
   inkscape:export-filename="C:\Users\dmarin\Dropbox\Pro\OpenDC\01 Templates\Logos\opendc_blue.png"
   inkscape:export-xdpi="96"
   inkscape:export-ydpi="96"
   inkscape:version="0.92.2 (5c3e80d, 2017-08-06)"
   sodipodi:docname="logo_opendc_blue_plain_svg.svg">
  <defs
     id="defs5299" />
  <sodipodi:namedview
     id="base"
     pagecolor="#ffffff"
     bordercolor="#666666"
     borderopacity="1.0"
     inkscape:pageopacity="0.0"
     inkscape:pageshadow="2"
     inkscape:zoom="5.6"
     inkscape:cx="116.85021"
     inkscape:cy="59.397309"
     inkscape:document-units="mm"
     inkscape:current-layer="layer1"
     showgrid="false"
     inkscape:window-width="3200"
     inkscape:window-height="1675"
     inkscape:window-x="-13"
     inkscape:window-y="1787"
     inkscape:window-maximized="1" />
  <metadata
     id="metadata5302">
    <rdf:RDF>
      <cc:Work
         rdf:about="">
        <dc:format>image/svg+xml</dc:format>
        <dc:type
           rdf:resource="http://purl.org/dc/dcmitype/StillImage" />
        <dc:title></dc:title>
      </cc:Work>
    </rdf:RDF>
  </metadata>
  <g
     inkscape:label="Layer 1"
     inkscape:groupmode="layer"
     id="layer1"
     transform="translate(-40.963372,-36.145207)">
    <path
       inkscape:export-ydpi="96"
       inkscape:export-xdpi="96"
       style="display:inline;opacity:1;fill:#002779;stroke-width:0.07988518;fill-opacity:1"
       d="m 53.261856,77.010997 c -3.852551,-7.773641 -10.020031,-20.05391 -10.175971,-20.26164 -0.46275,-0.61645 -1.14464,-2.07328 -1.55805,-3.32869 -0.5625,-1.70818 -0.72411,-4.21885 -0.39631,-6.15687 0.73348,-4.33642 3.480621,-7.97804 7.42775,-9.84623 1.92508,-0.91115 3.557541,-1.27264 5.745871,-1.27236 1.09302,1.5e-4 1.60712,0.0384 2.35661,0.1752 5.57657,1.0181 9.89411,5.401971 10.82699,10.99329 0.228389,1.36889 0.195721,3.55094 -0.0718,4.79311 -0.35122,1.63107 -0.99612,3.24244 -1.77437,4.43363 -0.29989,0.45898 -2.02754,3.90633 -5.90511,11.78307 -3.23439,6.570159 -5.34933,10.82444 -5.3812,10.82444 -0.0195,0 -0.51197,-0.96162 -1.09444,-2.13695 z m 2.53778,-21.18808 c 1.63872,-0.39288 2.90867,-1.22539 3.92708,-2.5744 1.88008,-2.49041 1.66483,-6.16575 -0.49791,-8.50171 -2.29043,-2.47388 -5.90464,-2.872619 -8.75816,-0.966249 -2.350191,1.57011 -3.443821,4.789219 -2.563371,7.545279 0.72019,2.25434 2.663751,4.0225 4.979221,4.52981 0.77124,0.16898 2.13574,0.15365 2.91314,-0.0327 z"
       id="path1127"
       inkscape:connector-curvature="0"
       inkscape:export-filename="C:\Users\dmarin\Dropbox\Pro\OpenDC\01 Templates\Logos\images\logo_opendc_green.png" />
    <path
       style="display:inline;fill:#002779;fill-opacity:1;stroke-width:0.38554445"
       d="m 68.559195,48.868397 v -7.90367 l 2.409682,0.002 c 4.650219,0.004 7.3483,1.54365 8.642908,4.93152 1.451901,3.79956 0.341432,8.98885 -2.2054,10.30589 -1.464018,0.75705 -3.449568,0.751 -3.449568,-0.0106 0,-0.35108 0.358349,-0.57836 0.911868,-0.57836 2.386271,0 4.384032,-3.52258 3.971782,-7.0033 -0.47643,-4.02286 -3.045082,-6.25362 -6.940852,-6.02781 l -1.991008,0.11533 -0.105021,7.03618 c -0.0883,5.9022 -0.196871,7.03619 -0.67468,7.03619 -0.483949,0 -0.56965,-1.18884 -0.56965,-7.90368 z"
       id="path1151"
       inkscape:connector-curvature="0"
       inkscape:export-filename="C:\Users\dmarin\Dropbox\Pro\OpenDC\01 Templates\Logos\images\logo_opendc_green.png"
       inkscape:export-xdpi="96"
       inkscape:export-ydpi="96" />
    <path
       style="display:inline;fill:#002779;fill-opacity:1;stroke-width:0.50315619"
       d="m 85.799686,55.928587 c -2.794831,-1.24215 -4.793221,-4.27909 -4.768969,-7.24718 0.0182,-2.23401 1.81252,-5.52738 3.60757,-6.62179 1.050089,-0.64021 2.546278,-1.015519 4.053088,-1.01672 2.039001,-0.001 2.683262,0.26441 4.402611,1.81772 1.107731,1.000781 2.01407,2.24609 2.01407,2.767361 0,1.378649 -0.61435,1.132949 -1.767621,-0.70687 -1.423609,-2.27105 -4.470958,-3.22389 -6.970498,-2.17951 -2.60074,1.086649 -3.949642,3.473199 -3.68659,6.522459 0.283199,3.28274 2.29276,5.36461 5.530529,5.72955 2.19201,0.24709 2.37874,0.16109 4.58959,-2.11371 1.861262,-1.9151 2.30459,-2.17622 2.30459,-1.35739 0,1.574 -2.24957,3.871 -4.431189,4.52464 -2.450701,0.73424 -2.987842,0.72117 -4.877181,-0.11864 z"
       id="path1153"
       inkscape:connector-curvature="0"
       inkscape:export-filename="C:\Users\dmarin\Dropbox\Pro\OpenDC\01 Templates\Logos\images\logo_opendc_green.png"
       inkscape:export-xdpi="96"
       inkscape:export-ydpi="96" />
    <text
       inkscape:export-ydpi="96"
       inkscape:export-xdpi="96"
       transform="scale(0.99373638,1.0063031)"
       id="text1163"
       y="66.296898"
       x="64.069672"
       style="font-style:normal;font-variant:normal;font-weight:normal;font-stretch:normal;font-size:4.23333311px;line-height:1.25;font-family:sans-serif;-inkscape-font-specification:'sans-serif, Normal';font-variant-ligatures:normal;font-variant-caps:normal;font-variant-numeric:normal;font-feature-settings:normal;text-align:start;letter-spacing:0px;word-spacing:0px;writing-mode:lr-tb;text-anchor:start;display:inline;fill:#3d5583;fill-opacity:1;stroke:none;stroke-width:0.10598996;"
       xml:space="preserve"
       inkscape:export-filename="C:\Users\dmarin\Dropbox\Pro\OpenDC\01 Templates\Logos\images\logo_opendc_green.png"><tspan
         style="font-style:normal;font-variant:normal;font-weight:normal;font-stretch:normal;font-size:4.23333311px;font-family:sans-serif;-inkscape-font-specification:'sans-serif, Normal';font-variant-ligatures:normal;font-variant-caps:normal;font-variant-numeric:normal;font-feature-settings:normal;text-align:start;writing-mode:lr-tb;text-anchor:start;fill:#3d5583;fill-opacity:1;stroke-width:0.10598996;"
         y="66.296898"
         x="64.069672"
         sodipodi:role="line"
         id="tspan1157"><tspan
           style="font-style:normal;font-variant:normal;font-weight:normal;font-stretch:normal;font-size:4.23333311px;font-family:sans-serif;-inkscape-font-specification:'sans-serif, Normal';font-variant-ligatures:normal;font-variant-caps:normal;font-variant-numeric:normal;font-feature-settings:normal;text-align:start;letter-spacing:0.29846689px;writing-mode:lr-tb;text-anchor:start;fill:#3d5583;fill-opacity:1;stroke-width:0.10598996;"
           id="tspan1155"
           dy="0">Open Data</tspan></tspan><tspan
         id="tspan1161"
         style="font-style:normal;font-variant:normal;font-weight:normal;font-stretch:normal;font-size:4.23333311px;font-family:sans-serif;-inkscape-font-specification:'sans-serif, Normal';font-variant-ligatures:normal;font-variant-caps:normal;font-variant-numeric:normal;font-feature-settings:normal;text-align:start;writing-mode:lr-tb;text-anchor:start;fill:#3d5583;fill-opacity:1;stroke-width:0.10598996;"
         y="66.296898"
         x="64.069672"
         sodipodi:role="line"><tspan
           id="tspan1159"
           style="font-style:normal;font-variant:normal;font-weight:normal;font-stretch:normal;font-size:4.23333311px;font-family:sans-serif;-inkscape-font-specification:'sans-serif, Normal';font-variant-ligatures:normal;font-variant-caps:normal;font-variant-numeric:normal;font-feature-settings:normal;text-align:start;letter-spacing:0.29846689px;writing-mode:lr-tb;text-anchor:start;fill:#3d5583;fill-opacity:1;stroke-width:0.10598996;" /></tspan></text>
    <text
       xml:space="preserve"
       style="font-style:normal;font-variant:normal;font-weight:normal;font-stretch:normal;font-size:4.23333311px;line-height:1.25;font-family:sans-serif;-inkscape-font-specification:'sans-serif, Normal';font-variant-ligatures:normal;font-variant-caps:normal;font-variant-numeric:normal;font-feature-settings:normal;text-align:start;letter-spacing:0px;word-spacing:0px;writing-mode:lr-tb;text-anchor:start;display:inline;fill:#3d5583;fill-opacity:1;stroke:none;stroke-width:0.12257256;"
       x="55.956715"
       y="81.384354"
       id="text1167"
       transform="scale(1.0335611,0.96752867)"
       inkscape:export-xdpi="96"
       inkscape:export-ydpi="96"
       inkscape:export-filename="C:\Users\dmarin\Dropbox\Pro\OpenDC\01 Templates\Logos\images\logo_opendc_black.png"><tspan
         sodipodi:role="line"
         x="55.956715"
         y="81.384354"
         style="font-style:normal;font-variant:normal;font-weight:normal;font-stretch:normal;font-size:4.23333311px;font-family:sans-serif;-inkscape-font-specification:'sans-serif, Normal';font-variant-ligatures:normal;font-variant-caps:normal;font-variant-numeric:normal;font-feature-settings:normal;text-align:start;writing-mode:lr-tb;text-anchor:start;fill:#3d5583;fill-opacity:1;stroke-width:0.12257256;"
         id="tspan1165">Consultants</tspan></text>
  </g>
</svg>
