<?xml version="1.0" encoding="UTF-8" standalone="no"?>
<!-- Generator: Adobe Illustrator 24.0.3, SVG Export Plug-In . SVG Version: 6.00 Build 0)  -->

<svg
   xmlns:dc="http://purl.org/dc/elements/1.1/"
   xmlns:cc="http://creativecommons.org/ns#"
   xmlns:rdf="http://www.w3.org/1999/02/22-rdf-syntax-ns#"
   xmlns:svg="http://www.w3.org/2000/svg"
   xmlns="http://www.w3.org/2000/svg"
   xmlns:sodipodi="http://sodipodi.sourceforge.net/DTD/sodipodi-0.dtd"
   xmlns:inkscape="http://www.inkscape.org/namespaces/inkscape"
   version="1.1"
   id="Calque_1"
   x="0px"
   y="0px"
   viewBox="0 0 150.208 150.208"
   style="enable-background:new 0 0 150.208 150.208;"
   xml:space="preserve"
   sodipodi:docname="ODClogo-full_blue.svg"
   inkscape:version="0.92.3 (2405546, 2018-03-11)"><metadata
   id="metadata59"><rdf:RDF><cc:Work
       rdf:about=""><dc:format>image/svg+xml</dc:format><dc:type
         rdf:resource="http://purl.org/dc/dcmitype/StillImage" /><dc:title></dc:title></cc:Work></rdf:RDF></metadata><defs
   id="defs57" /><sodipodi:namedview
   pagecolor="#ffffff"
   bordercolor="#666666"
   borderopacity="1"
   objecttolerance="10"
   gridtolerance="10"
   guidetolerance="10"
   inkscape:pageopacity="0"
   inkscape:pageshadow="2"
   inkscape:window-width="3840"
   inkscape:window-height="2104"
   id="namedview55"
   showgrid="false"
   inkscape:zoom="6.284619"
   inkscape:cx="99.054737"
   inkscape:cy="94.132231"
   inkscape:window-x="-16"
   inkscape:window-y="-16"
   inkscape:window-maximized="1"
   inkscape:current-layer="Calque_1" />
<g
   id="g40"
   style="fill:#646174;fill-opacity:1">
	<path
   style="fill:#646174;fill-opacity:1"
   d="M55.71,91.367v-6.165c0-1.952-1.027-3.072-2.816-3.072c-1.779,0-2.8,1.12-2.8,3.072v6.165   c0,1.952,1.021,3.072,2.8,3.072C54.683,94.439,55.71,93.319,55.71,91.367z M54.231,91.435c0,1.092-0.45,1.645-1.338,1.645   s-1.338-0.553-1.338-1.645v-6.301c0-0.751,0.232-1.646,1.338-1.646c0.888,0,1.338,0.554,1.338,1.646V91.435z"
   id="path2" />
	<path
   style="fill:#646174;fill-opacity:1"
   d="M65.485,86.667v-1.431c0-1.954-0.951-2.987-2.749-2.987h-2.604c-0.042,0-0.075,0.034-0.075,0.075   v11.921c0,0.041,0.034,0.075,0.075,0.075h1.328c0.042,0,0.075-0.034,0.075-0.075V89.62h1.1   C64.526,89.62,65.485,88.626,65.485,86.667z M64.023,86.752c0,1.069-0.415,1.525-1.389,1.525h-1.1v-4.668h1.201   c0.902,0,1.287,0.466,1.287,1.56V86.752z"
   id="path4" />
	<path
   style="fill:#646174;fill-opacity:1"
   d="M74.717,94.245v-1.209c0-0.041-0.034-0.075-0.075-0.075H71.14v-4.09h2.836   c0.042,0,0.075-0.034,0.075-0.075v-1.192c0-0.041-0.034-0.075-0.075-0.075H71.14v-3.919h3.501c0.042,0,0.075-0.034,0.075-0.075   v-1.21c0-0.041-0.034-0.075-0.075-0.075h-4.904c-0.042,0-0.075,0.034-0.075,0.075v11.921c0,0.041,0.034,0.075,0.075,0.075h4.904   C74.683,94.32,74.717,94.286,74.717,94.245z"
   id="path6" />
	<path
   style="fill:#646174;fill-opacity:1"
   d="M83.326,94.32h1.379c0.041,0,0.075-0.034,0.075-0.075V82.324c0-0.041-0.034-0.075-0.075-0.075H83.53   c-0.041,0-0.075,0.034-0.075,0.075v8.137l-2.612-8.159c-0.01-0.031-0.039-0.053-0.071-0.053h-1.686   c-0.041,0-0.075,0.034-0.075,0.075v11.921c0,0.041,0.034,0.075,0.075,0.075h1.192c0.041,0,0.075-0.034,0.075-0.075v-9.152   l2.901,9.175C83.264,94.298,83.293,94.32,83.326,94.32z"
   id="path8" />
	<path
   style="fill:#646174;fill-opacity:1"
   d="M97.971,82.249h-2.793c-0.041,0-0.075,0.034-0.075,0.075v11.921c0,0.041,0.034,0.075,0.075,0.075   h2.793c1.82,0,2.783-1.045,2.783-3.021v-6.011C100.754,83.299,99.791,82.249,97.971,82.249z M99.292,85.219v6.13   c0,1.069-0.45,1.611-1.338,1.611h-1.372v-9.352h1.354C98.836,83.609,99.292,84.151,99.292,85.219z"
   id="path10" />
	<path
   style="fill:#646174;fill-opacity:1"
   d="M109.007,82.249h-1.925c-0.036,0-0.067,0.025-0.073,0.062l-2.281,11.921   c-0.005,0.021,0.001,0.044,0.016,0.062c0.014,0.018,0.035,0.027,0.058,0.027h1.226c0.036,0,0.066-0.025,0.073-0.062l0.448-2.34   h2.891l0.448,2.34c0.006,0.036,0.037,0.062,0.073,0.062h1.328c0.022,0,0.044-0.01,0.058-0.027c0.015-0.018,0.021-0.04,0.016-0.062   L109.08,82.31C109.075,82.274,109.043,82.249,109.007,82.249z M109.223,90.628h-2.476l1.222-6.409L109.223,90.628z"
   id="path12" />
	<path
   style="fill:#646174;fill-opacity:1"
   d="M115.105,82.249c-0.041,0-0.075,0.034-0.075,0.075v1.21c0,0.041,0.034,0.075,0.075,0.075h2.121   v10.636c0,0.041,0.034,0.075,0.075,0.075h1.328c0.041,0,0.075-0.034,0.075-0.075V83.609h2.122c0.041,0,0.075-0.034,0.075-0.075   v-1.21c0-0.041-0.034-0.075-0.075-0.075H115.105z"
   id="path14" />
	<path
   style="fill:#646174;fill-opacity:1"
   d="M128.274,82.31c-0.006-0.036-0.037-0.062-0.073-0.062h-1.925c-0.036,0-0.067,0.025-0.073,0.062   l-2.281,11.921c-0.005,0.021,0.001,0.044,0.016,0.062c0.014,0.018,0.035,0.027,0.058,0.027h1.226c0.036,0,0.066-0.025,0.073-0.062   l0.448-2.34h2.891l0.448,2.34c0.006,0.036,0.037,0.062,0.073,0.062h1.328c0.022,0,0.044-0.01,0.058-0.027   c0.015-0.018,0.021-0.04,0.016-0.062L128.274,82.31z M128.416,90.628h-2.476l1.222-6.409L128.416,90.628z"
   id="path16" />
	<path
   style="fill:#646174;fill-opacity:1"
   d="M23.141,103.945c-1.747,0-2.749,1.12-2.749,3.072v6.164c0,1.981,0.976,3.072,2.749,3.072   c1.783,0,2.766-1.091,2.766-3.072V111.7c0-0.041-0.034-0.075-0.075-0.075h-1.26c-0.042,0-0.075,0.034-0.075,0.075v1.55   c0,1.092-0.444,1.645-1.321,1.645c-1.092,0-1.321-0.895-1.321-1.645v-6.301c0-0.75,0.229-1.645,1.321-1.645   c0.877,0,1.321,0.553,1.321,1.645v1.141c0,0.041,0.034,0.075,0.075,0.075h1.26c0.042,0,0.075-0.034,0.075-0.075v-1.072   C25.907,105.036,24.924,103.945,23.141,103.945z"
   id="path18" />
	<path
   style="fill:#646174;fill-opacity:1"
   d="M33.751,103.945c-1.779,0-2.8,1.12-2.8,3.072v6.164c0,1.952,1.021,3.072,2.8,3.072   c1.79,0,2.817-1.12,2.817-3.072v-6.164C36.568,105.065,35.541,103.945,33.751,103.945z M35.089,113.25   c0,1.092-0.45,1.645-1.338,1.645c-0.888,0-1.338-0.553-1.338-1.645v-6.301c0-0.75,0.232-1.645,1.338-1.645   c0.888,0,1.338,0.553,1.338,1.645V113.25z"
   id="path20" />
	<path
   style="fill:#646174;fill-opacity:1"
   d="M46.267,104.064c-0.042,0-0.075,0.034-0.075,0.075v8.136l-2.612-8.158   c-0.01-0.031-0.039-0.053-0.071-0.053h-1.686c-0.042,0-0.075,0.034-0.075,0.075v11.92c0,0.041,0.034,0.075,0.075,0.075h1.192   c0.042,0,0.075-0.034,0.075-0.075v-9.151l2.901,9.174c0.01,0.031,0.039,0.053,0.071,0.053h1.379c0.042,0,0.075-0.034,0.075-0.075   v-11.92c0-0.041-0.034-0.075-0.075-0.075H46.267z"
   id="path22" />
	<path
   style="fill:#646174;fill-opacity:1"
   d="M55.946,109.605c-0.927-0.753-1.803-1.465-1.803-2.69c0-1.084,0.421-1.61,1.287-1.61   s1.287,0.532,1.287,1.628v0.392c0,0.041,0.034,0.075,0.075,0.075h1.26c0.042,0,0.075-0.034,0.075-0.075V107   c0-1.97-0.97-3.055-2.731-3.055c-1.75,0-2.715,1.085-2.715,3.055c0,1.812,1.116,2.719,2.194,3.596   c0.92,0.749,1.79,1.456,1.79,2.671c0,1.08-0.444,1.628-1.321,1.628c-0.876,0-1.32-0.548-1.32-1.628v-0.749   c0-0.041-0.034-0.075-0.075-0.075h-1.243c-0.042,0-0.075,0.034-0.075,0.075v0.682c0,1.97,0.976,3.055,2.748,3.055   c1.757,0,2.766-1.113,2.766-3.055C58.144,111.391,57.027,110.483,55.946,109.605z"
   id="path24" />
	<path
   style="fill:#646174;fill-opacity:1"
   d="M67.351,104.064c-0.042,0-0.075,0.034-0.075,0.075v9.11c0,1.092-0.438,1.645-1.304,1.645   c-0.877,0-1.321-0.553-1.321-1.645v-9.11c0-0.041-0.034-0.075-0.075-0.075h-1.312c-0.042,0-0.075,0.034-0.075,0.075v9.042   c0,1.992,0.97,3.09,2.731,3.09c1.772,0,2.749-1.098,2.749-3.09v-9.042c0-0.041-0.034-0.075-0.075-0.075H67.351z"
   id="path26" />
	<path
   style="fill:#646174;fill-opacity:1"
   d="M75.397,114.775v-10.636c0-0.041-0.034-0.075-0.075-0.075h-1.329c-0.042,0-0.075,0.034-0.075,0.075   v11.92c0,0.041,0.034,0.075,0.075,0.075h4.734c0.041,0,0.075-0.034,0.075-0.075v-1.209c0-0.041-0.034-0.075-0.075-0.075H75.397z"
   id="path28" />
	<path
   style="fill:#646174;fill-opacity:1"
   d="M82.508,104.064c-0.041,0-0.075,0.034-0.075,0.075v1.209c0,0.041,0.034,0.075,0.075,0.075h2.121   v10.636c0,0.041,0.034,0.075,0.075,0.075h1.328c0.041,0,0.075-0.034,0.075-0.075v-10.636h2.122c0.041,0,0.075-0.034,0.075-0.075   v-1.209c0-0.041-0.034-0.075-0.075-0.075H82.508z"
   id="path30" />
	<path
   style="fill:#646174;fill-opacity:1"
   d="M96.455,104.064h-1.925c-0.036,0-0.067,0.025-0.073,0.062l-2.281,11.92   c-0.005,0.021,0.001,0.044,0.016,0.062c0.014,0.018,0.035,0.027,0.058,0.027h1.226c0.036,0,0.066-0.025,0.073-0.062l0.448-2.339   h2.891l0.448,2.339c0.006,0.036,0.037,0.062,0.073,0.062h1.328c0.022,0,0.044-0.01,0.058-0.027c0.015-0.018,0.021-0.04,0.016-0.062   l-2.281-11.92C96.523,104.089,96.492,104.064,96.455,104.064z M96.671,112.442h-2.476l1.222-6.409L96.671,112.442z"
   id="path32" />
	<path
   style="fill:#646174;fill-opacity:1"
   d="M108.291,104.064c-0.041,0-0.075,0.034-0.075,0.075v8.136l-2.612-8.158   c-0.01-0.031-0.039-0.053-0.071-0.053h-1.686c-0.041,0-0.075,0.034-0.075,0.075v11.92c0,0.041,0.034,0.075,0.075,0.075h1.192   c0.041,0,0.075-0.034,0.075-0.075v-9.151l2.901,9.174c0.01,0.031,0.039,0.053,0.071,0.053h1.379c0.041,0,0.075-0.034,0.075-0.075   v-11.92c0-0.041-0.034-0.075-0.075-0.075H108.291z"
   id="path34" />
	<path
   style="fill:#646174;fill-opacity:1"
   d="M114.457,104.064c-0.041,0-0.075,0.034-0.075,0.075v1.209c0,0.041,0.034,0.075,0.075,0.075h2.121   v10.636c0,0.041,0.034,0.075,0.075,0.075h1.328c0.041,0,0.075-0.034,0.075-0.075v-10.636h2.122c0.041,0,0.075-0.034,0.075-0.075   v-1.209c0-0.041-0.034-0.075-0.075-0.075H114.457z"
   id="path36" />
	<path
   style="fill:#646174;fill-opacity:1"
   d="M128.241,109.605c-0.928-0.753-1.804-1.465-1.804-2.69c0-1.084,0.421-1.61,1.287-1.61   s1.287,0.532,1.287,1.628v0.392c0,0.041,0.034,0.075,0.075,0.075h1.26c0.041,0,0.075-0.034,0.075-0.075V107   c0-1.97-0.97-3.055-2.731-3.055c-1.751,0-2.715,1.085-2.715,3.055c0,1.812,1.115,2.719,2.194,3.596   c0.921,0.749,1.79,1.456,1.79,2.671c0,1.08-0.444,1.628-1.32,1.628c-0.877,0-1.321-0.548-1.321-1.628v-0.749   c0-0.041-0.034-0.075-0.075-0.075h-1.243c-0.041,0-0.075,0.034-0.075,0.075v0.682c0,1.97,0.976,3.055,2.748,3.055   c1.758,0,2.767-1.113,2.767-3.055C130.439,111.391,129.321,110.483,128.241,109.605z"
   id="path38" />
</g>
<path
   style="fill:#646174;fill-opacity:1"
   d="M36.215,80.879l-0.682-0.634c-0.655-0.61-16.066-15.11-16.066-29.116c0-2.928,0.768-5.811,2.22-8.336  c2.982-5.188,8.549-8.411,14.528-8.411c9.234,0,16.747,7.513,16.747,16.748c0,14.006-15.41,28.505-16.065,29.116L36.215,80.879z   M36.215,36.382c-5.265,0-10.167,2.838-12.794,7.408c-1.278,2.222-1.953,4.76-1.953,7.339c0,11.523,11.762,24.005,14.748,26.987  c2.985-2.982,14.747-15.463,14.747-26.987C50.962,42.998,44.347,36.382,36.215,36.382z"
   id="path42" />
<path
   style="fill:#646174;fill-opacity:1"
   d="M76.93,67.938h-5.522c-0.553,0-1-0.448-1-1s0.447-1,1-1h5.522c7.896,0,14.318-6.423,14.318-14.318  c0-7.896-6.423-14.319-14.318-14.319H66.557v29.637c0,0.552-0.447,1-1,1s-1-0.448-1-1V35.301H76.93  c8.998,0,16.318,7.321,16.318,16.319S85.928,67.938,76.93,67.938z"
   id="path44" />
<path
   style="fill:#646174;fill-opacity:1"
   d="M77.177,62.044h-5.77c-0.553,0-1-0.448-1-1s0.447-1,1-1h5.77c4.646,0,8.425-3.779,8.425-8.424  s-3.779-8.424-8.425-8.424h-4.77v12.116c0,0.552-0.447,1-1,1s-1-0.448-1-1V41.195h6.77c5.748,0,10.425,4.676,10.425,10.424  C87.601,57.367,82.925,62.044,77.177,62.044z"
   id="path46" />
<path
   style="fill:#646174;fill-opacity:1"
   d="M119.457,68.5c-9.406,0-17.059-7.652-17.059-17.059s7.652-17.059,17.059-17.059  c4.083,0,8.034,1.466,11.126,4.127c0.419,0.36,0.466,0.992,0.105,1.41c-0.36,0.42-0.994,0.465-1.41,0.105  c-2.729-2.349-6.217-3.643-9.821-3.643c-8.304,0-15.059,6.755-15.059,15.059c0,8.303,6.755,15.059,15.059,15.059  c3.604,0,7.093-1.294,9.821-3.643c0.416-0.36,1.048-0.315,1.41,0.105c0.36,0.418,0.313,1.05-0.105,1.41  C127.491,67.034,123.54,68.5,119.457,68.5z"
   id="path48" />
<path
   style="fill:#646174;fill-opacity:1"
   d="M119.482,62.896c-6.316,0-11.455-5.139-11.455-11.455c0-6.316,5.139-11.455,11.455-11.455  c2.742,0,5.396,0.984,7.471,2.771c0.419,0.36,0.466,0.992,0.105,1.41c-0.362,0.419-0.994,0.465-1.41,0.105  c-1.713-1.475-3.902-2.287-6.166-2.287c-5.214,0-9.455,4.242-9.455,9.455s4.241,9.455,9.455,9.455c2.264,0,4.453-0.812,6.166-2.287  c0.416-0.359,1.048-0.314,1.41,0.105c0.36,0.419,0.313,1.05-0.105,1.411C124.878,61.911,122.224,62.896,119.482,62.896z"
   id="path50" />
<path
   style="fill:#646174;fill-opacity:1"
   d="M36.215,62.896c-5.34,0-9.925-3.625-11.149-8.816c-0.127-0.538,0.206-1.076,0.744-1.203  c0.535-0.13,1.076,0.206,1.203,0.744c1.01,4.283,4.794,7.275,9.203,7.275c5.214,0,9.455-4.241,9.455-9.455s-4.241-9.455-9.455-9.455  c-3.891,0-7.44,2.44-8.833,6.073c-0.198,0.516-0.778,0.774-1.292,0.576c-0.516-0.197-0.773-0.776-0.576-1.292  c1.686-4.4,5.986-7.357,10.7-7.357c6.316,0,11.455,5.139,11.455,11.455C47.67,57.757,42.531,62.896,36.215,62.896z"
   id="path52" />
</svg>