<?xml version="1.0" encoding="UTF-8" standalone="no"?>
<!-- Created with Inkscape (http://www.inkscape.org/) -->

<svg
   xmlns:dc="http://purl.org/dc/elements/1.1/"
   xmlns:cc="http://creativecommons.org/ns#"
   xmlns:rdf="http://www.w3.org/1999/02/22-rdf-syntax-ns#"
   xmlns:svg="http://www.w3.org/2000/svg"
   xmlns="http://www.w3.org/2000/svg"
   xmlns:sodipodi="http://sodipodi.sourceforge.net/DTD/sodipodi-0.dtd"
   xmlns:inkscape="http://www.inkscape.org/namespaces/inkscape"
   width="29.104166mm"
   height="11.622767mm"
   viewBox="0 0 29.104167 11.622767"
   version="1.1"
   id="svg5305"
   inkscape:export-filename="C:\Users\dmarin\Dropbox\Pro\OpenDC\01 Templates\Logos\opendc_blue.png"
   inkscape:export-xdpi="96"
   inkscape:export-ydpi="96"
   inkscape:version="0.92.4 (5da689c313, 2019-01-14)"
   sodipodi:docname="wrapper-img.svg">
  <defs
     id="defs5299" />
  <sodipodi:namedview
     id="base"
     pagecolor="#ffffff"
     bordercolor="#666666"
     borderopacity="1.0"
     inkscape:pageopacity="0.0"
     inkscape:pageshadow="2"
     inkscape:zoom="7.919596"
     inkscape:cx="56.196844"
     inkscape:cy="39.484491"
     inkscape:document-units="mm"
     inkscape:current-layer="layer1"
     showgrid="false"
     inkscape:window-width="3440"
     inkscape:window-height="1377"
     inkscape:window-x="-8"
     inkscape:window-y="-8"
     inkscape:window-maximized="1" />
  <metadata
     id="metadata5302">
    <rdf:RDF>
      <cc:Work
         rdf:about="">
        <dc:format>image/svg+xml</dc:format>
        <dc:type
           rdf:resource="http://purl.org/dc/dcmitype/StillImage" />
        <dc:title />
      </cc:Work>
    </rdf:RDF>
  </metadata>
  <g
     inkscape:label="Layer 1"
     inkscape:groupmode="layer"
     id="layer1"
     transform="translate(-66.186562,-36.105907)">
    <g
       id="g866"
       transform="matrix(0.14147334,0,0,0.14147334,76.827239,31.263121)">
      <g
         style="fill:#646174;fill-opacity:1"
         id="g40">
        <path
           id="path2"
           d="m 55.71,91.367 v -6.165 c 0,-1.952 -1.027,-3.072 -2.816,-3.072 -1.779,0 -2.8,1.12 -2.8,3.072 v 6.165 c 0,1.952 1.021,3.072 2.8,3.072 1.789,0 2.816,-1.12 2.816,-3.072 z m -1.479,0.068 c 0,1.092 -0.45,1.645 -1.338,1.645 -0.888,0 -1.338,-0.553 -1.338,-1.645 v -6.301 c 0,-0.751 0.232,-1.646 1.338,-1.646 0.888,0 1.338,0.554 1.338,1.646 z"
           style="fill:#646174;fill-opacity:1"
           inkscape:connector-curvature="0" />
        <path
           id="path4"
           d="m 65.485,86.667 v -1.431 c 0,-1.954 -0.951,-2.987 -2.749,-2.987 h -2.604 c -0.042,0 -0.075,0.034 -0.075,0.075 v 11.921 c 0,0.041 0.034,0.075 0.075,0.075 h 1.328 c 0.042,0 0.075,-0.034 0.075,-0.075 V 89.62 h 1.1 c 1.891,0 2.85,-0.994 2.85,-2.953 z m -1.462,0.085 c 0,1.069 -0.415,1.525 -1.389,1.525 h -1.1 v -4.668 h 1.201 c 0.902,0 1.287,0.466 1.287,1.56 v 1.583 z"
           style="fill:#646174;fill-opacity:1"
           inkscape:connector-curvature="0" />
        <path
           id="path6"
           d="m 74.717,94.245 v -1.209 c 0,-0.041 -0.034,-0.075 -0.075,-0.075 H 71.14 v -4.09 h 2.836 c 0.042,0 0.075,-0.034 0.075,-0.075 v -1.192 c 0,-0.041 -0.034,-0.075 -0.075,-0.075 H 71.14 V 83.61 h 3.501 c 0.042,0 0.075,-0.034 0.075,-0.075 v -1.21 c 0,-0.041 -0.034,-0.075 -0.075,-0.075 h -4.904 c -0.042,0 -0.075,0.034 -0.075,0.075 v 11.921 c 0,0.041 0.034,0.075 0.075,0.075 h 4.904 c 0.042,-0.001 0.076,-0.035 0.076,-0.076 z"
           style="fill:#646174;fill-opacity:1"
           inkscape:connector-curvature="0" />
        <path
           id="path8"
           d="m 83.326,94.32 h 1.379 c 0.041,0 0.075,-0.034 0.075,-0.075 V 82.324 c 0,-0.041 -0.034,-0.075 -0.075,-0.075 H 83.53 c -0.041,0 -0.075,0.034 -0.075,0.075 v 8.137 l -2.612,-8.159 c -0.01,-0.031 -0.039,-0.053 -0.071,-0.053 h -1.686 c -0.041,0 -0.075,0.034 -0.075,0.075 v 11.921 c 0,0.041 0.034,0.075 0.075,0.075 h 1.192 c 0.041,0 0.075,-0.034 0.075,-0.075 v -9.152 l 2.901,9.175 c 0.01,0.03 0.039,0.052 0.072,0.052 z"
           style="fill:#646174;fill-opacity:1"
           inkscape:connector-curvature="0" />
        <path
           id="path10"
           d="m 97.971,82.249 h -2.793 c -0.041,0 -0.075,0.034 -0.075,0.075 v 11.921 c 0,0.041 0.034,0.075 0.075,0.075 h 2.793 c 1.82,0 2.783,-1.045 2.783,-3.021 v -6.011 c 0,-1.989 -0.963,-3.039 -2.783,-3.039 z m 1.321,2.97 v 6.13 c 0,1.069 -0.45,1.611 -1.338,1.611 h -1.372 v -9.352 h 1.354 c 0.9,10e-4 1.356,0.543 1.356,1.611 z"
           style="fill:#646174;fill-opacity:1"
           inkscape:connector-curvature="0" />
        <path
           id="path12"
           d="m 109.007,82.249 h -1.925 c -0.036,0 -0.067,0.025 -0.073,0.062 l -2.281,11.921 c -0.005,0.021 0.001,0.044 0.016,0.062 0.014,0.018 0.035,0.027 0.058,0.027 h 1.226 c 0.036,0 0.066,-0.025 0.073,-0.062 l 0.448,-2.34 h 2.891 l 0.448,2.34 c 0.006,0.036 0.037,0.062 0.073,0.062 h 1.328 c 0.022,0 0.044,-0.01 0.058,-0.027 0.015,-0.018 0.021,-0.04 0.016,-0.062 L 109.08,82.31 c -0.005,-0.036 -0.037,-0.061 -0.073,-0.061 z m 0.216,8.379 h -2.476 l 1.222,-6.409 z"
           style="fill:#646174;fill-opacity:1"
           inkscape:connector-curvature="0" />
        <path
           id="path14"
           d="m 115.105,82.249 c -0.041,0 -0.075,0.034 -0.075,0.075 v 1.21 c 0,0.041 0.034,0.075 0.075,0.075 h 2.121 v 10.636 c 0,0.041 0.034,0.075 0.075,0.075 h 1.328 c 0.041,0 0.075,-0.034 0.075,-0.075 V 83.609 h 2.122 c 0.041,0 0.075,-0.034 0.075,-0.075 v -1.21 c 0,-0.041 -0.034,-0.075 -0.075,-0.075 z"
           style="fill:#646174;fill-opacity:1"
           inkscape:connector-curvature="0" />
        <path
           id="path16"
           d="m 128.274,82.31 c -0.006,-0.036 -0.037,-0.062 -0.073,-0.062 h -1.925 c -0.036,0 -0.067,0.025 -0.073,0.062 l -2.281,11.921 c -0.005,0.021 0.001,0.044 0.016,0.062 0.014,0.018 0.035,0.027 0.058,0.027 h 1.226 c 0.036,0 0.066,-0.025 0.073,-0.062 l 0.448,-2.34 h 2.891 l 0.448,2.34 c 0.006,0.036 0.037,0.062 0.073,0.062 h 1.328 c 0.022,0 0.044,-0.01 0.058,-0.027 0.015,-0.018 0.021,-0.04 0.016,-0.062 z m 0.142,8.318 h -2.476 l 1.222,-6.409 z"
           style="fill:#646174;fill-opacity:1"
           inkscape:connector-curvature="0" />
        <path
           id="path18"
           d="m 23.141,103.945 c -1.747,0 -2.749,1.12 -2.749,3.072 v 6.164 c 0,1.981 0.976,3.072 2.749,3.072 1.783,0 2.766,-1.091 2.766,-3.072 V 111.7 c 0,-0.041 -0.034,-0.075 -0.075,-0.075 h -1.26 c -0.042,0 -0.075,0.034 -0.075,0.075 v 1.55 c 0,1.092 -0.444,1.645 -1.321,1.645 -1.092,0 -1.321,-0.895 -1.321,-1.645 v -6.301 c 0,-0.75 0.229,-1.645 1.321,-1.645 0.877,0 1.321,0.553 1.321,1.645 v 1.141 c 0,0.041 0.034,0.075 0.075,0.075 h 1.26 c 0.042,0 0.075,-0.034 0.075,-0.075 v -1.072 c 0,-1.982 -0.983,-3.073 -2.766,-3.073 z"
           style="fill:#646174;fill-opacity:1"
           inkscape:connector-curvature="0" />
        <path
           id="path20"
           d="m 33.751,103.945 c -1.779,0 -2.8,1.12 -2.8,3.072 v 6.164 c 0,1.952 1.021,3.072 2.8,3.072 1.79,0 2.817,-1.12 2.817,-3.072 v -6.164 c 0,-1.952 -1.027,-3.072 -2.817,-3.072 z m 1.338,9.305 c 0,1.092 -0.45,1.645 -1.338,1.645 -0.888,0 -1.338,-0.553 -1.338,-1.645 v -6.301 c 0,-0.75 0.232,-1.645 1.338,-1.645 0.888,0 1.338,0.553 1.338,1.645 z"
           style="fill:#646174;fill-opacity:1"
           inkscape:connector-curvature="0" />
        <path
           id="path22"
           d="m 46.267,104.064 c -0.042,0 -0.075,0.034 -0.075,0.075 v 8.136 l -2.612,-8.158 c -0.01,-0.031 -0.039,-0.053 -0.071,-0.053 h -1.686 c -0.042,0 -0.075,0.034 -0.075,0.075 v 11.92 c 0,0.041 0.034,0.075 0.075,0.075 h 1.192 c 0.042,0 0.075,-0.034 0.075,-0.075 v -9.151 l 2.901,9.174 c 0.01,0.031 0.039,0.053 0.071,0.053 h 1.379 c 0.042,0 0.075,-0.034 0.075,-0.075 v -11.92 c 0,-0.041 -0.034,-0.075 -0.075,-0.075 h -1.174 z"
           style="fill:#646174;fill-opacity:1"
           inkscape:connector-curvature="0" />
        <path
           id="path24"
           d="m 55.946,109.605 c -0.927,-0.753 -1.803,-1.465 -1.803,-2.69 0,-1.084 0.421,-1.61 1.287,-1.61 0.866,0 1.287,0.532 1.287,1.628 v 0.392 c 0,0.041 0.034,0.075 0.075,0.075 h 1.26 c 0.042,0 0.075,-0.034 0.075,-0.075 V 107 c 0,-1.97 -0.97,-3.055 -2.731,-3.055 -1.75,0 -2.715,1.085 -2.715,3.055 0,1.812 1.116,2.719 2.194,3.596 0.92,0.749 1.79,1.456 1.79,2.671 0,1.08 -0.444,1.628 -1.321,1.628 -0.876,0 -1.32,-0.548 -1.32,-1.628 v -0.749 c 0,-0.041 -0.034,-0.075 -0.075,-0.075 h -1.243 c -0.042,0 -0.075,0.034 -0.075,0.075 v 0.682 c 0,1.97 0.976,3.055 2.748,3.055 1.757,0 2.766,-1.113 2.766,-3.055 -0.001,-1.809 -1.118,-2.717 -2.199,-3.595 z"
           style="fill:#646174;fill-opacity:1"
           inkscape:connector-curvature="0" />
        <path
           id="path26"
           d="m 67.351,104.064 c -0.042,0 -0.075,0.034 -0.075,0.075 v 9.11 c 0,1.092 -0.438,1.645 -1.304,1.645 -0.877,0 -1.321,-0.553 -1.321,-1.645 v -9.11 c 0,-0.041 -0.034,-0.075 -0.075,-0.075 h -1.312 c -0.042,0 -0.075,0.034 -0.075,0.075 v 9.042 c 0,1.992 0.97,3.09 2.731,3.09 1.772,0 2.749,-1.098 2.749,-3.09 v -9.042 c 0,-0.041 -0.034,-0.075 -0.075,-0.075 z"
           style="fill:#646174;fill-opacity:1"
           inkscape:connector-curvature="0" />
        <path
           id="path28"
           d="m 75.397,114.775 v -10.636 c 0,-0.041 -0.034,-0.075 -0.075,-0.075 h -1.329 c -0.042,0 -0.075,0.034 -0.075,0.075 v 11.92 c 0,0.041 0.034,0.075 0.075,0.075 h 4.734 c 0.041,0 0.075,-0.034 0.075,-0.075 v -1.209 c 0,-0.041 -0.034,-0.075 -0.075,-0.075 z"
           style="fill:#646174;fill-opacity:1"
           inkscape:connector-curvature="0" />
        <path
           id="path30"
           d="m 82.508,104.064 c -0.041,0 -0.075,0.034 -0.075,0.075 v 1.209 c 0,0.041 0.034,0.075 0.075,0.075 h 2.121 v 10.636 c 0,0.041 0.034,0.075 0.075,0.075 h 1.328 c 0.041,0 0.075,-0.034 0.075,-0.075 v -10.636 h 2.122 c 0.041,0 0.075,-0.034 0.075,-0.075 v -1.209 c 0,-0.041 -0.034,-0.075 -0.075,-0.075 z"
           style="fill:#646174;fill-opacity:1"
           inkscape:connector-curvature="0" />
        <path
           id="path32"
           d="M 96.455,104.064 H 94.53 c -0.036,0 -0.067,0.025 -0.073,0.062 l -2.281,11.92 c -0.005,0.021 0.001,0.044 0.016,0.062 0.014,0.018 0.035,0.027 0.058,0.027 h 1.226 c 0.036,0 0.066,-0.025 0.073,-0.062 l 0.448,-2.339 h 2.891 l 0.448,2.339 c 0.006,0.036 0.037,0.062 0.073,0.062 h 1.328 c 0.022,0 0.044,-0.01 0.058,-0.027 0.015,-0.018 0.021,-0.04 0.016,-0.062 l -2.281,-11.92 c -0.007,-0.037 -0.038,-0.062 -0.075,-0.062 z m 0.216,8.378 h -2.476 l 1.222,-6.409 z"
           style="fill:#646174;fill-opacity:1"
           inkscape:connector-curvature="0" />
        <path
           id="path34"
           d="m 108.291,104.064 c -0.041,0 -0.075,0.034 -0.075,0.075 v 8.136 l -2.612,-8.158 c -0.01,-0.031 -0.039,-0.053 -0.071,-0.053 h -1.686 c -0.041,0 -0.075,0.034 -0.075,0.075 v 11.92 c 0,0.041 0.034,0.075 0.075,0.075 h 1.192 c 0.041,0 0.075,-0.034 0.075,-0.075 v -9.151 l 2.901,9.174 c 0.01,0.031 0.039,0.053 0.071,0.053 h 1.379 c 0.041,0 0.075,-0.034 0.075,-0.075 v -11.92 c 0,-0.041 -0.034,-0.075 -0.075,-0.075 h -1.174 z"
           style="fill:#646174;fill-opacity:1"
           inkscape:connector-curvature="0" />
        <path
           id="path36"
           d="m 114.457,104.064 c -0.041,0 -0.075,0.034 -0.075,0.075 v 1.209 c 0,0.041 0.034,0.075 0.075,0.075 h 2.121 v 10.636 c 0,0.041 0.034,0.075 0.075,0.075 h 1.328 c 0.041,0 0.075,-0.034 0.075,-0.075 v -10.636 h 2.122 c 0.041,0 0.075,-0.034 0.075,-0.075 v -1.209 c 0,-0.041 -0.034,-0.075 -0.075,-0.075 z"
           style="fill:#646174;fill-opacity:1"
           inkscape:connector-curvature="0" />
        <path
           id="path38"
           d="m 128.241,109.605 c -0.928,-0.753 -1.804,-1.465 -1.804,-2.69 0,-1.084 0.421,-1.61 1.287,-1.61 0.866,0 1.287,0.532 1.287,1.628 v 0.392 c 0,0.041 0.034,0.075 0.075,0.075 h 1.26 c 0.041,0 0.075,-0.034 0.075,-0.075 V 107 c 0,-1.97 -0.97,-3.055 -2.731,-3.055 -1.751,0 -2.715,1.085 -2.715,3.055 0,1.812 1.115,2.719 2.194,3.596 0.921,0.749 1.79,1.456 1.79,2.671 0,1.08 -0.444,1.628 -1.32,1.628 -0.877,0 -1.321,-0.548 -1.321,-1.628 v -0.749 c 0,-0.041 -0.034,-0.075 -0.075,-0.075 H 125 c -0.041,0 -0.075,0.034 -0.075,0.075 v 0.682 c 0,1.97 0.976,3.055 2.748,3.055 1.758,0 2.767,-1.113 2.767,-3.055 -0.001,-1.809 -1.119,-2.717 -2.199,-3.595 z"
           style="fill:#646174;fill-opacity:1"
           inkscape:connector-curvature="0" />
      </g>
      <path
         id="path42"
         d="m 36.215,80.879 -0.682,-0.634 c -0.655,-0.61 -16.066,-15.11 -16.066,-29.116 0,-2.928 0.768,-5.811 2.22,-8.336 2.982,-5.188 8.549,-8.411 14.528,-8.411 9.234,0 16.747,7.513 16.747,16.748 0,14.006 -15.41,28.505 -16.065,29.116 z m 0,-44.497 c -5.265,0 -10.167,2.838 -12.794,7.408 -1.278,2.222 -1.953,4.76 -1.953,7.339 0,11.523 11.762,24.005 14.748,26.987 C 39.201,75.134 50.963,62.653 50.963,51.129 50.962,42.998 44.347,36.382 36.215,36.382 Z"
         style="fill:#646174;fill-opacity:1"
         inkscape:connector-curvature="0" />
      <path
         id="path44"
         d="m 76.93,67.938 h -5.522 c -0.553,0 -1,-0.448 -1,-1 0,-0.552 0.447,-1 1,-1 h 5.522 c 7.896,0 14.318,-6.423 14.318,-14.318 0,-7.896 -6.423,-14.319 -14.318,-14.319 H 66.557 v 29.637 c 0,0.552 -0.447,1 -1,1 -0.553,0 -1,-0.448 -1,-1 V 35.301 H 76.93 c 8.998,0 16.318,7.321 16.318,16.319 0,8.998 -7.32,16.318 -16.318,16.318 z"
         style="fill:#646174;fill-opacity:1"
         inkscape:connector-curvature="0" />
      <path
         id="path46"
         d="m 77.177,62.044 h -5.77 c -0.553,0 -1,-0.448 -1,-1 0,-0.552 0.447,-1 1,-1 h 5.77 c 4.646,0 8.425,-3.779 8.425,-8.424 0,-4.645 -3.779,-8.424 -8.425,-8.424 h -4.77 v 12.116 c 0,0.552 -0.447,1 -1,1 -0.553,0 -1,-0.448 -1,-1 V 41.195 h 6.77 c 5.748,0 10.425,4.676 10.425,10.424 -0.001,5.748 -4.677,10.425 -10.425,10.425 z"
         style="fill:#646174;fill-opacity:1"
         inkscape:connector-curvature="0" />
      <path
         id="path48"
         d="m 119.457,68.5 c -9.406,0 -17.059,-7.652 -17.059,-17.059 0,-9.407 7.652,-17.059 17.059,-17.059 4.083,0 8.034,1.466 11.126,4.127 0.419,0.36 0.466,0.992 0.105,1.41 -0.36,0.42 -0.994,0.465 -1.41,0.105 -2.729,-2.349 -6.217,-3.643 -9.821,-3.643 -8.304,0 -15.059,6.755 -15.059,15.059 0,8.303 6.755,15.059 15.059,15.059 3.604,0 7.093,-1.294 9.821,-3.643 0.416,-0.36 1.048,-0.315 1.41,0.105 0.36,0.418 0.313,1.05 -0.105,1.41 -3.092,2.663 -7.043,4.129 -11.126,4.129 z"
         style="fill:#646174;fill-opacity:1"
         inkscape:connector-curvature="0" />
      <path
         id="path50"
         d="m 119.482,62.896 c -6.316,0 -11.455,-5.139 -11.455,-11.455 0,-6.316 5.139,-11.455 11.455,-11.455 2.742,0 5.396,0.984 7.471,2.771 0.419,0.36 0.466,0.992 0.105,1.41 -0.362,0.419 -0.994,0.465 -1.41,0.105 -1.713,-1.475 -3.902,-2.287 -6.166,-2.287 -5.214,0 -9.455,4.242 -9.455,9.455 0,5.213 4.241,9.455 9.455,9.455 2.264,0 4.453,-0.812 6.166,-2.287 0.416,-0.359 1.048,-0.314 1.41,0.105 0.36,0.419 0.313,1.05 -0.105,1.411 -2.075,1.787 -4.729,2.772 -7.471,2.772 z"
         style="fill:#646174;fill-opacity:1"
         inkscape:connector-curvature="0" />
      <path
         id="path52"
         d="m 36.215,62.896 c -5.34,0 -9.925,-3.625 -11.149,-8.816 -0.127,-0.538 0.206,-1.076 0.744,-1.203 0.535,-0.13 1.076,0.206 1.203,0.744 1.01,4.283 4.794,7.275 9.203,7.275 5.214,0 9.455,-4.241 9.455,-9.455 0,-5.214 -4.241,-9.455 -9.455,-9.455 -3.891,0 -7.44,2.44 -8.833,6.073 -0.198,0.516 -0.778,0.774 -1.292,0.576 -0.516,-0.197 -0.773,-0.776 -0.576,-1.292 1.686,-4.4 5.986,-7.357 10.7,-7.357 6.316,0 11.455,5.139 11.455,11.455 0,6.316 -5.139,11.455 -11.455,11.455 z"
         style="fill:#646174;fill-opacity:1"
         inkscape:connector-curvature="0" />
    </g>
  </g>
</svg>
