<?xml version="1.0" encoding="UTF-8" standalone="no"?>
<!-- Created with Inkscape (http://www.inkscape.org/) -->

<svg
   xmlns:dc="http://purl.org/dc/elements/1.1/"
   xmlns:cc="http://creativecommons.org/ns#"
   xmlns:rdf="http://www.w3.org/1999/02/22-rdf-syntax-ns#"
   xmlns:svg="http://www.w3.org/2000/svg"
   xmlns="http://www.w3.org/2000/svg"
   xmlns:sodipodi="http://sodipodi.sourceforge.net/DTD/sodipodi-0.dtd"
   xmlns:inkscape="http://www.inkscape.org/namespaces/inkscape"
   width="50.465427mm"
   height="25mm"
   viewBox="0 0 50.465427 25"
   version="1.1"
   id="svg781"
   inkscape:version="0.92.3 (2405546, 2018-03-11)"
   sodipodi:docname="icon_cdvia.svg">
  <defs
     id="defs775" />
  <sodipodi:namedview
     id="base"
     pagecolor="#ffffff"
     bordercolor="#666666"
     borderopacity="1.0"
     inkscape:pageopacity="0.0"
     inkscape:pageshadow="2"
     inkscape:zoom="0.35"
     inkscape:cx="1801.082"
     inkscape:cy="124.38696"
     inkscape:document-units="mm"
     inkscape:current-layer="layer1"
     showgrid="false"
     inkscape:window-width="3840"
     inkscape:window-height="2004"
     inkscape:window-x="-16"
     inkscape:window-y="-16"
     inkscape:window-maximized="1" />
  <metadata
     id="metadata778">
    <rdf:RDF>
      <cc:Work
         rdf:about="">
        <dc:format>image/svg+xml</dc:format>
        <dc:type
           rdf:resource="http://purl.org/dc/dcmitype/StillImage" />
        <dc:title></dc:title>
      </cc:Work>
    </rdf:RDF>
  </metadata>
  <g
     inkscape:label="Layer 1"
     inkscape:groupmode="layer"
     id="layer1"
     transform="translate(593.7089,-156.74405)">
    <g
       id="g725"
       transform="matrix(0.19946809,0,0,0.19946809,-593.7089,156.74405)">
      <path
         id="path601"
         d="m 41,100.33333 -1,8 h -0.666667 l 1,-8 z"
         style="fill:#707173;fill-opacity:1;fill-rule:nonzero;stroke:none"
         inkscape:connector-curvature="0" />
      <path
         id="path603"
         d="m 43.666667,103.33333 h 1 V 104 104 L 45,103.66667 v 0 l 1,-0.33334 v 0 h 0.666667 l 0.666666,0.33334 v 0 0.66666 L 47.666667,105 v 0 L 47.333333,105.66667 47,108.33333 H 46.333333 L 46.666667,106 v 0 -1 0 -0.33333 l -0.333334,-0.33334 v 0 L 45.666667,104 v 0 h -0.333334 l -0.666666,0.33333 v 0 L 44.333333,105 v 0.66667 L 44,108.33333 h -1 z"
         style="fill:#707173;fill-opacity:1;fill-rule:nonzero;stroke:none"
         inkscape:connector-curvature="0" />
      <path
         id="path605"
         d="m 54.333333,103.33333 h 1 l -0.666666,5 v 0 l -0.333334,1 -0.333333,1 v 0 L 53.333333,111 H 52 v 0 h -1 l -0.666667,-0.33333 v 0 l -0.666666,-1 V 109 v 0 h 1 v 0 0 0.33333 L 51,110 v 0 l 0.333333,0.33333 H 52 v 0 h 0.666667 L 53.333333,110 v 0 l 0.333334,-0.66667 v -1 L 54,107.66667 v 0 l -0.666667,0.66666 v 0 l -1,0.33334 v 0 l -1,-0.33334 L 50.666667,108 v 0 L 50,107 v -0.66667 0 V 105 l 0.666667,-1 v 0 l 0.666666,-0.33333 1.333334,-0.33334 v 0 l 1,0.33334 v 0 L 54.333333,104 Z m -3,1.33334 v 0 L 51,105.33333 V 106 v 0 1 l 0.333333,0.33333 v 0 l 0.333334,0.33334 h 0.666666 v 0 H 53 l 0.666667,-0.33334 v 0 L 54,106.66667 l 0.333333,-1 v 0 L 54,105 53.666667,104.33333 v 0 H 53.333333 L 52.666667,104 v 0 L 52,104.33333 Z"
         style="fill:#707173;fill-opacity:1;fill-rule:nonzero;stroke:none"
         inkscape:connector-curvature="0" />
      <path
         id="path607"
         d="m 62,107 v 0 l -0.666667,1 v 0 l -1,0.33333 -0.666666,0.33334 v 0 L 59,108.33333 58,108 v 0 L 57.666667,107.33333 57.333333,106 v 0 l 0.333334,-1 0.666666,-1 v 0 L 59,103.33333 h 1 v 0 h 1 L 61.666667,104 v 0 L 62,104.66667 62.333333,106 h -4 v 0 l 0.333334,1 v 0.33333 0 l 0.666666,0.33334 h 0.333334 v 0 l 1,-0.33334 v 0 l 0.666666,-0.66666 z m -0.666667,-1.66667 v 0 -0.66666 L 61,104.33333 v 0 L 60.666667,104 H 60 v 0 H 59.333333 L 59,104.33333 v 0 l -0.333333,1 z M 62,100.66667 60.333333,102.33333 59.666667,102 61,100.33333 Z"
         style="fill:#707173;fill-opacity:1;fill-rule:nonzero;stroke:none"
         inkscape:connector-curvature="0" />
      <path
         id="path609"
         d="m 65,103.33333 h 1 V 104 v 0 l 0.333333,-0.33333 v 0 l 1,-0.33334 v 0 H 68 l 0.666667,0.33334 v 0 0.66666 L 69,105 v 0 l -0.333333,0.66667 -0.333334,2.66666 H 67.666667 L 68,106 v 0 -1 0 -0.33333 l -0.333333,-0.33334 v 0 L 67,104 v 0 H 66.666667 L 66,104.33333 v 0 L 65.666667,105 v 0.66667 l -0.333334,2.66666 h -1 z"
         style="fill:#707173;fill-opacity:1;fill-rule:nonzero;stroke:none"
         inkscape:connector-curvature="0" />
      <path
         id="path611"
         d="m 72.666667,103.33333 -0.333334,5 h -1 l 0.666667,-5 z M 72,101 v 0 h 0.666667 v 0 H 73 v 0 l 0.333333,0.33333 v 0 L 73,102 v 0 h -0.333333 v 0 H 72 v 0 -0.33333 0 z"
         style="fill:#707173;fill-opacity:1;fill-rule:nonzero;stroke:none"
         inkscape:connector-curvature="0" />
      <path
         id="path613"
         d="m 79.666667,107 v 0 l -1,1 v 0 L 78,108.33333 l -0.666667,0.33334 v 0 l -1,-0.33334 L 75.666667,108 v 0 L 75.333333,107.33333 75,106 v 0 L 75.333333,105 76,104 v 0 l 0.666667,-0.66667 h 1 v 0 h 1 L 79.333333,104 v 0 l 0.333334,0.66667 V 106 H 76 v 0 1 l 0.333333,0.33333 v 0 l 0.333334,0.33334 h 0.666666 v 0 l 1,-0.33334 v 0 L 79,106.66667 Z M 79,105.33333 v 0 l -0.333333,-0.66666 v -0.33334 0 L 78,104 h -0.333333 v 0 H 77 l -0.333333,0.33333 v 0 l -0.666667,1 z"
         style="fill:#707173;fill-opacity:1;fill-rule:nonzero;stroke:none"
         inkscape:connector-curvature="0" />
      <path
         id="path615"
         d="m 82.666667,103.33333 h 0.666666 V 104 104 L 84,103.33333 v 0 h 0.666667 v 0 l 0.666666,0.33334 L 85,104.33333 v 0 L 84.333333,104 v 0 l -0.666666,0.33333 v 0 L 83.333333,105 v 0.66667 L 83,108.33333 h -1 z"
         style="fill:#707173;fill-opacity:1;fill-rule:nonzero;stroke:none"
         inkscape:connector-curvature="0" />
      <path
         id="path617"
         d="m 88.333333,103.33333 -0.666666,5 h -1 l 0.666666,-5 z M 87.666667,101 v 0 H 88 v 0 h 0.333333 v 0 l 0.333334,0.33333 v 0 L 88.333333,102 v 0 H 88 v 0 h -0.333333 v 0 l -0.333334,-0.33333 v 0 z"
         style="fill:#707173;fill-opacity:1;fill-rule:nonzero;stroke:none"
         inkscape:connector-curvature="0" />
      <path
         id="path619"
         d="m 95,107 v 0 l -0.666667,1 v 0 l -1,0.33333 -0.666666,0.33334 v 0 L 92,108.33333 91,108 v 0 L 90.666667,107.33333 90.333333,106 v 0 l 0.333334,-1 0.666666,-1 v 0 L 92,103.33333 h 1 v 0 h 1 L 94.666667,104 v 0 L 95,104.66667 95.333333,106 h -4 v 0 1 l 0.333334,0.33333 v 0 l 0.666666,0.33334 h 0.333334 v 0 l 1,-0.33334 v 0 l 0.666666,-0.66666 z m -0.666667,-1.66667 v 0 -0.66666 L 94,104.33333 v 0 L 93.666667,104 H 93 v 0 H 92.333333 L 92,104.33333 v 0 l -0.666667,1 z"
         style="fill:#707173;fill-opacity:1;fill-rule:nonzero;stroke:none"
         inkscape:connector-curvature="0" />
      <path
         id="path621"
         d="m 108.33333,105.33333 v 0 L 107,106.66667 l 1,1.66666 h -1 l -0.66667,-1 v 0 l -1,0.66667 v 0 l -1,0.33333 -0.66666,0.33334 v 0 l -1,-0.33334 L 102,108 v 0 l -0.33333,-0.66667 v -0.66666 0 -1 l 0.66666,-1 v 0 l 1.66667,-1 -0.33333,-0.33334 v 0 l -0.33334,-0.66666 V 102 v 0 -0.66667 L 104,100.66667 v 0 l 0.66667,-0.33334 h 0.66666 v 0 H 106 l 0.33333,0.33334 v 0 L 106.66667,101 v 0.66667 0 0.66666 l -0.33334,0.33334 v 0 l -0.66666,0.66666 -0.33334,0.66667 1.33334,2 v 0 l 1,-1 z m -4,-1 v 0 l -1.33333,1 v 0 L 102.66667,106 l -0.33334,0.66667 v 0 V 107 l 0.33334,0.33333 v 0 l 0.66666,0.33334 h 0.33334 v 0 L 105,107.33333 v 0 l 1,-0.66666 z m 0.33334,-1 L 105.33333,103 v 0 l 0.33334,-0.66667 v 0 L 106,101.66667 v 0 l -0.33333,-0.33334 v 0 L 105,101 v 0 l -0.66667,0.33333 v 0 0.66667 0 0.66667 z"
         style="fill:#707173;fill-opacity:1;fill-rule:nonzero;stroke:none"
         inkscape:connector-curvature="0" />
      <path
         id="path623"
         d="m 115,103.33333 h 0.66667 V 104 v 0 l 0.66666,-0.66667 v 0 H 117 v 0 l 0.66667,0.33334 v 0 L 118.33333,104 v 0 l 0.33334,-0.33333 v 0 l 1,-0.33334 v 0 h 0.66666 L 121,103.66667 v 0 l 0.33333,0.66666 v 0.33334 0 1 L 121,108.33333 h -1 l 0.33333,-2.66666 v 0 V 105 v 0 -0.66667 0 L 119.66667,104 v 0 l -1,0.33333 v 0 V 105 l -0.33334,0.66667 L 118,108.33333 h -1 l 0.66667,-3 v 0 V 105 l -0.33334,-0.66667 v 0 L 116.66667,104 v 0 L 116,104.33333 v 0 L 115.66667,105 115.33333,105.66667 115,108.33333 h -0.66667 z"
         style="fill:#707173;fill-opacity:1;fill-rule:nonzero;stroke:none"
         inkscape:connector-curvature="0" />
      <path
         id="path625"
         d="m 128.33333,107 v 0 l -1,1 v 0 l -0.66666,0.33333 L 126,108.66667 v 0 L 125,108.33333 124.33333,108 v 0 L 124,107.33333 123.66667,106 v 0 L 124,105 l 0.66667,-1 v 0 l 0.66666,-0.66667 h 1 v 0 h 1 L 128,104 v 0 l 0.33333,0.66667 V 106 h -3.66666 v 0 1 L 125,107.33333 v 0 l 0.33333,0.33334 H 126 v 0 l 1,-0.33334 v 0 l 0.66667,-0.66666 z m -0.66666,-1.66667 v 0 -0.66666 l -0.33334,-0.33334 v 0 L 126.66667,104 h -0.33334 v 0 h -0.66666 l -0.33334,0.33333 v 0 l -0.66666,1 z"
         style="fill:#707173;fill-opacity:1;fill-rule:nonzero;stroke:none"
         inkscape:connector-curvature="0" />
      <path
         id="path627"
         d="m 133.33333,104.66667 v 0 L 133,104.33333 v 0 L 132.66667,104 v 0 L 132,104.33333 v 0 0.33334 0 0.33333 0 l 0.66667,0.33333 0.33333,0.33334 v 0 L 133.66667,106 v 0 L 134,106.33333 V 107 v 0 l -0.33333,0.66667 V 108 v 0 l -1,0.33333 L 132,108.66667 v 0 l -0.33333,-0.33334 H 131 v 0 l -0.66667,-1 1,-0.33333 v 0 l 0.33334,0.66667 v 0 H 132 v 0 h 0.66667 v 0 L 133,107 v 0 l -0.33333,-0.66667 v 0 L 132.33333,106 H 132 v 0 l -0.66667,-0.33333 v 0 l -0.33333,-1 v 0 V 104 l 0.33333,-0.33333 v 0 L 132,103.33333 h 0.66667 v 0 l 0.66666,0.33334 v 0 L 134,104.33333 Z"
         style="fill:#707173;fill-opacity:1;fill-rule:nonzero;stroke:none"
         inkscape:connector-curvature="0" />
      <path
         id="path629"
         d="m 137.33333,106 v 0 0.66667 0 0.33333 0.66667 0 h 1 v 0 L 139,107.33333 v 0 L 139.33333,107 v -0.66667 l 0.33334,-3 h 1 l -0.33334,3 v 0 l -0.33333,1 L 139.66667,108 v 0 L 139,108.33333 l -0.66667,0.33334 v 0 l -1,-0.33334 L 136.66667,108 v 0 l -0.33334,-0.33333 v -1 0 V 106 l 0.33334,-2.66667 h 1 z"
         style="fill:#707173;fill-opacity:1;fill-rule:nonzero;stroke:none"
         inkscape:connector-curvature="0" />
      <path
         id="path631"
         d="m 143.33333,103.33333 h 1 V 104 v 0 l 0.33334,-0.66667 v 0 h 1 v 0 l 0.66666,0.33334 -0.66666,0.66666 v 0 L 145.33333,104 v 0 l -0.66666,0.33333 v 0 L 144.33333,105 144,105.66667 l -0.33333,2.66666 H 143 Z"
         style="fill:#707173;fill-opacity:1;fill-rule:nonzero;stroke:none"
         inkscape:connector-curvature="0" />
      <path
         id="path633"
         d="m 152,107 v 0 l -1,1 v 0 l -0.66667,0.33333 -0.66666,0.33334 v 0 l -1,-0.33334 L 148,108 v 0 L 147.66667,107.33333 147.33333,106 v 0 l 0.33334,-1 0.66666,-1 v 0 L 149,103.33333 h 1 v 0 h 1 L 151.66667,104 v 0 L 152,104.66667 V 106 h -3.66667 v 0 1 l 0.33334,0.33333 v 0 L 149,107.66667 h 0.66667 v 0 l 1,-0.33334 v 0 l 0.66666,-0.66666 z m -0.66667,-1.66667 v 0 L 151,104.66667 v -0.33334 0 L 150.33333,104 H 150 v 0 h -0.66667 L 149,104.33333 v 0 l -0.66667,1 z"
         style="fill:#707173;fill-opacity:1;fill-rule:nonzero;stroke:none"
         inkscape:connector-curvature="0" />
      <path
         id="path635"
         d="m 50,113 h 1 l -1.333333,8.66667 H 49 V 121 v 0 l -0.666667,0.66667 v 0 l -1,0.33333 v 0 L 46.666667,121.66667 46,121.33333 v 0 L 45.333333,120.66667 45,119.33333 v 0 l 0.333333,-1 0.666667,-1 v 0 l 0.666667,-0.66666 h 1 v 0 L 49,117 v 0 l 0.333333,0.33333 z m -3.333333,5 v 0 l -0.333334,0.33333 -0.333333,1 v 0 1 l 0.333333,0.33334 v 0 L 47,121 h 0.666667 v 0 h 0.666666 l 0.333334,-0.33333 v 0 L 49.333333,120 v -1 0 -0.66667 L 49,117.66667 v 0 l -0.666667,-0.33334 h -0.666666 v 0 h -0.333334 z"
         style="fill:#707173;fill-opacity:1;fill-rule:nonzero;stroke:none"
         inkscape:connector-curvature="0" />
      <path
         id="path637"
         d="m 57.333333,120.33333 v 0 l -1,1 v 0 L 55.666667,121.66667 55,122 v 0 l -1,-0.33333 -0.666667,-0.33334 v 0 L 53,120.66667 52.666667,119.33333 v 0 l 0.333333,-1 0.333333,-1 v 0 l 1,-0.66666 h 1 v 0 h 1 L 57,117.33333 v 0 L 57.333333,118 v 1.33333 h -3.666666 v 0 1 L 54,120.66667 v 0 L 54.333333,121 H 55 v 0 l 1,-0.33333 v 0 L 56.666667,120 Z m -0.666666,-1.66666 v 0 L 56.333333,118 v -0.33333 0 l -0.666666,-0.33334 h -0.333334 v 0 H 54.666667 L 54,117.66667 v 0 l -0.333333,1 z"
         style="fill:#707173;fill-opacity:1;fill-rule:nonzero;stroke:none"
         inkscape:connector-curvature="0" />
      <path
         id="path639"
         d="m 62,118 v 0 -0.33333 0 l -0.333333,-0.33334 v 0 L 61,117.66667 v 0 0.33333 0 0.33333 0 l 0.333333,0.33334 L 62,119 v 0 l 0.666667,0.33333 v 0 0.33334 L 63,120.33333 v 0 L 62.666667,121 l -0.333334,0.33333 v 0 L 61.666667,121.66667 61,122 v 0 l -0.333333,-0.33333 H 60 v 0 l -0.666667,-1 L 60,120.33333 v 0 L 60.333333,121 v 0 H 61 v 0 h 0.666667 v 0 L 62,120.33333 v 0 l -0.333333,-0.66666 v 0 l -0.333334,-0.33334 H 61 v 0 L 60.333333,119 v 0 L 60,118 v 0 -0.66667 L 60.333333,117 v 0 L 61,116.66667 h 0.666667 v 0 L 62.333333,117 v 0 L 63,117.66667 Z"
         style="fill:#707173;fill-opacity:1;fill-rule:nonzero;stroke:none"
         inkscape:connector-curvature="0" />
      <path
         id="path641"
         d="m 74,113 h 0.666667 l -1,8.66667 H 73 V 121 v 0 l -0.666667,0.66667 v 0 l -1,0.33333 v 0 l -0.666666,-0.33333 -1,-0.33334 v 0 L 69.333333,120.66667 69,119.33333 v 0 l 0.333333,-1 0.666667,-1 v 0 l 0.666667,-0.66666 h 1 v 0 l 1,0.33333 v 0 l 0.666666,0.33333 z m -3.333333,5 v 0 L 70,118.33333 v 1 0 1 l 0.333333,0.33334 v 0 L 71,121 h 0.666667 v 0 H 72 l 0.666667,-0.33333 v 0 L 73,120 l 0.333333,-1 v 0 L 73,118.33333 72.666667,117.66667 v 0 l -0.333334,-0.33334 h -0.666666 v 0 H 71 Z"
         style="fill:#707173;fill-opacity:1;fill-rule:nonzero;stroke:none"
         inkscape:connector-curvature="0" />
      <path
         id="path643"
         d="m 81.333333,120.33333 v 0 l -1,1 v 0 L 79.666667,121.66667 79,122 v 0 l -1,-0.33333 -0.666667,-0.33334 v 0 l -0.666666,-0.66666 v -1.33334 0 -1 l 0.666666,-1 v 0 l 1,-0.66666 H 79 v 0 h 1.333333 l 0.333334,0.66666 v 0 L 81.333333,118 v 1.33333 h -4 v 0 l 0.333334,1 L 78,120.66667 v 0 L 78.333333,121 H 79 v 0 l 1,-0.33333 v 0 L 80.666667,120 Z m -0.666666,-1.66666 v 0 L 80.333333,118 80,117.66667 v 0 l -0.333333,-0.33334 h -0.333334 v 0 H 78.666667 L 78,117.66667 v 0 l -0.333333,1 z M 81,114 l -1.666667,1.66667 -0.666666,-0.33334 1.666666,-1.66666 z"
         style="fill:#707173;fill-opacity:1;fill-rule:nonzero;stroke:none"
         inkscape:connector-curvature="0" />
      <path
         id="path645"
         d="m 84,124.33333 h -0.666667 l 1,-7.66666 H 85 v 0.66666 0 L 85.666667,117 v 0 l 1,-0.33333 v 0 h 0.666666 l 1,0.66666 v 0 L 88.666667,118 89,119 v 0 l -0.333333,1.33333 -0.666667,1 v 0 L 87,121.66667 86.333333,122 v 0 l -0.666666,-0.33333 H 85 v 0 L 84.666667,121 Z m 3.333333,-3.66666 v 0 L 88,120 v -1 0 -0.66667 l -0.333333,-0.66666 v 0 H 87 l -0.666667,-0.33334 v 0 L 85.666667,117.66667 85.333333,118 v 0 l -0.666666,0.66667 v 0.66666 0 V 120 L 85,120.66667 v 0 L 85.666667,121 h 0.666666 v 0 h 0.333334 z"
         style="fill:#707173;fill-opacity:1;fill-rule:nonzero;stroke:none"
         inkscape:connector-curvature="0" />
      <path
         id="path647"
         d="m 93,113 -1,8.66667 H 91 L 92.333333,113 Z"
         style="fill:#707173;fill-opacity:1;fill-rule:nonzero;stroke:none"
         inkscape:connector-curvature="0" />
      <path
         id="path649"
         d="M 99.333333,116.66667 H 100 l -0.333333,5 h -1 V 121 121 L 98,121.66667 v 0 L 97,122 v 0 l -0.666667,-0.33333 -1,-0.33334 v 0 L 95,120.66667 94.666667,119.33333 v 0 L 95,118 l 0.666667,-0.66667 v 0 l 0.666666,-0.66666 h 1 v 0 L 98.666667,117 v 0 l 0.666666,0.33333 z m -3,1.33333 v 0 L 96,118.66667 l -0.333333,0.66666 v 0 V 120 l 0.666666,0.66667 v 0 L 96.666667,121 h 0.666666 v 0 H 98 l 0.333333,-0.33333 v 0 L 99,120 v -1 0 -0.66667 l -0.333333,-0.66666 v 0 H 98 l -0.333333,-0.33334 v 0 l -1,0.33334 z"
         style="fill:#707173;fill-opacity:1;fill-rule:nonzero;stroke:none"
         inkscape:connector-curvature="0" />
      <path
         id="path651"
         d="m 106.66667,118 v 0 L 106,117.66667 v 0 l -0.66667,-0.33334 v 0 l -1,0.33334 L 104,118 v 0 l -0.66667,0.66667 v 0.66666 0 1 l 0.33334,0.33334 v 0 L 104.33333,121 H 105 v 0 h 0.66667 v 0 l 0.66666,-0.66667 v 1 0 l -0.66666,0.33334 v 0 l -1,0.33333 v 0 l -1,-0.33333 L 103,121.33333 v 0 l -0.66667,-1 v -1 0 l 0.33334,-1 0.66666,-1 v 0 L 104,117 l 1.33333,-0.33333 v 0 H 106 L 106.66667,117 Z"
         style="fill:#707173;fill-opacity:1;fill-rule:nonzero;stroke:none"
         inkscape:connector-curvature="0" />
      <path
         id="path653"
         d="m 113.33333,120.33333 v 0 l -0.66666,1 v 0 l -1,0.33334 L 111,122 v 0 l -0.66667,-0.33333 -1,-0.33334 v 0 L 109,120.66667 l -0.33333,-1.33334 v 0 l 0.33333,-1 0.66667,-1 v 0 l 0.66666,-0.66666 h 1 v 0 h 1 L 113,117.33333 v 0 l 0.33333,0.66667 0.33334,1.33333 h -4 v 0 l 0.33333,1 v 0.33334 0 L 110.66667,121 H 111 v 0 l 1,-0.33333 v 0 L 112.66667,120 Z m -0.66666,-1.66666 v 0 V 118 l -0.33334,-0.33333 v 0 L 112,117.33333 h -0.66667 v 0 h -0.66666 l -0.33334,0.33334 v 0 l -0.33333,1 z"
         style="fill:#707173;fill-opacity:1;fill-rule:nonzero;stroke:none"
         inkscape:connector-curvature="0" />
      <path
         id="path655"
         d="m 116.33333,116.66667 h 1 v 0.66666 0 l 0.33334,-0.66666 v 0 h 0.66666 v 0 l 1,0.33333 v 0 l 0.33334,0.33333 v 0 L 120.33333,117 v 0 l 1,-0.33333 v 0 H 122 L 122.33333,117 v 0 l 0.33334,0.66667 L 123,118 v 0 l -0.33333,1 -0.33334,2.66667 h -0.66666 L 122,119 v 0 -0.66667 0 l -0.33333,-0.66666 v 0 L 121,117.33333 v 0 l -0.66667,0.33334 v 0 L 120,118.33333 V 119 l -0.33333,2.66667 h -1 l 0.33333,-3 v 0 -0.33334 -0.66666 0 l -0.66667,-0.33334 v 0 l -1,0.33334 v 0 L 117,118.33333 V 119 l -0.33333,2.66667 h -1 z"
         style="fill:#707173;fill-opacity:1;fill-rule:nonzero;stroke:none"
         inkscape:connector-curvature="0" />
      <path
         id="path657"
         d="m 130,120.33333 v 0 l -1,1 v 0 l -0.66667,0.33334 L 127.66667,122 v 0 l -1,-0.33333 L 126,121.33333 v 0 l -0.66667,-0.66666 v -1.33334 0 -1 l 0.66667,-1 v 0 l 1,-0.66666 h 0.66667 v 0 h 1 l 0.66666,0.66666 v 0 L 130,118 v 1.33333 h -4 v 0 l 0.33333,1 0.33334,0.33334 v 0 L 127,121 h 0.66667 v 0 l 1,-0.33333 v 0 L 129,120 Z m -1,-1.66666 v 0 V 118 l -0.33333,-0.33333 v 0 l -0.33334,-0.33334 h -0.66666 v 0 h -0.33334 l -0.66666,0.33334 v 0 l -0.33334,1 z"
         style="fill:#707173;fill-opacity:1;fill-rule:nonzero;stroke:none"
         inkscape:connector-curvature="0" />
      <path
         id="path659"
         d="m 132.66667,116.66667 h 1 v 0.66666 0 L 134,117 v 0 l 1,-0.33333 v 0 h 0.66667 L 136.33333,117 v 0 l 0.33334,0.66667 v 0.66666 0 V 119 l -0.33334,2.66667 h -1 l 0.33334,-2.33334 v 0 -1 0 V 118 l -0.33334,-0.33333 v 0 l -0.66666,-0.33334 v 0 h -0.33334 L 134,117.66667 v 0 l -0.33333,0.66666 L 133.33333,119 133,121.66667 h -0.66667 z"
         style="fill:#707173;fill-opacity:1;fill-rule:nonzero;stroke:none"
         inkscape:connector-curvature="0" />
      <path
         id="path661"
         d="m 140.33333,117.66667 -0.33333,4 h -1 l 0.66667,-4 H 139 v -1 h 0.66667 L 140,115 h 0.66667 v 1.66667 h 0.66666 v 1 z"
         style="fill:#707173;fill-opacity:1;fill-rule:nonzero;stroke:none"
         inkscape:connector-curvature="0" />
      <path
         id="path663"
         d="m 145.33333,118 v 0 L 145,117.66667 v 0 l -0.33333,-0.33334 v 0 l -0.33334,0.33334 v 0 L 144,118 v 0 0.33333 0 l 0.66667,0.33334 L 145,119 v 0 l 0.66667,0.33333 v 0 L 146,119.66667 v 0.66666 0 V 121 l -0.33333,0.33333 v 0 L 145,121.66667 144.33333,122 v 0 l -0.66666,-0.33333 H 143 v 0 l -0.33333,-1 0.66666,-0.33334 v 0 L 143.66667,121 v 0 h 0.66666 v 0 H 145 v 0 -0.66667 0 -0.66666 0 l -0.66667,-0.33334 H 144 v 0 L 143.33333,119 v 0 L 143,118 v 0 l 0.33333,-0.66667 L 143.66667,117 v 0 L 144,116.66667 h 0.66667 v 0 l 1,0.33333 v 0 L 146,117.66667 Z"
         style="fill:#707173;fill-opacity:1;fill-rule:nonzero;stroke:none"
         inkscape:connector-curvature="0" />
      <path
         id="path665"
         d="M 163.33333,8.6666667 131,89 v 0 l -0.33333,0.333333 h -0.33334 -10.66666 v 0 H 119 L 118.66667,89 101,42.666667 v 0 l -1.666667,-4.333334 -0.666666,-1 v 0 V 37 L 99,36.666667 v 0 h 0.333333 13.333337 v 0 H 113 L 113.33333,37 v 0 1 L 114,39.666667 l 1,3 10,28 27.66667,-70.00000033 v 0 L 153,0.33333333 153.66667,0 h 13 V 0 0 0 L 167,0.33333333 V 1 1 L 166.33333,2.3333333 165,4.6666667 Z"
         style="fill:#006ab3;fill-opacity:1;fill-rule:nonzero;stroke:none"
         inkscape:connector-curvature="0" />
      <path
         id="path667"
         d="m 57.666667,89.666667 v 0 l 11,0.333333 v 0 H 72 L 75,89.333333 77.666667,89 80.333333,88 82.666667,86.666667 85,85.333333 87,83.666667 89,82 v 0 L 90.666667,80 92,78 l 1.333333,-2.333333 1,-2.333334 L 95,71 95.666667,68.333333 96,65.666667 v -3 0 V 60 L 95.666667,57.333333 95,54.666667 94.333333,52 l -1,-2.333333 -1.333333,-2 -1.666667,-2.333334 -1.666666,-2 v 0 l -2.333334,-2 L 83.666667,39.666667 81,38.333333 l -2.666667,-1 -2.666666,-0.666666 -2.333334,-0.333334 -5,-0.333333 v 0 l -10.666666,0.333333 v 0 h -5.333334 v 0 H 52 l -0.333333,0.333334 -0.333334,1 v 0 l 0.333334,3.666666 v 6.333334 30.666666 0 V 85 l -0.333334,3.333333 v 0 l 0.333334,1 L 52,89.666667 h 0.333333 v 0 z m 21,-14 v 0 L 76.333333,77 74,77.666667 70.666667,78.333333 H 67.333333 64 V 47.666667 h 4 v 0 h 3 L 74,48 l 1.333333,0.666667 1.333334,0.666666 1.333333,1 1.333333,1 v 0 l 1.666667,2 1.333333,2.333334 1,3.333333 0.333334,1.666667 v 2 0 l -0.333334,4 -1,3.333333 -1.666666,3 -1,1.333333 z"
         style="fill:#000000;fill-opacity:1;fill-rule:nonzero;stroke:none"
         inkscape:connector-curvature="0" />
      <path
         id="path669"
         d="m 40.666667,52 v 0 L 40.333333,52.666667 39.666667,53 v 0 l -0.333334,-0.333333 v 0 l -2.666666,-2 L 34,49 31,48 27.666667,47.666667 v 0 h -3 l -2.666667,1 -2.666667,1 -2,1.666666 v 0 l -2,2.666667 -1.666666,2.666667 -1,3.333333 v 3 0 2.333333 L 13,67 14,70.333333 15.666667,72.666667 17,74.333333 v 0 l 1.333333,1 2.333334,1.333334 L 22,77.333333 23.666667,78 l 2,0.333333 h 2 v 0 h 3 l 2.666666,-1 2.333334,-1 L 38,74.666667 v 0 l 1.333333,-1.333334 v 0 L 40,73 v 0 l 0.666667,0.333333 v 0.333334 L 40,87 v 0 l -0.333333,0.333333 -0.333334,0.333334 v 0 l -3.333333,1 v 0 l -2.333333,0.666666 -2,0.333334 L 28.333333,90 v 0 h -3 l -3,-0.333333 L 19.666667,89 17,88 14.333333,87 12,85.666667 l -2,-1.333334 -2,-2 v 0 l -1.6666667,-2 -1.6666666,-2 L 3.3333333,76 2,73.666667 1.3333333,71 0.66666667,68.333333 0,65.666667 V 63 63 60 L 0.66666667,57.333333 1.3333333,54.666667 2,52.333333 3.3333333,50 4.6666667,47.666667 6.3333333,45.333333 8,43.333333 v 0 L 10,41.666667 12,40.333333 14.333333,39 l 2.333334,-1 2.666666,-1 2.333334,-0.333333 3,-0.666667 h 2.666666 v 0 L 31,36.333333 34.666667,37 v 0 L 37,38 v 0 l 1.666667,0.333333 h 1 v 0 L 40,38.666667 v 0.666666 z"
         style="fill:#000000;fill-opacity:1;fill-rule:nonzero;stroke:none"
         inkscape:connector-curvature="0" />
      <path
         id="path671"
         d="m 146.33333,88.666667 v 0 l 0.66667,-1 2,-5 18,-45.333334 v 0 L 167.33333,37 l 1,-0.333333 H 180 v 0 0 0 L 180.66667,37 v 0.333333 0 l -0.66667,1 -2,4.333334 -18,46 v 0 L 159.66667,89 159,89.333333 h -12 v 0 h -0.33333 v 0 L 146.33333,89 Z"
         style="fill:#006ab3;fill-opacity:1;fill-rule:nonzero;stroke:none"
         inkscape:connector-curvature="0" />
      <path
         id="path673"
         d="m 146.33333,88.666667 v 0 l 0.66667,-1 2,-5 18,-45.333334 v 0 L 167.33333,37 l 1,-0.333333 H 180 v 0 0 0 L 180.66667,37 v 0.333333 0 l -0.66667,1 -2,4.333334 -18,46 v 0 L 159.66667,89 159,89.333333 h -12 v 0 h -0.33333 v 0 L 146.33333,89 v -0.333333"
         style="fill:none;stroke:none"
         inkscape:connector-curvature="0" />
      <path
         id="path675"
         d="m 172.33333,23.333333 2.66667,-7 v 0 l 0.33333,-0.666666 1,-0.333334 H 188 v 0 h 0.33333 v 0 l 0.33334,0.333334 V 16 16 l -1,2.333333 -3,7 -1.33334,4 v 0 L 182.66667,29.666667 182,30 h -11.66667 v 0 H 170 v 0 l -0.33333,-0.333333 v -0.333334 0 L 170.33333,28 Z"
         style="fill:#006ab3;fill-opacity:1;fill-rule:nonzero;stroke:none"
         inkscape:connector-curvature="0" />
      <path
         id="path677"
         d="m 241.33333,60.666667 v 0 L 235,61 l -6.33333,1 -6.33334,1 -6,2 -6,2 -5.66666,2.666667 L 199,73 l -5.33333,3.333333 8.33333,-21 4,10.333334 v 0 L 212,63 l 6,-2 -9.66667,-24 v 0 L 208,36.666667 h -0.66667 -10.66666 v 0 H 196 l -0.33333,0.666666 v 0 l -0.33334,1.333334 -1.66666,4.666666 -30.33334,74.999997 v 0 l -2.33333,5 -0.33333,1.33334 v 0 V 125 L 161,125.33333 v 0 0 h 12.66667 v 0 h 0.66666 L 174.66667,125 178,116.33333 v 0 0 l 2.66667,-5.66666 L 184,105 187.66667,99.666667 192,95 l 4.33333,-4.333333 5,-4 5,-3.333334 5.33334,-3 0.66666,1.333334 v 0 l 1,3.333333 0.66667,2 0.33333,2 v 0 l 0.33334,0.333333 H 215 229 v 0 0 0 L 229.33333,89 v -0.333333 0 L 228,86 226.33333,82.333333 223.66667,76 v 0 l 4.66666,-1 4.33334,-0.666667 L 237,73.666667 H 241.66667 248 l 5,-13 z"
         style="fill:#006ab3;fill-opacity:1;fill-rule:nonzero;stroke:none"
         inkscape:connector-curvature="0" />
    </g>
  </g>
</svg>
