<?xml version="1.0" encoding="UTF-8" standalone="no"?>
<!DOCTYPE svg PUBLIC "-//W3C//DTD SVG 1.1//EN" "http://www.w3.org/Graphics/SVG/1.1/DTD/svg11.dtd">
<!-- Generated by Microsoft Visio, SVG Export icon_cdvia.svg Page-1 -->
<svg xmlns="http://www.w3.org/2000/svg" xmlns:xlink="http://www.w3.org/1999/xlink" xmlns:ev="http://www.w3.org/2001/xml-events"
		xmlns:v="http://schemas.microsoft.com/visio/2003/SVGExtensions/" width="1.62081in" height="0.810859in"
		viewBox="0 0 116.699 58.3818" xml:space="preserve" color-interpolation-filters="sRGB" class="st5">
	<v:documentProperties v:langID="2057" v:metric="true" v:viewMarkup="false"/>

	<style type="text/css">
	<![CDATA[
		.st1 {fill:#707173;stroke:none;stroke-linecap:butt;stroke-width:0.565421}
		.st2 {fill:#006ab3;stroke:none;stroke-linecap:butt;stroke-width:0.565421}
		.st3 {fill:#000000;stroke:none;stroke-linecap:butt;stroke-width:0.565421}
		.st4 {fill:none;stroke:none;stroke-linecap:butt;stroke-width:0.565421}
		.st5 {fill:none;fill-rule:evenodd;font-size:12px;overflow:visible;stroke-linecap:square;stroke-miterlimit:3}
	]]>
	</style>

	<g v:mID="0" v:index="1" v:groupContext="foregroundPage">
		<title>Page-1</title>
		<v:pageProperties v:drawingScale="0.0393701" v:pageScale="0.0393701" v:drawingUnits="24" v:shadowOffsetX="9"
				v:shadowOffsetY="-9"/>
		<g id="group3-1" transform="translate(0.565421,-0.565421)" v:mID="3" v:groupContext="group">
			<title>icon_cdvia</title>
			<g id="group4-2" v:mID="4" v:groupContext="group">
				<title>g725</title>
				<g id="shape5-3" v:mID="5" v:groupContext="shape" transform="translate(17.9671,-7.76543)">
					<title>path601</title>
					<path d="M0.76 54.73 L0.3 58.38 L0 58.38 L0.46 54.73 L0.76 54.73 Z" class="st1"/>
				</g>
				<g id="shape6-5" v:mID="6" v:groupContext="shape" transform="translate(19.642,-7.76543)">
					<title>path603</title>
					<path d="M0.3 56.1 L0.76 56.1 L0.76 56.4 L0.91 56.25 L1.37 56.1 L1.67 56.1 L1.98 56.25 L1.98 56.55 L2.13 56.86
								 L1.98 57.16 L1.83 58.38 L1.52 58.38 L1.67 57.32 L1.67 56.86 L1.67 56.71 L1.52 56.55 L1.22 56.4 L1.07
								 56.4 L0.76 56.55 L0.61 56.86 L0.61 57.16 L0.46 58.38 L0 58.38 L0.3 56.1 Z" class="st1"/>
				</g>
				<g id="shape7-7" v:mID="7" v:groupContext="shape" transform="translate(22.6872,-6.54732)">
					<title>path605</title>
					<path d="M2.13 54.88 L2.59 54.88 L2.28 57.16 L2.13 57.62 L1.98 58.08 L1.67 58.38 L1.07 58.38 L0.61 58.38 L0.3
								 58.23 L0 57.77 L0 57.47 L0.46 57.47 L0.46 57.62 L0.61 57.93 L0.76 58.08 L1.07 58.08 L1.37 58.08
								 L1.67 57.93 L1.83 57.62 L1.83 57.16 L1.98 56.86 L1.67 57.16 L1.22 57.32 L0.76 57.16 L0.46 57.01
								 L0.15 56.55 L0.15 56.25 L0.15 55.64 L0.46 55.18 L0.76 55.03 L1.37 54.88 L1.83 55.03 L2.13 55.18
								 L2.13 54.88 ZM0.76 55.49 L0.61 55.79 L0.61 56.1 L0.61 56.55 L0.76 56.71 L0.91 56.86 L1.22 56.86
								 L1.52 56.86 L1.83 56.71 L1.98 56.4 L2.13 55.95 L1.98 55.64 L1.83 55.34 L1.67 55.34 L1.37 55.18 L1.07
								 55.34 L0.76 55.49 Z" class="st1"/>
				</g>
				<g id="shape8-9" v:mID="8" v:groupContext="shape" transform="translate(26.1893,-7.61316)">
					<title>path607</title>
					<path d="M2.13 57.62 L1.83 58.08 L1.37 58.23 L1.07 58.38 L0.76 58.23 L0.3 58.08 L0.15 57.77 L0 57.16 L0.15 56.71
								 L0.46 56.25 L0.76 55.95 L1.22 55.95 L1.67 55.95 L1.98 56.25 L2.13 56.55 L2.28 57.16 L0.46 57.16
								 L0.61 57.62 L0.61 57.77 L0.91 57.93 L1.07 57.93 L1.52 57.77 L1.83 57.47 L2.13 57.62 ZM1.83 56.86
								 L1.83 56.55 L1.67 56.4 L1.52 56.25 L1.22 56.25 L0.91 56.25 L0.76 56.4 L0.61 56.86 L1.83 56.86 ZM2.13
								 54.73 L1.37 55.49 L1.07 55.34 L1.67 54.58 L2.13 54.73 Z" class="st1"/>
				</g>
				<g id="shape9-11" v:mID="9" v:groupContext="shape" transform="translate(29.3868,-7.76543)">
					<title>path609</title>
					<path d="M0.3 56.1 L0.76 56.1 L0.76 56.4 L0.91 56.25 L1.37 56.1 L1.67 56.1 L1.98 56.25 L1.98 56.55 L2.13 56.86
								 L1.98 57.16 L1.83 58.38 L1.52 58.38 L1.67 57.32 L1.67 56.86 L1.67 56.71 L1.52 56.55 L1.22 56.4 L1.07
								 56.4 L0.76 56.55 L0.61 56.86 L0.61 57.16 L0.46 58.38 L0 58.38 L0.3 56.1 Z" class="st1"/>
				</g>
				<g id="shape10-13" v:mID="10" v:groupContext="shape" transform="translate(32.5843,-7.76543)">
					<title>path611</title>
					<path d="M0.61 56.1 L0.46 58.38 L0 58.38 L0.3 56.1 L0.61 56.1 ZM0.3 55.03 L0.61 55.03 L0.76 55.03 L0.91 55.18
								 L0.76 55.49 L0.61 55.49 L0.3 55.49 L0.3 55.34 L0.3 55.03 Z" class="st1"/>
				</g>
				<g id="shape11-15" v:mID="11" v:groupContext="shape" transform="translate(34.2592,-7.61316)">
					<title>path613</title>
					<path d="M2.13 57.62 L1.67 58.08 L1.37 58.23 L1.07 58.38 L0.61 58.23 L0.3 58.08 L0.15 57.77 L0 57.16 L0.15 56.71
								 L0.46 56.25 L0.76 55.95 L1.22 55.95 L1.67 55.95 L1.98 56.25 L2.13 56.55 L2.13 57.16 L0.46 57.16
								 L0.46 57.62 L0.61 57.77 L0.76 57.93 L1.07 57.93 L1.52 57.77 L1.83 57.47 L2.13 57.62 ZM1.83 56.86
								 L1.67 56.55 L1.67 56.4 L1.37 56.25 L1.22 56.25 L0.91 56.25 L0.76 56.4 L0.46 56.86 L1.83 56.86 Z"
							class="st1"/>
				</g>
				<g id="shape12-17" v:mID="12" v:groupContext="shape" transform="translate(37.4568,-7.76543)">
					<title>path615</title>
					<path d="M0.3 56.1 L0.61 56.1 L0.61 56.4 L0.91 56.1 L1.22 56.1 L1.52 56.25 L1.37 56.55 L1.07 56.4 L0.76 56.55
								 L0.61 56.86 L0.61 57.16 L0.46 58.38 L0 58.38 L0.3 56.1 Z" class="st1"/>
				</g>
				<g id="shape13-19" v:mID="13" v:groupContext="shape" transform="translate(39.5885,-7.76543)">
					<title>path617</title>
					<path d="M0.76 56.1 L0.46 58.38 L0 58.38 L0.3 56.1 L0.76 56.1 ZM0.46 55.03 L0.61 55.03 L0.76 55.03 L0.91 55.18
								 L0.76 55.49 L0.61 55.49 L0.46 55.49 L0.3 55.34 L0.46 55.03 Z" class="st1"/>
				</g>
				<g id="shape14-21" v:mID="14" v:groupContext="shape" transform="translate(41.2633,-7.61316)">
					<title>path619</title>
					<path d="M2.13 57.62 L1.83 58.08 L1.37 58.23 L1.07 58.38 L0.76 58.23 L0.3 58.08 L0.15 57.77 L0 57.16 L0.15 56.71
								 L0.46 56.25 L0.76 55.95 L1.22 55.95 L1.67 55.95 L1.98 56.25 L2.13 56.55 L2.28 57.16 L0.46 57.16
								 L0.46 57.62 L0.61 57.77 L0.91 57.93 L1.07 57.93 L1.52 57.77 L1.83 57.47 L2.13 57.62 ZM1.83 56.86
								 L1.83 56.55 L1.67 56.4 L1.52 56.25 L1.22 56.25 L0.91 56.25 L0.76 56.4 L0.46 56.86 L1.83 56.86 Z"
							class="st1"/>
				</g>
				<g id="shape15-23" v:mID="15" v:groupContext="shape" transform="translate(46.4403,-7.61316)">
					<title>path621</title>
					<path d="M3.05 56.86 L2.44 57.47 L2.89 58.23 L2.44 58.23 L2.13 57.77 L1.67 58.08 L1.22 58.23 L0.91 58.38 L0.46
								 58.23 L0.15 58.08 L0 57.77 L0 57.47 L0 57.01 L0.3 56.55 L1.07 56.1 L0.91 55.95 L0.76 55.64 L0.76
								 55.34 L0.76 55.03 L1.07 54.73 L1.37 54.58 L1.67 54.58 L1.98 54.58 L2.13 54.73 L2.28 54.88 L2.28
								 55.18 L2.28 55.49 L2.13 55.64 L1.83 55.95 L1.67 56.25 L2.28 57.16 L2.74 56.71 L3.05 56.86 ZM1.22
								 56.4 L0.61 56.86 L0.46 57.16 L0.3 57.47 L0.3 57.62 L0.46 57.77 L0.76 57.93 L0.91 57.93 L1.52 57.77
								 L1.98 57.47 L1.22 56.4 ZM1.37 55.95 L1.67 55.79 L1.83 55.49 L1.98 55.18 L1.83 55.03 L1.52 54.88
								 L1.22 55.03 L1.22 55.34 L1.22 55.64 L1.37 55.95 Z" class="st1"/>
				</g>
				<g id="shape16-25" v:mID="16" v:groupContext="shape" transform="translate(52.2263,-7.76543)">
					<title>path623</title>
					<path d="M0.3 56.1 L0.61 56.1 L0.61 56.4 L0.91 56.1 L1.22 56.1 L1.52 56.25 L1.83 56.4 L1.98 56.25 L2.44 56.1
								 L2.74 56.1 L3.05 56.25 L3.2 56.55 L3.2 56.71 L3.2 57.16 L3.05 58.38 L2.59 58.38 L2.74 57.16 L2.74
								 56.86 L2.74 56.55 L2.44 56.4 L1.98 56.55 L1.98 56.86 L1.83 57.16 L1.67 58.38 L1.22 58.38 L1.52 57.01
								 L1.52 56.86 L1.37 56.55 L1.07 56.4 L0.76 56.55 L0.61 56.86 L0.46 57.16 L0.3 58.38 L0 58.38 L0.3
								 56.1 Z" class="st1"/>
				</g>
				<g id="shape17-27" v:mID="17" v:groupContext="shape" transform="translate(56.4897,-7.61316)">
					<title>path625</title>
					<path d="M2.13 57.62 L1.67 58.08 L1.37 58.23 L1.07 58.38 L0.61 58.23 L0.3 58.08 L0.15 57.77 L0 57.16 L0.15 56.71
								 L0.46 56.25 L0.76 55.95 L1.22 55.95 L1.67 55.95 L1.98 56.25 L2.13 56.55 L2.13 57.16 L0.46 57.16
								 L0.46 57.62 L0.61 57.77 L0.76 57.93 L1.07 57.93 L1.52 57.77 L1.83 57.47 L2.13 57.62 ZM1.83 56.86
								 L1.83 56.55 L1.67 56.4 L1.37 56.25 L1.22 56.25 L0.91 56.25 L0.76 56.4 L0.46 56.86 L1.83 56.86 Z"
							class="st1"/>
				</g>
				<g id="shape18-29" v:mID="18" v:groupContext="shape" transform="translate(59.5349,-7.61316)">
					<title>path627</title>
					<path d="M1.37 56.55 L1.22 56.4 L1.07 56.25 L0.76 56.4 L0.76 56.55 L0.76 56.71 L1.07 56.86 L1.22 57.01 L1.52
								 57.16 L1.67 57.32 L1.67 57.62 L1.52 57.93 L1.52 58.08 L1.07 58.23 L0.76 58.38 L0.61 58.23 L0.3 58.23
								 L0 57.77 L0.46 57.62 L0.61 57.93 L0.76 57.93 L1.07 57.93 L1.22 57.62 L1.07 57.32 L0.91 57.16 L0.76
								 57.16 L0.46 57.01 L0.3 56.55 L0.3 56.25 L0.46 56.1 L0.76 55.95 L1.07 55.95 L1.37 56.1 L1.67 56.4
								 L1.37 56.55 Z" class="st1"/>
				</g>
				<g id="shape19-31" v:mID="19" v:groupContext="shape" transform="translate(62.2757,-7.61316)">
					<title>path629</title>
					<path d="M0.46 57.16 L0.46 57.47 L0.46 57.62 L0.46 57.93 L0.91 57.93 L1.22 57.77 L1.37 57.62 L1.37 57.32 L1.52
								 55.95 L1.98 55.95 L1.83 57.32 L1.67 57.77 L1.52 58.08 L1.22 58.23 L0.91 58.38 L0.46 58.23 L0.15
								 58.08 L0 57.93 L0 57.47 L0 57.16 L0.15 55.95 L0.61 55.95 L0.46 57.16 Z" class="st1"/>
				</g>
				<g id="shape20-33" v:mID="20" v:groupContext="shape" transform="translate(65.3209,-7.76543)">
					<title>path631</title>
					<path d="M0.15 56.1 L0.61 56.1 L0.61 56.4 L0.76 56.1 L1.22 56.1 L1.52 56.25 L1.22 56.55 L1.07 56.4 L0.76 56.55
								 L0.61 56.86 L0.46 57.16 L0.3 58.38 L0 58.38 L0.15 56.1 Z" class="st1"/>
				</g>
				<g id="shape21-35" v:mID="21" v:groupContext="shape" transform="translate(67.3004,-7.61316)">
					<title>path633</title>
					<path d="M2.13 57.62 L1.67 58.08 L1.37 58.23 L1.07 58.38 L0.61 58.23 L0.3 58.08 L0.15 57.77 L0 57.16 L0.15 56.71
								 L0.46 56.25 L0.76 55.95 L1.22 55.95 L1.67 55.95 L1.98 56.25 L2.13 56.55 L2.13 57.16 L0.46 57.16
								 L0.46 57.62 L0.61 57.77 L0.76 57.93 L1.07 57.93 L1.52 57.77 L1.83 57.47 L2.13 57.62 ZM1.83 56.86
								 L1.67 56.55 L1.67 56.4 L1.37 56.25 L1.22 56.25 L0.91 56.25 L0.76 56.4 L0.46 56.86 L1.83 56.86 Z"
							class="st1"/>
				</g>
				<g id="shape22-37" v:mID="22" v:groupContext="shape" transform="translate(20.5555,-1.52263)">
					<title>path635</title>
					<path d="M2.28 54.27 L2.74 54.27 L2.13 58.23 L1.83 58.23 L1.83 57.93 L1.52 58.23 L1.07 58.38 L0.76 58.23 L0.46
								 58.08 L0.15 57.77 L0 57.16 L0.15 56.71 L0.46 56.25 L0.76 55.95 L1.22 55.95 L1.83 56.1 L1.98 56.25
								 L2.28 54.27 ZM0.76 56.55 L0.61 56.71 L0.46 57.16 L0.46 57.62 L0.61 57.77 L0.91 57.93 L1.22 57.93
								 L1.52 57.93 L1.67 57.77 L1.98 57.47 L1.98 57.01 L1.98 56.71 L1.83 56.4 L1.52 56.25 L1.22 56.25 L1.07
								 56.25 L0.76 56.55 Z" class="st1"/>
				</g>
				<g id="shape23-39" v:mID="23" v:groupContext="shape" transform="translate(24.0576,-1.52263)">
					<title>path637</title>
					<path d="M2.13 57.62 L1.67 58.08 L1.37 58.23 L1.07 58.38 L0.61 58.23 L0.3 58.08 L0.15 57.77 L0 57.16 L0.15 56.71
								 L0.3 56.25 L0.76 55.95 L1.22 55.95 L1.67 55.95 L1.98 56.25 L2.13 56.55 L2.13 57.16 L0.46 57.16 L0.46
								 57.62 L0.61 57.77 L0.76 57.93 L1.07 57.93 L1.52 57.77 L1.83 57.47 L2.13 57.62 ZM1.83 56.86 L1.67
								 56.55 L1.67 56.4 L1.37 56.25 L1.22 56.25 L0.91 56.25 L0.61 56.4 L0.46 56.86 L1.83 56.86 Z"
							class="st1"/>
				</g>
				<g id="shape24-41" v:mID="24" v:groupContext="shape" transform="translate(27.1029,-1.52263)">
					<title>path639</title>
					<path d="M1.22 56.55 L1.22 56.4 L1.07 56.25 L0.76 56.4 L0.76 56.55 L0.76 56.71 L0.91 56.86 L1.22 57.01 L1.52
								 57.16 L1.52 57.32 L1.67 57.62 L1.52 57.93 L1.37 58.08 L1.07 58.23 L0.76 58.38 L0.61 58.23 L0.3 58.23
								 L0 57.77 L0.3 57.62 L0.46 57.93 L0.76 57.93 L1.07 57.93 L1.22 57.62 L1.07 57.32 L0.91 57.16 L0.76
								 57.16 L0.46 57.01 L0.3 56.55 L0.3 56.25 L0.46 56.1 L0.76 55.95 L1.07 55.95 L1.37 56.1 L1.67 56.4
								 L1.22 56.55 Z" class="st1"/>
				</g>
				<g id="shape25-43" v:mID="25" v:groupContext="shape" transform="translate(31.5185,-1.52263)">
					<title>path641</title>
					<path d="M2.28 54.27 L2.59 54.27 L2.13 58.23 L1.83 58.23 L1.83 57.93 L1.52 58.23 L1.07 58.38 L0.76 58.23 L0.3
								 58.08 L0.15 57.77 L0 57.16 L0.15 56.71 L0.46 56.25 L0.76 55.95 L1.22 55.95 L1.67 56.1 L1.98 56.25
								 L2.28 54.27 ZM0.76 56.55 L0.46 56.71 L0.46 57.16 L0.46 57.62 L0.61 57.77 L0.91 57.93 L1.22 57.93
								 L1.37 57.93 L1.67 57.77 L1.83 57.47 L1.98 57.01 L1.83 56.71 L1.67 56.4 L1.52 56.25 L1.22 56.25 L0.91
								 56.25 L0.76 56.55 Z" class="st1"/>
				</g>
				<g id="shape26-45" v:mID="26" v:groupContext="shape" transform="translate(35.0206,-1.52263)">
					<title>path643</title>
					<path d="M2.13 57.62 L1.67 58.08 L1.37 58.23 L1.07 58.38 L0.61 58.23 L0.3 58.08 L0 57.77 L0 57.16 L0 56.71 L0.3
								 56.25 L0.76 55.95 L1.07 55.95 L1.67 55.95 L1.83 56.25 L2.13 56.55 L2.13 57.16 L0.3 57.16 L0.46 57.62
								 L0.61 57.77 L0.76 57.93 L1.07 57.93 L1.52 57.77 L1.83 57.47 L2.13 57.62 ZM1.83 56.86 L1.67 56.55
								 L1.52 56.4 L1.37 56.25 L1.22 56.25 L0.91 56.25 L0.61 56.4 L0.46 56.86 L1.83 56.86 ZM1.98 54.73 L1.22
								 55.49 L0.91 55.34 L1.67 54.58 L1.98 54.73 Z" class="st1"/>
				</g>
				<g id="shape27-47" v:mID="27" v:groupContext="shape" transform="translate(38.0658,-0.45679)">
					<title>path645</title>
					<path d="M0.3 58.38 L0 58.38 L0.46 54.88 L0.76 54.88 L0.76 55.18 L1.07 55.03 L1.52 54.88 L1.83 54.88 L2.28 55.18
								 L2.44 55.49 L2.59 55.95 L2.44 56.55 L2.13 57.01 L1.67 57.16 L1.37 57.32 L1.07 57.16 L0.76 57.16
								 L0.61 56.86 L0.3 58.38 ZM1.83 56.71 L2.13 56.4 L2.13 55.95 L2.13 55.64 L1.98 55.34 L1.67 55.34 L1.37
								 55.18 L1.07 55.34 L0.91 55.49 L0.61 55.79 L0.61 56.1 L0.61 56.4 L0.76 56.71 L1.07 56.86 L1.37 56.86
								 L1.52 56.86 L1.83 56.71 Z" class="st1"/>
				</g>
				<g id="shape28-49" v:mID="28" v:groupContext="shape" transform="translate(41.5679,-1.67489)">
					<title>path647</title>
					<path d="M0.91 54.42 L0.46 58.38 L0 58.38 L0.61 54.42 L0.91 54.42 Z" class="st1"/>
				</g>
				<g id="shape29-51" v:mID="29" v:groupContext="shape" transform="translate(43.2428,-1.52263)">
					<title>path649</title>
					<path d="M2.13 55.95 L2.44 55.95 L2.28 58.23 L1.83 58.23 L1.83 57.93 L1.52 58.23 L1.07 58.38 L0.76 58.23 L0.3
								 58.08 L0.15 57.77 L0 57.16 L0.15 56.55 L0.46 56.25 L0.76 55.95 L1.22 55.95 L1.83 56.1 L2.13 56.25
								 L2.13 55.95 ZM0.76 56.55 L0.61 56.86 L0.46 57.16 L0.46 57.47 L0.76 57.77 L0.91 57.93 L1.22 57.93
								 L1.52 57.93 L1.67 57.77 L1.98 57.47 L1.98 57.01 L1.98 56.71 L1.83 56.4 L1.52 56.4 L1.37 56.25 L0.91
								 56.4 L0.76 56.55 Z" class="st1"/>
				</g>
				<g id="shape30-53" v:mID="30" v:groupContext="shape" transform="translate(46.7448,-1.52263)">
					<title>path651</title>
					<path d="M1.98 56.55 L1.67 56.4 L1.37 56.25 L0.91 56.4 L0.76 56.55 L0.46 56.86 L0.46 57.16 L0.46 57.62 L0.61
								 57.77 L0.91 57.93 L1.22 57.93 L1.52 57.93 L1.83 57.62 L1.83 58.08 L1.52 58.23 L1.07 58.38 L0.61
								 58.23 L0.3 58.08 L0 57.62 L0 57.16 L0.15 56.71 L0.46 56.25 L0.76 56.1 L1.37 55.95 L1.67 55.95 L1.98
								 56.1 L1.98 56.55 Z" class="st1"/>
				</g>
				<g id="shape31-55" v:mID="31" v:groupContext="shape" transform="translate(49.6378,-1.52263)">
					<title>path653</title>
					<path d="M2.13 57.62 L1.83 58.08 L1.37 58.23 L1.07 58.38 L0.76 58.23 L0.3 58.08 L0.15 57.77 L0 57.16 L0.15 56.71
								 L0.46 56.25 L0.76 55.95 L1.22 55.95 L1.67 55.95 L1.98 56.25 L2.13 56.55 L2.28 57.16 L0.46 57.16
								 L0.61 57.62 L0.61 57.77 L0.91 57.93 L1.07 57.93 L1.52 57.77 L1.83 57.47 L2.13 57.62 ZM1.83 56.86
								 L1.83 56.55 L1.67 56.4 L1.52 56.25 L1.22 56.25 L0.91 56.25 L0.76 56.4 L0.61 56.86 L1.83 56.86 Z"
							class="st1"/>
				</g>
				<g id="shape32-57" v:mID="32" v:groupContext="shape" transform="translate(52.8354,-1.67489)">
					<title>path655</title>
					<path d="M0.3 56.1 L0.76 56.1 L0.76 56.4 L0.91 56.1 L1.22 56.1 L1.67 56.25 L1.83 56.4 L2.13 56.25 L2.59 56.1
								 L2.89 56.1 L3.05 56.25 L3.2 56.55 L3.35 56.71 L3.2 57.16 L3.05 58.38 L2.74 58.38 L2.89 57.16 L2.89
								 56.86 L2.74 56.55 L2.44 56.4 L2.13 56.55 L1.98 56.86 L1.98 57.16 L1.83 58.38 L1.37 58.38 L1.52 57.01
								 L1.52 56.86 L1.52 56.55 L1.22 56.4 L0.76 56.55 L0.61 56.86 L0.61 57.16 L0.46 58.38 L0 58.38 L0.3
								 56.1 Z" class="st1"/>
				</g>
				<g id="shape33-59" v:mID="33" v:groupContext="shape" transform="translate(57.251,-1.52263)">
					<title>path657</title>
					<path d="M2.13 57.62 L1.67 58.08 L1.37 58.23 L1.07 58.38 L0.61 58.23 L0.3 58.08 L0 57.77 L0 57.16 L0 56.71 L0.3
								 56.25 L0.76 55.95 L1.07 55.95 L1.52 55.95 L1.83 56.25 L2.13 56.55 L2.13 57.16 L0.3 57.16 L0.46 57.62
								 L0.61 57.77 L0.76 57.93 L1.07 57.93 L1.52 57.77 L1.67 57.47 L2.13 57.62 ZM1.67 56.86 L1.67 56.55
								 L1.52 56.4 L1.37 56.25 L1.07 56.25 L0.91 56.25 L0.61 56.4 L0.46 56.86 L1.67 56.86 Z" class="st1"/>
				</g>
				<g id="shape34-61" v:mID="34" v:groupContext="shape" transform="translate(60.4485,-1.67489)">
					<title>path659</title>
					<path d="M0.15 56.1 L0.61 56.1 L0.61 56.4 L0.76 56.25 L1.22 56.1 L1.52 56.1 L1.83 56.25 L1.98 56.55 L1.98 56.86
								 L1.98 57.16 L1.83 58.38 L1.37 58.38 L1.52 57.32 L1.52 56.86 L1.52 56.71 L1.37 56.55 L1.07 56.4 L0.91
								 56.4 L0.76 56.55 L0.61 56.86 L0.46 57.16 L0.3 58.38 L0 58.38 L0.15 56.1 Z" class="st1"/>
				</g>
				<g id="shape35-63" v:mID="35" v:groupContext="shape" transform="translate(63.4938,-1.67489)">
					<title>path661</title>
					<path d="M0.61 56.55 L0.46 58.38 L0 58.38 L0.3 56.55 L0 56.55 L0 56.1 L0.3 56.1 L0.46 55.34 L0.76 55.34 L0.76
								 56.1 L1.07 56.1 L1.07 56.55 L0.61 56.55 Z" class="st1"/>
				</g>
				<g id="shape36-65" v:mID="36" v:groupContext="shape" transform="translate(65.1687,-1.52263)">
					<title>path663</title>
					<path d="M1.22 56.55 L1.07 56.4 L0.91 56.25 L0.76 56.4 L0.61 56.55 L0.61 56.71 L0.91 56.86 L1.07 57.01 L1.37
								 57.16 L1.52 57.32 L1.52 57.62 L1.52 57.93 L1.37 58.08 L1.07 58.23 L0.76 58.38 L0.46 58.23 L0.15
								 58.23 L0 57.77 L0.3 57.62 L0.46 57.93 L0.76 57.93 L1.07 57.93 L1.07 57.62 L1.07 57.32 L0.76 57.16
								 L0.61 57.16 L0.3 57.01 L0.15 56.55 L0.3 56.25 L0.46 56.1 L0.61 55.95 L0.91 55.95 L1.37 56.1 L1.52
								 56.4 L1.22 56.55 Z" class="st1"/>
				</g>
				<g id="shape37-67" v:mID="37" v:groupContext="shape" transform="translate(45.0699,-16.4444)">
					<title>path665</title>
					<path d="M29.54 21.53 L14.77 58.23 L14.62 58.38 L14.47 58.38 L9.59 58.38 L9.29 58.38 L9.14 58.23 L1.07 37.06
								 L0.3 35.09 L0 34.63 L0 34.48 L0.15 34.32 L0.3 34.32 L6.4 34.32 L6.55 34.32 L6.7 34.48 L6.7 34.93
								 L7 35.69 L7.46 37.06 L12.03 49.86 L24.67 17.88 L24.82 17.73 L25.12 17.58 L31.06 17.58 L31.21 17.73
								 L31.21 18.03 L30.91 18.64 L30.3 19.71 L29.54 21.53 Z" class="st2"/>
				</g>
				<g id="shape38-69" v:mID="38" v:groupContext="shape" transform="translate(23.4485,-16.1399)">
					<title>path667</title>
					<path d="M2.89 58.23 L7.92 58.38 L9.44 58.38 L10.81 58.08 L12.03 57.93 L13.25 57.47 L14.31 56.86 L15.38 56.25
								 L16.29 55.49 L17.21 54.73 L17.97 53.81 L18.58 52.9 L19.19 51.83 L19.64 50.77 L19.95 49.7 L20.25
								 48.48 L20.4 47.27 L20.4 45.9 L20.4 44.68 L20.25 43.46 L19.95 42.24 L19.64 41.02 L19.19 39.96 L18.58
								 39.04 L17.81 37.98 L17.05 37.06 L15.99 36.15 L14.77 35.39 L13.55 34.78 L12.33 34.32 L11.12 34.02
								 L10.05 33.87 L7.77 33.72 L2.89 33.87 L0.46 33.87 L0.3 33.87 L0.15 34.02 L0 34.48 L0.15 36.15 L0.15
								 39.04 L0.15 53.05 L0.15 56.1 L0 57.62 L0.15 58.08 L0.3 58.23 L0.46 58.23 L2.89 58.23 ZM12.49 51.83
								 L11.42 52.44 L10.35 52.75 L8.83 53.05 L7.31 53.05 L5.79 53.05 L5.79 39.04 L7.61 39.04 L8.98 39.04
								 L10.35 39.2 L10.96 39.5 L11.57 39.81 L12.18 40.26 L12.79 40.72 L13.55 41.63 L14.16 42.7 L14.62 44.22
								 L14.77 44.98 L14.77 45.9 L14.62 47.72 L14.16 49.25 L13.4 50.62 L12.94 51.23 L12.49 51.83 Z"
							class="st3"/>
				</g>
				<g id="shape39-71" v:mID="39" v:groupContext="shape" transform="translate(-1.13909E-13,-16.1399)">
					<title>path669</title>
					<path d="M18.58 41.02 L18.42 41.33 L18.12 41.48 L17.97 41.33 L16.75 40.41 L15.53 39.65 L14.16 39.2 L12.64 39.04
								 L11.27 39.04 L10.05 39.5 L8.83 39.96 L7.92 40.72 L7 41.94 L6.24 43.16 L5.79 44.68 L5.79 46.05 L5.79
								 47.11 L5.94 47.88 L6.4 49.4 L7.16 50.46 L7.77 51.23 L8.37 51.68 L9.44 52.29 L10.05 52.6 L10.81 52.9
								 L11.72 53.05 L12.64 53.05 L14.01 53.05 L15.23 52.6 L16.29 52.14 L17.36 51.38 L17.97 50.77 L18.27
								 50.62 L18.58 50.77 L18.58 50.92 L18.27 57.01 L18.12 57.16 L17.97 57.32 L16.44 57.77 L15.38 58.08
								 L14.47 58.23 L12.94 58.38 L11.57 58.38 L10.2 58.23 L8.98 57.93 L7.77 57.47 L6.55 57.01 L5.48 56.4
								 L4.57 55.79 L3.65 54.88 L2.89 53.97 L2.13 53.05 L1.52 51.99 L0.91 50.92 L0.61 49.7 L0.3 48.48 L0
								 47.27 L0 46.05 L0 44.68 L0.3 43.46 L0.61 42.24 L0.91 41.18 L1.52 40.11 L2.13 39.04 L2.89 37.98 L3.65
								 37.06 L4.57 36.3 L5.48 35.69 L6.55 35.09 L7.61 34.63 L8.83 34.17 L9.9 34.02 L11.27 33.72 L12.49
								 33.72 L14.16 33.87 L15.84 34.17 L16.9 34.63 L17.66 34.78 L18.12 34.78 L18.27 34.93 L18.27 35.24
								 L18.58 41.02 Z" class="st3"/>
				</g>
				<g id="shape40-73" v:mID="40" v:groupContext="shape" transform="translate(66.8436,-16.4444)">
					<title>path671</title>
					<path d="M0 58.08 L0.3 57.62 L1.22 55.34 L9.44 34.63 L9.59 34.48 L10.05 34.32 L15.38 34.32 L15.68 34.48 L15.68
								 34.63 L15.38 35.09 L14.47 37.06 L6.24 58.08 L6.09 58.23 L5.79 58.38 L0.3 58.38 L0.15 58.38 L0 58.23
								 L0 58.08 Z" class="st2"/>
				</g>
				<g id="shape41-75" v:mID="41" v:groupContext="shape" transform="translate(66.8436,-16.4444)">
					<title>path673</title>
					<path d="M0 58.08 L0.3 57.62 L1.22 55.34 L9.44 34.63 L9.59 34.48 L10.05 34.32 L15.38 34.32 L15.68 34.48 L15.68
								 34.63 L15.38 35.09 L14.47 37.06 L6.24 58.08 L6.09 58.23 L5.79 58.38 L0.3 58.38 L0.15 58.38 L0 58.23
								 L0 58.08 Z" class="st4"/>
				</g>
				<g id="shape42-77" v:mID="42" v:groupContext="shape" transform="translate(77.502,-43.5473)">
					<title>path675</title>
					<path d="M1.22 55.34 L2.44 52.14 L2.59 51.83 L3.05 51.68 L8.37 51.68 L8.53 51.68 L8.68 51.83 L8.68 51.99 L8.22
								 53.05 L6.85 56.25 L6.24 58.08 L5.94 58.23 L5.63 58.38 L0.3 58.38 L0.15 58.38 L0 58.23 L0 58.08 L0.3
								 57.47 L1.22 55.34 Z" class="st2"/>
				</g>
				<g id="shape43-79" v:mID="43" v:groupContext="shape" transform="translate(73.3909,-2.84217E-13)">
					<title>path677</title>
					<path d="M36.85 28.84 L33.95 29 L31.06 29.45 L28.17 29.91 L25.43 30.82 L22.69 31.74 L20.1 32.95 L17.51 34.48
								 L15.07 36 L18.88 26.41 L20.71 31.13 L23.45 29.91 L26.19 29 L21.77 18.03 L21.62 17.88 L21.32 17.88
								 L16.44 17.88 L16.14 17.88 L15.99 18.18 L15.84 18.79 L15.07 20.93 L1.22 55.18 L0.15 57.47 L0 58.08
								 L0 58.23 L0.15 58.38 L5.94 58.38 L6.24 58.38 L6.4 58.23 L7.92 54.27 L9.14 51.68 L10.66 49.09 L12.33
								 46.66 L14.31 44.53 L16.29 42.55 L18.58 40.72 L20.86 39.2 L23.3 37.83 L23.6 38.44 L24.06 39.96 L24.36
								 40.87 L24.51 41.79 L24.67 41.94 L24.82 41.94 L31.21 41.94 L31.37 41.79 L31.37 41.63 L30.76 40.41
								 L30 38.74 L28.78 35.85 L30.91 35.39 L32.89 35.09 L34.87 34.78 L37 34.78 L39.89 34.78 L42.18 28.84
								 L36.85 28.84 Z" class="st2"/>
				</g>
			</g>
		</g>
	</g>
</svg>
