<?xml version="1.0" encoding="UTF-8" standalone="no"?>
<!DOCTYPE svg PUBLIC "-//W3C//DTD SVG 1.1//EN" "http://www.w3.org/Graphics/SVG/1.1/DTD/svg11.dtd">
<!-- Generated by Microsoft Visio, SVG Export icon_odc_green.svg Page-1 -->
<svg xmlns="http://www.w3.org/2000/svg" xmlns:xlink="http://www.w3.org/1999/xlink" xmlns:ev="http://www.w3.org/2001/xml-events"
		xmlns:v="http://schemas.microsoft.com/visio/2003/SVGExtensions/" width="1.71658in" height="1.29115in"
		viewBox="0 0 123.594 92.9629" xml:space="preserve" color-interpolation-filters="sRGB" class="st2">
	<v:documentProperties v:langID="2057" v:metric="true" v:viewMarkup="false"/>

	<style type="text/css">
	<![CDATA[
		.st1 {fill:#93ac9d;stroke:none;stroke-linecap:butt;stroke-width:4.07435}
		.st2 {fill:none;fill-rule:evenodd;font-size:12px;overflow:visible;stroke-linecap:square;stroke-miterlimit:3}
	]]>
	</style>

	<g v:mID="0" v:index="1" v:groupContext="foregroundPage">
		<title>Page-1</title>
		<v:pageProperties v:drawingScale="0.0393701" v:pageScale="0.0393701" v:drawingUnits="24" v:shadowOffsetX="9"
				v:shadowOffsetY="-9"/>
		<g id="group95-1" transform="translate(4.07435,-4.07435)" v:mID="95" v:groupContext="group">
			<title>icon_odc_green</title>
			<g id="group96-2" transform="translate(0.958042,0)" v:mID="96" v:groupContext="group">
				<title>g40</title>
				<g id="shape97-3" v:mID="97" v:groupContext="shape" transform="translate(30.763,-22.6119)">
					<title>path2</title>
					<path d="M5.82 89.78 L5.82 83.4 C5.82 81.37 4.75 80.21 2.9 80.21 C1.06 80.21 0 81.37 0 83.4 L0 89.78 C0 91.8
								 1.06 92.96 2.9 92.96 C4.75 92.96 5.82 91.8 5.82 89.78 ZM4.28 89.85 C4.28 90.98 3.82 91.56 2.9 91.56
								 C1.98 91.56 1.51 90.98 1.51 89.85 L1.51 83.33 C1.51 82.55 1.75 81.62 2.9 81.62 C3.82 81.62 4.28
								 82.19 4.28 83.33 L4.28 89.85 Z" class="st1"/>
				</g>
				<g id="shape98-5" v:mID="98" v:groupContext="shape" transform="translate(41.0819,-22.7351)">
					<title>path4</title>
					<path d="M5.62 85.04 L5.62 83.55 C5.62 81.53 4.64 80.46 2.77 80.46 L0.08 80.46 C0.03 80.46 0 80.5 0 80.54 L0
								 92.89 C0 92.93 0.04 92.96 0.08 92.96 L1.45 92.96 C1.5 92.96 1.53 92.93 1.53 92.89 L1.53 88.09 L2.67
								 88.09 C4.63 88.09 5.62 87.07 5.62 85.04 ZM4.11 85.12 C4.11 86.23 3.68 86.7 2.67 86.7 L1.53 86.7
								 L1.53 81.87 L2.77 81.87 C3.71 81.87 4.11 82.35 4.11 83.48 L4.11 85.12 L4.11 85.12 Z" class="st1"/>
				</g>
				<g id="shape99-7" v:mID="99" v:groupContext="shape" transform="translate(51.03,-22.7341)">
					<title>path6</title>
					<path d="M5.24 92.88 L5.24 91.63 C5.24 91.59 5.2 91.55 5.16 91.55 L1.53 91.55 L1.53 87.32 L4.47 87.32 C4.51 87.32
								 4.55 87.28 4.55 87.24 L4.55 86.01 C4.55 85.96 4.51 85.93 4.47 85.93 L1.53 85.93 L1.53 81.87 L5.16
								 81.87 C5.2 81.87 5.23 81.83 5.23 81.79 L5.23 80.54 C5.23 80.5 5.2 80.46 5.16 80.46 L0.08 80.46 C0.03
								 80.46 0 80.5 0 80.54 L0 92.89 C0 92.93 0.04 92.96 0.08 92.96 L5.16 92.96 C5.2 92.96 5.24 92.93 5.24
								 92.88 Z" class="st1"/>
				</g>
				<g id="shape100-9" v:mID="100" v:groupContext="shape" transform="translate(60.7129,-22.7351)">
					<title>path8</title>
					<path d="M4.47 92.96 L5.9 92.96 C5.94 92.96 5.98 92.93 5.98 92.89 L5.98 80.54 C5.98 80.5 5.94 80.46 5.9 80.46
								 L4.68 80.46 C4.64 80.46 4.6 80.5 4.6 80.54 L4.6 88.97 L1.9 80.52 C1.89 80.48 1.86 80.46 1.82 80.46
								 L0.08 80.46 C0.04 80.46 0 80.5 0 80.54 L0 92.89 C0 92.93 0.04 92.96 0.08 92.96 L1.31 92.96 C1.35
								 92.96 1.39 92.93 1.39 92.89 L1.39 83.41 L4.39 92.91 C4.4 92.94 4.43 92.96 4.47 92.96 Z"
							class="st1"/>
				</g>
				<g id="shape101-11" v:mID="101" v:groupContext="shape" transform="translate(77.3798,-22.7351)">
					<title>path10</title>
					<path d="M2.97 80.46 L0.08 80.46 C0.04 80.46 0 80.5 0 80.54 L0 92.89 C0 92.93 0.04 92.96 0.08 92.96 L2.97 92.96
								 C4.86 92.96 5.85 91.88 5.85 89.83 L5.85 83.61 C5.85 81.55 4.86 80.46 2.97 80.46 ZM4.34 83.54 L4.34
								 89.89 C4.34 90.99 3.87 91.55 2.95 91.55 L1.53 91.55 L1.53 81.87 L2.93 81.87 C3.87 81.87 4.34 82.43
								 4.34 83.54 Z" class="st1"/>
				</g>
				<g id="shape102-13" v:mID="102" v:groupContext="shape" transform="translate(87.3434,-22.7341)">
					<title>path12</title>
					<path d="M4.44 80.46 L2.44 80.46 C2.41 80.46 2.37 80.49 2.37 80.52 L0.01 92.87 C0 92.89 0.01 92.92 0.02 92.93
								 C0.04 92.95 0.06 92.96 0.08 92.96 L1.35 92.96 C1.39 92.96 1.42 92.94 1.43 92.9 L1.89 90.48 L4.89
								 90.48 L5.35 92.9 C5.36 92.94 5.39 92.96 5.43 92.96 L6.8 92.96 C6.82 92.96 6.85 92.95 6.86 92.93
								 C6.88 92.92 6.88 92.89 6.88 92.87 L4.51 80.52 C4.51 80.49 4.47 80.46 4.44 80.46 ZM4.66 89.14 L2.1
								 89.14 L3.36 82.5 L4.66 89.14 Z" class="st1"/>
				</g>
				<g id="shape103-15" v:mID="103" v:groupContext="shape" transform="translate(98.0186,-22.7351)">
					<title>path14</title>
					<path d="M0.08 80.46 C0.04 80.46 0 80.5 0 80.54 L0 81.79 C0 81.83 0.04 81.87 0.08 81.87 L2.27 81.87 L2.27 92.89
								 C2.27 92.93 2.31 92.96 2.35 92.96 L3.73 92.96 C3.77 92.96 3.81 92.93 3.81 92.89 L3.81 81.87 L6 81.87
								 C6.05 81.87 6.08 81.83 6.08 81.79 L6.08 80.54 C6.08 80.5 6.05 80.46 6 80.46 L0.08 80.46 Z"
							class="st1"/>
				</g>
				<g id="shape104-17" v:mID="104" v:groupContext="shape" transform="translate(107.223,-22.7351)">
					<title>path16</title>
					<path d="M4.51 80.52 C4.51 80.49 4.47 80.46 4.44 80.46 L2.44 80.46 C2.41 80.46 2.37 80.49 2.37 80.52 L0.01 92.87
								 C0 92.89 0.01 92.92 0.02 92.93 C0.04 92.95 0.06 92.96 0.08 92.96 L1.35 92.96 C1.39 92.96 1.42 92.94
								 1.43 92.9 L1.89 90.48 L4.89 90.48 L5.35 92.9 C5.36 92.94 5.39 92.96 5.43 92.96 L6.8 92.96 C6.82
								 92.96 6.85 92.95 6.86 92.93 C6.88 92.92 6.88 92.89 6.88 92.87 L4.51 80.52 ZM4.66 89.14 L2.1 89.14
								 L3.36 82.5 L4.66 89.14 Z" class="st1"/>
				</g>
				<g id="shape105-19" v:mID="105" v:groupContext="shape" transform="translate(0,-0.018643)">
					<title>path18</title>
					<path d="M2.85 80.22 C1.04 80.22 0 81.38 0 83.4 L0 89.78 C0 91.83 1.01 92.96 2.85 92.96 C4.69 92.96 5.71 91.83
								 5.71 89.78 L5.71 88.25 C5.71 88.2 5.68 88.17 5.63 88.17 L4.33 88.17 C4.29 88.17 4.25 88.2 4.25 88.25
								 L4.25 89.85 C4.25 90.98 3.79 91.56 2.88 91.56 C1.75 91.56 1.52 90.63 1.52 89.85 L1.52 83.33 C1.52
								 82.55 1.75 81.62 2.88 81.62 C3.79 81.62 4.25 82.2 4.25 83.33 L4.25 84.51 C4.25 84.55 4.29 84.59
								 4.33 84.59 L5.63 84.59 C5.68 84.59 5.71 84.55 5.71 84.51 L5.71 83.4 C5.71 81.35 4.69 80.22 2.85
								 80.22 Z" class="st1"/>
				</g>
				<g id="shape106-21" v:mID="106" v:groupContext="shape" transform="translate(10.9362,-0.018643)">
					<title>path20</title>
					<path d="M2.9 80.22 C1.06 80.22 0 81.38 0 83.4 L0 89.78 C0 91.8 1.06 92.96 2.9 92.96 C4.75 92.96 5.82 91.8 5.82
								 89.78 L5.82 83.4 C5.82 81.38 4.75 80.22 2.9 80.22 ZM4.29 89.85 C4.29 90.98 3.82 91.56 2.9 91.56
								 C1.98 91.56 1.51 90.98 1.51 89.85 L1.51 83.33 C1.51 82.55 1.75 81.62 2.9 81.62 C3.82 81.62 4.29
								 82.2 4.29 83.33 L4.29 89.85 Z" class="st1"/>
				</g>
				<g id="shape107-23" v:mID="107" v:groupContext="shape" transform="translate(22.1189,-0.140858)">
					<title>path22</title>
					<path d="M4.68 80.46 C4.64 80.46 4.6 80.5 4.6 80.54 L4.6 88.96 L1.9 80.52 C1.89 80.48 1.86 80.46 1.82 80.46 L0.08
								 80.46 C0.03 80.46 0 80.5 0 80.54 L0 92.88 C0 92.93 0.04 92.96 0.08 92.96 L1.31 92.96 C1.36 92.96
								 1.39 92.93 1.39 92.88 L1.39 83.41 L4.39 92.91 C4.4 92.94 4.43 92.96 4.47 92.96 L5.9 92.96 C5.94
								 92.96 5.97 92.93 5.97 92.89 L5.97 80.54 C5.97 80.5 5.94 80.46 5.9 80.46 L4.68 80.46 L4.68 80.46
								 Z" class="st1"/>
				</g>
				<g id="shape108-25" v:mID="108" v:groupContext="shape" transform="translate(33.3906,-0.0165715)">
					<title>path24</title>
					<path d="M3.43 86.08 C2.47 85.3 1.57 84.56 1.57 83.29 C1.57 82.17 2 81.62 2.9 81.62 C3.8 81.62 4.23 82.17 4.23
								 83.31 L4.23 83.71 C4.23 83.76 4.27 83.79 4.31 83.79 L5.61 83.79 C5.66 83.79 5.69 83.76 5.69 83.71
								 L5.69 83.38 C5.69 81.34 4.69 80.21 2.86 80.21 C1.05 80.21 0.05 81.34 0.05 83.38 C0.05 85.25 1.21
								 86.19 2.32 87.1 C3.28 87.88 4.18 88.61 4.18 89.87 C4.18 90.99 3.72 91.55 2.81 91.55 C1.9 91.55 1.44
								 90.99 1.44 89.87 L1.44 89.09 C1.44 89.05 1.41 89.01 1.37 89.01 L0.08 89.01 C0.03 89.01 0 89.05 0
								 89.09 L0 89.8 C0 91.84 1.01 92.96 2.85 92.96 C4.67 92.96 5.71 91.81 5.71 89.8 C5.71 87.93 4.55 86.98
								 3.43 86.08 Z" class="st1"/>
				</g>
				<g id="shape109-27" v:mID="109" v:groupContext="shape" transform="translate(44.3258,0)">
					<title>path26</title>
					<path d="M4.31 80.32 C4.27 80.32 4.23 80.36 4.23 80.4 L4.23 89.83 C4.23 90.96 3.78 91.54 2.88 91.54 C1.97 91.54
								 1.51 90.96 1.51 89.83 L1.51 80.4 C1.51 80.36 1.48 80.32 1.44 80.32 L0.08 80.32 C0.03 80.32 0 80.36
								 0 80.4 L0 89.76 C0 91.83 1 92.96 2.83 92.96 C4.66 92.96 5.68 91.83 5.68 89.76 L5.68 80.4 C5.68 80.36
								 5.64 80.32 5.6 80.32 L4.31 80.32 Z" class="st1"/>
				</g>
				<g id="shape110-29" v:mID="110" v:groupContext="shape" transform="translate(55.438,-0.141894)">
					<title>path28</title>
					<path d="M1.53 91.56 L1.53 80.54 C1.53 80.5 1.5 80.46 1.45 80.46 L0.08 80.46 C0.03 80.46 0 80.5 0 80.54 L0 92.89
								 C0 92.93 0.04 92.96 0.08 92.96 L4.98 92.96 C5.02 92.96 5.06 92.93 5.06 92.89 L5.06 91.63 C5.06 91.59
								 5.02 91.56 4.98 91.56 L1.53 91.56 Z" class="st1"/>
				</g>
				<g id="shape111-31" v:mID="111" v:groupContext="shape" transform="translate(64.2572,-0.141894)">
					<title>path30</title>
					<path d="M0.08 80.46 C0.04 80.46 0 80.5 0 80.54 L0 81.79 C0 81.83 0.04 81.87 0.08 81.87 L2.27 81.87 L2.27 92.89
								 C2.27 92.93 2.31 92.96 2.35 92.96 L3.73 92.96 C3.77 92.96 3.81 92.93 3.81 92.89 L3.81 81.87 L6 81.87
								 C6.05 81.87 6.08 81.83 6.08 81.79 L6.08 80.54 C6.08 80.5 6.05 80.46 6 80.46 L0.08 80.46 Z"
							class="st1"/>
				</g>
				<g id="shape112-33" v:mID="112" v:groupContext="shape" transform="translate(74.343,-0.140858)">
					<title>path32</title>
					<path d="M4.44 80.46 L2.44 80.46 C2.41 80.46 2.37 80.49 2.37 80.52 L0.01 92.87 C0 92.89 0.01 92.92 0.02 92.93
								 C0.04 92.95 0.06 92.96 0.08 92.96 L1.35 92.96 C1.39 92.96 1.42 92.94 1.43 92.9 L1.89 90.48 L4.89
								 90.48 L5.35 92.9 C5.36 92.94 5.39 92.96 5.43 92.96 L6.8 92.96 C6.82 92.96 6.85 92.95 6.86 92.93
								 C6.88 92.92 6.88 92.89 6.88 92.87 L4.51 80.52 C4.51 80.49 4.48 80.46 4.44 80.46 ZM4.66 89.14 L2.1
								 89.14 L3.36 82.5 L4.66 89.14 Z" class="st1"/>
				</g>
				<g id="shape113-35" v:mID="113" v:groupContext="shape" transform="translate(86.3584,-0.140858)">
					<title>path34</title>
					<path d="M4.68 80.46 C4.64 80.46 4.6 80.5 4.6 80.54 L4.6 88.96 L1.9 80.52 C1.89 80.48 1.86 80.46 1.82 80.46 L0.08
								 80.46 C0.04 80.46 0 80.5 0 80.54 L0 92.88 C0 92.93 0.04 92.96 0.08 92.96 L1.31 92.96 C1.35 92.96
								 1.39 92.93 1.39 92.88 L1.39 83.41 L4.39 92.91 C4.4 92.94 4.43 92.96 4.47 92.96 L5.9 92.96 C5.94
								 92.96 5.97 92.93 5.97 92.89 L5.97 80.54 C5.97 80.5 5.94 80.46 5.9 80.46 L4.68 80.46 L4.68 80.46
								 Z" class="st1"/>
				</g>
				<g id="shape114-37" v:mID="114" v:groupContext="shape" transform="translate(97.3474,-0.141894)">
					<title>path36</title>
					<path d="M0.08 80.46 C0.04 80.46 0 80.5 0 80.54 L0 81.79 C0 81.83 0.04 81.87 0.08 81.87 L2.27 81.87 L2.27 92.89
								 C2.27 92.93 2.31 92.96 2.35 92.96 L3.73 92.96 C3.77 92.96 3.81 92.93 3.81 92.89 L3.81 81.87 L6 81.87
								 C6.05 81.87 6.08 81.83 6.08 81.79 L6.08 80.54 C6.08 80.5 6.05 80.46 6 80.46 L0.08 80.46 Z"
							class="st1"/>
				</g>
				<g id="shape115-39" v:mID="115" v:groupContext="shape" transform="translate(108.267,-0.0165715)">
					<title>path38</title>
					<path d="M3.43 86.08 C2.47 85.3 1.57 84.56 1.57 83.29 C1.57 82.17 2 81.62 2.9 81.62 C3.8 81.62 4.23 82.17 4.23
								 83.31 L4.23 83.71 C4.23 83.76 4.27 83.79 4.31 83.79 L5.61 83.79 C5.66 83.79 5.69 83.76 5.69 83.71
								 L5.69 83.38 C5.69 81.34 4.69 80.21 2.86 80.21 C1.05 80.21 0.05 81.34 0.05 83.38 C0.05 85.25 1.21
								 86.19 2.32 87.1 C3.28 87.88 4.18 88.61 4.18 89.87 C4.18 90.99 3.72 91.55 2.81 91.55 C1.9 91.55 1.44
								 90.99 1.44 89.87 L1.44 89.09 C1.44 89.05 1.41 89.01 1.37 89.01 L0.08 89.01 C0.04 89.01 0 89.05 0
								 89.09 L0 89.8 C0 91.84 1.01 92.96 2.85 92.96 C4.67 92.96 5.71 91.81 5.71 89.8 C5.71 87.93 4.55 86.98
								 3.43 86.08 Z" class="st1"/>
				</g>
			</g>
			<g id="shape116-41" v:mID="116" v:groupContext="shape" transform="translate(0,-36.6562)">
				<title>path42</title>
				<path d="M17.35 92.96 L16.64 92.31 C15.96 91.67 0 76.66 0 62.15 C0 59.12 0.8 56.13 2.3 53.52 C5.39 48.14 11.15 44.8
							 17.35 44.8 C26.91 44.8 34.69 52.59 34.69 62.15 C34.69 76.66 18.73 91.67 18.05 92.31 L17.35 92.96 ZM17.35
							 46.88 C11.89 46.88 6.82 49.82 4.1 54.55 C2.77 56.85 2.07 59.48 2.07 62.15 C2.07 74.08 14.25 87.01 17.35
							 90.1 C20.44 87.01 32.62 74.09 32.62 62.15 C32.62 53.73 25.77 46.88 17.35 46.88 Z" class="st1"/>
			</g>
			<g id="shape117-43" v:mID="117" v:groupContext="shape" transform="translate(46.7007,-50.0595)">
				<title>path44</title>
				<path d="M12.81 92.96 L7.1 92.96 C6.52 92.96 6.06 92.5 6.06 91.93 C6.06 91.36 6.52 90.89 7.1 90.89 L12.81 90.89 C20.99
							 90.89 27.64 84.24 27.64 76.06 C27.64 67.88 20.99 61.23 12.81 61.23 L2.07 61.23 L2.07 91.93 C2.07 92.5
							 1.61 92.96 1.04 92.96 C0.46 92.96 0 92.5 0 91.93 L0 59.16 L12.81 59.16 C22.13 59.16 29.72 66.74 29.72
							 76.06 C29.72 85.38 22.13 92.96 12.81 92.96 Z" class="st1"/>
			</g>
			<g id="shape118-45" v:mID="118" v:groupContext="shape" transform="translate(52.7596,-56.164)">
				<title>path46</title>
				<path d="M7.01 92.96 L1.04 92.96 C0.46 92.96 0 92.5 0 91.93 C0 91.36 0.46 90.89 1.04 90.89 L7.01 90.89 C11.82 90.89
							 15.74 86.98 15.74 82.17 C15.74 77.36 11.82 73.44 7.01 73.44 L2.07 73.44 L2.07 85.99 C2.07 86.56 1.61
							 87.03 1.04 87.03 C0.46 87.03 0 86.56 0 85.99 L0 71.37 L7.01 71.37 C12.97 71.37 17.81 76.21 17.81 82.17
							 C17.81 88.12 12.97 92.96 7.01 92.96 Z" class="st1"/>
			</g>
			<g id="shape119-47" v:mID="119" v:groupContext="shape" transform="translate(85.8934,-49.4774)">
				<title>path48</title>
				<path d="M17.67 92.96 C7.93 92.96 0 85.04 0 75.29 C0 65.55 7.93 57.63 17.67 57.63 C21.9 57.63 25.99 59.14 29.19 61.9
							 C29.63 62.27 29.67 62.93 29.3 63.36 C28.93 63.8 28.27 63.84 27.84 63.47 C25.01 61.04 21.4 59.7 17.67
							 59.7 C9.07 59.7 2.07 66.69 2.07 75.29 C2.07 83.89 9.07 90.89 17.67 90.89 C21.4 90.89 25.01 89.55 27.84
							 87.12 C28.27 86.74 28.93 86.79 29.3 87.23 C29.67 87.66 29.62 88.31 29.19 88.69 C25.99 91.44 21.9 92.96
							 17.67 92.96 Z" class="st1"/>
			</g>
			<g id="shape120-49" v:mID="120" v:groupContext="shape" transform="translate(91.7235,-55.2816)">
				<title>path50</title>
				<path d="M11.86 92.96 C5.32 92.96 0 87.64 0 81.1 C0 74.56 5.32 69.23 11.86 69.23 C14.7 69.23 17.45 70.25 19.6 72.1
							 C20.04 72.48 20.08 73.13 19.71 73.56 C19.34 74 18.68 74.05 18.25 73.67 C16.48 72.15 14.21 71.3 11.86
							 71.3 C6.46 71.3 2.07 75.7 2.07 81.1 C2.07 86.5 6.46 90.89 11.86 90.89 C14.21 90.89 16.48 90.05 18.25
							 88.52 C18.68 88.15 19.34 88.2 19.71 88.63 C20.08 89.06 20.03 89.72 19.6 90.09 C17.45 91.94 14.7 92.96
							 11.86 92.96 Z" class="st1"/>
			</g>
			<g id="shape121-51" v:mID="121" v:groupContext="shape" transform="translate(5.66747,-55.2816)">
				<title>path52</title>
				<path d="M11.68 92.96 C6.15 92.96 1.4 89.21 0.13 83.83 C0 83.27 0.34 82.72 0.9 82.59 C1.46 82.45 2.02 82.8 2.15 83.36
							 C3.19 87.79 7.11 90.89 11.68 90.89 C17.08 90.89 21.47 86.5 21.47 81.1 C21.47 75.7 17.08 71.31 11.68
							 71.31 C7.65 71.31 3.97 73.83 2.53 77.6 C2.33 78.13 1.73 78.4 1.19 78.19 C0.66 77.99 0.39 77.39 0.6 76.85
							 C2.34 72.3 6.8 69.23 11.68 69.23 C18.22 69.23 23.54 74.56 23.54 81.1 C23.54 87.64 18.22 92.96 11.68
							 92.96 Z" class="st1"/>
			</g>
		</g>
	</g>
</svg>
