<?xml version="1.0" encoding="UTF-8" standalone="no"?>
<!-- Created with Inkscape (http://www.inkscape.org/) -->

<svg
   xmlns:dc="http://purl.org/dc/elements/1.1/"
   xmlns:cc="http://creativecommons.org/ns#"
   xmlns:rdf="http://www.w3.org/1999/02/22-rdf-syntax-ns#"
   xmlns:svg="http://www.w3.org/2000/svg"
   xmlns="http://www.w3.org/2000/svg"
   xmlns:sodipodi="http://sodipodi.sourceforge.net/DTD/sodipodi-0.dtd"
   xmlns:inkscape="http://www.inkscape.org/namespaces/inkscape"
   width="29.104166mm"
   height="11.622767mm"
   viewBox="0 0 29.104167 11.622767"
   version="1.1"
   id="svg5305"
   inkscape:export-filename="C:\Users\dmarin\Dropbox\Pro\OpenDC\01 Templates\Logos\opendc_blue.png"
   inkscape:export-xdpi="96"
   inkscape:export-ydpi="96"
   inkscape:version="0.92.3 (2405546, 2018-03-11)"
   sodipodi:docname="wrapper-img.svg">
  <defs
     id="defs5299" />
  <sodipodi:namedview
     id="base"
     pagecolor="#ffffff"
     bordercolor="#666666"
     borderopacity="1.0"
     inkscape:pageopacity="0.0"
     inkscape:pageshadow="2"
     inkscape:zoom="15.839192"
     inkscape:cx="51.268794"
     inkscape:cy="9.6560005"
     inkscape:document-units="mm"
     inkscape:current-layer="layer1"
     showgrid="false"
     inkscape:window-width="3840"
     inkscape:window-height="2004"
     inkscape:window-x="-16"
     inkscape:window-y="-16"
     inkscape:window-maximized="1" />
  <metadata
     id="metadata5302">
    <rdf:RDF>
      <cc:Work
         rdf:about="">
        <dc:format>image/svg+xml</dc:format>
        <dc:type
           rdf:resource="http://purl.org/dc/dcmitype/StillImage" />
        <dc:title />
      </cc:Work>
    </rdf:RDF>
  </metadata>
  <g
     inkscape:label="Layer 1"
     inkscape:groupmode="layer"
     id="layer1"
     transform="translate(-66.186562,-36.105907)">
    <g
       id="g35">
      <path
         inkscape:export-filename="C:\Users\dmarin\Dropbox\Pro\OpenDC\01 Templates\Logos\images\logo_opendc_grey.png"
         inkscape:connector-curvature="0"
         id="path1127-3"
         d="m 83.991283,47.084424 c -1.039496,-2.097487 -2.703608,-5.410953 -2.745684,-5.467003 -0.124859,-0.16633 -0.308847,-0.559413 -0.420393,-0.898148 -0.151774,-0.460902 -0.19538,-1.138331 -0.106933,-1.661249 0.197908,-1.170054 0.939142,-2.152637 2.004158,-2.656713 0.519426,-0.245847 0.959897,-0.343384 1.550353,-0.343308 0.294919,4e-5 0.433634,0.01036 0.635862,0.04727 1.504672,0.274704 2.669632,1.457562 2.921341,2.966213 0.06162,0.369355 0.05281,0.958116 -0.01937,1.293279 -0.09477,0.440096 -0.268773,0.874876 -0.478761,1.196283 -0.08092,0.123843 -0.547071,1.054008 -1.593319,3.179312 -0.872704,1.772763 -1.443358,2.920655 -1.451957,2.920655 -0.0053,0 -0.13814,-0.259465 -0.295302,-0.576593 z m 0.684745,-5.716975 c 0.44216,-0.106007 0.784818,-0.330635 1.059606,-0.694625 0.507284,-0.671964 0.449205,-1.663645 -0.134346,-2.293935 -0.618005,-0.667503 -1.593192,-0.775091 -2.36313,-0.260713 -0.634129,0.423647 -0.929213,1.292228 -0.69165,2.035869 0.194322,0.608267 0.718735,1.085353 1.343496,1.222235 0.208096,0.04559 0.576266,0.04146 0.786024,-0.0088 z"
         style="display:inline;opacity:1;fill:#646174;fill-opacity:1;stroke-width:0.02155465"
         inkscape:export-xdpi="50.2061"
         inkscape:export-ydpi="50.2061" />
      <path
         inkscape:export-ydpi="50.2061"
         inkscape:export-xdpi="50.2061"
         inkscape:export-filename="C:\Users\dmarin\Dropbox\Pro\OpenDC\01 Templates\Logos\images\logo_opendc_grey.png"
         inkscape:connector-curvature="0"
         id="path1151-9"
         d="m 88.118816,39.490978 v -2.132571 l 0.650182,5.4e-4 c 1.254722,0.0011 1.982721,0.416508 2.332031,1.330624 0.391755,1.025199 0.09213,2.425375 -0.595062,2.780739 -0.39502,0.204267 -0.930762,0.202635 -0.930762,-0.0029 0,-0.09473 0.09669,-0.156053 0.246039,-0.156053 0.643867,0 1.182903,-0.950464 1.07167,-1.889633 -0.128551,-1.08545 -0.821628,-1.687354 -1.872784,-1.626426 l -0.537215,0.03112 -0.02834,1.898505 c -0.02383,1.592533 -0.05312,1.898507 -0.182042,1.898507 -0.130579,0 -0.153703,-0.320773 -0.153703,-2.132574 z"
         style="display:inline;fill:#646174;fill-opacity:1;stroke-width:0.10402773" />
      <path
         inkscape:export-ydpi="50.2061"
         inkscape:export-xdpi="50.2061"
         inkscape:export-filename="C:\Users\dmarin\Dropbox\Pro\OpenDC\01 Templates\Logos\images\logo_opendc_grey.png"
         inkscape:connector-curvature="0"
         id="path1153-6"
         d="m 92.77065,41.395961 c -0.754102,-0.335157 -1.293308,-1.154586 -1.286762,-1.955437 0.0049,-0.602781 0.489054,-1.491399 0.973395,-1.786693 0.283336,-0.172742 0.687036,-0.274008 1.093604,-0.274332 0.550165,-2.7e-4 0.724,0.07134 1.187915,0.490458 0.298889,0.270031 0.543438,0.606041 0.543438,0.74669 0,0.371988 -0.165765,0.305693 -0.476943,-0.190728 -0.384116,-0.612775 -1.206352,-0.869871 -1.880779,-0.588076 -0.701733,0.2932 -1.065696,0.93714 -0.994717,1.759892 0.07641,0.88575 0.618633,1.447481 1.492249,1.545949 0.591446,0.06667 0.641832,0.04347 1.238362,-0.570322 0.502208,-0.516733 0.621828,-0.587188 0.621828,-0.366251 0,0.424697 -0.60698,1.044474 -1.195626,1.22084 -0.661248,0.198113 -0.806182,0.194586 -1.315964,-0.03201 z"
         style="display:inline;fill:#646174;fill-opacity:1;stroke-width:0.13576177" />
      <text
         inkscape:export-filename="C:\Users\dmarin\Dropbox\Pro\OpenDC\01 Templates\Logos\images\logo_opendc_grey.png"
         xml:space="preserve"
         style="font-style:normal;font-variant:normal;font-weight:normal;font-stretch:normal;font-size:1.23472222px;line-height:1.25;font-family:sans-serif;-inkscape-font-specification:'sans-serif, Normal';font-variant-ligatures:normal;font-variant-caps:normal;font-variant-numeric:normal;font-feature-settings:normal;text-align:start;letter-spacing:0px;word-spacing:0px;writing-mode:lr;text-anchor:start;display:inline;fill:#3d5583;fill-opacity:1;stroke:none;stroke-width:0.03289058;"
         x="86.797844"
         y="44.297901"
         id="text1163-3"
         transform="scale(0.99373639,1.0063031)"
         inkscape:export-xdpi="50.2061"
         inkscape:export-ydpi="50.2061"><tspan
           id="tspan1157-1"
           sodipodi:role="line"
           x="86.797844"
           y="44.297901"
           style="font-style:normal;font-variant:normal;font-weight:normal;font-stretch:normal;font-size:1.23472222px;line-height:0;font-family:sans-serif;-inkscape-font-specification:'sans-serif, Normal';font-variant-ligatures:normal;font-variant-caps:normal;font-variant-numeric:normal;font-feature-settings:normal;text-align:start;letter-spacing:0px;writing-mode:lr;text-anchor:start;fill:#3d5583;fill-opacity:1;stroke-width:0.03289058;"><tspan
             dy="0"
             id="tspan1155-2"
             style="font-style:normal;font-variant:normal;font-weight:normal;font-stretch:normal;font-size:1.23472222px;line-height:0;font-family:sans-serif;-inkscape-font-specification:'sans-serif, Normal';font-variant-ligatures:normal;font-variant-caps:normal;font-variant-numeric:normal;font-feature-settings:normal;text-align:start;letter-spacing:0px;writing-mode:lr;text-anchor:start;fill:#3d5583;fill-opacity:1;stroke-width:0.03289058;">Open Data</tspan></tspan><tspan
           sodipodi:role="line"
           x="86.797844"
           y="45.963669"
           style="font-style:normal;font-variant:normal;font-weight:normal;font-stretch:normal;font-size:1.23472222px;font-family:sans-serif;-inkscape-font-specification:'sans-serif, Normal';font-variant-ligatures:normal;font-variant-caps:normal;font-variant-numeric:normal;font-feature-settings:normal;text-align:start;letter-spacing:0.09262878px;writing-mode:lr;text-anchor:start;fill:#3d5583;fill-opacity:1;stroke-width:0.03289058;"
           id="tspan1161-9" /></text>
      <text
         inkscape:export-filename="C:\Users\dmarin\Dropbox\Pro\OpenDC\01 Templates\Logos\images\logo_opendc_grey.png"
         inkscape:export-ydpi="50.2061"
         inkscape:export-xdpi="50.2061"
         transform="scale(1.0335611,0.96752866)"
         id="text1167-1"
         y="49.241234"
         x="81.835526"
         style="font-style:normal;font-variant:normal;font-weight:normal;font-stretch:normal;font-size:1.23472223px;line-height:1.25;font-family:sans-serif;-inkscape-font-specification:'sans-serif, Normal';font-variant-ligatures:normal;font-variant-caps:normal;font-variant-numeric:normal;font-feature-settings:normal;text-align:start;letter-spacing:0px;word-spacing:0px;writing-mode:lr;text-anchor:start;display:inline;fill:#3d5583;fill-opacity:1;stroke:none;stroke-width:0.03008333;"
         xml:space="preserve"><tspan
           id="tspan1165-5"
           style="font-style:normal;font-variant:normal;font-weight:normal;font-stretch:normal;font-size:1.23472223px;font-family:sans-serif;-inkscape-font-specification:'sans-serif, Normal';font-variant-ligatures:normal;font-variant-caps:normal;font-variant-numeric:normal;font-feature-settings:normal;text-align:start;writing-mode:lr;text-anchor:start;fill:#3d5583;fill-opacity:1;stroke-width:0.03008333;"
           y="49.241234"
           x="81.835526"
           sodipodi:role="line">Consultants</tspan></text>
    </g>
  </g>
</svg>
